<svg width="73" height="24" viewBox="0 0 73 24" fill="none" xmlns="http://www.w3.org/2000/svg">
<path d="M14.2595 16.2878L11.2909 7.93262H10.2654L7.29688 16.2878H8.59225L9.13199 14.6278H12.3164L12.8562 16.2878H14.2595ZM12.0466 13.5765H9.56378L10.8052 9.86924L12.0466 13.5765Z" fill="#030303"/>
<path d="M28.6482 9.04664V7.93262H23.0781V9.04664H25.2326V16.2878H26.4412V9.04664H28.6482Z" fill="#030303"/>
<path d="M36.0747 16.2878V15.1737H32.192V12.6115H35.4896V11.4418H32.192V9.04664H36.0747V7.93262H30.9688V16.2878H36.0747Z" fill="#030303"/>
<path d="M5.90213 13.9396C5.90213 15.4686 4.90372 16.2878 3.53747 16.2878H0.332031V15.141H3.43237C4.27314 15.141 4.74607 14.5949 4.74607 13.885C4.74607 13.1751 4.27314 12.629 3.43237 12.629H0.332031V11.4822H3.32727C4.11549 11.4822 4.64098 11.0453 4.64098 10.2808C4.64098 9.51627 4.11549 9.0794 3.32727 9.0794H0.332031V7.93262H3.43237C4.90372 7.93262 5.79703 8.80636 5.79703 10.1716C5.79703 11.0453 5.27155 11.7006 4.74607 11.9191C5.3241 12.2467 5.90213 12.902 5.90213 13.9396Z" fill="#030303"/>
<path d="M21.6827 13.9396C21.6827 15.4686 20.6011 16.2878 19.121 16.2878H15.6484V15.141H19.0071C19.918 15.141 20.4303 14.5949 20.4303 13.885C20.4303 13.1751 19.918 12.629 19.0071 12.629H15.6484V11.4822H18.8933C19.7472 11.4822 20.3165 11.0453 20.3165 10.2808C20.3165 9.51627 19.7472 9.0794 18.8933 9.0794H15.6484V7.93262H19.0071C20.6011 7.93262 21.5689 8.80636 21.5689 10.1716C21.5689 11.0453 20.9996 11.7006 20.4303 11.9191C21.0565 12.2467 21.6827 12.902 21.6827 13.9396Z" fill="#030303"/>
<path d="M40.9209 15.1912C41.3931 15.1912 41.8653 14.9823 42.1801 14.669C42.4424 14.3556 42.5998 14.0423 42.7048 13.4157H43.964C43.9115 14.199 43.7016 14.8778 43.1245 15.4C42.5474 15.9744 41.8128 16.2878 40.9209 16.2878C40.029 16.2878 39.2945 15.9744 38.7173 15.4C37.8779 14.5645 37.9303 13.6768 37.9303 12.1102C37.9303 10.5436 37.9303 9.60365 38.7173 8.82035C39.2945 8.24594 40.029 7.93262 40.9209 7.93262C41.8128 7.93262 42.5474 8.24594 43.1245 8.82035C43.6492 9.34255 43.859 10.0214 43.964 10.8047H42.7048C42.5998 10.1781 42.4424 9.86475 42.1801 9.55143C41.8653 9.23811 41.4456 9.02923 40.9209 9.02923C40.4487 9.02923 39.9765 9.23811 39.6617 9.55143C39.242 10.0214 39.1895 10.4914 39.1895 12.1624C39.1895 13.8334 39.2945 14.3034 39.6617 14.7734C39.9241 15.0345 40.3963 15.1912 40.9209 15.1912Z" fill="#030303"/>
<path d="M62.5312 11.8157V23.2497L72.2789 17.5562V6.0752L62.5312 11.8157Z" fill="#F59C00"/>
<path d="M53.25 6.0752V17.5562L62.5335 23.2497V11.8157L53.25 6.0752Z" fill="#EA5B0C"/>
<path d="M62.7389 0.969727L53.2461 6.51691L62.7389 12.1099L72.2773 6.51691L62.7389 0.969727Z" fill="#FDC300"/>
<path d="M62.2098 17.6527L57.3622 14.8127V9.31588L62.2098 6.56746L67.0574 9.31588V14.0798L62.8273 11.6978L62.1621 12.0643V12.7972L66.3922 15.1792L62.2098 17.6527ZM62.2098 19.0727L67.7226 15.8663L69.3384 16.7824L69.9565 16.4159V15.683L68.3883 14.8127V8.58298L62.2098 5.14746L56.0312 8.58298V15.4998L62.2098 19.0727Z" fill="white"/>
</svg>
