<svg width="155" height="49" viewBox="0 0 155 49" fill="none" xmlns="http://www.w3.org/2000/svg">
<path d="M30 33.0088L23.6047 15.0088H21.3953L15 33.0088H17.7907L18.9535 29.4326H25.814L26.9767 33.0088H30ZM25.2326 27.1677H19.8837L22.5581 19.181L25.2326 27.1677Z" fill="#030303"/>
<path d="M61 17.4088V15.0088H49V17.4088H53.6415V33.0088H56.2453V17.4088H61Z" fill="#030303"/>
<path d="M77 33.0088V30.6088H68.6354V25.0888H75.7396V22.5688H68.6354V17.4088H77V15.0088H66V33.0088H77Z" fill="#030303"/>
<path d="M12 27.95C12 31.2441 9.84906 33.0088 6.90566 33.0088H0V30.5382H6.67924C8.49057 30.5382 9.50943 29.3617 9.50943 27.8323C9.50943 26.3029 8.49057 25.1264 6.67924 25.1264H0V22.6558H6.45283C8.15094 22.6558 9.28302 21.7147 9.28302 20.0676C9.28302 18.4206 8.15094 17.4794 6.45283 17.4794H0V15.0088H6.67924C9.84906 15.0088 11.7736 16.8911 11.7736 19.8323C11.7736 21.7147 10.6415 23.1264 9.50943 23.597C10.7547 24.3029 12 25.7147 12 27.95Z" fill="#030303"/>
<path d="M46 27.95C46 31.2441 43.6698 33.0088 40.4811 33.0088H33V30.5382H40.2358C42.1981 30.5382 43.3019 29.3617 43.3019 27.8323C43.3019 26.3029 42.1981 25.1264 40.2358 25.1264H33V22.6558H39.9906C41.8302 22.6558 43.0566 21.7147 43.0566 20.0676C43.0566 18.4206 41.8302 17.4794 39.9906 17.4794H33V15.0088H40.2358C43.6698 15.0088 45.7547 16.8911 45.7547 19.8323C45.7547 21.7147 44.5283 23.1264 43.3019 23.597C44.6509 24.3029 46 25.7147 46 27.95Z" fill="#030303"/>
<path d="M87.4442 30.6463C88.4615 30.6463 89.4788 30.1963 90.1569 29.5213C90.7221 28.8463 91.0612 28.1713 91.2873 26.8213H94C93.887 28.5088 93.4348 29.9713 92.1915 31.0963C90.9482 32.3338 89.3657 33.0088 87.4442 33.0088C85.5227 33.0088 83.9402 32.3338 82.6969 31.0963C80.8884 29.2963 81.0014 27.3838 81.0014 24.0088C81.0014 20.6338 81.0014 18.6088 82.6969 16.9213C83.9402 15.6838 85.5227 15.0088 87.4442 15.0088C89.3657 15.0088 90.9482 15.6838 92.1915 16.9213C93.3218 18.0463 93.7739 19.5088 94 21.1963H91.2873C91.0612 19.8463 90.7221 19.1713 90.1569 18.4963C89.4788 17.8213 88.5745 17.3713 87.4442 17.3713C86.4269 17.3713 85.4096 17.8213 84.7314 18.4963C83.8272 19.5088 83.7141 20.5213 83.7141 24.1213C83.7141 27.7213 83.9402 28.7338 84.7314 29.7463C85.2966 30.3088 86.3139 30.6463 87.4442 30.6463Z" fill="#030303"/>
<path d="M134 23.3759V48.0088L155 35.7431V11.0088L134 23.3759Z" fill="#F59C00"/>
<path d="M114 11.0088V35.7431L134 48.0088V23.3759L114 11.0088Z" fill="#EA5B0C"/>
<path d="M134.451 0.00878906L114 11.9594L134.451 24.0088L155 11.9594L134.451 0.00878906Z" fill="#FDC300"/>
<path d="M133.311 35.9496L122.867 29.8312V17.9891L133.311 12.068L143.754 17.9891V28.2522L134.641 23.1207L133.208 23.9101V25.4891L142.321 30.6207L133.311 35.9496ZM133.311 39.0088L145.187 32.1009L148.668 34.0746L150 33.2851V31.7062L146.622 29.8312V16.4101L133.311 9.00879L120 16.4101V31.3114L133.311 39.0088Z" fill="white"/>
</svg>
