<svg width="77" height="26" viewBox="0 0 77 26" fill="none" xmlns="http://www.w3.org/2000/svg">
<path fill-rule="evenodd" clip-rule="evenodd" d="M4.13259 9.59319H7.15314C8.33617 9.59319 9.1485 10.1216 9.1485 11.4529C9.1485 12.802 8.19492 13.1662 7.10009 13.1662H4.13259V9.59319ZM1.35938 15.3907H7.47078C9.7493 15.3907 11.9217 14.2607 11.9217 11.6172C11.9217 9.99432 11.1445 8.77253 9.60805 8.31735C10.7029 7.77045 11.3209 6.87649 11.3209 5.60063C11.3209 3.17552 9.69625 2.37402 7.29439 2.37402H1.35938V15.3907ZM4.13259 4.59787H6.72874C7.71813 4.59787 8.63657 4.85321 8.63657 6.0928C8.63657 7.18659 7.91243 7.64243 6.94094 7.64243H4.13259V4.59787Z" fill="#00ADEF"/>
<path fill-rule="evenodd" clip-rule="evenodd" d="M18.56 11.7443C18.56 12.3097 18.489 13.9134 16.5288 13.9134C15.7165 13.9134 14.9923 13.6766 14.9923 12.7101C14.9923 11.7628 15.6986 11.489 16.4758 11.3248C17.2529 11.179 18.1362 11.1611 18.56 10.7778V11.7443ZM15.2748 8.86337C15.363 7.84281 15.9811 7.44171 16.9353 7.44171C17.8179 7.44171 18.56 7.60596 18.56 8.71755C18.56 9.77507 17.1296 9.72032 15.5925 9.95783C14.0388 10.1762 12.4844 10.6868 12.4844 12.8196C12.4844 14.7526 13.8617 15.6458 15.5925 15.6458C16.7052 15.6458 17.871 15.3358 18.6661 14.4788C18.6833 14.7889 18.7543 15.099 18.8425 15.3905H21.3862C21.1561 15.0079 21.0679 14.151 21.0679 13.294V8.38968C21.0679 6.12885 18.8776 5.70996 17.0586 5.70996C15.0096 5.70996 12.9081 6.43895 12.7669 8.86337H15.2748Z" fill="#00ADEF"/>
<path d="M22.3594 15.3905H24.8673V11.1427C24.8673 9.4835 25.5033 8.1166 27.3401 8.1166C27.6405 8.1166 28.0112 8.15285 28.2407 8.2076V5.801C28.0815 5.74624 27.87 5.70996 27.6936 5.70996C26.4748 5.70996 25.238 6.52995 24.7791 7.71547H24.744V5.96527H22.3594V15.3905Z" fill="#00ADEF"/>
<path d="M28.6406 15.3905H31.1486V9.92087C31.1486 8.07963 32.3495 7.75176 32.8442 7.75176C34.4337 7.75176 34.3634 9.00983 34.3634 10.1036V15.3905H36.8714V10.1399C36.8714 8.95505 37.136 7.75176 38.5491 7.75176C39.9795 7.75176 40.0856 8.79081 40.0856 10.0489V15.3905H42.5935V9.08239C42.5935 6.63948 41.1983 5.70996 39.2553 5.70996C37.9841 5.70996 37.0299 6.4574 36.5 7.27741C36.006 6.14734 34.9815 5.70996 33.8329 5.70996C32.6499 5.70996 31.6963 6.27466 31.0425 7.24115H31.0073V5.96527H28.6406V15.3905Z" fill="#00ADEF"/>
<path fill-rule="evenodd" clip-rule="evenodd" d="M52.5727 11.3069C52.7491 8.40817 51.2478 5.70996 48.1397 5.70996C45.3665 5.70996 43.4766 7.86127 43.4766 10.6868C43.4766 13.604 45.2604 15.6458 48.1397 15.6458C50.206 15.6458 51.7073 14.6978 52.4136 12.474H50.206C50.0469 13.0571 49.2345 13.6951 48.2279 13.6951C46.8327 13.6951 46.0555 12.9476 45.9845 11.3069H52.5727ZM45.9845 9.66623C46.0203 8.93658 46.4792 7.66072 48.0687 7.66072C49.2876 7.66072 49.8353 8.3534 50.0648 9.66623H45.9845Z" fill="#00ADEF"/>
<path d="M53.4062 15.3905H55.9142V10.45C55.9142 8.53549 56.4971 7.75176 57.8572 7.75176C59.023 7.75176 59.4646 8.51702 59.4646 10.0674V15.3905H61.9726V9.593C61.9726 7.25962 61.3015 5.70996 58.6344 5.70996C57.5747 5.70996 56.4792 6.22057 55.8439 7.27741H55.7909V5.96527H53.4062V15.3905Z" fill="#00ADEF"/>
<path fill-rule="evenodd" clip-rule="evenodd" d="M63.2891 15.3914H65.797V5.96616H63.2891V15.3914ZM65.797 2.37402H63.2891V4.50687H65.797V2.37402Z" fill="#00ADEF"/>
<path fill-rule="evenodd" clip-rule="evenodd" d="M72.81 11.7443C72.81 12.3097 72.739 13.9134 70.7788 13.9134C69.9665 13.9134 69.2423 13.6766 69.2423 12.7101C69.2423 11.7628 69.9486 11.489 70.7257 11.3248C71.5029 11.179 72.3862 11.1611 72.81 10.7778V11.7443ZM69.5248 8.86337C69.613 7.84281 70.2311 7.44171 71.1853 7.44171C72.0679 7.44171 72.81 7.60596 72.81 8.71755C72.81 9.77507 71.3796 9.72032 69.8425 9.95783C68.2887 10.1762 66.7344 10.6868 66.7344 12.8196C66.7344 14.7526 68.1117 15.6458 69.8425 15.6458C70.9552 15.6458 72.121 15.3358 72.9161 14.4788C72.9333 14.7889 73.0043 15.099 73.0925 15.3905H75.6362C75.4061 15.0079 75.3179 14.151 75.3179 13.294V8.38968C75.3179 6.12885 73.1276 5.70996 71.3086 5.70996C69.2596 5.70996 67.1581 6.43895 67.0169 8.86337H69.5248Z" fill="#00ADEF"/>
<path fill-rule="evenodd" clip-rule="evenodd" d="M45.7569 21.1733C45.8352 19.8913 45.1714 18.6982 43.7967 18.6982C42.5699 18.6982 41.7344 19.6497 41.7344 20.8989C41.7344 22.1891 42.5235 23.0919 43.7967 23.0919C44.7105 23.0919 45.3743 22.673 45.6866 21.6894H44.7105C44.6402 21.9475 44.2808 22.2295 43.8358 22.2295C43.2185 22.2295 42.875 21.8989 42.8438 21.1733H45.7569ZM42.8438 20.4478C42.859 20.1254 43.062 19.5607 43.7649 19.5607C44.304 19.5607 44.546 19.8673 44.6475 20.4478H42.8438Z" fill="#00ADEF"/>
<path fill-rule="evenodd" clip-rule="evenodd" d="M65.6319 21.1714C65.7102 19.8893 65.0464 18.6963 63.6717 18.6963C62.4449 18.6963 61.6094 19.6477 61.6094 20.8976C61.6094 22.1871 62.3985 23.09 63.6717 23.09C64.5855 23.09 65.2493 22.6711 65.5616 21.6875H64.5855C64.5152 21.9455 64.1558 22.2275 63.7102 22.2275C63.0935 22.2275 62.75 21.8969 62.7188 21.1714H65.6319ZM62.7188 20.4458C62.734 20.1234 62.937 19.5587 63.6399 19.5587C64.179 19.5587 64.421 19.8654 64.5225 20.4458H62.7188Z" fill="#00ADEF"/>
<path fill-rule="evenodd" clip-rule="evenodd" d="M24.9327 21.1792C25.011 19.8972 24.3472 18.7041 22.9725 18.7041C21.7457 18.7041 20.9102 19.6555 20.9102 20.9054C20.9102 22.195 21.6993 23.0978 22.9725 23.0978C23.8863 23.0978 24.5501 22.6788 24.8624 21.6953H23.8863C23.816 21.9533 23.4566 22.2353 23.0116 22.2353C22.3942 22.2353 22.0507 21.9047 22.0196 21.1792H24.9327ZM22.0196 20.4536C22.0348 20.1312 22.2377 19.5666 22.9407 19.5666C23.4798 19.5666 23.7218 19.8732 23.8233 20.4536H22.0196Z" fill="#00ADEF"/>
<path d="M21.517 17.2354L19.6675 22.9857H18.2869L16.4766 17.2354H17.7405L18.9812 21.2786L20.2531 17.2354H21.517Z" fill="#00ADEF"/>
<path d="M27.8638 19.4827C27.8638 19.5786 27.8664 19.6881 27.8638 19.8133C27.7676 19.7976 27.5673 19.7729 27.4659 19.7729C26.6542 19.7729 26.3737 20.3767 26.3737 21.1097V22.9859H25.2656V18.8222H26.3187V19.5957C26.5375 19.072 27.0833 18.71 27.6217 18.71C27.7 18.71 27.7935 18.7257 27.8638 18.7497V19.4827Z" fill="#00ADEF"/>
<path d="M27.9631 19.5087C28.2151 18.8872 28.9266 18.71 29.6229 18.71C30.5042 18.71 31.3159 19.0159 31.4021 20.0385H30.3484C30.3172 19.5957 29.9896 19.4752 29.5917 19.4752C29.3417 19.4752 28.975 19.5231 28.975 19.8619C28.975 20.2726 29.5997 20.3287 30.2317 20.4821C30.8789 20.6347 31.5108 20.8763 31.5108 21.6498C31.5108 22.7449 30.5904 23.0995 29.67 23.0995C28.7336 23.0995 27.8205 22.7367 27.7734 21.6334H28.8271C28.8351 22.133 29.2403 22.3343 29.6773 22.3343C29.9976 22.3343 30.4034 22.2049 30.4034 21.8024C30.4034 21.4561 29.9425 21.3356 29.1468 21.1583C28.5069 21.0132 27.8676 20.7798 27.8676 20.0467L27.8716 19.9242C27.8888 19.6689 27.9631 19.5087 27.9631 19.5087Z" fill="#00ADEF"/>
<path d="M31.8522 18.8213H32.9603V22.985H31.8522V18.8213ZM32.9596 18.1772H31.8516V17.2354H32.9596V18.1772Z" fill="#00ADEF"/>
<path d="M37.3345 20.2884H36.2503C36.18 19.8216 35.8908 19.5717 35.4306 19.5717C34.7204 19.5717 34.4863 20.3123 34.4863 20.9249C34.4863 21.5204 34.7131 22.2371 35.4074 22.2371C35.922 22.2371 36.2184 21.8989 36.2887 21.3917H37.3577C37.2178 22.4951 36.4764 23.0988 35.4154 23.0988C34.1979 23.0988 33.3789 22.2131 33.3789 20.9646C33.3789 19.6682 34.1276 18.71 35.4386 18.71C36.3902 18.71 37.2642 19.2254 37.3345 20.2884Z" fill="#00ADEF"/>
<path d="M37.6484 22.9856V17.2354H38.7565V19.4017C39.0609 18.9349 39.5443 18.709 39.9581 18.709C41.1358 18.709 41.4323 19.3935 41.4323 20.4243V22.9856H40.3248V20.6338C40.3248 19.9493 40.1299 19.6112 39.6146 19.6112C39.0138 19.6112 38.7565 19.9575 38.7565 20.8029V22.9856H37.6484Z" fill="#00ADEF"/>
<path d="M46.0938 22.9866V18.8229H47.1468V19.5957C47.3656 19.0728 47.9114 18.71 48.4499 18.71C48.5281 18.71 48.6216 18.7264 48.6919 18.7504V19.8133C48.5904 19.7894 48.4267 19.773 48.294 19.773C47.4824 19.773 47.2018 20.3774 47.2018 21.1097V22.9866H46.0938Z" fill="#00ADEF"/>
<path d="M53.0859 22.9866V18.8229H54.139V19.4027C54.4434 18.9358 54.9274 18.71 55.3956 18.71C56.574 18.71 56.8704 19.3944 56.8704 20.4253V22.9866H55.7623V20.6347C55.7623 19.9502 55.5674 19.6121 55.0521 19.6121C54.4513 19.6121 54.194 19.9585 54.194 20.8038V22.9866H53.0859Z" fill="#00ADEF"/>
<path d="M65.9609 22.9866V18.8229H67.014V19.4027C67.3184 18.9358 67.8025 18.71 68.2706 18.71C69.4483 18.71 69.7454 19.3944 69.7454 20.4253V22.9866H68.6373V20.6347C68.6373 19.9502 68.4424 19.6121 67.9271 19.6121C67.3263 19.6121 67.069 19.9585 67.069 20.8038V22.9866H65.9609Z" fill="#00ADEF"/>
<path d="M52.5814 18.8115V22.9752H51.5283V22.3954C51.2239 22.8623 50.7398 23.0881 50.2717 23.0881C49.094 23.0881 48.7969 22.4037 48.7969 21.3728V18.8115H49.905V21.1634C49.905 21.8479 50.0999 22.186 50.6152 22.186C51.216 22.186 51.4733 21.8396 51.4733 20.9943V18.8115H52.5814Z" fill="#00ADEF"/>
<path fill-rule="evenodd" clip-rule="evenodd" d="M58.2658 20.7565C58.2658 21.3575 58.4893 22.1077 59.2625 22.1077C59.9733 22.1077 60.3062 21.478 60.3062 20.853C60.3062 20.1658 60.0708 19.4704 59.2625 19.4704C58.5529 19.4704 58.2658 20.1172 58.2658 20.7565ZM61.2605 18.8229V22.7203C61.2605 23.4055 61.0264 24.565 59.1696 24.565C58.3739 24.565 57.4455 24.1782 57.3904 23.2282H58.4906C58.592 23.6546 58.9276 23.7997 59.3182 23.7997C59.9342 23.7997 60.2154 23.3651 60.2074 22.7689V22.2213C59.9501 22.656 59.4661 22.8654 58.9826 22.8654C57.7731 22.8654 57.2578 21.9153 57.2578 20.7716C57.2578 19.6922 57.8586 18.71 58.9899 18.71C59.5204 18.71 59.9263 18.8954 60.1915 19.3787L60.2074 18.8229H61.2605Z" fill="#00ADEF"/>
</svg>
