<svg width="33" height="31" viewBox="0 0 33 31" fill="none" xmlns="http://www.w3.org/2000/svg">
<path d="M32.9561 15.9592C32.4351 7.62236 25.2706 0.969727 16.4995 0.969727C7.72849 0.969727 0.564021 7.62236 0.0429688 15.9592C0.0429688 16.296 0.0863898 16.6329 0.129811 16.9697C0.477179 19.7487 1.56271 22.3171 3.21271 24.4645C6.20876 28.4224 11.0285 30.9908 16.4995 30.9908C8.85744 30.9908 2.60481 25.2224 2.08376 17.9803C2.04034 17.6434 2.04034 17.3066 2.04034 16.9697C2.04034 16.6329 2.04034 16.296 2.08376 15.9592C2.60481 8.71709 8.85744 2.94867 16.4995 2.94867C21.9706 2.94867 26.7903 5.5171 29.7864 9.47499C31.4364 11.6224 32.5219 14.1908 32.8693 16.9697C32.9127 17.3066 32.9561 17.6434 32.9561 17.9381C32.9561 17.6013 32.9995 17.2645 32.9995 16.9276C32.9995 16.6329 32.9995 16.296 32.9561 15.9592" fill="#89D329"/>
</svg>
