<svg width="73" height="17" viewBox="0 0 73 17" fill="none" xmlns="http://www.w3.org/2000/svg">
<g clip-path="url(#clip0_308_1903)">
<path d="M5.01678 7.91558H3.28843C1.1752 7.91558 1.14266 4.73146 3.21768 4.73146H5.03306V3.5459H2.94955C-1.13399 3.5459 -0.774597 9.16629 2.77975 9.16629H5.01678V7.91558" fill="#009FE3"/>
<path d="M5.01679 7.91694H3.28843C1.1752 7.91694 1.14266 4.73282 3.21768 4.73282H5.03306V3.54726H2.94955C-1.13399 3.54726 -0.774597 9.16765 2.77975 9.16765H5.01679V7.91694V7.91694ZM28.5714 5.85391V7.15348C28.5877 7.77035 29.0285 7.85179 29.3497 7.85179H30.1802V9.16765H28.6867C27.6192 9.15136 27.0093 8.59896 26.9923 7.51044V3.46582H28.5714V4.71653H30.1809V5.85391H28.5714ZM31.1438 9.13507V3.48211H32.6514V4.70364H33.9058C34.2595 4.68735 35.9221 4.89908 35.8867 6.39342V9.13846H34.3444V6.64994C34.3444 6.22783 34.1923 6.0161 33.5825 6.0161H32.6182V9.13779H31.1438V9.13507ZM26.0436 4.71653V9.15475H23.2137C22.86 9.17104 21.1974 8.95999 21.2484 7.46565V4.71653H22.8409V7.21863C22.8409 7.6258 22.9937 7.8355 23.6035 7.8355H24.4681V4.71382H26.0436" fill="#009FE3"/>
<path d="M26.0425 4.71658V9.1548H23.2126C22.8589 9.17109 21.1963 8.96004 21.2472 7.4657V4.71658H22.8398V7.21868C22.8398 7.62586 22.9926 7.83555 23.6024 7.83555H24.467V4.71387H26.0425" fill="#009FE3"/>
<path d="M42.5977 3.46582H44.2072V9.16765H42.5977V3.46582Z" fill="#009FE3"/>
<path d="M41.732 7.91623H39.0577C37.8352 7.91623 37.7531 6.01607 39.0238 6.01607L40.0241 6.03236L39.0747 7.6407H40.6842L41.6846 6.01607V4.71582H38.8879C35.7185 4.71582 35.7708 9.15404 38.7698 9.15404H41.732V7.91623Z" fill="#009FE3"/>
<path d="M41.7296 7.9156H39.0553C37.8328 7.9156 37.7508 6.01544 39.0214 6.01544L40.0218 6.03173L39.0723 7.64008H40.6818L41.6822 6.01544V4.71519H38.8855C35.7161 4.71519 35.7684 9.15342 38.7674 9.15342H41.7296V7.9156ZM20.4007 7.88302H17.7236C16.5011 7.88302 16.402 5.98287 17.6726 5.98287L18.6723 5.99983L17.7406 7.6075H19.3501L20.3327 5.98287V4.68262H17.5538C14.402 4.68262 14.4409 9.10116 17.4187 9.10116H20.4007V7.88302" fill="#009FE3"/>
<path d="M20.4007 7.88302H17.7236C16.5011 7.88302 16.402 5.98287 17.6726 5.98287L18.6723 5.99983L17.7406 7.6075H19.3501L20.3327 5.98287V4.68262H17.5538C14.402 4.68262 14.4409 9.10116 17.4187 9.10116H20.4007V7.88302" fill="#009FE3"/>
<path d="M13.1695 6.58413C15.4872 6.27943 15.4009 10.6932 12.5257 10.6932H0.15625V9.49409H12.0001C13.6853 9.49409 13.4256 7.28447 12.2548 7.28447H10.7294V6.06294H11.9838C12.958 6.06294 13.2212 4.6989 11.7631 4.6989H10.3396V9.21381H8.76409V3.48145H12.3899C14.9191 3.48145 14.8979 6.35679 13.1695 6.58413Z" fill="#009FE3"/>
<path d="M5.98438 7.85059H7.64553V9.18273H5.98438V7.85059Z" fill="#009FE3"/>
<path d="M5.98438 7.85059H7.64553V9.18273H5.98438V7.85059Z" fill="#009FE3"/>
<path d="M45.279 3.75209C45.279 3.81453 45.2597 3.87556 45.2236 3.92747C45.1874 3.97938 45.136 4.01983 45.0758 4.04369C45.0156 4.06756 44.9495 4.07377 44.8856 4.06153C44.8218 4.0493 44.7632 4.01918 44.7172 3.97498C44.6712 3.93078 44.6399 3.87449 44.6273 3.81323C44.6147 3.75197 44.6213 3.6885 44.6463 3.63085C44.6713 3.57321 44.7136 3.52397 44.7678 3.48938C44.822 3.45478 44.8857 3.43639 44.9508 3.43652C45.0378 3.43688 45.1212 3.47027 45.1827 3.52939C45.2442 3.58851 45.2789 3.66857 45.279 3.75209ZM44.6685 3.75209C44.6685 3.80577 44.6851 3.85826 44.7162 3.9029C44.7473 3.94754 44.7915 3.98233 44.8432 4.00287C44.8949 4.02342 44.9518 4.0288 45.0067 4.01832C45.0616 4.00785 45.112 3.98199 45.1516 3.94403C45.1912 3.90607 45.2181 3.8577 45.229 3.80504C45.24 3.75239 45.2343 3.69781 45.2129 3.64821C45.1915 3.5986 45.1552 3.55621 45.1087 3.52638C45.0622 3.49656 45.0075 3.48063 44.9515 3.48063C44.8764 3.48063 44.8045 3.50923 44.7514 3.56014C44.6983 3.61105 44.6685 3.68009 44.6685 3.75209ZM44.9685 3.57429C44.9918 3.57429 45.1008 3.57429 45.1008 3.67269C45.1023 3.69308 45.096 3.71331 45.0829 3.72948C45.0698 3.74564 45.051 3.7566 45.03 3.76023C45.0817 3.7738 45.0909 3.80366 45.093 3.85049C45.093 3.91156 45.093 3.91835 45.105 3.93396H45.0562C45.0491 3.9231 45.0463 3.91224 45.0449 3.8661C45.0449 3.80909 45.0343 3.77991 44.9479 3.77991H44.8546V3.93599H44.8065V3.57429H44.9685ZM44.8574 3.74123H44.9522C44.977 3.74123 45.0534 3.74123 45.0534 3.67337C45.0534 3.6055 44.9826 3.61432 44.9607 3.61432H44.8574V3.74123Z" fill="#009FE3"/>
<path d="M47.9492 0.969727H48.3588V16.9697H47.9492V0.969727Z" fill="#1D1D1B"/>
<path fill-rule="evenodd" clip-rule="evenodd" d="M61.6858 1.21777H62.2681C62.3183 1.21777 62.2907 1.25578 62.3388 1.25578C62.3869 1.25578 62.3303 1.21777 62.3792 1.21777C62.428 1.21777 62.37 1.25578 62.4202 1.25578H62.6883C63.1574 1.25578 63.2239 1.67856 63.7248 1.66295V1.72131C64.0467 1.78918 64.2391 2.08506 64.5504 2.2045C64.5558 2.26675 64.5828 2.32546 64.627 2.37132C64.6713 2.41719 64.7302 2.44756 64.7945 2.45763C64.7145 2.63271 64.9232 2.67547 64.9763 2.81391C64.8992 2.83766 64.7159 2.76437 64.6749 2.86684C64.7323 2.95022 64.8073 3.02117 64.8949 3.07518V3.14304C64.8131 3.1496 64.7358 3.18179 64.6749 3.23465C64.6834 3.24212 64.7131 3.31948 64.7923 3.30252V3.43281C64.7655 3.43281 64.7563 3.46403 64.752 3.51086H64.6409C64.5235 3.37513 64.3813 3.41721 64.2384 3.26044H64.1259C64.1089 3.27809 64.1118 3.28148 64.1118 3.32831C64.1118 3.45521 64.3155 3.52714 64.4117 3.59501V3.7253H64.341C64.2816 3.65065 64.0537 3.39956 63.9731 3.39956C63.9229 3.39956 63.9526 3.43756 63.9023 3.43756C63.8521 3.43756 63.6604 3.38056 63.5139 3.35952C63.4835 3.27741 63.3265 3.07246 63.2189 3.07246C63.0421 3.07246 62.9954 3.18851 62.9642 3.35952C62.8765 3.35952 62.7753 3.43756 62.7258 3.43756C62.6763 3.43756 62.6261 3.39956 62.6133 3.39956H62.1959C62.1874 3.39956 62.0898 3.36156 62.082 3.36156C61.9525 3.36156 61.8917 3.47692 61.821 3.47692C61.6795 3.47692 61.8167 3.3412 61.6264 3.3602C61.5493 3.29234 60.2525 2.22011 60.2525 1.82718C60.2525 1.64599 60.394 1.63784 60.5178 1.4519H60.9232C61.1489 1.44986 61.4417 1.3345 61.6858 1.21777V1.21777ZM54.3783 4.21052H55.3143C55.4558 4.41411 55.8499 4.45415 56.1527 4.50437C56.4633 4.80975 56.8156 5.11513 57.2075 5.29225C57.2726 5.47412 57.2868 5.75983 57.5528 5.83515C57.511 5.90302 57.4113 5.93491 57.4113 5.9831C57.4113 6.03128 57.5103 6.06453 57.5528 6.12425V6.19211H57.3787C57.3547 6.16225 57.1332 5.9037 57.0519 5.9037C56.9705 5.9037 56.9408 5.98038 56.8396 5.98038C56.6278 5.9415 56.4186 5.89097 56.2128 5.82905L56.0006 5.8433C56.0227 5.88179 56.0493 5.91776 56.0798 5.95052V6.05978H55.9808C55.9305 6.05978 55.9928 6.02178 55.9418 6.02042H55.8379C55.8253 6.06465 55.8191 6.11031 55.8195 6.15615H55.7162C55.6522 6.13839 55.5939 6.10521 55.5471 6.05978H55.2747C55.1863 6.16293 54.921 6.16497 54.921 6.34073C54.921 6.38824 55.0207 6.55246 55.0207 6.59997C55.0207 6.64747 54.9075 6.70448 54.875 6.73569H54.592C54.5757 6.75402 54.5793 6.76555 54.5793 6.81441C54.5793 6.86328 54.5736 6.8721 54.6189 6.89992C54.5735 6.95204 54.5317 7.0069 54.4937 7.06415H54.4229C53.9057 6.80559 52.2227 5.53792 52.2227 5.20267C52.2227 4.94887 53.4742 4.42157 53.6793 4.34421H53.9623C54.014 4.34421 54.0777 4.26685 54.1293 4.2682H54.3812L54.3783 4.21052ZM72.1961 6.27423V6.40317C72.0442 6.50539 71.9253 6.64647 71.8529 6.81034H71.7185C71.7185 6.78455 71.6761 6.76487 71.6768 6.73841C71.9117 6.71466 72.044 6.38891 72.1961 6.27423ZM71.4518 6.52532V6.59793C71.4306 6.60549 71.412 6.61835 71.3978 6.63519C71.3836 6.65202 71.3744 6.6722 71.3711 6.69362H71.2947C71.3295 6.62443 71.3839 6.56609 71.4518 6.52532V6.52532ZM71.6011 6.96982H71.6718V7.09808C71.6365 7.11515 71.6074 7.14213 71.5883 7.17544H71.4525C71.5155 7.11687 71.566 7.04701 71.6011 6.96982V6.96982ZM62.1379 15.8286C62.1379 15.8544 62.1308 15.8843 62.1032 15.8802C62.1004 15.8544 62.1096 15.8252 62.1379 15.8286Z" fill="#009FE3"/>
<path fill-rule="evenodd" clip-rule="evenodd" d="M59.2244 16.2531H59.7408V16.3637H59.264C59.264 16.3372 59.2506 16.3271 59.2244 16.3257V16.2531ZM58.4999 16.2531H58.6145V16.3637H58.4398V16.2911C58.4667 16.2897 58.4957 16.2802 58.4999 16.2531ZM66.4802 13.2407V13.3493C66.442 13.409 66.3387 13.4293 66.2956 13.4884H66.2248V13.4205C66.2892 13.3784 66.3748 13.3072 66.4802 13.2407ZM66.6465 13.0697H66.742V13.1586C66.7151 13.1586 66.6833 13.1701 66.6812 13.1966H66.6104C66.6048 13.1341 66.6437 13.1144 66.6465 13.0697V13.0697ZM67.332 11.8916H67.3667C67.3672 11.894 67.3672 11.8966 67.3665 11.899C67.3659 11.9015 67.3647 11.9037 67.3631 11.9057C67.3614 11.9076 67.3593 11.9092 67.357 11.9103C67.3546 11.9113 67.352 11.9119 67.3494 11.9119C67.3468 11.9119 67.3442 11.9113 67.3418 11.9103C67.3394 11.9092 67.3373 11.9076 67.3357 11.9057C67.334 11.9037 67.3328 11.9015 67.3322 11.899C67.3316 11.8966 67.3315 11.894 67.332 11.8916ZM67.4261 11.8339C67.4261 11.8603 67.4191 11.8888 67.3915 11.8868C67.3886 11.8603 67.3992 11.8318 67.4261 11.8339ZM68.5418 10.8512H68.6755V10.9191C68.6104 10.9415 68.5758 10.9958 68.534 11.0548H68.4633V10.9266C68.4976 10.9107 68.5253 10.8841 68.5418 10.8512ZM69.1616 10.2323C69.2176 10.2374 69.2721 10.2526 69.3222 10.2771C69.1425 10.4549 68.9592 10.6456 68.7647 10.8092C68.7642 10.798 68.7593 10.7874 68.751 10.7795C68.7428 10.7716 68.7318 10.7669 68.7201 10.7664C68.7626 10.6694 69.03 10.231 69.1594 10.231L69.1616 10.2323ZM69.5153 9.98122C69.5202 9.99802 69.5202 10.0158 69.5152 10.0326C69.5102 10.0493 69.5004 10.0645 69.487 10.0762C69.4824 10.0593 69.4825 10.0414 69.4873 10.0245C69.4922 10.0076 69.5016 9.99218 69.5146 9.97987L69.5153 9.98122ZM68.0678 8.45635V8.54864H67.9758C67.9716 8.50317 68.036 8.47603 68.0671 8.45499L68.0678 8.45635ZM70.4315 8.41902H70.5666V8.54389C70.2532 8.79838 70.0608 9.21709 69.7084 9.45597C69.7028 9.40914 69.6632 9.40914 69.6632 9.3596C69.6625 9.29785 70.2992 8.69319 70.4308 8.41767L70.4315 8.41902ZM70.169 7.68543H70.2631C70.2631 7.71122 70.2773 7.72139 70.3063 7.72682C70.2539 7.77294 70.1936 7.80992 70.128 7.83608V7.72954C70.1244 7.67796 70.1641 7.71122 70.169 7.68543V7.68543ZM70.3105 7.47234H70.4647V7.5402C70.423 7.5816 70.3827 7.63996 70.3353 7.68136C70.2787 7.6291 70.2645 7.60942 70.2645 7.57413C70.2645 7.52595 70.2864 7.51441 70.3105 7.47234V7.47234ZM70.643 7.43162V7.54224C70.5638 7.60263 70.5015 7.65964 70.4308 7.72004V7.59381C70.4463 7.5816 70.5284 7.55377 70.5093 7.47777C70.557 7.47236 70.6027 7.45658 70.643 7.43162V7.43162ZM69.8294 6.89279H69.9228V7.02173C69.7155 7.17849 69.4608 7.40787 69.2238 7.54699V7.39701C69.3399 7.35969 69.5365 7.17374 69.5648 7.06652C69.7014 7.05091 69.7311 6.97355 69.8294 6.89279V6.89279ZM55.5632 6.02618H55.595C55.5964 6.02877 55.597 6.03163 55.5968 6.0345C55.5966 6.03737 55.5957 6.04015 55.5941 6.04259C55.5925 6.04502 55.5903 6.04703 55.5877 6.04842C55.5851 6.04981 55.5821 6.05054 55.5791 6.05054C55.5761 6.05054 55.5732 6.04981 55.5706 6.04842C55.5679 6.04703 55.5657 6.04502 55.5641 6.04259C55.5625 6.04015 55.5616 6.03737 55.5615 6.0345C55.5613 6.03163 55.5619 6.02877 55.5632 6.02618ZM72.9989 4.17285C72.694 4.62753 72.2653 5.08018 71.9717 5.53893C71.8379 5.56947 70.8489 6.43743 70.8489 6.64916C70.8489 6.6987 70.9104 6.70753 70.9104 6.75639C70.9104 6.81678 70.5107 7.24296 70.4669 7.32779V7.41873C70.4853 7.43501 70.4669 7.43094 70.5171 7.43094C70.5673 7.43094 70.9564 7.05838 71.0371 6.93012L71.1078 6.96337H71.0427C70.9981 7.05455 70.9302 7.13345 70.8454 7.19274C70.8719 7.22332 70.9063 7.24672 70.9451 7.26061V7.34747C70.7706 7.51148 70.608 7.68675 70.4584 7.87205H70.3013V8.00099C70.3211 8.01728 70.3324 8.01388 70.3834 8.01388C70.694 8.01388 71.0866 7.45673 71.2154 7.35969H71.2861V7.46759C71.064 7.73904 70.8029 7.99081 70.5624 8.27719V8.36473C70.6806 8.38359 70.7958 8.41736 70.9048 8.46517C70.5701 8.80448 69.6985 9.76542 69.6985 9.82853C69.6985 9.85025 69.7488 9.8964 69.8181 9.90793V10.0145C69.7749 10.0823 69.6589 10.1217 69.6561 10.2276C69.3426 10.4125 69.0851 10.6729 68.909 10.9829C68.7753 11.0141 68.5446 11.1824 68.5715 11.3853C67.9468 11.8352 67.5528 12.3076 67.0222 12.7527C67.042 12.7853 67.0823 12.805 67.0929 12.8389C67.9758 12.1813 69.0738 11.2781 69.7403 10.3131H69.8146C68.6918 11.766 67.1672 13.3479 65.5867 13.9777C65.4671 14.1046 65.3037 14.2206 65.1841 14.3591C64.7505 14.4364 64.3812 14.7696 64.0522 14.9189C63.8173 14.8701 63.5973 14.9562 63.6327 15.2073C63.6008 15.187 63.5577 15.1306 63.5081 15.1306C63.3999 15.1306 62.4717 15.5236 62.4717 15.6138C62.4717 15.6627 62.4908 15.6776 62.5099 15.7455C62.4816 15.7455 62.4717 15.7577 62.4653 15.7869C62.4277 15.756 62.4004 15.7151 62.3868 15.6695H62.3352C62.3233 15.6937 62.3173 15.7201 62.3175 15.7468C62.2443 15.7419 62.171 15.7557 62.1052 15.7869C62.0996 15.738 62.0592 15.7061 62.0458 15.6702C61.922 15.757 61.8619 15.9043 61.7911 15.9986H61.5562C61.5053 15.9986 61.5661 15.9606 61.5159 15.9606H61.2096C61.1862 16.0855 61.0023 15.9857 60.9266 16.0767H60.4844C60.4688 16.1113 60.4306 16.1153 60.4306 16.1628C60.4292 16.1738 60.4302 16.1848 60.4336 16.1954C60.4369 16.2059 60.4424 16.2156 60.4499 16.224C60.4573 16.2323 60.4665 16.2391 60.4768 16.2439C60.4872 16.2487 60.4984 16.2514 60.5099 16.2517C60.5601 16.2517 60.5396 16.211 60.5898 16.211C60.64 16.211 60.6273 16.2341 60.645 16.2517H61.0136C61.0631 16.2517 61.0023 16.211 61.0532 16.2137H61.1515C61.1515 16.2402 61.1636 16.2517 61.1933 16.2558C61.1625 16.2904 61.1341 16.3269 61.1084 16.3651H61.0532C61.0023 16.3651 61.0532 16.3271 61.0023 16.3271C60.9513 16.3271 61.0023 16.3664 60.9527 16.3664H60.6507C60.6004 16.3664 60.6606 16.3271 60.611 16.3271C60.5615 16.3271 60.6209 16.3664 60.57 16.3664C60.5191 16.3664 60.5601 16.3271 60.5099 16.3271C60.4596 16.3271 60.2877 16.3271 60.2021 16.4044H59.9262C59.8753 16.4044 59.9064 16.4146 59.9036 16.4404C59.8753 16.4404 59.8753 16.4044 59.8264 16.4044C59.7899 16.4066 59.7544 16.4165 59.7222 16.4332C59.6901 16.45 59.6622 16.4733 59.6404 16.5015H59.3638C59.3135 16.5015 59.373 16.5402 59.3227 16.5402H58.6796C58.6287 16.5402 58.6895 16.5022 58.64 16.5001H58.3195C58.3195 16.4723 58.3195 16.4594 58.304 16.4438H57.9559C57.9049 16.4438 57.9658 16.4044 57.9149 16.4044H57.4239C57.385 16.4044 57.1005 16.2897 57.0496 16.2897C56.9987 16.2897 57.0602 16.3271 57.0093 16.3271H56.6938C56.34 16.0129 55.6821 16.1574 55.3446 15.829C53.3269 15.5724 51.7811 14.2864 50.4531 12.9061V12.7398C50.717 12.8287 50.7771 12.6 50.9349 12.4942C50.8946 12.4134 50.8076 12.3999 50.7538 12.3632C50.7757 12.3367 50.7934 12.2953 50.8429 12.2953C51.2384 12.2953 51.6212 13.035 51.8334 13.166C52.4107 13.6085 53.2257 13.8725 54.0577 13.9804C54.2332 14.0842 54.7652 14.184 54.9894 14.184H55.5406C55.5908 14.184 55.5406 14.2233 55.5908 14.2233C55.641 14.2233 55.6205 14.2131 55.6233 14.1867C55.6509 14.1867 55.6297 14.2233 55.6807 14.2233H56.4858C56.5367 14.2233 56.4858 14.184 56.5367 14.184C56.5876 14.184 56.5565 14.2233 56.6074 14.2233C56.6584 14.2233 56.6584 14.184 56.7086 14.184C56.7588 14.184 56.7305 14.2233 56.7794 14.2233H57.0878C57.138 14.2233 57.0765 14.184 57.1288 14.184H57.5385C57.5986 14.184 57.7408 14.1955 57.7967 14.108H58.0797C58.1809 14.108 58.2919 14.0055 58.3662 13.9777C60.1774 13.7008 61.6086 12.6713 63.1862 11.9594C64.0536 11.3276 65.0575 10.6809 65.9822 10.0762C66.6274 9.51433 67.2457 8.83095 68.0119 8.45703C68.0119 8.10821 68.5206 8.14622 68.5347 7.80147C69.0703 7.50423 69.596 6.97219 70.0077 6.52362H70.1492C70.1994 6.52362 70.1605 6.5623 70.2122 6.5623C70.2192 6.5623 71.122 5.38692 71.8889 4.96345C71.688 5.18808 71.3356 5.48328 71.1156 5.74387V5.82938H71.2741C71.2904 5.81106 71.2882 5.77916 71.2882 5.73709C71.804 5.23965 72.3105 4.9716 72.7032 4.37983C72.8949 4.40426 72.8617 4.26854 72.9989 4.17285V4.17285Z" fill="#009FE3"/>
<path d="M16.1968 14.6318H15.3945V11.4613H16.1968C16.9276 11.4613 17.2439 12.0904 17.2439 13.0316C17.2439 13.9729 16.8944 14.6318 16.1968 14.6318V14.6318ZM16.1827 11.8983H15.8565V14.1975H16.1968C16.6397 14.1975 16.767 13.5908 16.767 13.0343C16.767 12.4779 16.6446 11.8983 16.1827 11.8983V11.8983ZM18.7862 14.6318V14.4689C18.7239 14.5394 18.6456 14.5952 18.5572 14.632C18.4689 14.6688 18.373 14.6857 18.2768 14.6814C17.9138 14.6814 17.6026 14.4194 17.6026 13.8853C17.6026 13.3696 17.9372 13.1069 18.4091 13.1069C18.5392 13.1052 18.668 13.1314 18.7862 13.1836V12.9542C18.7862 12.7235 18.7062 12.6149 18.4657 12.6149C18.292 12.6186 18.1232 12.6705 17.9796 12.7642L17.7865 12.4337C17.9965 12.2946 18.2438 12.2161 18.4989 12.2078C19.0317 12.2078 19.2389 12.389 19.2389 12.9183V14.6332L18.7862 14.6318ZM18.7862 13.5908C18.6747 13.5247 18.5448 13.4932 18.414 13.5005C18.2018 13.5005 18.0553 13.6179 18.0553 13.8758C18.0553 14.1568 18.1728 14.2878 18.3666 14.2878C18.4511 14.2916 18.5351 14.2729 18.6091 14.2338C18.6832 14.1946 18.7445 14.1364 18.7862 14.0658V13.5908ZM20.39 14.6814C20.1157 14.6747 19.8503 14.5862 19.6309 14.4282L19.8056 14.0658C20.032 14.2016 20.216 14.2694 20.3808 14.2694C20.5839 14.2694 20.7062 14.1656 20.7062 14.0115C20.7062 13.8446 20.5739 13.7584 20.2301 13.5684C19.9231 13.3967 19.7158 13.2427 19.7158 12.8667C19.7158 12.4555 19.9754 12.2064 20.4233 12.2064C20.6674 12.2081 20.9043 12.286 21.0982 12.4283L20.9135 12.7948C20.7688 12.69 20.595 12.6286 20.4141 12.6183C20.2443 12.6183 20.1686 12.7086 20.1686 12.826C20.1686 12.9712 20.2393 13.0431 20.5739 13.2291C20.9468 13.4374 21.159 13.5908 21.159 13.9803C21.159 14.433 20.8711 14.6814 20.39 14.6814V14.6814ZM23.3762 14.6814C22.961 14.6814 22.6921 14.4737 22.5032 14.1656L22.8669 13.8853C23.0459 14.1568 23.2015 14.2382 23.4045 14.2382C23.6543 14.2382 23.8007 14.093 23.8007 13.8351C23.8007 13.5908 23.6925 13.451 23.2489 13.1701C22.8761 12.9346 22.5839 12.7038 22.5839 12.2064C22.5839 11.7449 22.9044 11.4144 23.4187 11.4144C23.8007 11.4144 24.0229 11.5685 24.221 11.844L23.8807 12.1338C23.7208 11.9302 23.6118 11.8576 23.4045 11.8576C23.1831 11.8576 23.06 11.9933 23.06 12.1928C23.06 12.4283 23.1732 12.5593 23.5411 12.7853C23.9521 13.0391 24.2776 13.2834 24.2776 13.8127C24.2776 14.3196 23.9613 14.6814 23.3762 14.6814V14.6814ZM25.7675 14.6318V14.4689C25.7052 14.5394 25.6269 14.5951 25.5386 14.6319C25.4503 14.6688 25.3543 14.6857 25.2581 14.6814C24.8945 14.6814 24.5832 14.4194 24.5832 13.8853C24.5832 13.3696 24.9185 13.1069 25.3904 13.1069C25.5205 13.1052 25.6493 13.1314 25.7675 13.1836V12.9542C25.7675 12.7235 25.6876 12.6149 25.447 12.6149C25.2733 12.6184 25.1045 12.6703 24.961 12.7642L24.7671 12.4337C24.9772 12.2947 25.2245 12.2162 25.4796 12.2078C26.013 12.2078 26.2203 12.389 26.2203 12.9183V14.6332L25.7675 14.6318ZM25.7675 13.5908C25.6559 13.5246 25.5257 13.4931 25.3947 13.5005C25.1824 13.5005 25.036 13.6179 25.036 13.8758C25.036 14.1568 25.1541 14.2878 25.348 14.2878C25.4325 14.2916 25.5164 14.2729 25.5905 14.2338C25.6646 14.1946 25.7258 14.1364 25.7675 14.0658V13.5908ZM27.8807 14.6318V13.1701C27.8807 12.7764 27.8008 12.6183 27.5744 12.6183C27.4987 12.6208 27.425 12.6421 27.3605 12.6802C27.296 12.7183 27.2429 12.7718 27.2065 12.8355V14.6318H26.7537V12.2566H27.2065V12.4195C27.2645 12.3512 27.338 12.2966 27.4214 12.2597C27.5048 12.2229 27.5958 12.2049 27.6876 12.2071C28.1637 12.2071 28.3335 12.5009 28.3335 13.0981V14.6325L27.8807 14.6318ZM29.1075 11.8847C29.0511 11.8857 28.9957 11.8704 28.9484 11.841C28.9011 11.8115 28.8641 11.7692 28.8421 11.7194C28.8201 11.6696 28.814 11.6146 28.8248 11.5615C28.8356 11.5084 28.8626 11.4596 28.9025 11.4214C28.9424 11.3831 28.9932 11.3572 29.0486 11.3469C29.1039 11.3365 29.1612 11.3423 29.2131 11.3634C29.2651 11.3846 29.3092 11.4201 29.3399 11.4655C29.3706 11.5108 29.3865 11.564 29.3855 11.618C29.3843 11.6884 29.3546 11.7555 29.3027 11.8053C29.2508 11.855 29.1808 11.8835 29.1075 11.8847ZM28.8811 14.6318V12.2566H29.3339V14.6318H28.8811ZM30.8762 14.5728C30.7557 14.6476 30.6143 14.6854 30.4708 14.6814C30.1404 14.6814 29.994 14.4601 29.994 14.0753V12.6631H29.7251V12.2559H29.994V11.5637L30.4467 11.333V12.2559H30.9236V12.6631H30.4467V14.0346C30.4467 14.2016 30.5132 14.2694 30.6356 14.2694C30.7422 14.2694 30.8455 14.2345 30.9285 14.1703L30.8762 14.5728ZM32.463 14.6318V14.4689C32.4006 14.5394 32.3222 14.5952 32.2337 14.632C32.1453 14.6688 32.0493 14.6857 31.953 14.6814C31.59 14.6814 31.2787 14.4194 31.2787 13.8853C31.2787 13.3696 31.6134 13.1069 32.0853 13.1069C32.2156 13.1052 32.3447 13.1314 32.463 13.1836V12.9542C32.463 12.7235 32.3824 12.6149 32.1418 12.6149C31.9682 12.6186 31.7994 12.6705 31.6558 12.7642L31.4627 12.4337C31.6724 12.2949 31.9191 12.2165 32.1737 12.2078C32.7064 12.2078 32.9144 12.389 32.9144 12.9183V14.6332L32.463 14.6318ZM31.7457 11.9621C31.6871 11.9626 31.6297 11.9464 31.5808 11.9156C31.5318 11.8847 31.4936 11.8406 31.4709 11.7888C31.4482 11.737 31.4421 11.68 31.4533 11.6248C31.4645 11.5697 31.4926 11.519 31.534 11.4793C31.5753 11.4395 31.6281 11.4124 31.6855 11.4015C31.743 11.3906 31.8025 11.3963 31.8565 11.418C31.9106 11.4396 31.9567 11.4762 31.989 11.5231C32.0213 11.57 32.0383 11.625 32.0379 11.6811C32.0357 11.7551 32.0041 11.8255 31.9494 11.8778C31.8948 11.93 31.8214 11.9602 31.7442 11.9621H31.7457ZM32.463 13.5908C32.3514 13.5246 32.2212 13.4931 32.0902 13.5005C31.878 13.5005 31.7315 13.6179 31.7315 13.8758C31.7315 14.1568 31.8497 14.2878 32.0428 14.2878C32.1274 14.2917 32.2115 14.273 32.2857 14.2338C32.3598 14.1947 32.4213 14.1365 32.463 14.0658V13.5908ZM32.5805 11.9621C32.522 11.9625 32.4646 11.9462 32.4158 11.9153C32.3669 11.8843 32.3288 11.8401 32.3062 11.7883C32.2836 11.7366 32.2776 11.6795 32.2889 11.6244C32.3002 11.5693 32.3284 11.5187 32.3698 11.479C32.4111 11.4393 32.4639 11.4123 32.5213 11.4015C32.5788 11.3906 32.6382 11.3964 32.6922 11.4181C32.7462 11.4397 32.7923 11.4763 32.8245 11.5232C32.8568 11.57 32.8738 11.625 32.8734 11.6811C32.8711 11.7552 32.8393 11.8256 32.7845 11.8778C32.7298 11.9301 32.6563 11.9602 32.5791 11.9621H32.5805ZM34.4284 14.5728C34.3079 14.6476 34.1665 14.6854 34.023 14.6814C33.6926 14.6814 33.5462 14.4601 33.5462 14.0753V12.6631H33.2773V12.2559H33.5462V11.5637L33.999 11.333V12.2559H34.4758V12.6631H33.999V14.0346C33.999 14.2016 34.0655 14.2694 34.1879 14.2694C34.2942 14.2695 34.3974 14.2346 34.4801 14.1703L34.4284 14.5728ZM35.5519 14.6814C35.2773 14.6748 35.0117 14.5863 34.792 14.4282L34.9668 14.0658C35.1932 14.2016 35.3771 14.2694 35.542 14.2694C35.745 14.2694 35.8674 14.1656 35.8674 14.0115C35.8674 13.8446 35.7358 13.7584 35.3913 13.5684C35.0842 13.3967 34.8769 13.2427 34.8769 12.8667C34.8769 12.4555 35.1366 12.2064 35.5844 12.2064C35.8286 12.2079 36.0656 12.2858 36.2593 12.4283L36.0754 12.7948C35.9305 12.6899 35.7564 12.6285 35.5752 12.6183C35.4054 12.6183 35.3297 12.7086 35.3297 12.826C35.3297 12.9712 35.4005 13.0431 35.7358 13.2291C36.1079 13.4374 36.3202 13.5908 36.3202 13.9803C36.3202 14.433 36.033 14.6814 35.5519 14.6814V14.6814ZM37.8964 14.6318V13.1701C37.8964 12.7764 37.8158 12.6183 37.5894 12.6183C37.5137 12.6209 37.44 12.6422 37.3755 12.6803C37.3111 12.7184 37.258 12.7718 37.2215 12.8355V14.6318H36.7687V11.559L37.2215 11.333V12.4188C37.2795 12.3505 37.353 12.2959 37.4364 12.2591C37.5198 12.2223 37.6108 12.2042 37.7026 12.2064C38.1794 12.2064 38.3492 12.5002 38.3492 13.0974V14.6318H37.8964ZM39.934 14.6318V14.4689C39.8716 14.5394 39.7933 14.5951 39.705 14.6319C39.6167 14.6688 39.5208 14.6857 39.4246 14.6814C39.0617 14.6814 38.7497 14.4194 38.7497 13.8853C38.7497 13.3696 39.085 13.1069 39.5569 13.1069C39.687 13.1052 39.8158 13.1314 39.934 13.1836V12.9542C39.934 12.7235 39.854 12.6149 39.6135 12.6149C39.4398 12.6186 39.271 12.6705 39.1274 12.7642L38.9343 12.4337C39.1441 12.2947 39.3911 12.2163 39.646 12.2078C40.1795 12.2078 40.3867 12.389 40.3867 12.9183V14.6332L39.934 14.6318ZM39.934 13.5908C39.8224 13.5246 39.6921 13.4931 39.5611 13.5005C39.3489 13.5005 39.2031 13.6179 39.2031 13.8758C39.2031 14.1568 39.3206 14.2878 39.5144 14.2878C39.5989 14.2916 39.6829 14.2729 39.7569 14.2338C39.831 14.1946 39.8923 14.1364 39.934 14.0658V13.5908ZM42.033 14.6318V14.4689C41.9751 14.5372 41.9016 14.5919 41.8182 14.6287C41.7348 14.6655 41.6437 14.6835 41.552 14.6814C41.0758 14.6814 40.906 14.3875 40.906 13.7903V12.2559H41.3588V13.7177C41.3588 14.1113 41.4388 14.2694 41.6652 14.2694C41.7408 14.267 41.8146 14.2456 41.8791 14.2076C41.9436 14.1695 41.9966 14.116 42.033 14.0523V12.2559H42.4858V14.6311L42.033 14.6318ZM43.6411 14.6814C43.3668 14.6748 43.1014 14.5863 42.882 14.4282L43.056 14.0658C43.2824 14.2016 43.4664 14.2694 43.6319 14.2694C43.8343 14.2694 43.9574 14.1656 43.9574 14.0115C43.9574 13.8446 43.8251 13.7584 43.4805 13.5684C43.1742 13.3967 42.9669 13.2427 42.9669 12.8667C42.9669 12.4555 43.2258 12.2064 43.6744 12.2064C43.9183 12.208 44.1551 12.2859 44.3486 12.4283L44.1647 12.7948C44.0197 12.6899 43.8457 12.6285 43.6645 12.6183C43.4947 12.6183 43.4197 12.7086 43.4197 12.826C43.4197 12.9712 43.4904 13.0431 43.8251 13.2291C44.1979 13.4374 44.4102 13.5908 44.4102 13.9803C44.4109 14.433 44.1229 14.6814 43.6411 14.6814V14.6814Z" fill="#1D1D1B"/>
</g>
<defs>
<clipPath id="clip0_308_1903">
<rect width="73" height="16" fill="white" transform="translate(0 0.969727)"/>
</clipPath>
</defs>
</svg>
