<svg width="596" height="1195" viewBox="0 0 596 1195" fill="none" xmlns="http://www.w3.org/2000/svg">
<path d="M1174.5 597.5C1174.5 762.412 1130.68 911.688 1059.87 1019.72C989.047 1127.76 891.267 1194.5 783.334 1194.5C675.402 1194.5 577.622 1127.76 506.803 1019.72C435.986 911.688 392.168 762.412 392.168 597.5C392.168 432.588 435.986 283.312 506.803 175.278C577.622 67.2398 675.402 0.5 783.334 0.5C891.267 0.5 989.047 67.2398 1059.87 175.278C1130.68 283.312 1174.5 432.588 1174.5 597.5Z" stroke="#DCDCDC"/>
<path d="M782.833 597.5C782.833 762.412 739.015 911.688 668.198 1019.72C597.378 1127.76 499.599 1194.5 391.667 1194.5C283.734 1194.5 185.955 1127.76 115.135 1019.72C44.3176 911.688 0.5 762.412 0.5 597.5C0.5 432.588 44.3176 283.312 115.135 175.278C185.955 67.2398 283.734 0.5 391.667 0.5C499.599 0.5 597.378 67.2398 668.198 175.278C739.015 283.312 782.833 432.588 782.833 597.5Z" stroke="#DCDCDC"/>
</svg>
