<svg width="185" height="28" viewBox="0 0 185 28" fill="none" xmlns="http://www.w3.org/2000/svg">
<path d="M1.27833 1.37281H25.4993V25.5938H1.27833V1.37281ZM25.5666 0.0944824H0V26.8721H26.7776V0.0944824H25.5666Z" fill="#2D2D2D"/>
<path d="M4.50891 14.6269H7.06556L5.78723 11.1956L4.50891 14.6269ZM2.01953 17.3181C2.16589 17.3463 2.31705 17.3364 2.45846 17.2893C2.59987 17.2421 2.72676 17.1594 2.8269 17.049C3.03224 16.727 3.2122 16.3896 3.36514 16.0398L5.71995 9.91724H6.32548L8.74757 16.1743C8.83627 16.4978 8.99731 16.7969 9.21853 17.049C9.32355 17.1565 9.44919 17.2417 9.58792 17.2995C9.72665 17.3573 9.87561 17.3865 10.0259 17.3854V17.5872H7.06556V17.3854C7.2674 17.3854 7.46924 17.3181 7.60381 17.3181C7.73837 17.3181 7.80565 17.1835 7.80565 16.9817C7.81004 16.9452 7.80629 16.9081 7.79466 16.8732C7.78302 16.8383 7.7638 16.8064 7.73837 16.7798C7.68485 16.7009 7.66102 16.6056 7.67109 16.5107L7.13284 15.0978H4.37435L3.90338 16.4434C3.84236 16.5443 3.81855 16.6633 3.8361 16.7798C3.8405 16.8164 3.83675 16.8534 3.82511 16.8883C3.81348 16.9232 3.79425 16.9551 3.76882 16.9817C3.76755 17.051 3.78581 17.1193 3.82149 17.1788C3.85718 17.2383 3.90887 17.2866 3.97066 17.3181C4.14523 17.3696 4.32703 17.3923 4.50891 17.3854V17.5872H2.01953V17.3181Z" fill="#2D2D2D"/>
<path d="M11.169 17.3183C11.454 17.3562 11.7427 17.284 11.9763 17.1165C12.0811 17.0268 12.161 16.9115 12.2082 16.7818C12.2553 16.6521 12.2682 16.5125 12.2454 16.3764V10.3884H11.5726C11.1928 10.3407 10.8088 10.4367 10.4961 10.6576C10.29 10.8771 10.1705 11.164 10.1597 11.4649H9.89062L9.95791 9.91748H15.6095L15.6767 11.4649H15.4749C15.4788 11.3076 15.444 11.1517 15.3736 11.011C15.3032 10.8702 15.1994 10.7489 15.0712 10.6576C14.7212 10.4665 14.326 10.3735 13.9274 10.3884H13.3219V16.3091C13.3219 16.7128 13.3892 16.9819 13.591 17.0492C13.8406 17.179 14.1172 17.2481 14.3984 17.251V17.5202H11.2362V17.3183H11.169Z" fill="#2D2D2D"/>
<path d="M16.4844 17.3182C16.615 17.3371 16.7481 17.3289 16.8754 17.2942C17.0027 17.2595 17.1215 17.1989 17.2245 17.1163C17.359 17.0491 17.4263 16.7799 17.4263 16.3763V11.1284C17.4263 10.7247 17.359 10.4556 17.2245 10.3883C17.0026 10.2506 16.7454 10.1805 16.4844 10.1865V9.98462H18.5701L22.0686 16.0399L22.1359 11.1284C22.1359 10.7247 22.0686 10.4556 21.9341 10.3883C21.7122 10.2506 21.4551 10.1805 21.194 10.1865V9.98462H23.7507V10.1865C23.6201 10.1675 23.4869 10.1757 23.3596 10.2104C23.2323 10.2452 23.1135 10.3057 23.0106 10.3883C22.876 10.4556 22.8087 10.7247 22.8087 11.1284V17.52H22.0014L18.1664 11.0611L18.0991 16.4435C18.0991 16.8472 18.1664 17.1163 18.3009 17.1836C18.5228 17.3213 18.78 17.3914 19.041 17.3855V17.5873H16.4844V17.3182Z" fill="#2D2D2D"/>
<path d="M37.0066 9.91733H37.6122C38.8232 9.91733 40.1015 9.58093 40.5052 8.84084C41.0298 7.77698 41.262 6.59274 41.178 5.40954C41.178 3.66025 40.9089 2.51649 40.3707 1.97824C39.5814 1.37981 38.5996 1.09246 37.6122 1.17088H37.0066V9.91733ZM35.5938 0.228951H38.0158C39.3263 0.150848 40.6196 0.558005 41.649 1.37272C42.4564 2.1128 42.86 3.52569 42.86 5.47682C42.86 7.56252 42.4564 9.04268 41.649 9.78277C40.6423 10.645 39.3385 11.0796 38.0158 10.9938H35.5938V0.228951Z" fill="#2D2D2D"/>
<path d="M44.5408 0.228901L44.4062 3.72748H45.4827L46.1555 0.161621H44.5408V0.228901Z" fill="#2D2D2D"/>
<path d="M48.107 6.7552L49.7218 1.70917L51.2019 6.68792H48.107V6.7552ZM48.8471 0.229004L45.2812 10.9939H46.7614L47.7033 7.76441H51.4038L52.413 10.9939H54.1623L50.5964 0.229004H48.8471Z" fill="#2D2D2D"/>
<path d="M58.4002 8.90818L55.5071 0.229004H53.7578L57.3237 10.9939H59.073L62.6388 0.229004H61.2259L58.4002 8.90818Z" fill="#2D2D2D"/>
<path d="M67.6842 10.3884C68.1122 10.357 68.519 10.1901 68.8457 9.91186C69.1724 9.6336 69.4018 9.25847 69.5008 8.84093C69.8216 7.79477 69.9805 6.70568 69.9718 5.61147C69.9852 4.49488 69.8264 3.38289 69.5008 2.31473C69.399 1.89179 69.1578 1.51541 68.8161 1.24619C68.4744 0.976977 68.052 0.830586 67.617 0.830586C67.1819 0.830586 66.7596 0.976977 66.4178 1.24619C66.0761 1.51541 65.8349 1.89179 65.7331 2.31473C65.4123 3.36089 65.2535 4.44998 65.2621 5.54419C65.2487 6.63872 65.4076 7.72855 65.7331 8.77365C65.8541 9.21007 66.106 9.59889 66.4549 9.88763C66.8038 10.1764 67.2329 10.3512 67.6842 10.3884ZM63.4456 5.61147C63.3786 4.17469 63.7291 2.74925 64.4548 1.50736C65.1737 0.658853 66.1974 0.126896 67.3049 0.0262077C68.4125 -0.0744809 69.5153 0.264166 70.3755 0.969122C70.5714 1.13118 70.7516 1.3114 70.9137 1.50736C71.6543 2.74314 72.0059 4.17316 71.9229 5.61147C71.9899 7.04825 71.6393 8.47369 70.9137 9.71557C70.5517 10.223 70.0631 10.6267 69.4964 10.8865C68.9298 11.1462 68.3049 11.2528 67.6842 11.1957C67.0739 11.2455 66.4612 11.1351 65.9066 10.8755C65.352 10.6159 64.8748 10.2161 64.5221 9.71557C63.7765 8.47933 63.4028 7.0545 63.4456 5.61147Z" fill="#2D2D2D"/>
<path d="M75.557 0.229004H73.875V10.9939H75.557V0.229004Z" fill="#2D2D2D"/>
<path d="M84.2367 0.228901L84.1694 8.70623L79.9307 0.228901H78.0469V10.9938H79.527V1.57451L84.0348 10.9265H85.7168V0.161621H84.2367V0.228901Z" fill="#2D2D2D"/>
<path d="M88 0.229004V10.9939H93.7861V9.78282H89.682V5.746H93.3824V4.87135H89.682V1.23821H93.6515V0.229004H88Z" fill="#2D2D2D"/>
<path d="M99.1719 0.229004V1.23821H101.729V10.9939H103.411V1.23821H105.967V0.229004H99.1719Z" fill="#2D2D2D"/>
<path d="M107.379 0.229004V10.9939H113.165V9.78282H109.061V5.88056H112.761V4.87135H109.061V1.23821H113.03V0.229004H107.379Z" fill="#2D2D2D"/>
<path d="M121.981 7.15889C121.981 8.70634 121.644 9.78282 121.039 10.3883C120.27 10.976 119.313 11.2631 118.348 11.1957C116.867 11.1957 115.926 10.8593 115.387 10.1192C114.859 9.22722 114.623 8.19177 114.715 7.15889V0.229004H116.397V7.15889C116.343 7.95872 116.457 8.76097 116.733 9.5137C116.935 9.98466 117.473 10.2538 118.28 10.2538C119.088 10.2538 119.626 9.98466 119.828 9.5137C120.108 8.78551 120.223 8.00418 120.164 7.22617V0.229004H121.846L121.981 7.15889Z" fill="#2D2D2D"/>
<path d="M125.818 9.91738H126.558C127.225 9.94274 127.889 9.82815 128.509 9.58098C128.98 9.31186 129.182 8.77361 129.182 7.89897C129.215 7.59489 129.171 7.2873 129.054 7.00492C128.936 6.72254 128.749 6.47459 128.509 6.28424C127.934 5.96387 127.284 5.80138 126.625 5.81328H125.885L125.818 9.91738ZM125.818 4.73679H126.558C127.1 4.73857 127.633 4.59946 128.105 4.33311C128.302 4.14408 128.453 3.91231 128.547 3.65568C128.64 3.39904 128.673 3.1244 128.644 2.85294C128.672 2.60162 128.638 2.34709 128.544 2.11223C128.45 1.87736 128.3 1.6695 128.105 1.50733C127.652 1.19089 127.111 1.02602 126.558 1.03637H125.818V4.73679ZM124.27 0.229004H126.558C128.038 0.229004 128.98 0.430845 129.586 0.901808C129.849 1.13857 130.057 1.42967 130.196 1.75494C130.336 2.08022 130.403 2.43191 130.393 2.78566C130.426 3.07777 130.395 3.37362 130.302 3.65253C130.209 3.93145 130.057 4.18668 129.855 4.40039C129.493 4.79261 129.026 5.0728 128.509 5.20775C129.147 5.31874 129.734 5.62426 130.191 6.0824C130.432 6.3437 130.616 6.6519 130.731 6.98766C130.847 7.32343 130.892 7.6795 130.864 8.03353C130.864 9.31186 130.393 10.1192 129.586 10.4556C128.599 10.8349 127.547 11.0178 126.491 10.9939H124.203V0.229004H124.27Z" fill="#2D2D2D"/>
<path d="M132.812 0.229004V10.9939H138.531V9.78282H134.562V0.229004H132.812Z" fill="#2D2D2D"/>
<path d="M139.875 0.229004V10.9939H145.661V9.78282H141.557V5.746H145.257V4.87135H141.557V1.23821H145.527V0.229004H139.875Z" fill="#2D2D2D"/>
<path d="M149.093 5.14055H149.766C150.382 5.15218 150.988 4.98887 151.515 4.66959C151.753 4.4933 151.941 4.25753 152.059 3.98592C152.177 3.71431 152.221 3.41642 152.188 3.12214C152.205 2.84578 152.159 2.56922 152.054 2.31297C151.949 2.05673 151.788 1.82739 151.582 1.64197C151.023 1.28333 150.361 1.11791 149.699 1.17101H149.026L149.093 5.14055ZM147.344 0.229081H149.699C150.714 0.172177 151.728 0.356627 152.659 0.767325C153.466 1.10373 153.87 1.91109 153.87 3.05486C153.904 3.37883 153.86 3.70619 153.743 4.01021C153.626 4.31422 153.439 4.58627 153.197 4.80415C152.764 5.19583 152.226 5.45299 151.65 5.54423C151.94 5.56414 152.223 5.6466 152.478 5.78596C152.734 5.92532 152.956 6.11827 153.13 6.3516C153.461 6.90624 153.667 7.526 153.735 8.16817L154.274 10.9939H152.524L151.919 8.16817C151.806 7.65183 151.576 7.16839 151.246 6.75528C151.04 6.56597 150.794 6.42538 150.526 6.34387C150.258 6.26236 149.975 6.24201 149.699 6.28432H149.026V11.0612H147.344V0.229081Z" fill="#2D2D2D"/>
<path d="M165.846 0.229004V8.8409L161.607 0.229004H159.656V10.9939H161.136V2.24742L165.577 10.9939H167.326V0.229004H165.846Z" fill="#2D2D2D"/>
<path d="M169.613 0.229004V10.9939H175.399V9.91738H171.295V5.746H174.996V4.87135H171.295V1.23821H175.265V0.229004H169.613Z" fill="#2D2D2D"/>
<path d="M184.282 7.15889C184.282 8.70634 183.945 9.78282 183.34 10.3883C182.571 10.976 181.614 11.2631 180.648 11.1957C179.168 11.1957 178.226 10.8593 177.688 10.1192C177.159 9.22722 176.924 8.19177 177.015 7.15889V0.229004H178.697V7.15889C178.643 7.95872 178.758 8.76097 179.034 9.5137C179.236 9.98466 179.774 10.2538 180.581 10.2538C181.389 10.2538 181.927 9.98466 182.129 9.5137C182.409 8.78551 182.524 8.00418 182.465 7.22617V0.229004H184.147L184.282 7.15889Z" fill="#2D2D2D"/>
<path d="M37.0058 21.086H37.6786C38.3165 21.1045 38.9465 20.9412 39.4951 20.6151C39.7907 20.4566 40.0282 20.2082 40.1734 19.9059C40.3185 19.6035 40.3637 19.2628 40.3025 18.9331C40.3359 18.6388 40.2913 18.3409 40.1732 18.0693C40.0551 17.7977 39.8677 17.5619 39.6297 17.3856C39.1338 17.1179 38.5785 16.9791 38.015 16.9819H37.0058V21.086ZM35.7274 16.04H38.0822C39.014 16.0321 39.9349 16.2393 40.7735 16.6455C41.1359 16.8847 41.4272 17.2171 41.6166 17.6078C41.8061 17.9986 41.8867 18.4331 41.85 18.8658C41.8748 19.2116 41.8141 19.5582 41.6733 19.875C41.5325 20.1918 41.3159 20.4691 41.0426 20.6824C40.5923 21.0878 40.0289 21.346 39.4279 21.4224C39.7182 21.4424 40.0008 21.5248 40.2563 21.6642C40.5118 21.8035 40.7341 21.9965 40.908 22.2298C41.2388 22.7845 41.4454 23.4042 41.5136 24.0464L42.0518 26.7376H40.7062L40.2352 24.5173C40.1279 23.749 39.8522 23.0138 39.4279 22.3644C38.868 21.9466 38.1716 21.7545 37.4767 21.8261H36.8712V26.6703H35.6602L35.7274 16.04Z" fill="#2D2D2D"/>
<path d="M44.0703 16.0399V26.8048H49.4527V25.8629H45.4159V21.6242H49.1163V20.6823H45.4159V16.8473H49.3182V15.9727H44.0703V16.0399Z" fill="#2D2D2D"/>
<path d="M57.727 26.2664C56.9292 26.7237 56.0224 26.9563 55.103 26.9392C54.4502 27.0033 53.7927 26.8789 53.2085 26.5808C52.6242 26.2827 52.1376 25.8234 51.8063 25.2572C51.0657 24.0214 50.7141 22.5914 50.7971 21.1531C50.7733 19.8574 51.0986 18.5793 51.739 17.4527C52.038 16.9039 52.4891 16.4532 53.0382 16.1548C53.5872 15.8564 54.2108 15.723 54.8339 15.7707C55.286 15.7453 55.7387 15.8096 56.1659 15.9597C56.5931 16.1098 56.9864 16.3428 57.3233 16.6453C57.6231 16.9318 57.8613 17.2765 58.0232 17.6583C58.1852 18.0401 58.2675 18.4509 58.2652 18.8656H56.7178C56.7379 18.3116 56.5721 17.7669 56.2468 17.3181C56.0841 17.0824 55.8605 16.8954 55.5998 16.7769C55.3391 16.6584 55.0512 16.6129 54.7666 16.6453C54.3365 16.6123 53.9081 16.7279 53.5529 16.9728C53.1978 17.2177 52.9375 17.5771 52.8155 17.9909C52.4684 18.963 52.2865 19.9864 52.2773 21.0185C52.2164 22.2508 52.4711 23.4782 53.0174 24.5844C53.2127 25.0366 53.545 25.4162 53.9675 25.6696C54.3899 25.9231 54.8812 26.0377 55.3722 25.9973C55.8282 25.9962 56.2815 25.9282 56.7178 25.7954C57.1395 25.5888 57.5256 25.3163 57.8615 24.9881V26.2664H57.727Z" fill="#2D2D2D"/>
<path d="M65.264 16.04V20.7497H60.958V16.04H59.6797V26.8049H60.958V21.6916H65.264V26.8049H66.5423V16.04H65.264Z" fill="#2D2D2D"/>
<path d="M68.2891 16.04V16.9147H70.7784V26.8049H72.124V16.9147H74.6134V16.04H68.2891Z" fill="#2D2D2D"/>
<path d="M80.9386 17.3856C80.5469 17.1996 80.1421 17.0422 79.7276 16.9146C79.2913 16.7819 78.838 16.7139 78.382 16.7128C77.8899 16.693 77.4088 16.8614 77.0364 17.1837C76.8656 17.3209 76.7283 17.4952 76.635 17.6934C76.5417 17.8916 76.4949 18.1085 76.4981 18.3275C76.5291 18.6912 76.658 19.0396 76.8713 19.3358C77.0845 19.632 77.3741 19.8648 77.7092 20.0095L79.9294 21.2206C80.4387 21.5511 80.8928 21.9598 81.275 22.4316C81.541 22.8794 81.6805 23.391 81.6787 23.9118C81.7084 24.3531 81.6251 24.7947 81.4368 25.195C81.2484 25.5952 80.9612 25.9408 80.6022 26.1993C79.7838 26.7375 78.8232 27.0186 77.8437 27.0067C77.3494 27.0163 76.855 26.9938 76.3636 26.9394C75.9599 26.8721 75.6235 26.8048 75.2871 26.7375V25.3919C75.7692 25.6009 76.2635 25.7806 76.7673 25.9302C77.1574 26.0625 77.5664 26.1307 77.9783 26.132C78.553 26.1516 79.1189 25.9865 79.593 25.6611C79.7936 25.4892 79.948 25.2699 80.042 25.0231C80.136 24.7763 80.1667 24.5099 80.1313 24.2482C80.1313 23.5081 79.6603 22.8353 78.6511 22.297C77.911 21.8934 77.3055 21.6242 76.8345 21.3551C76.3735 21.0942 75.9632 20.7524 75.6235 20.3459C75.307 19.8928 75.1422 19.3511 75.1525 18.7985C75.1296 18.4103 75.2036 18.0225 75.3681 17.6701C75.5325 17.3177 75.7822 17.0118 76.0945 16.78C76.8096 16.3037 77.6581 16.068 78.5165 16.1072C78.9202 16.1072 79.3239 16.1745 79.7276 16.1745C80.0934 16.1966 80.4551 16.2644 80.8041 16.3764L80.9386 17.3856Z" fill="#2D2D2D"/>
<path d="M86.9262 17.2511L88.6082 22.499H85.1769L86.9262 17.2511ZM86.2534 16.04L82.6875 26.8049H83.8985L84.975 23.4409H88.9446L90.0211 26.8049H91.3667L87.8008 16.04H86.2534Z" fill="#2D2D2D"/>
<path d="M98.8365 16.04L98.7692 25.1902L94.3287 16.04H92.7812V26.8049H93.925L93.9923 17.6548L98.4328 26.8049H99.913V16.04H98.8365Z" fill="#2D2D2D"/>
<path d="M110.947 25.1901L108.39 16.0399H107.247L104.623 25.2574L103.075 15.9727H101.797L103.748 26.7375H105.228L107.718 17.7892L110.207 26.8048L111.687 26.7375L113.638 15.9727H112.562L110.947 25.1901Z" fill="#2D2D2D"/>
<path d="M118.547 17.2511L120.229 22.499H116.798L118.547 17.2511ZM117.874 16.04L114.309 26.8049H115.52L116.596 23.4409H120.566L121.642 26.8049H122.988L119.355 16.04H117.874Z" fill="#2D2D2D"/>
<path d="M124.398 16.04V26.8049H129.444V25.863H125.677V16.04H124.398Z" fill="#2D2D2D"/>
<path d="M129.445 16.04V16.9147H131.935V26.8049H133.28V16.9147H135.77V16.04H129.445Z" fill="#2D2D2D"/>
<path d="M137.117 16.0399V26.8048H142.5V25.8629H138.396V21.6242H142.096V20.6823H138.396V16.8473H142.298V15.9727H137.117V16.0399Z" fill="#2D2D2D"/>
<path d="M117.809 13.6851H116.598V14.8961H117.809V13.6851Z" fill="#2D2D2D"/>
<path d="M120.567 13.6851H119.355V14.8961H120.567V13.6851Z" fill="#2D2D2D"/>
</svg>
