<svg width="86" height="14" viewBox="0 0 86 14" fill="none" xmlns="http://www.w3.org/2000/svg">
<path d="M0.593368 1.24473H11.8361V12.4875H0.593368V1.24473ZM11.8674 0.651367H0V13.0809H12.4295V0.651367H11.8674Z" fill="#2D2D2D"/>
<path d="M2.09301 7.39801H3.27974L2.68637 5.80528L2.09301 7.39801ZM0.9375 8.6472C1.00544 8.66031 1.0756 8.65571 1.14124 8.63383C1.20688 8.61195 1.26578 8.57353 1.31226 8.52228C1.40757 8.37285 1.49111 8.21623 1.5621 8.05383L2.65514 5.21191H2.93621L4.06049 8.11629C4.10166 8.26644 4.17641 8.40526 4.2791 8.52228C4.32784 8.57218 4.38616 8.61174 4.45056 8.63857C4.51495 8.6654 4.5841 8.67896 4.65386 8.67843V8.77212H3.27974V8.67843C3.37343 8.67843 3.46712 8.6472 3.52958 8.6472C3.59204 8.6472 3.62327 8.58474 3.62327 8.49105C3.62531 8.4741 3.62357 8.4569 3.61817 8.4407C3.61277 8.4245 3.60384 8.4097 3.59204 8.39736C3.5672 8.36072 3.55614 8.31646 3.56081 8.27244L3.31097 7.61661H2.03055L1.81194 8.24121C1.78361 8.28802 1.77256 8.34326 1.78071 8.39736C1.78275 8.41432 1.78101 8.43151 1.77561 8.44771C1.77021 8.46391 1.76128 8.47871 1.74948 8.49105C1.74889 8.52324 1.75736 8.55495 1.77393 8.58256C1.79049 8.61017 1.81448 8.63257 1.84317 8.6472C1.9242 8.67111 2.00858 8.68166 2.09301 8.67843V8.77212H0.9375V8.6472Z" fill="#2D2D2D"/>
<path d="M5.18712 8.6472C5.31941 8.66477 5.45342 8.63126 5.56188 8.55351C5.61053 8.51187 5.6476 8.45836 5.66949 8.39817C5.69138 8.33798 5.69734 8.27315 5.6868 8.20998V5.43052H5.3745C5.19819 5.40835 5.01996 5.45291 4.87482 5.55544C4.77915 5.65736 4.72367 5.79051 4.71867 5.9302H4.59375L4.62498 5.21191H7.24829L7.27952 5.9302H7.18583C7.18763 5.85717 7.17149 5.78482 7.13882 5.71948C7.10615 5.65415 7.05795 5.59782 6.99845 5.55544C6.83597 5.46674 6.65253 5.42357 6.46754 5.43052H6.18647V8.17875C6.18647 8.36613 6.2177 8.49105 6.31139 8.52228C6.42722 8.58252 6.55561 8.61462 6.68615 8.61597V8.74089H5.21835V8.6472H5.18712Z" fill="#2D2D2D"/>
<path d="M7.65234 8.64722C7.71297 8.656 7.77475 8.65221 7.83385 8.63609C7.89295 8.61998 7.9481 8.59187 7.99587 8.55353C8.05833 8.5223 8.08956 8.39738 8.08956 8.21V5.77407C8.08956 5.58669 8.05833 5.46177 7.99587 5.43054C7.89288 5.36664 7.77352 5.33409 7.65234 5.33685V5.24316H8.62047L10.2444 8.05385L10.2757 5.77407C10.2757 5.58669 10.2444 5.46177 10.182 5.43054C10.079 5.36664 9.95961 5.33409 9.83843 5.33685V5.24316H11.0252V5.33685C10.9645 5.32807 10.9028 5.33186 10.8437 5.34798C10.7846 5.3641 10.7294 5.3922 10.6816 5.43054C10.6192 5.46177 10.588 5.58669 10.588 5.77407V8.74091H10.2132L8.43309 5.74284L8.40186 8.24123C8.40186 8.42861 8.43309 8.55353 8.49555 8.58476C8.59854 8.64866 8.7179 8.68121 8.83908 8.67845V8.77214H7.65234V8.64722Z" fill="#2D2D2D"/>
<path d="M17.1793 5.21146H17.4603C18.0225 5.21146 18.6158 5.05531 18.8032 4.71178C19.0467 4.21796 19.1545 3.66827 19.1155 3.11906C19.1155 2.30708 18.9906 1.77617 18.7408 1.52633C18.3744 1.24855 17.9187 1.11517 17.4603 1.15157H17.1793V5.21146V5.21146ZM16.5234 0.714356H17.6477C18.256 0.678103 18.8563 0.867095 19.3341 1.24526C19.7089 1.58879 19.8963 2.24462 19.8963 3.15029C19.8963 4.11841 19.7089 4.80547 19.3341 5.149C18.8669 5.54922 18.2617 5.75095 17.6477 5.71114H16.5234V0.714356Z" fill="#2D2D2D"/>
<path d="M20.6757 0.713847L20.6133 2.3378H21.113L21.4253 0.682617H20.6757V0.713847Z" fill="#2D2D2D"/>
<path d="M22.3312 3.74317L23.0807 1.40092L23.7678 3.71194H22.3312V3.74317ZM22.6747 0.713867L21.0195 5.71065H21.7066L22.1438 4.21161H23.8614L24.3299 5.71065H25.1419L23.4867 0.713867H22.6747Z" fill="#2D2D2D"/>
<path d="M27.108 4.74252L25.7651 0.713867H24.9531L26.6083 5.71065H27.4203L29.0755 0.713867H28.4196L27.108 4.74252Z" fill="#2D2D2D"/>
<path d="M31.4165 5.43025C31.6152 5.4157 31.804 5.33822 31.9557 5.20906C32.1073 5.0799 32.2138 4.90577 32.2597 4.71196C32.4087 4.22636 32.4824 3.72083 32.4784 3.21293C32.4846 2.69463 32.4109 2.17848 32.2597 1.68266C32.2125 1.48634 32.1005 1.31164 31.9419 1.18668C31.7833 1.06171 31.5872 0.993762 31.3853 0.993762C31.1834 0.993762 30.9873 1.06171 30.8287 1.18668C30.6701 1.31164 30.5581 1.48634 30.5109 1.68266C30.362 2.16826 30.2882 2.67379 30.2923 3.1817C30.286 3.68975 30.3598 4.19562 30.5109 4.68073C30.567 4.88331 30.684 5.06379 30.8459 5.19782C31.0079 5.33184 31.207 5.41297 31.4165 5.43025V5.43025ZM29.4491 3.21293C29.418 2.54601 29.5807 1.88436 29.9175 1.30791C30.2512 0.914048 30.7264 0.667127 31.2405 0.62039C31.7546 0.573653 32.2665 0.730844 32.6657 1.05807C32.7567 1.13329 32.8404 1.21694 32.9156 1.30791C33.2593 1.88152 33.4226 2.5453 33.384 3.21293C33.4151 3.87985 33.2524 4.5415 32.9156 5.11795C32.7476 5.3535 32.5207 5.54089 32.2577 5.66144C31.9947 5.782 31.7047 5.8315 31.4165 5.80501C31.1333 5.8281 30.8488 5.77687 30.5914 5.65637C30.334 5.53587 30.1125 5.35029 29.9487 5.11795C29.6027 4.54412 29.4292 3.88275 29.4491 3.21293" fill="#2D2D2D"/>
<path d="M35.0698 0.713867H34.2891V5.71065H35.0698V0.713867Z" fill="#2D2D2D"/>
<path d="M39.0997 0.713847L39.0685 4.64881L37.101 0.713847H36.2266V5.71063H36.9136V1.33844L39.006 5.6794H39.7868V0.682617H39.0997V0.713847Z" fill="#2D2D2D"/>
<path d="M40.8477 0.713867V5.71065H43.5334V5.14851H41.6284V3.27472H43.346V2.86873H41.6284V1.18232H43.471V0.713867H40.8477Z" fill="#2D2D2D"/>
<path d="M46.0312 0.713867V1.18232H47.218V5.71065H47.9987V1.18232H49.1855V0.713867H46.0312Z" fill="#2D2D2D"/>
<path d="M49.8438 0.713867V5.71065H52.5295V5.14851H50.6245V3.33718H52.3421V2.86873H50.6245V1.18232H52.4671V0.713867H49.8438Z" fill="#2D2D2D"/>
<path d="M56.62 3.93054C56.62 4.64883 56.4639 5.14851 56.1828 5.42958C55.8259 5.70236 55.3817 5.8356 54.9336 5.80434C54.2465 5.80434 53.8093 5.64819 53.5595 5.30466C53.3141 4.89062 53.2049 4.40998 53.2472 3.93054V0.713867H54.0279V3.93054C54.0029 4.30181 54.0561 4.67419 54.1841 5.02359C54.2778 5.2422 54.5276 5.36712 54.9024 5.36712C55.2771 5.36712 55.527 5.2422 55.6207 5.02359C55.7507 4.68558 55.804 4.32291 55.7768 3.96177V0.713867H56.5576L56.62 3.93054V3.93054Z" fill="#2D2D2D"/>
<path d="M58.4019 5.21097H58.7454C59.0549 5.22274 59.3634 5.16955 59.6511 5.05482C59.8697 4.9299 59.9634 4.68006 59.9634 4.27407C59.9789 4.13293 59.9584 3.99015 59.9038 3.85908C59.8492 3.728 59.7622 3.61291 59.6511 3.52456C59.384 3.37585 59.0823 3.30043 58.7766 3.30595H58.4331L58.4019 5.21097ZM58.4019 2.80627H58.7454C58.997 2.80709 59.2445 2.74252 59.4637 2.61889C59.5552 2.53115 59.6253 2.42357 59.6686 2.30444C59.7119 2.18532 59.7273 2.05784 59.7135 1.93183C59.7269 1.81518 59.711 1.69703 59.6674 1.58801C59.6238 1.47899 59.5538 1.38251 59.4637 1.30723C59.2533 1.16035 59.0019 1.08382 58.7454 1.08863H58.4019V2.80627ZM57.6836 0.713867H58.7454C59.4324 0.713867 59.8697 0.807557 60.1507 1.02617C60.2728 1.13607 60.3696 1.27118 60.4343 1.42217C60.499 1.57316 60.5301 1.7364 60.5255 1.9006C60.5409 2.03619 60.5266 2.17352 60.4834 2.30298C60.4403 2.43245 60.3694 2.55092 60.2757 2.65012C60.1076 2.83218 59.8908 2.96224 59.6511 3.02488C59.947 3.0764 60.2197 3.21821 60.4318 3.43087C60.5435 3.55215 60.6288 3.69522 60.6826 3.85107C60.7363 4.00692 60.7573 4.1722 60.7441 4.33653C60.7441 4.9299 60.5255 5.30466 60.1507 5.46081C59.6927 5.63687 59.2047 5.72174 58.7142 5.71065H57.6523V0.713867H57.6836Z" fill="#2D2D2D"/>
<path d="M61.6484 0.713867V5.71065H64.303V5.14851H62.4604V0.713867H61.6484Z" fill="#2D2D2D"/>
<path d="M64.9258 0.713867V5.71065H67.6116V5.14851H65.7065V3.27472H67.4242V2.86873H65.7065V1.18232H67.5491V0.713867H64.9258Z" fill="#2D2D2D"/>
<path d="M69.2065 2.99442H69.5188C69.8047 2.99982 70.0862 2.92402 70.3308 2.77581C70.4413 2.69399 70.5283 2.58455 70.5831 2.45847C70.6379 2.3324 70.6586 2.19413 70.6431 2.05753C70.6508 1.92925 70.6296 1.80088 70.5809 1.68193C70.5323 1.56299 70.4574 1.45654 70.362 1.37047C70.1023 1.204 69.7951 1.12721 69.4876 1.15186H69.1753L69.2065 2.99442V2.99442ZM68.3945 0.714643H69.4876C69.9589 0.68823 70.4298 0.773847 70.8617 0.964482C71.2364 1.12063 71.4238 1.49539 71.4238 2.0263C71.4395 2.17668 71.4194 2.32863 71.3651 2.46975C71.3108 2.61086 71.2239 2.73714 71.1115 2.83827C70.9105 3.02008 70.6609 3.13945 70.3932 3.1818C70.528 3.19105 70.6592 3.22932 70.7778 3.29401C70.8964 3.35869 70.9996 3.44826 71.0803 3.55656C71.2338 3.81401 71.3297 4.10169 71.3614 4.39977L71.6112 5.71142H70.7992L70.5182 4.39977C70.4658 4.1601 70.3589 3.9357 70.2059 3.74394C70.1101 3.65607 69.9959 3.59081 69.8716 3.55297C69.7473 3.51514 69.616 3.50569 69.4876 3.52533H69.1753V5.74265H68.3945V0.714643Z" fill="#2D2D2D"/>
<path d="M76.9825 0.713867V4.71129L75.015 0.713867H74.1094V5.71065H74.7964V1.65076L76.8576 5.71065H77.6696V0.713867H76.9825Z" fill="#2D2D2D"/>
<path d="M78.7305 0.713867V5.71065H81.4162V5.21097H79.5112V3.27472H81.2289V2.86873H79.5112V1.18232H81.3538V0.713867H78.7305Z" fill="#2D2D2D"/>
<path d="M85.538 3.93054C85.538 4.64883 85.3818 5.14851 85.1008 5.42958C84.7438 5.70236 84.2997 5.8356 83.8516 5.80434C83.1645 5.80434 82.7273 5.64819 82.4775 5.30466C82.2321 4.89062 82.1228 4.40998 82.1652 3.93054V0.713867H82.9459V3.93054C82.9209 4.30181 82.9741 4.67419 83.1021 5.02359C83.1957 5.2422 83.4456 5.36712 83.8203 5.36712C84.1951 5.36712 84.4449 5.2422 84.5386 5.02359C84.6687 4.68558 84.722 4.32291 84.6948 3.96177V0.713867H85.4755L85.538 3.93054V3.93054Z" fill="#2D2D2D"/>
<path d="M17.1793 10.3941H17.4916C17.7877 10.4027 18.0801 10.3269 18.3348 10.1755C18.472 10.1019 18.5822 9.98663 18.6496 9.84629C18.717 9.70594 18.738 9.54781 18.7095 9.39474C18.7251 9.25815 18.7044 9.11987 18.6495 8.9938C18.5947 8.86772 18.5077 8.75828 18.3973 8.67646C18.1671 8.5522 17.9093 8.48777 17.6477 8.48908H17.1793V10.3941V10.3941ZM16.5859 8.05186H17.679C18.1114 8.04819 18.5389 8.14438 18.9282 8.33293C19.0964 8.44393 19.2316 8.59824 19.3195 8.7796C19.4075 8.96096 19.4449 9.16268 19.4278 9.36351C19.4394 9.52402 19.4112 9.6849 19.3458 9.83195C19.2805 9.979 19.1799 10.1077 19.0531 10.2067C18.8441 10.3949 18.5826 10.5148 18.3036 10.5502C18.4383 10.5595 18.5695 10.5978 18.6881 10.6625C18.8067 10.7271 18.9099 10.8167 18.9906 10.925C19.1442 11.1825 19.24 11.4701 19.2717 11.7682L19.5215 13.0174H18.8969L18.6783 11.9868C18.6285 11.6302 18.5005 11.2889 18.3036 10.9875C18.0437 10.7936 17.7204 10.7044 17.3979 10.7376H17.1168V12.9862H16.5547L16.5859 8.05186V8.05186Z" fill="#2D2D2D"/>
<path d="M20.457 8.05369V13.0505H22.9554V12.6133H21.0816V10.6458H22.7993V10.2086H21.0816V8.42845H22.893V8.02246H20.457V8.05369Z" fill="#2D2D2D"/>
<path d="M26.7964 12.801C26.4261 13.0133 26.0052 13.1213 25.5785 13.1133C25.2755 13.1431 24.9703 13.0853 24.6991 12.947C24.4278 12.8086 24.202 12.5954 24.0482 12.3326C23.7044 11.759 23.5412 11.0952 23.5798 10.4276C23.5687 9.82616 23.7197 9.23286 24.017 8.70993C24.1558 8.45522 24.3652 8.24602 24.62 8.10751C24.8749 7.969 25.1643 7.90707 25.4536 7.92918C25.6634 7.91743 25.8735 7.94725 26.0718 8.01692C26.2701 8.08659 26.4527 8.19474 26.6091 8.33517C26.7482 8.46817 26.8588 8.62817 26.9339 8.80538C27.0091 8.98258 27.0473 9.17327 27.0463 9.36576H26.328C26.3373 9.10864 26.2604 8.85578 26.1094 8.64747C26.0339 8.53808 25.9301 8.45124 25.8091 8.39624C25.6881 8.34124 25.5544 8.32013 25.4223 8.33517C25.2227 8.31985 25.0238 8.37351 24.859 8.4872C24.6941 8.60088 24.5733 8.7677 24.5167 8.95977C24.3556 9.411 24.2711 9.88601 24.2668 10.3651C24.2386 10.9371 24.3568 11.5068 24.6103 12.0203C24.701 12.2302 24.8553 12.4064 25.0514 12.524C25.2475 12.6417 25.4755 12.6949 25.7034 12.6761C25.9151 12.6756 26.1255 12.644 26.328 12.5824C26.5237 12.4865 26.703 12.36 26.8589 12.2077V12.801H26.7964Z" fill="#2D2D2D"/>
<path d="M30.2952 8.05371V10.2398H28.2965V8.05371H27.7031V13.0505H28.2965V10.677H30.2952V13.0505H30.8886V8.05371H30.2952Z" fill="#2D2D2D"/>
<path d="M31.6992 8.05371V8.4597H32.8547V13.0505H33.4793V8.4597H34.6348V8.05371H31.6992Z" fill="#2D2D2D"/>
<path d="M37.5705 8.67833C37.3886 8.59199 37.2007 8.51893 37.0083 8.45972C36.8058 8.39812 36.5954 8.36655 36.3837 8.36603C36.1553 8.35688 35.932 8.43504 35.7591 8.58464C35.6799 8.6483 35.6161 8.72921 35.5728 8.82121C35.5296 8.91321 35.5078 9.01388 35.5093 9.11555C35.5237 9.28435 35.5835 9.4461 35.6825 9.58359C35.7815 9.72107 35.9159 9.82914 36.0714 9.8963L37.102 10.4584C37.3384 10.6119 37.5492 10.8016 37.7266 11.0206C37.8501 11.2284 37.9148 11.4659 37.914 11.7076C37.9278 11.9125 37.8891 12.1175 37.8017 12.3033C37.7143 12.489 37.581 12.6495 37.4143 12.7694C37.0344 13.0192 36.5885 13.1498 36.1339 13.1442C35.9045 13.1487 35.675 13.1382 35.4468 13.113C35.2595 13.0817 35.1033 13.0505 34.9472 13.0193V12.3947C35.171 12.4917 35.4004 12.5751 35.6342 12.6445C35.8153 12.706 36.0052 12.7376 36.1964 12.7382C36.4631 12.7473 36.7258 12.6707 36.9459 12.5196C37.039 12.4399 37.1106 12.3381 37.1543 12.2235C37.1979 12.1089 37.2122 11.9853 37.1957 11.8638C37.1957 11.5202 36.9771 11.208 36.5087 10.9581C36.1651 10.7707 35.8841 10.6458 35.6655 10.5209C35.4514 10.3998 35.261 10.2411 35.1033 10.0524C34.9564 9.84211 34.8799 9.59066 34.8847 9.33416C34.8741 9.15397 34.9084 8.97396 34.9848 8.81039C35.0611 8.64682 35.177 8.50484 35.3219 8.39726C35.6539 8.17616 36.0478 8.06675 36.4462 8.08496C36.6336 8.08496 36.821 8.11619 37.0083 8.11619C37.1782 8.12643 37.346 8.1579 37.508 8.20988L37.5705 8.67833V8.67833Z" fill="#2D2D2D"/>
<path d="M40.3503 8.61585L41.131 11.0518H39.5383L40.3503 8.61585ZM40.038 8.05371L38.3828 13.0505H38.9449L39.4446 11.489H41.2872L41.7869 13.0505H42.4115L40.7563 8.05371H40.038Z" fill="#2D2D2D"/>
<path d="M45.8771 8.05371L45.8459 12.301L43.7847 8.05371H43.0664V13.0505H43.5973L43.6285 8.80323L45.6897 13.0505H46.3768V8.05371H45.8771Z" fill="#2D2D2D"/>
<path d="M51.4973 12.301L50.3105 8.05369H49.7796L48.5617 12.3322L47.8434 8.02246H47.25L48.1557 13.0192H48.8427L49.9982 8.86567L51.1537 13.0505L51.8408 13.0192L52.7465 8.02246H52.2468L51.4973 12.301Z" fill="#2D2D2D"/>
<path d="M55.0261 8.61585L55.8068 11.0518H54.2141L55.0261 8.61585ZM54.7138 8.05371L53.0586 13.0505H53.6207L54.1204 11.489H55.963L56.4627 13.0505H57.0873L55.4008 8.05371H54.7138Z" fill="#2D2D2D"/>
<path d="M57.7422 8.05371V13.0505H60.0844V12.6133H58.3356V8.05371H57.7422Z" fill="#2D2D2D"/>
<path d="M60.0859 8.05371V8.4597H61.2414V13.0505H61.866V8.4597H63.0215V8.05371H60.0859Z" fill="#2D2D2D"/>
<path d="M63.6484 8.05369V13.0505H66.1468V12.6133H64.2418V10.6458H65.9594V10.2086H64.2418V8.42845H66.0531V8.02246H63.6484V8.05369Z" fill="#2D2D2D"/>
<path d="M54.6832 6.95996H54.1211V7.5221H54.6832V6.95996Z" fill="#2D2D2D"/>
<path d="M55.9645 6.95996H55.4023V7.5221H55.9645V6.95996Z" fill="#2D2D2D"/>
</svg>
