<svg width="63" height="26" viewBox="0 0 63 26" fill="none" xmlns="http://www.w3.org/2000/svg">
<path fill-rule="evenodd" clip-rule="evenodd" d="M29.3403 11.0455C29.4841 9.54265 30.3931 8.39752 32.1863 8.4083C34.1037 8.42088 34.6949 9.62894 34.7908 11.0455H29.3403ZM36.8272 14.8009C35.6306 15.4104 34.4091 15.8814 32.8556 15.8814C30.8707 15.8814 29.4628 14.9519 29.3403 13.05H37.8516C37.8516 9.12738 36.7082 6.26724 31.9945 6.27443C28.1703 6.27982 26.2812 8.95301 26.2812 12.1997C26.2812 15.8814 28.6479 18.017 32.7118 18.017C34.4322 18.017 35.7708 17.6035 36.9426 17.0139L36.8272 14.8009Z" fill="#DA0021"/>
<path d="M39.1133 17.6971H42.3161V12.2501H42.3641L46.6215 17.6971H50.5399L45.4977 11.5022L49.9717 6.47225H46.412L42.3676 10.9395L42.3161 10.9647V2.50293H39.1133V17.6971Z" fill="#DA0021"/>
<path fill-rule="evenodd" clip-rule="evenodd" d="M51.8582 9.52883C52.9341 8.78818 54.2567 8.34954 55.6185 8.34954C57.5075 8.34954 58.3917 8.95897 58.3917 10.7675H56.6234C55.2847 10.7675 53.7064 10.8771 52.4867 11.4218C51.267 11.9665 50.3828 12.9463 50.3828 14.6235C50.3828 16.6531 52.5115 17.9565 54.6864 17.9565C56.144 17.9565 57.7454 17.259 58.4875 16.0185H58.5355C58.5586 16.3673 58.5586 17.1079 58.6793 17.6958H61.4986C61.4276 16.8239 61.3424 15.9233 61.3176 15.0729C61.2945 14.2442 61.3087 13.5125 61.3087 12.38V10.9418C61.3087 7.63046 59.7552 6.21387 56.0002 6.21387C54.6385 6.21387 52.9216 6.55004 51.6789 7.07317L51.8582 9.52883ZM53.4436 14.4491C53.4152 12.7287 55.5706 12.5112 57.0051 12.5112H58.3917C58.3917 13.3813 58.2479 14.1885 57.7224 14.8195C57.2199 15.4289 56.4547 15.8226 55.4747 15.8226C54.3278 15.8226 53.4578 15.3049 53.4436 14.4491Z" fill="#DA0021"/>
<path d="M11.0117 5.33861H16.2243C18.9709 5.36737 21.9145 6.77498 21.9145 10.0863C21.9145 13.3977 19.0206 14.8107 16.2243 14.8107H14.2039V8.18797H11.0117V17.696H15.5781C20.6948 17.696 25.1653 15.9433 25.2132 10.0917C25.2612 4.05865 20.4285 2.50005 15.5781 2.48926H11.0117V5.33861Z" fill="#DA0021"/>
<path d="M6.25781 11.0107H9.4287V17.6964H6.25781V11.0107Z" fill="#DA0021"/>
<path d="M1.5 13.833H4.67088V17.6963H1.5V13.833Z" fill="#DA0021"/>
<path fill-rule="evenodd" clip-rule="evenodd" d="M20.55 22.5673C20.5873 22.161 20.8341 21.8554 21.3187 21.8554C21.8034 21.8554 21.997 22.1844 22.0218 22.5673H20.55ZM22.6041 23.5686C22.281 23.734 21.9188 23.8742 21.4998 23.8742C20.9619 23.8742 20.5873 23.5974 20.55 23.1084H22.8492C22.8492 22.0495 22.5012 21.2783 21.2655 21.2783C20.2322 21.2783 19.7227 22.0028 19.7227 22.8801C19.7227 23.8742 20.3618 24.4513 21.4608 24.4513C21.9259 24.4513 22.2881 24.3686 22.6041 24.2104V23.5686Z" fill="#DA0021"/>
<path fill-rule="evenodd" clip-rule="evenodd" d="M35.5422 22.5673C35.5812 22.161 35.8263 21.8554 36.3109 21.8554C36.7956 21.8554 36.9891 22.1844 37.0158 22.5673H35.5422ZM37.5963 23.5686C37.2732 23.734 36.911 23.8742 36.492 23.8742C35.9559 23.8742 35.5812 23.5974 35.5422 23.1084H37.8413C37.8413 22.0495 37.4934 21.2783 36.2595 21.2783C35.2244 21.2783 34.7148 22.0028 34.7148 22.8801C34.7148 23.8742 35.354 24.4513 36.453 24.4513C36.9181 24.4513 37.2803 24.3686 37.5963 24.2104V23.5686Z" fill="#DA0021"/>
<path fill-rule="evenodd" clip-rule="evenodd" d="M47.3281 22.8855C47.3281 23.7574 47.969 24.4513 49.0662 24.4513C50.1723 24.4513 50.8115 23.7574 50.8115 22.8855C50.8115 21.8841 50.0552 21.2783 49.0662 21.2783C48.0844 21.2783 47.3281 21.8841 47.3281 22.8855ZM48.2336 22.7902C48.2336 22.3372 48.5052 21.8895 49.0662 21.8895C49.6362 21.8895 49.906 22.3264 49.906 22.7902C49.906 23.2971 49.732 23.8382 49.0662 23.8382C48.4076 23.8382 48.2336 23.2917 48.2336 22.7902Z" fill="#DA0021"/>
<path fill-rule="evenodd" clip-rule="evenodd" d="M56.0461 22.8564C56.0461 22.4501 56.2005 21.8892 56.7634 21.8892C57.3191 21.8892 57.5374 22.4321 57.5374 22.8564C57.5374 23.286 57.351 23.8379 56.7758 23.8379C56.2076 23.8379 56.0461 23.2734 56.0461 22.8564ZM57.5694 24.3808H58.4109V19.9639H57.5445V21.7022H57.5321C57.2729 21.4128 56.9693 21.278 56.5361 21.278C55.5152 21.278 55.1406 22.0186 55.1406 22.8564C55.1406 23.6851 55.5152 24.4509 56.5361 24.4509C56.9427 24.4509 57.2995 24.3341 57.557 24.0393H57.5694V24.3808Z" fill="#DA0021"/>
<path d="M11.0117 24.382H11.9172V20.2725H11.0117V24.382Z" fill="#DA0021"/>
<path d="M12.7109 24.381H13.5773V22.8961C13.5773 22.5078 13.7123 21.8894 14.339 21.8894C14.8947 21.8894 14.9018 22.3909 14.9018 22.7613V24.381H15.7664V22.4664C15.7664 21.7833 15.4255 21.2764 14.6373 21.2764C14.1845 21.2764 13.8153 21.413 13.5436 21.76H13.5312V21.3483H12.7109V24.381Z" fill="#DA0021"/>
<path d="M17.3277 24.3813H18.3041L19.5309 21.3486H18.6663L17.8656 23.5562H17.8514L17.0241 21.3486H16.0938L17.3277 24.3813Z" fill="#DA0021"/>
<path d="M25.6557 21.3898C25.3841 21.3358 25.1195 21.2783 24.713 21.2783C24.033 21.2783 23.4062 21.566 23.4062 22.2203C23.4062 23.3151 24.9118 22.9088 24.9118 23.5039C24.9118 23.7987 24.5638 23.8742 24.3437 23.8742C24.0472 23.8742 23.7631 23.7987 23.4915 23.6747L23.44 24.3218C23.756 24.3991 24.0916 24.4513 24.4218 24.4513C25.1248 24.4513 25.8173 24.169 25.8173 23.4625C25.8173 22.3677 24.3117 22.6733 24.3117 22.1898C24.3117 21.9309 24.5887 21.8554 24.8213 21.8554C25.1391 21.8554 25.3326 21.9021 25.5971 21.9848L25.6557 21.3898Z" fill="#DA0021"/>
<path d="M26.8345 23.4681C26.8345 24.0685 27.2091 24.4514 27.8891 24.4514C28.1465 24.4514 28.3471 24.428 28.5282 24.3813L28.5016 23.7575C28.411 23.8096 28.2637 23.8384 28.1074 23.8384C27.779 23.8384 27.7009 23.5975 27.7009 23.3386V21.9256H28.4696V21.3486H27.7009V20.4893L26.8345 20.7427V21.3486H26.1953V21.9256H26.8345V23.4681Z" fill="#DA0021"/>
<path d="M29.2578 24.3812H30.1242V22.9088C30.1242 22.5151 30.1952 21.8895 30.7705 21.8895C31.2676 21.8895 31.2676 22.2904 31.2676 22.5727V24.3812H32.134V22.9088C32.134 22.5151 32.205 21.8895 32.7802 21.8895C33.2774 21.8895 33.2774 22.2904 33.2774 22.5727V24.3812H34.1438V22.4666C34.1438 21.7907 33.9112 21.2783 33.0892 21.2783C32.6826 21.2783 32.2494 21.4491 32.0505 21.814C31.8624 21.4365 31.5321 21.2783 31.067 21.2783C30.7438 21.2783 30.3497 21.4006 30.0798 21.7727H30.0656V21.3484H29.2578V24.3812Z" fill="#DA0021"/>
<path d="M38.4648 24.3812H39.3312V22.8963C39.3312 22.5079 39.4662 21.8895 40.0929 21.8895C40.6486 21.8895 40.6557 22.3911 40.6557 22.7614V24.3812H41.5203V22.4666C41.5203 21.7835 41.1794 21.2783 40.3912 21.2783C39.9384 21.2783 39.5691 21.4132 39.2993 21.7601H39.2851V21.3484H38.4648V24.3812Z" fill="#DA0021"/>
<path d="M42.6235 23.4681C42.6235 24.0685 42.9981 24.4514 43.6764 24.4514C43.9356 24.4514 44.1362 24.428 44.3173 24.3813L44.2907 23.7575C44.2001 23.8096 44.051 23.8384 43.8965 23.8384C43.5663 23.8384 43.4899 23.5975 43.4899 23.3386V21.9256H44.2587V21.3486H43.4899V20.4893L42.6235 20.7427V21.3486H41.9844V21.9256H42.6235V23.4681Z" fill="#DA0021"/>
<path d="M45.4769 24.3806H46.3415V21.925H47.0978V21.3479H46.3415V20.9704C46.3415 20.7349 46.432 20.5066 46.7232 20.5066C46.9096 20.5066 47.0197 20.5713 47.0978 20.6126L47.1688 19.9583C47.0002 19.9223 46.7552 19.8936 46.535 19.8936C45.8515 19.8936 45.4769 20.3178 45.4769 20.9236V21.3479H44.8359V21.925H45.4769V24.3806Z" fill="#DA0021"/>
<path d="M51.4375 24.3812H52.3039V22.8963C52.3039 22.5079 52.4388 21.8895 53.0656 21.8895C53.6213 21.8895 53.6284 22.3911 53.6284 22.7614V24.3812H54.4948V22.4666C54.4948 21.7835 54.1521 21.2783 53.3638 21.2783C52.9111 21.2783 52.5436 21.4132 52.272 21.7601H52.2577V21.3484H51.4375V24.3812Z" fill="#DA0021"/>
<path d="M61.3258 21.3898C61.0542 21.3358 60.7896 21.2783 60.3831 21.2783C59.7048 21.2783 59.0781 21.566 59.0781 22.2203C59.0781 23.3151 60.5837 22.9088 60.5837 23.5039C60.5837 23.7987 60.2339 23.8742 60.0138 23.8742C59.7173 23.8742 59.4332 23.7987 59.1616 23.6747L59.1101 24.3218C59.4261 24.3991 59.7617 24.4513 60.0919 24.4513C60.7967 24.4513 61.4874 24.169 61.4874 23.4625C61.4874 22.3677 59.9818 22.6733 59.9818 22.1898C59.9818 21.9309 60.2606 21.8554 60.4931 21.8554C60.8092 21.8554 61.0027 21.9021 61.2672 21.9848L61.3258 21.3898Z" fill="#DA0021"/>
</svg>
