<svg width="310" height="52" viewBox="0 0 310 52" fill="none" xmlns="http://www.w3.org/2000/svg">
<path d="M4.6875 30.9922H1.32102V20.0831H4.83665C5.89489 20.0831 6.80043 20.3015 7.55327 20.7383C8.30611 21.1715 8.88317 21.7947 9.28445 22.608C9.68572 23.4176 9.88636 24.3871 9.88636 25.5163C9.88636 26.6527 9.68395 27.631 9.27912 28.4513C8.87429 29.2681 8.2848 29.8967 7.51065 30.337C6.73651 30.7738 5.79545 30.9922 4.6875 30.9922ZM2.64205 29.8203H4.60227C5.50426 29.8203 6.25178 29.6463 6.84482 29.2983C7.43786 28.9503 7.87997 28.4549 8.17116 27.8121C8.46236 27.1694 8.60795 26.4041 8.60795 25.5163C8.60795 24.6357 8.46413 23.8775 8.17649 23.2418C7.88885 22.6026 7.45916 22.1126 6.88743 21.7717C6.3157 21.4272 5.60369 21.255 4.75142 21.255H2.64205V29.8203ZM12.1023 30.9922V20.0831H18.6861V21.255H13.4233V24.9411H18.3452V26.1129H13.4233V29.8203H18.7713V30.9922H12.1023ZM27.033 22.8104C26.9691 22.2706 26.7099 21.8516 26.2553 21.5533C25.8008 21.255 25.2433 21.1058 24.5827 21.1058C24.0998 21.1058 23.6772 21.1839 23.315 21.3402C22.9563 21.4964 22.6758 21.7113 22.4734 21.9847C22.2745 22.2582 22.1751 22.5689 22.1751 22.9169C22.1751 23.2081 22.2443 23.4585 22.3828 23.668C22.5249 23.8739 22.706 24.0462 22.9261 24.1847C23.1463 24.3196 23.3771 24.4315 23.6186 24.5202C23.8601 24.6055 24.082 24.6747 24.2844 24.728L25.3924 25.0263C25.6765 25.1009 25.9925 25.2038 26.3406 25.3352C26.6921 25.4666 27.0277 25.646 27.3473 25.8732C27.6705 26.0969 27.9368 26.3846 28.1463 26.7362C28.3558 27.0877 28.4606 27.5192 28.4606 28.0305C28.4606 28.62 28.3061 29.1527 27.9972 29.6286C27.6918 30.1044 27.2443 30.4826 26.6548 30.7631C26.0689 31.0437 25.3569 31.1839 24.5188 31.1839C23.7376 31.1839 23.0611 31.0579 22.4893 30.8058C21.9212 30.5536 21.4737 30.2021 21.147 29.7511C20.8239 29.3001 20.641 28.7763 20.5984 28.1797H21.962C21.9975 28.5916 22.136 28.9325 22.3775 29.2024C22.6225 29.4687 22.9315 29.6676 23.3043 29.799C23.6808 29.9268 24.0856 29.9908 24.5188 29.9908C25.0231 29.9908 25.4759 29.9091 25.8771 29.7457C26.2784 29.5788 26.5962 29.348 26.8306 29.0533C27.065 28.755 27.1822 28.407 27.1822 28.0092C27.1822 27.647 27.081 27.3523 26.8786 27.125C26.6761 26.8977 26.4098 26.7131 26.0795 26.571C25.7493 26.429 25.3924 26.3047 25.0089 26.1982L23.6665 25.8146C22.8143 25.5696 22.1396 25.2198 21.6424 24.7653C21.1452 24.3107 20.8967 23.7159 20.8967 22.9808C20.8967 22.37 21.0618 21.8374 21.392 21.3828C21.7259 20.9247 22.1733 20.5696 22.7344 20.3175C23.299 20.0618 23.9293 19.9339 24.6254 19.9339C25.3285 19.9339 25.9535 20.06 26.5004 20.3121C27.0472 20.5607 27.4805 20.9016 27.8001 21.3349C28.1232 21.7681 28.2937 22.2599 28.3114 22.8104H27.033ZM31.9536 20.0831V30.9922H30.6325V20.0831H31.9536ZM42.0597 23.4922C41.9425 23.1335 41.788 22.8121 41.5962 22.5281C41.408 22.2404 41.1825 21.9954 40.9197 21.793C40.6605 21.5906 40.3658 21.4361 40.0355 21.3295C39.7053 21.223 39.343 21.1697 38.9489 21.1697C38.3026 21.1697 37.7148 21.3366 37.1857 21.6705C36.6566 22.0043 36.2358 22.4961 35.9233 23.146C35.6108 23.7958 35.4545 24.593 35.4545 25.5376C35.4545 26.4822 35.6126 27.2795 35.9286 27.9293C36.2447 28.5792 36.6726 29.071 37.2124 29.4048C37.7521 29.7386 38.3594 29.9055 39.0341 29.9055C39.6591 29.9055 40.2095 29.7724 40.6854 29.506C41.1648 29.2362 41.5376 28.8562 41.804 28.3661C42.0739 27.8725 42.2088 27.2919 42.2088 26.6243L42.6136 26.7095H39.3324V25.5376H43.4872V26.7095C43.4872 27.608 43.2955 28.3892 42.9119 29.0533C42.532 29.7173 42.0064 30.2322 41.3352 30.598C40.6676 30.9602 39.9006 31.1413 39.0341 31.1413C38.0682 31.1413 37.2195 30.9141 36.4879 30.4595C35.7599 30.005 35.1918 29.3587 34.7834 28.5206C34.3786 27.6825 34.1761 26.6882 34.1761 25.5376C34.1761 24.6747 34.2915 23.8988 34.5224 23.2099C34.7567 22.5174 35.087 21.9279 35.5131 21.4414C35.9393 20.9549 36.4435 20.582 37.0259 20.3228C37.6083 20.0636 38.2493 19.9339 38.9489 19.9339C39.5241 19.9339 40.0604 20.021 40.5575 20.195C41.0582 20.3654 41.5039 20.6087 41.8945 20.9247C42.2887 21.2372 42.6172 21.6119 42.88 22.0487C43.1428 22.4819 43.3239 22.9631 43.4233 23.4922H42.0597ZM54.4003 20.0831V30.9922H53.1219L47.1773 22.4268H47.0708V30.9922H45.7497V20.0831H47.0281L52.9941 28.6697H53.1006V20.0831H54.4003ZM68.4215 20.0831H69.7425V27.3061C69.7425 28.0518 69.5668 28.7177 69.2152 29.3036C68.8672 29.886 68.3754 30.3459 67.7397 30.6832C67.104 31.017 66.3583 31.1839 65.5025 31.1839C64.6467 31.1839 63.9009 31.017 63.2653 30.6832C62.6296 30.3459 62.136 29.886 61.7844 29.3036C61.4364 28.7177 61.2624 28.0518 61.2624 27.3061V20.0831H62.5835V27.1996C62.5835 27.7322 62.7006 28.2063 62.935 28.6218C63.1694 29.0337 63.5032 29.3587 63.9364 29.5966C64.3732 29.831 64.8952 29.9482 65.5025 29.9482C66.1097 29.9482 66.6317 29.831 67.0685 29.5966C67.5053 29.3587 67.8391 29.0337 68.07 28.6218C68.3043 28.2063 68.4215 27.7322 68.4215 27.1996V20.0831ZM81.0312 20.0831V30.9922H79.7528L73.8081 22.4268H73.7016V30.9922H72.3806V20.0831H73.659L79.6249 28.6697H79.7314V20.0831H81.0312ZM87.041 30.9922H83.6745V20.0831H87.1902C88.2484 20.0831 89.1539 20.3015 89.9068 20.7383C90.6596 21.1715 91.2367 21.7947 91.638 22.608C92.0392 23.4176 92.2399 24.3871 92.2399 25.5163C92.2399 26.6527 92.0375 27.631 91.6326 28.4513C91.2278 29.2681 90.6383 29.8967 89.8642 30.337C89.09 30.7738 88.149 30.9922 87.041 30.9922ZM84.9956 29.8203H86.9558C87.8578 29.8203 88.6053 29.6463 89.1983 29.2983C89.7914 28.9503 90.2335 28.4549 90.5247 27.8121C90.8159 27.1694 90.9615 26.4041 90.9615 25.5163C90.9615 24.6357 90.8176 23.8775 90.53 23.2418C90.2424 22.6026 89.8127 22.1126 89.2409 21.7717C88.6692 21.4272 87.9572 21.255 87.1049 21.255H84.9956V29.8203ZM98.6745 30.9922V20.0831H105.258V21.255H99.9956V24.9411H104.917V26.1129H99.9956V29.8203H105.344V30.9922H98.6745ZM116.29 20.0831V30.9922H115.012L109.067 22.4268H108.96V30.9922H107.639V20.0831H108.918L114.884 28.6697H114.99V20.0831H116.29ZM118.337 21.255V20.0831H126.519V21.255H123.088V30.9922H121.767V21.255H118.337ZM130.539 30.9922L127.556 20.0831H128.898L131.178 28.968H131.285L133.607 20.0831H135.099L137.421 28.968H137.528L139.807 20.0831H141.15L138.167 30.9922H136.803L134.395 22.299H134.31L131.903 30.9922H130.539ZM144.117 20.0831V30.9922H142.796V20.0831H144.117ZM155.544 23.4922H154.223C154.145 23.1122 154.008 22.7784 153.813 22.4908C153.621 22.2031 153.386 21.9616 153.109 21.7663C152.836 21.5675 152.532 21.4183 152.199 21.3189C151.865 21.2195 151.517 21.1697 151.155 21.1697C150.494 21.1697 149.896 21.3366 149.359 21.6705C148.827 22.0043 148.402 22.4961 148.086 23.146C147.774 23.7958 147.618 24.593 147.618 25.5376C147.618 26.4822 147.774 27.2795 148.086 27.9293C148.402 28.5792 148.827 29.071 149.359 29.4048C149.896 29.7386 150.494 29.9055 151.155 29.9055C151.517 29.9055 151.865 29.8558 152.199 29.7564C152.532 29.657 152.836 29.5096 153.109 29.3143C153.386 29.1154 153.621 28.8722 153.813 28.5845C154.008 28.2933 154.145 27.9595 154.223 27.5831H155.544C155.444 28.1406 155.263 28.6396 155 29.0799C154.738 29.5202 154.411 29.8949 154.02 30.2038C153.63 30.5092 153.191 30.7418 152.705 30.9016C152.222 31.0614 151.705 31.1413 151.155 31.1413C150.224 31.1413 149.397 30.9141 148.672 30.4595C147.948 30.005 147.378 29.3587 146.962 28.5206C146.547 27.6825 146.339 26.6882 146.339 25.5376C146.339 24.3871 146.547 23.3928 146.962 22.5547C147.378 21.7166 147.948 21.0703 148.672 20.6158C149.397 20.1612 150.224 19.9339 151.155 19.9339C151.705 19.9339 152.222 20.0138 152.705 20.1737C153.191 20.3335 153.63 20.5678 154.02 20.8768C154.411 21.1822 154.738 21.555 155 21.9954C155.263 22.4322 155.444 22.9311 155.544 23.4922ZM157.678 30.9922V20.0831H158.999V25.495H159.127L164.028 20.0831H165.754L161.173 25.005L165.754 30.9922H164.156L160.363 25.9212L158.999 27.4553V30.9922H157.678ZM167.464 30.9922V20.0831H168.785V29.8203H173.856V30.9922H167.464ZM183.06 20.0831H184.381V27.3061C184.381 28.0518 184.205 28.7177 183.854 29.3036C183.506 29.886 183.014 30.3459 182.378 30.6832C181.743 31.017 180.997 31.1839 180.141 31.1839C179.285 31.1839 178.54 31.017 177.904 30.6832C177.268 30.3459 176.775 29.886 176.423 29.3036C176.075 28.7177 175.901 28.0518 175.901 27.3061V20.0831H177.222V27.1996C177.222 27.7322 177.339 28.2063 177.574 28.6218C177.808 29.0337 178.142 29.3587 178.575 29.5966C179.012 29.831 179.534 29.9482 180.141 29.9482C180.748 29.9482 181.27 29.831 181.707 29.5966C182.144 29.3587 182.478 29.0337 182.709 28.6218C182.943 28.2063 183.06 27.7322 183.06 27.1996V20.0831ZM195.67 20.0831V30.9922H194.391L188.447 22.4268H188.34V30.9922H187.019V20.0831H188.298L194.264 28.6697H194.37V20.0831H195.67ZM205.771 23.4922C205.653 23.1335 205.499 22.8121 205.307 22.5281C205.119 22.2404 204.893 21.9954 204.631 21.793C204.371 21.5906 204.077 21.4361 203.746 21.3295C203.416 21.223 203.054 21.1697 202.66 21.1697C202.013 21.1697 201.426 21.3366 200.897 21.6705C200.368 22.0043 199.947 22.4961 199.634 23.146C199.322 23.7958 199.165 24.593 199.165 25.5376C199.165 26.4822 199.324 27.2795 199.64 27.9293C199.956 28.5792 200.384 29.071 200.923 29.4048C201.463 29.7386 202.07 29.9055 202.745 29.9055C203.37 29.9055 203.92 29.7724 204.396 29.506C204.876 29.2362 205.249 28.8562 205.515 28.3661C205.785 27.8725 205.92 27.2919 205.92 26.6243L206.325 26.7095H203.043V25.5376H207.198V26.7095C207.198 27.608 207.006 28.3892 206.623 29.0533C206.243 29.7173 205.717 30.2322 205.046 30.598C204.379 30.9602 203.612 31.1413 202.745 31.1413C201.779 31.1413 200.93 30.9141 200.199 30.4595C199.471 30.005 198.903 29.3587 198.494 28.5206C198.089 27.6825 197.887 26.6882 197.887 25.5376C197.887 24.6747 198.002 23.8988 198.233 23.2099C198.468 22.5174 198.798 21.9279 199.224 21.4414C199.65 20.9549 200.154 20.582 200.737 20.3228C201.319 20.0636 201.96 19.9339 202.66 19.9339C203.235 19.9339 203.771 20.021 204.268 20.195C204.769 20.3654 205.215 20.6087 205.605 20.9247C206 21.2372 206.328 21.6119 206.591 22.0487C206.854 22.4819 207.035 22.9631 207.134 23.4922H205.771Z" fill="#696969"/>
<g clip-path="url(#clip0_308_2101)">
<path d="M248.51 13.4956V19.2704C248.552 19.2603 248.593 19.2481 248.633 19.2337C249.941 18.5723 251.385 18.2506 252.84 18.2965C253.481 18.2987 254.115 18.4333 254.704 18.6924C255.796 19.1936 256.385 20.119 256.633 21.2767C256.778 21.9346 256.857 22.6064 256.868 23.2812C256.893 26.1478 256.879 29.0126 256.879 31.8792V32.118H253.787V31.8641C253.787 29.1028 253.787 26.3432 253.787 23.5819C253.787 23.1262 253.742 22.6718 253.652 22.2255C253.491 21.4521 253.015 21.0662 252.251 20.9843C251.118 20.8607 250.068 21.1681 249.039 21.5991C248.51 21.8145 248.51 21.8179 248.51 22.4109V32.113H245.465V31.8808C245.465 25.8337 245.465 19.7855 245.465 13.7361C245.465 13.539 245.521 13.4906 245.706 13.4922C246.564 13.5023 247.419 13.4922 248.277 13.4922L248.51 13.4956Z" fill="#555555"/>
<path d="M270.402 26.3784H261.751C261.751 26.7659 261.751 27.1418 261.751 27.5177C261.764 27.6996 261.791 27.8802 261.834 28.0572C262.052 29.0762 262.755 29.5272 263.674 29.716C264.506 29.8686 265.354 29.9023 266.195 29.8162C267.347 29.7227 268.494 29.5857 269.645 29.4688C269.719 29.4688 269.793 29.4588 269.884 29.4537C269.884 29.5155 269.902 29.569 269.903 29.6208C269.903 30.3174 269.903 31.0123 269.916 31.7072C269.916 31.8592 269.879 31.9227 269.724 31.9595C268.475 32.2414 267.205 32.4091 265.928 32.4606C264.787 32.5354 263.642 32.4579 262.52 32.2301C261.428 31.9845 260.462 31.5084 259.769 30.5596C259.278 29.858 258.967 29.0398 258.863 28.1808C258.588 26.3814 258.598 24.5477 258.894 22.7518C259.027 21.9539 259.319 21.1929 259.75 20.5167C260.358 19.5692 261.282 18.8859 262.347 18.5973C263.701 18.1966 265.134 18.1712 266.501 18.5238C268.306 18.9815 269.455 20.1826 270.025 21.9834C270.441 23.3689 270.58 24.8271 270.434 26.2698C270.426 26.3069 270.415 26.3432 270.402 26.3784ZM267.439 24.3087C267.4 23.8426 267.389 23.4016 267.324 22.9723C267.162 21.8297 266.528 21.1264 265.454 20.9293C264.992 20.853 264.522 20.8334 264.056 20.8708C262.96 20.9427 262.219 21.5674 261.91 22.6298C261.85 22.8307 261.809 23.0371 261.787 23.2463C261.753 23.5971 261.743 23.9512 261.722 24.3137L267.439 24.3087Z" fill="#555555"/>
<path d="M281.539 21.1314V18.7359C281.976 18.6608 282.429 18.5689 282.886 18.5088C284.165 18.3182 285.459 18.2517 286.751 18.31C287.442 18.3452 288.128 18.4452 288.801 18.609C290.217 18.9681 291.029 19.9454 291.256 21.4254C291.343 21.9935 291.388 22.5675 291.392 23.1427C291.405 26.0426 291.392 28.9442 291.392 31.8458V32.1098H288.575V31.2645C288.339 31.4015 288.14 31.5318 287.928 31.6387C286.392 32.4121 284.784 32.7228 283.098 32.3336C281.678 31.9995 280.823 30.9789 280.659 29.4804C280.562 28.6848 280.573 27.8792 280.691 27.0866C280.895 25.8121 281.602 24.9735 282.774 24.5392C283.468 24.2881 284.196 24.1478 284.931 24.1232C285.97 24.0815 287.01 24.0798 288.051 24.0614H288.334C288.316 23.3565 288.392 22.6766 288.23 22.0067C288.068 21.3369 287.575 21.0445 286.968 21.0044C286.143 20.9443 285.313 20.9276 284.486 20.9527C283.517 20.971 282.547 21.0629 281.539 21.1314ZM288.411 26.0075C288.37 25.9991 288.327 25.993 288.285 25.9891C287.476 25.9891 286.652 25.9741 285.839 26.0142C285.406 26.042 284.978 26.1205 284.562 26.2481C284.33 26.3027 284.119 26.4301 283.96 26.6127C283.8 26.7954 283.699 27.0245 283.67 27.2687C283.597 27.8441 283.58 28.4255 283.619 29.0044C283.662 29.6091 284.049 29.9699 284.62 30.0968C284.826 30.1433 285.035 30.1707 285.245 30.1787C286.355 30.2155 287.348 29.8179 288.3 29.275C288.332 29.2489 288.358 29.216 288.376 29.1785C288.395 29.141 288.405 29.0998 288.406 29.0578C288.416 28.5734 288.406 28.0889 288.406 27.6045L288.411 26.0075Z" fill="#555555"/>
<path d="M304.793 32.1128H301.719V31.8339C301.719 29.0392 301.719 26.2428 301.719 23.4464C301.717 23.0115 301.677 22.5777 301.601 22.1501C301.467 21.4118 301.049 21.0643 300.331 20.9808C299.522 20.8806 298.779 21.1111 298.044 21.3901C297.567 21.5721 297.106 21.7993 296.63 21.9898C296.566 22.0085 296.512 22.051 296.476 22.109C296.441 22.167 296.428 22.2364 296.439 22.3038C296.439 25.4788 296.439 28.6527 296.439 31.8255V32.1112H293.41V18.6438H296.323V19.6127L296.858 19.337C297.884 18.7808 299.004 18.4337 300.158 18.3147C300.993 18.2282 301.837 18.3261 302.633 18.602C303.721 18.9996 304.34 19.8348 304.562 20.9658C304.701 21.6612 304.775 22.3688 304.782 23.0789C304.806 26.0072 304.793 28.9373 304.793 31.8673V32.1128Z" fill="#555555"/>
<path d="M234.25 29.4902C234.714 29.5737 235.161 29.6573 235.609 29.7341C236.802 29.951 238.016 30.0283 239.226 29.9646C239.463 29.9451 239.697 29.9054 239.928 29.846C240.747 29.6406 240.968 29.1378 240.908 28.351C240.899 28.1596 240.84 27.9742 240.738 27.814C240.637 27.6537 240.495 27.5242 240.329 27.4389C239.879 27.1933 239.417 26.9728 238.951 26.7623C238.087 26.3714 237.206 26.019 236.35 25.6097C235.754 25.327 235.224 24.9137 234.797 24.3986C234.174 23.6469 233.956 22.7599 234.007 21.796C234.021 21.4174 234.076 21.0415 234.169 20.6751C234.449 19.6478 235.163 19.0514 236.111 18.7123C236.955 18.4355 237.835 18.2963 238.721 18.2997C240.189 18.2657 241.656 18.4132 243.09 18.739C243.251 18.7741 243.298 18.8376 243.297 19.003C243.297 19.6361 243.297 20.2675 243.31 20.899C243.31 20.9758 243.31 21.0526 243.31 21.1495C242.949 21.1011 242.607 21.051 242.266 21.0092C240.955 20.8422 239.643 20.7135 238.321 20.8171C238.064 20.8435 237.811 20.8995 237.566 20.9842C237.415 21.0304 237.282 21.1231 237.185 21.2497C237.087 21.3764 237.03 21.5309 237.02 21.6924C236.951 22.2537 237.121 22.7098 237.619 22.9587C238.266 23.2827 238.931 23.5701 239.596 23.8524C240.464 24.2199 241.341 24.5673 242.143 25.0768C242.881 25.5429 243.506 26.1242 243.74 27.0196C244.064 28.2791 244.038 29.5153 243.316 30.6429C242.79 31.4647 241.991 31.889 241.099 32.1463C240.059 32.4553 238.996 32.4804 237.923 32.4353C236.775 32.3867 235.632 32.2363 234.509 31.9859C234.305 31.9391 234.237 31.859 234.242 31.6385C234.26 30.9302 234.25 30.2286 234.25 29.4902Z" fill="#555555"/>
<path d="M279.454 29.8045V32.1164C279.1 32.1916 278.737 32.2835 278.373 32.3403C277.443 32.5251 276.488 32.5347 275.554 32.3687C274.291 32.1164 273.571 31.3748 273.351 30.0517C273.273 29.5815 273.232 29.1055 273.229 28.6285C273.218 26.2347 273.229 23.8392 273.229 21.4454V21.1815H271.035V18.639H273.218V15.2129H276.284V18.624H279.454V21.1531C279.376 21.1531 279.292 21.1648 279.219 21.1648C278.315 21.1648 277.41 21.1648 276.506 21.1648C276.334 21.1648 276.287 21.2183 276.287 21.392C276.287 23.8843 276.287 26.3778 276.287 28.8724C276.289 29.0198 276.299 29.1671 276.317 29.3134C276.368 29.7678 276.569 29.9699 277.012 30.0183C277.793 30.0777 278.578 30.0124 279.339 29.8245C279.376 29.8145 279.415 29.8112 279.454 29.8045Z" fill="#555555"/>
<path d="M306.883 18.6421H309.946V32.0995H306.883V18.6421Z" fill="#555555"/>
<path d="M308.418 16.544C307.956 16.544 307.493 16.544 307.03 16.544C306.899 16.544 306.834 16.519 306.836 16.3603C306.836 15.4615 306.836 14.5628 306.836 13.6641C306.836 13.5388 306.87 13.4971 306.998 13.4971C307.943 13.4971 308.888 13.4971 309.834 13.4971C309.962 13.4971 309.996 13.5455 309.996 13.6641C309.996 14.5645 309.996 15.4632 309.996 16.3619C309.996 16.5206 309.935 16.5474 309.804 16.5457C309.349 16.5407 308.881 16.544 308.418 16.544Z" fill="#555555"/>
</g>
<defs>
<clipPath id="clip0_308_2101">
<rect width="76" height="19" fill="white" transform="translate(234 13.4922)"/>
</clipPath>
</defs>
</svg>
