<svg width="61" height="21" viewBox="0 0 61 21" fill="none" xmlns="http://www.w3.org/2000/svg">
<g clip-path="url(#clip0_308_1689)">
<path d="M17.9454 1.46973V20.7197H0.296875V1.46973H17.9454Z" fill="#AF073C"/>
<path d="M17.6501 1.71973H0.59375V20.4072H17.6501V1.71973Z" fill="white"/>
<path d="M48.207 12.0947H50.3391V18.8447H52.7672V20.7197H48.207V12.0947Z" fill="#AF073C"/>
<path d="M24.0458 1.40723V3.09473H21.3216V4.65723H24.0458V6.53223H21.3216V10.0322H19.3672V1.40723H24.0458Z" fill="#AF073C"/>
<path d="M36.6585 1.40723H38.6721V10.0322H36.6585V6.78223H34.0527V10.0322H32.0391V1.40723H34.0527V4.71973H36.6585V1.40723Z" fill="#AF073C"/>
<path d="M52.7066 1.40723V3.34473H50.1008V4.71973H52.7066V6.59472H50.1008V8.09472H52.7066V10.0322H47.9688V1.40723H52.7066Z" fill="#AF073C"/>
<path fill-rule="evenodd" clip-rule="evenodd" d="M34.705 20.7197H32.6914V12.0947H36.304C36.7186 12.0947 37.1924 12.2822 37.5477 12.4697C37.9031 12.7197 38.1992 13.0947 38.4361 13.4697C38.6137 13.7822 38.673 14.1572 38.7322 14.5322C38.7914 15.0322 38.7322 15.5322 38.6137 15.9697C38.4361 16.4697 38.0807 16.9072 37.6662 17.2822C37.4293 17.4697 37.1924 17.5947 36.8963 17.7197L38.8506 20.6572H36.4225L34.705 17.7197V20.7197ZM35.5341 16.4072C35.771 16.4072 36.7778 16.4697 36.7778 15.0947C36.7778 13.9072 35.8895 13.9072 35.5341 13.9072H34.7642V16.4072H35.5341Z" fill="#AF073C"/>
<path d="M23.9866 12.0947H26.0002V20.7197H23.9866V17.4697H21.3808V20.7197H19.3672V12.0947H21.3808V15.4072H23.9866V12.0947Z" fill="#AF073C"/>
<path d="M31.8004 12.0947V14.0322H29.1945V15.4072H31.8004V17.3447H29.1945V18.8447H31.8004V20.7197H27.0625V12.0947H31.8004Z" fill="#AF073C"/>
<path d="M55.6698 10.0322H53.6562V1.40723H55.433L58.5718 6.03223V1.40723H60.5853V10.0322H58.8679L55.6698 5.28223V10.0322Z" fill="#AF073C"/>
<path d="M26.0602 8.71972L25.5272 10.0322H23.3359L26.7117 1.40723H28.4291L31.7457 10.0322H29.4952L28.9622 8.71972H26.0602ZM28.3699 7.03223L27.4816 4.53223L26.6524 7.03223H28.3699Z" fill="#AF073C"/>
<path d="M47.7333 16.3439C47.7333 17.7814 47.0226 19.1564 45.9566 19.9689C44.7721 20.8439 43.2915 20.9689 41.9886 20.4064C40.7449 19.8439 39.7381 18.6564 39.5012 17.2189C39.2051 15.7814 39.6789 14.2189 40.6857 13.1564C41.6925 12.0939 43.1731 11.6564 44.5352 11.9689C45.8381 12.2814 46.9634 13.2189 47.4964 14.5314C47.6148 15.1564 47.7333 15.7814 47.7333 16.3439ZM45.7197 16.3439C45.7197 15.7814 45.5421 15.2814 45.1867 14.8439C44.8314 14.4689 44.3576 14.1564 43.8838 14.0939C43.3508 14.0314 42.8178 14.0939 42.4032 14.4064C41.9886 14.7189 41.6333 15.1564 41.5148 15.6564C41.3372 16.1564 41.3964 16.7814 41.5741 17.2814C41.7517 17.7814 42.1663 18.1564 42.6401 18.4064C43.1139 18.6564 43.6469 18.7189 44.1799 18.5314C44.6537 18.4064 45.1275 18.0314 45.4236 17.5939C45.6012 17.2814 45.7197 16.7814 45.7197 16.3439C45.7197 15.7814 45.7197 16.7814 45.7197 16.3439Z" fill="#AF073C"/>
<path d="M41.8684 10.0322H39.9141V1.40723H41.6908L44.7704 6.03223V1.40723H46.784L46.8432 10.0322H45.0665L41.9277 5.28223L41.8684 10.0322Z" fill="#AF073C"/>
<path d="M57.3873 20.7197H53.6562V12.1572H57.5058C58.098 12.1572 58.6902 12.3447 59.164 12.6572C59.6377 12.9697 60.1115 13.4697 60.3484 13.9697C60.4669 14.1572 60.5261 14.3447 60.5853 14.5947C60.763 15.0322 60.8222 15.4072 60.8814 15.8447C60.9407 16.5322 60.8814 17.1572 60.7038 17.8447C60.5261 18.4697 60.1708 19.0947 59.7562 19.5947C59.5193 19.8447 59.2824 20.0322 58.9863 20.2197C58.631 20.4072 58.2757 20.5947 57.8611 20.6572C57.6834 20.7197 57.565 20.7197 57.3873 20.7197ZM55.7291 18.7822H57.1504C57.4465 18.7822 57.7427 18.7197 57.9796 18.5322C58.2164 18.4072 58.4533 18.1572 58.5718 17.9072C58.631 17.7822 58.6902 17.7197 58.6902 17.5947C58.8679 17.0947 58.9271 16.5322 58.8679 15.9697C58.8087 15.4697 58.5718 14.9697 58.3349 14.5947C58.1572 14.4072 57.9203 14.2197 57.6834 14.1572C57.565 14.0947 57.3873 14.0947 57.2689 14.0947C57.2097 14.0947 57.1504 14.0947 57.0912 14.0947H55.7291V18.7822Z" fill="#AF073C"/>
<path d="M1.18359 2.46973L2.24961 11.4697L2.42728 12.7822L2.54573 13.9072C2.60495 14.3447 2.7234 14.7822 2.90107 15.2197C3.31563 16.3447 3.96709 17.4072 4.85544 18.1572C5.74379 18.9072 6.80981 19.4697 7.99427 19.6572C8.52728 19.7197 9.11952 19.7197 9.71175 19.6572C10.837 19.5322 11.903 19.0322 12.8506 18.3447C13.7389 17.5947 14.4496 16.6572 14.9234 15.5322C15.1603 14.8447 15.338 14.2197 15.4564 13.5322L15.5749 12.7822L15.8118 11.3447L17.1147 2.46973H1.18359ZM2.30884 3.28223L2.48651 3.21973L2.54573 3.34473H2.36806L2.30884 3.28223ZM2.36806 3.46973H11.0147L3.07874 6.71973L3.01952 6.40723L3.67097 6.15723L3.55253 5.71973L2.90107 5.84473L2.84185 5.53223L3.43408 5.34473L3.31563 4.78223L2.66418 4.90723L2.60495 4.59473L3.25641 4.40723L3.13796 3.90723H2.42728L2.36806 3.46973ZM3.43408 8.34471L3.13796 6.96973L3.31563 6.90723L3.61175 8.28221L3.43408 8.34471ZM2.96029 5.96973L3.13796 5.90723L3.19719 6.21973L3.01952 6.28223L2.96029 5.96973ZM2.78262 5.40723L2.7234 5.09473L2.90107 5.03223L2.96029 5.34473L2.78262 5.40723ZM2.60495 4.46973L2.54573 4.09473L2.7234 4.03223L2.78262 4.34473L2.60495 4.46973Z" fill="#282878"/>
<path d="M4.79711 5.78223H4.73789H4.67866H4.61944H4.56022H4.501H4.44177L4.38255 5.71973H4.32333L4.26411 5.65723H4.20488V5.59473H4.14566V5.53223H4.08643V5.46973L4.02721 5.40723V5.34473H3.96799V5.28223V5.21973L3.90876 5.09473L3.67188 4.03223L5.2709 3.65723L5.50779 4.71973V4.84473V4.90723H5.56701V4.96973V5.03223L5.50779 5.09473V5.15723V5.21973V5.28223L5.44857 5.34473V5.40723H5.38934V5.46973H5.33012V5.53223L5.2709 5.59473H5.21167V5.65723H5.15246L5.09323 5.71973H5.034H4.97478L4.79711 5.78223Z" fill="#282878"/>
<path d="M4.85836 5.65723L4.50302 3.96973L3.85156 4.09473L4.02923 5.09473L4.08846 5.15723V5.21973V5.28223V5.34473H4.14768V5.40723L4.2069 5.46973L4.26613 5.53223H4.32535V5.59473H4.38457H4.4438V5.65723H4.50302H4.56224H4.62147H4.68069H4.73991H4.79914H4.85836Z" fill="#AF073C"/>
<path d="M15.1607 9.03223C15.1607 9.09473 14.8645 9.15723 14.8053 9.15723C14.7461 9.15723 14.7461 9.15723 14.7461 9.09473C14.7461 9.09473 14.7461 9.03223 14.8053 8.96973C14.8645 8.96973 15.0422 8.90723 15.1014 8.90723C15.1607 8.96973 15.1607 9.03223 15.1607 9.03223Z" fill="white"/>
<path d="M13.8579 9.40723C13.8579 9.46973 13.8579 9.65723 13.8579 9.65723H13.9763V9.84473L13.2656 9.90723L13.5617 8.78223L13.9171 8.71973C13.8579 8.96973 13.8579 9.21973 13.8579 9.40723Z" fill="white"/>
<path d="M13.5025 10.2822C13.9763 10.2822 14.2724 10.1572 14.4501 9.90723C14.5093 9.84473 14.5685 9.71973 14.5685 9.71973L14.687 9.78223C14.687 9.78223 14.6278 9.84473 14.6278 9.90723C14.5093 10.0947 14.3909 10.2197 14.2132 10.2822C14.0355 10.4072 13.7394 10.4072 13.5617 10.4072H13.2656L13.3248 10.2197C13.2656 10.2822 13.4433 10.2822 13.5025 10.2822Z" fill="white"/>
<path d="M14.685 9.71973C14.6258 9.71973 14.6258 9.65723 14.685 9.71973C14.6258 9.65723 14.6258 9.59473 14.685 9.59473C14.7443 9.59473 14.9219 9.53223 14.9219 9.53223H14.9812C14.9812 9.59473 14.9219 9.65723 14.9219 9.65723C14.8627 9.65723 14.685 9.71973 14.685 9.71973Z" fill="white"/>
<path d="M14.7475 9.40723C14.6883 9.40723 14.6883 9.40723 14.7475 9.40723C14.6883 9.34473 14.7475 9.28223 14.7475 9.28223C14.8068 9.21973 15.0437 9.21973 15.1029 9.21973C15.1029 9.21973 15.2213 9.28223 15.0437 9.34473C14.9252 9.40723 14.7475 9.40723 14.7475 9.40723Z" fill="white"/>
<path d="M15.0428 8.65631C15.0428 8.65631 15.1021 8.78131 15.0428 8.78131C15.0428 8.78131 14.8059 8.90631 14.7467 8.90631C14.6875 8.90631 14.6875 8.90631 14.6875 8.84381C14.6875 8.84381 14.6875 8.78131 14.7467 8.78131C14.7467 8.78131 14.9836 8.59381 15.0428 8.65631Z" fill="white"/>
<path d="M14.9274 8.34408C14.9274 8.40658 14.8682 8.46908 14.8682 8.53158C14.809 8.59408 14.7497 8.59408 14.6905 8.65658C14.6313 8.65658 14.5721 8.65658 14.5128 8.71908C14.4536 8.78158 14.4536 8.84408 14.4536 8.90658C14.4536 8.90658 14.4536 8.96908 14.4536 9.03158L14.3352 9.09408C14.3352 9.09408 14.3352 9.15658 14.3352 9.21908H14.4536C14.4536 9.28158 14.4536 9.34408 14.4536 9.40658C14.4536 9.46908 14.4536 9.53158 14.3944 9.59408L14.276 9.65658C14.2167 9.65658 14.1575 9.65658 14.1575 9.65658C14.0983 9.59408 14.0391 9.53158 14.0391 9.46908C14.0391 9.40658 14.0391 9.34408 14.0391 9.28158C14.0391 9.21908 14.0391 9.15658 14.0391 9.09408C14.0391 8.96908 14.276 8.65658 14.3352 8.65658C14.3944 8.59408 14.5128 8.59408 14.5721 8.59408C14.6905 8.53158 14.809 8.46908 14.8682 8.34408C14.9274 8.15658 14.9274 8.34408 14.9274 8.34408Z" fill="white"/>
<path d="M14.3918 7.65723C14.451 7.78223 14.5694 7.96973 14.5694 8.21973H14.3918C14.3918 8.21973 14.3325 7.90723 14.2141 7.78223C14.0956 7.59473 13.918 7.53223 13.918 7.53223L13.9772 7.40723C13.9772 7.40723 14.2141 7.46973 14.3918 7.65723Z" fill="white"/>
<path d="M14.0944 6.21973L13.9759 6.46973L13.1468 10.2822L13.0283 10.7822C13.0283 10.7822 12.9099 11.1572 13.1468 11.4697L12.1992 11.2197C12.2584 11.1572 12.3177 11.0947 12.3769 11.0322C12.4953 10.9072 12.6138 10.7197 12.673 10.5322L12.7915 10.1572L13.7982 6.40723L13.739 6.09473L14.0944 6.21973Z" fill="white"/>
<path d="M12.4944 8.71973C12.6129 8.78223 12.9682 8.78223 12.9682 8.78223L12.6721 9.90723C12.6721 9.90723 12.4944 9.96973 12.3168 9.84473C11.9614 9.65723 11.6653 9.34473 11.6653 9.34473L11.5469 7.90723C11.6061 7.90723 12.1983 8.59473 12.4944 8.71973Z" fill="white"/>
<path d="M11.016 6.72036C11.0752 6.78286 11.1344 6.84536 11.016 6.90786C10.9568 6.97036 10.8383 6.90786 10.7199 6.90786C10.483 6.84536 10.3645 6.59536 10.2461 6.40786C10.1869 6.15786 10.1276 5.97036 10.1276 5.72036C10.1276 5.59536 10.1276 5.47036 10.0684 5.40786C10.0092 5.34536 9.94996 5.34536 9.89074 5.34536C9.94996 5.59536 9.94996 5.84536 9.94996 6.09536C9.94996 6.15786 9.94996 6.28286 9.83152 6.28286C9.71307 6.34536 9.59462 6.28286 9.47618 6.28286C9.23928 6.22036 9.00239 6.15786 8.82472 6.03286C8.64705 5.84536 8.46938 5.65786 8.41016 5.40786C8.41016 5.15786 8.41016 4.84536 8.70627 4.78286C8.7655 4.78286 8.88394 4.78286 8.88394 4.84536C8.94317 4.90786 8.88394 5.03286 8.88394 5.15786C8.88394 5.34536 9.06161 5.47036 9.23928 5.47036C9.41695 5.53286 9.59462 5.53286 9.83152 5.53286V5.34536H9.59462C9.47618 5.34536 9.35773 5.34536 9.23928 5.28286C9.12084 5.22036 9.06161 5.15786 9.06161 5.03286C9.06161 4.90786 9.18006 4.78286 9.23928 4.72036C9.41695 4.53286 9.65385 4.40786 9.89074 4.47036C10.0092 4.47036 10.1276 4.47036 10.2461 4.53286C10.3645 4.59536 10.4237 4.65786 10.5422 4.78286C10.6606 4.97036 10.7199 5.22036 10.7199 5.47036V5.97036C10.7199 6.09536 10.7199 6.22036 10.7199 6.34536C10.7791 6.40786 10.8975 6.59536 11.016 6.72036Z" fill="white"/>
<path d="M8.82535 7.09473L8.7069 7.03223C8.7069 7.03223 8.58846 6.96973 8.52923 6.90723L8.47001 6.84473C8.47001 6.84473 8.47001 6.78223 8.47001 6.71973V6.65723C8.47001 6.65723 8.47001 6.59473 8.41079 6.59473L8.35156 6.53223V6.46973L8.41079 6.40723C8.41079 6.34473 8.47001 6.28223 8.52923 6.21973C8.52923 6.15723 8.52923 6.03223 8.58846 5.96973L8.64768 5.84473L8.76613 5.96973C8.82535 6.03223 8.9438 6.09473 9.00302 6.15723L9.18069 6.28223V6.90723C9.18069 6.90723 9.18069 7.03223 9.23991 7.03223L9.29914 7.09473C9.35836 7.09473 9.41758 7.09473 9.41758 7.09473C9.41758 7.09473 9.47681 7.15723 9.53603 7.15723C9.59525 7.15723 9.65448 7.15723 9.65448 7.15723C9.65448 7.15723 9.65448 7.46971 9.77292 7.71971C9.77292 7.71971 9.65448 7.78221 9.41758 7.78221C9.00302 7.71971 8.88457 7.59471 8.88457 7.59471C8.88457 7.59471 8.88457 7.46971 8.88457 7.40721C8.88457 7.21971 8.88457 7.15723 8.82535 7.09473Z" fill="white"/>
<path d="M9.29688 6.84473V6.40723C9.29688 6.34473 9.29688 6.28223 9.3561 6.28223C9.41532 6.28223 9.41532 6.34473 9.41532 6.40723V6.78223C9.41532 6.84473 9.41532 6.84473 9.41532 6.90723C9.3561 6.90723 9.29688 6.84473 9.29688 6.84473Z" fill="white"/>
<path d="M5.80291 9.96972C5.74369 9.96972 5.62524 9.96972 5.56602 9.96972C5.2699 9.96972 4.5 9.96972 4.5 9.96972L4.67767 8.96973C4.67767 8.96973 5.38835 8.96973 5.62524 8.84473C6.0398 8.65723 7.16505 7.71973 7.16505 7.71973L6.92815 9.34472C6.92815 9.34472 6.33592 9.90722 5.80291 9.96972Z" fill="white"/>
<path d="M3.61518 9.09473C3.61518 9.09473 3.6744 9.15723 3.61518 9.09473C3.6744 9.15723 3.6744 9.15723 3.6744 9.21973C3.6744 9.21973 3.6744 9.21973 3.61518 9.21973H3.55595C3.55595 9.21973 3.4375 9.21973 3.4375 9.15723C3.4375 9.15723 3.43751 9.09473 3.49673 9.09473C3.55595 9.09473 3.61518 9.09473 3.61518 9.09473Z" fill="white"/>
<path d="M3.19657 8.84473C3.19657 8.84473 3.25579 8.84473 3.31501 8.84473L3.37424 8.90723C3.37424 8.96973 3.43346 9.03223 3.37424 9.09473C3.37424 9.09473 3.31501 9.09473 3.25579 9.09473C3.19657 9.09473 3.13734 9.03223 3.13734 9.03223C3.13734 9.03223 3.07812 8.96973 3.07812 8.90723C3.13735 8.90723 3.13734 8.84473 3.19657 8.84473Z" fill="white"/>
<path d="M3.1972 9.21973C3.25642 9.21973 3.31565 9.21973 3.37487 9.28223C3.37487 9.28223 3.43409 9.34473 3.37487 9.34473L3.31565 9.40723C3.31565 9.40723 3.25642 9.40723 3.1972 9.40723C3.13798 9.40723 3.01953 9.40723 3.01953 9.34473V9.21973C3.07875 9.21973 3.1972 9.21973 3.1972 9.21973Z" fill="white"/>
<path d="M3.13817 9.53223C3.19739 9.53223 3.43428 9.59473 3.49351 9.59473C3.49351 9.59473 3.55273 9.65723 3.49351 9.65723L3.43428 9.71973C3.43428 9.71973 3.37506 9.71973 3.31584 9.71973C3.25661 9.71973 3.13817 9.71973 3.13817 9.65723C3.07894 9.59473 3.07894 9.53223 3.13817 9.53223Z" fill="white"/>
<path d="M3.20067 9.78223C3.25989 9.78223 3.49678 9.84473 3.55601 9.84473C3.55601 9.84473 3.61523 9.90722 3.55601 9.90722L3.49678 9.96972C3.49678 9.96972 3.43756 9.96972 3.37834 9.96972C3.31911 9.96972 3.20067 9.96972 3.20067 9.90722C3.14144 9.90722 3.14144 9.78223 3.20067 9.78223Z" fill="white"/>
<path d="M3.55469 9.46973V9.34473H3.61391C3.61391 9.34473 3.67313 9.34473 3.73236 9.40723V9.46973L3.67313 9.53223H3.61391C3.61391 9.46973 3.55469 9.46973 3.55469 9.46973Z" fill="white"/>
<path d="M3.55469 9.59473C3.55469 9.59473 3.61391 9.59473 3.67313 9.59473H3.73236L3.79158 9.65722H3.73236H3.67313H3.61391C3.55469 9.65722 3.55469 9.59473 3.55469 9.59473Z" fill="white"/>
<path d="M3.61226 9.84473C3.61226 9.84473 3.67148 9.84473 3.61226 9.84473C3.67148 9.84473 3.73071 9.84473 3.73071 9.84473C3.73071 9.84473 3.73071 9.84473 3.73071 9.90723C3.73071 9.90723 3.73071 9.90723 3.73071 9.96973C3.73071 9.96973 3.67148 9.96973 3.67148 10.0322H3.61226C3.61226 9.96973 3.55304 9.90723 3.61226 9.84473C3.55304 9.90723 3.61226 9.84473 3.61226 9.84473Z" fill="white"/>
<path d="M3.73186 8.59509C3.8503 8.53259 4.14642 8.84509 4.26487 8.97009C4.26487 8.97009 4.32409 9.03259 4.38331 9.03259C4.38331 9.03259 4.50176 9.40759 4.44254 9.65759C4.44254 9.72009 4.44254 9.78259 4.38331 9.78259C4.38331 9.78259 4.32409 9.84509 4.32409 9.78259C4.26487 9.78259 4.20564 9.72009 4.20564 9.65759C4.14642 9.59509 4.14642 9.47009 4.14642 9.40759C4.14642 9.34509 4.14642 9.28259 4.14642 9.22009C4.14642 9.09509 3.96875 8.97009 3.90953 8.90759C3.79108 8.90759 3.55419 8.72009 3.73186 8.59509Z" fill="white"/>
<path d="M3.78906 10.2197L3.90751 10.1572V9.90723C3.90751 9.84473 3.84829 9.78223 3.84829 9.78223L3.90751 9.46973C3.90751 9.46973 4.02596 9.71973 4.02596 9.90723C4.02596 10.0322 4.02596 10.0947 4.02596 10.1572V10.2822L4.55897 12.7822L5.32887 16.5947L5.1512 16.6572L4.32207 12.7197L3.78906 10.2197Z" fill="white"/>
<path d="M5.2703 18.0947C5.15186 18.1572 5.03341 18.0322 4.97419 17.9697C4.79652 17.7822 4.55962 17.5947 4.38195 17.4072C4.32273 17.2822 4.20428 17.2197 4.14506 17.0947C4.08584 17.0322 3.96739 16.8447 4.08584 16.8447C4.14506 16.8447 4.26351 16.8447 4.32273 16.9072C4.44118 16.9697 4.55962 16.9697 4.61885 17.0322C4.79652 17.0947 5.03341 17.2197 5.21108 17.3447C5.32953 17.4072 5.44797 17.4072 5.5072 17.5322C5.56642 17.5947 5.5072 17.7822 5.44797 17.8447C5.44797 17.8447 5.38875 18.0322 5.2703 18.0947Z" fill="white"/>
<path d="M7.81676 14.0947C7.81676 14.1572 7.75754 14.2822 7.75754 14.2822C7.69832 14.4697 7.57987 14.6572 7.46142 14.8447C7.46142 14.9072 7.4022 14.9697 7.34298 14.9697C7.28375 15.0322 7.22453 15.0947 7.22453 15.1572C7.16531 15.2197 7.10608 15.2822 7.04686 15.3447C6.92841 15.4697 6.75074 15.7197 6.6323 15.8447C6.51385 15.9697 6.27696 16.2822 6.15851 16.4072C6.09929 16.5322 5.92162 16.7197 5.8624 16.7822C5.80318 16.8447 5.74395 16.9697 5.68473 17.0322C5.68473 17.0947 5.62551 17.1572 5.56628 17.1572H5.44784C5.44784 17.1572 5.38861 17.1572 5.32939 17.1572C5.21094 17.0947 5.21094 17.0947 5.21094 17.0947C5.21094 17.0947 5.68473 16.0322 5.8624 15.6572C5.92162 15.5322 6.04006 15.2822 6.09929 15.1572C6.21773 14.9072 6.27696 14.6572 6.45463 14.4072C6.45463 14.3447 6.57307 14.2822 6.57307 14.2822L7.10608 14.4697L7.4022 13.4697L7.87599 13.5947C7.87599 13.5322 7.87598 13.9072 7.81676 14.0947Z" fill="white"/>
<path d="M13.5035 17.4072C13.3851 17.5322 13.2666 17.7197 13.1482 17.8447C13.0889 17.9072 12.9113 18.0947 12.7928 17.9697C12.6744 17.8447 12.4967 17.4072 12.5559 17.4072C12.6152 17.4072 12.9113 17.1572 12.9113 17.1572C12.9113 17.0947 12.7928 17.0947 12.7928 17.0947C12.7336 17.0947 12.6152 17.0947 12.5559 17.0322C12.4967 17.0322 12.4375 16.9072 12.3783 16.8447C12.2598 16.6572 12.1414 16.5322 12.0229 16.3447C11.786 16.0322 11.5491 15.7822 11.3122 15.4072C11.1938 15.2197 11.0753 15.0947 11.0161 14.9072C10.8977 14.7197 10.8385 14.5947 10.7792 14.4072C10.72 14.2197 10.6608 14.0322 10.6016 13.8447C10.6016 13.7822 10.6016 13.6572 10.6016 13.5947C10.6016 13.5322 10.6016 13.5322 10.6016 13.4697C10.6016 13.4697 10.6016 13.4072 10.6016 13.3447H10.6608C10.72 13.3447 10.7792 13.3447 10.7792 13.3447C10.8977 13.3447 10.9569 13.2822 11.0753 13.2822C11.1346 13.2822 11.1346 13.2822 11.1938 13.2822C11.253 13.2822 11.253 13.2822 11.253 13.2822C11.3122 13.4072 11.3122 13.4697 11.3715 13.5947C11.4307 13.7822 11.4899 13.9697 11.5491 14.1572L11.6084 14.2822C11.6084 14.2822 11.6084 14.2822 11.6676 14.2822C11.7268 14.2822 11.7268 14.2822 11.786 14.2197C11.786 14.2197 11.8453 14.1572 11.9045 14.2197C11.9637 14.2822 11.9637 14.3447 11.9637 14.4697C12.0229 14.6572 12.1414 14.8447 12.2006 15.0322C12.3783 15.4072 12.4967 15.7822 12.6744 16.1572C12.7336 16.3447 12.852 16.5322 12.9113 16.6572C12.9705 16.7197 12.9705 16.7822 13.0297 16.9072C13.0297 16.9697 13.0889 16.9697 13.0889 17.0322H13.1482C13.3258 17.0322 13.4443 16.9697 13.622 16.9072C13.6812 16.9072 13.7404 16.8447 13.7996 16.8447C13.8588 16.8447 13.8588 16.9072 13.8588 16.9697C13.8588 17.0947 13.622 17.2822 13.5035 17.4072Z" fill="white"/>
<path d="M12.0194 12.9697L12.2563 13.7822L11.5456 14.0947L11.2495 13.0947L10.3019 13.2822L10.4203 14.3447L9.65042 14.4697L9.47275 13.4072H8.8213L8.70285 14.4697L7.93295 14.4072L7.99217 13.3447L7.22227 13.0947L6.98538 14.0947L6.15625 13.8447L6.33392 13.2197L6.45237 12.7197L6.74848 11.4072L7.10382 9.15723L7.34072 7.59473H8.46596C8.70285 7.78223 9.05819 7.90723 9.41353 7.90723C10.065 7.90723 10.4203 7.65723 10.4203 7.65723H11.4271L11.664 10.2197L11.8417 11.4697C11.9009 11.9072 11.9601 12.3447 12.0786 12.7197C12.0194 12.8447 12.0194 12.9072 12.0194 12.9697Z" fill="white"/>
<path d="M8.82383 12.3445C8.70539 12.3445 8.64616 12.3445 8.52772 12.3445C8.35005 12.3445 8.17238 12.3445 7.93548 12.3445C7.87626 12.3445 7.75781 12.3445 7.75781 12.282C7.75781 12.2195 7.75781 12.157 7.81704 12.0945C7.87626 11.907 7.99471 11.782 7.99471 11.5945C8.05393 11.407 8.05393 11.2195 8.05393 10.9695C8.05393 10.782 8.05393 10.5945 8.05393 10.3445C8.05393 10.157 8.05393 9.96953 8.05393 9.71953C8.05393 9.53203 7.99471 9.34453 7.93548 9.21953C7.87626 9.15703 7.87626 9.09453 7.81704 9.03203C7.81704 8.96953 7.75781 8.90703 7.81704 8.90703C7.87626 8.84453 7.99471 8.84453 8.11315 8.90703C8.40927 8.96953 8.76461 8.96953 9.06073 8.96953C9.2384 8.96953 9.41606 8.96953 9.65296 8.90703C9.83063 8.90703 10.0083 8.84453 10.186 8.78203C10.2452 8.78203 10.4229 8.65703 10.4229 8.84453C10.4229 8.90703 10.3636 8.96953 10.3044 9.09453C10.2452 9.15703 10.2452 9.28203 10.186 9.34453C10.186 9.40703 10.1267 9.53203 10.1267 9.59453C10.1267 9.65703 10.1267 9.71953 10.0083 9.71953C9.94907 9.71953 9.88985 9.65703 9.83063 9.59453C9.7714 9.53203 9.71218 9.46953 9.65296 9.40703C9.53451 9.34453 9.35684 9.28203 9.17917 9.34453C9.06073 9.34453 8.88305 9.40703 8.82383 9.59453C8.82383 9.65703 8.76461 9.78203 8.76461 9.84453C8.76461 9.90703 8.76461 10.032 8.76461 10.0945C8.76461 10.2195 8.88306 10.2195 9.0015 10.2195C9.11995 10.2195 9.29762 10.0945 9.41606 10.032C9.59373 9.96953 9.71218 9.90703 9.88985 9.90703C10.186 9.90703 10.4821 9.96953 10.6598 10.2195C10.8374 10.532 10.8966 10.907 10.7782 11.2195C10.719 11.407 10.6598 11.532 10.5413 11.657C10.4821 11.7195 10.3636 11.907 10.4229 11.9695C10.4821 12.032 10.7782 12.0945 10.6598 12.2195C10.6005 12.282 10.4821 12.282 10.4229 12.282C10.3044 12.282 10.2452 12.282 10.1267 12.282C9.94907 12.282 9.71218 12.282 9.53451 12.282C9.47529 12.282 9.41606 12.282 9.35684 12.282C9.29762 12.2195 9.35684 12.157 9.35684 12.0945C9.53451 11.782 9.7714 11.532 9.88985 11.2195C9.94907 11.032 10.0083 10.8445 9.94907 10.657C9.94907 10.532 9.88985 10.3445 9.71218 10.282C9.59373 10.2195 9.35684 10.282 9.23839 10.282C9.11995 10.3445 8.94228 10.407 8.88306 10.532C8.70539 10.782 8.76461 11.157 8.70539 11.4695C8.70539 11.5945 8.70539 11.782 8.76461 11.907C8.76461 11.9695 8.82383 12.032 8.88306 12.0945V12.157C8.94228 12.282 8.94228 12.282 8.82383 12.3445Z" fill="#AF073C"/>
<path d="M9.53516 6.84473V6.40723C9.53516 6.34473 9.53516 6.28223 9.59438 6.28223C9.6536 6.28223 9.6536 6.34473 9.6536 6.40723V6.78223C9.6536 6.84473 9.6536 6.84473 9.6536 6.90723C9.59438 6.96973 9.53516 6.90723 9.53516 6.84473Z" fill="white"/>
<path d="M9.77344 6.90723V6.46972C9.77344 6.40722 9.77344 6.34473 9.83266 6.34473C9.89188 6.34473 9.89188 6.40722 9.89188 6.46972V6.84473C9.89188 6.90723 9.89188 6.90723 9.89188 6.96973C9.83266 6.96973 9.77344 6.96973 9.77344 6.90723Z" fill="white"/>
<path d="M9.94922 6.90723V6.46972C9.94922 6.40722 9.94922 6.34473 10.0084 6.34473C10.0677 6.34473 10.0677 6.40722 10.0677 6.46972V6.84473C10.0677 6.90723 10.0677 6.90723 10.0677 6.96973C10.0084 6.96973 9.94922 6.96973 9.94922 6.90723Z" fill="white"/>
</g>
<defs>
<clipPath id="clip0_308_1689">
<rect width="61" height="20" fill="white" transform="translate(0 0.969727)"/>
</clipPath>
</defs>
</svg>
