<svg width="78" height="27" viewBox="0 0 78 27" fill="none" xmlns="http://www.w3.org/2000/svg">
<path d="M4.61719 12.0752H5.40534V12.8519H4.61719V12.0752ZM4.61719 13.4276H5.40534V16.5616H4.61719V13.4276Z" fill="#068E80"/>
<path d="M0.273438 16.557V12.3096H1.40837C2.95315 12.3096 3.76757 12.9994 3.76757 14.4333C3.76757 15.8618 2.96366 16.557 1.41363 16.557H0.273438ZM1.56075 15.8889C2.24907 15.8889 2.90586 15.3566 2.90586 14.4333C2.90586 13.5751 2.31212 12.9776 1.53448 12.9776H1.09837V15.8835H1.56075V15.8889Z" fill="#068E80"/>
<path d="M8.80941 16.3818C8.52042 16.5447 8.1894 16.6316 7.77431 16.6316C6.76548 16.6316 6.1875 16.0342 6.1875 15.0076C6.1875 14.1331 6.62886 13.3564 7.59566 13.3564C8.62551 13.3564 9.03535 14.0137 9.03535 15.2466H6.93887C6.97565 15.7409 7.29616 16.0396 7.81109 16.0396C8.1894 16.0396 8.51517 15.893 8.80941 15.7246V16.3818ZM8.28398 14.6872C8.25245 14.2363 8.04753 13.9539 7.6377 13.9539C7.24362 13.9539 6.98616 14.2201 6.94412 14.6872H8.28398Z" fill="#068E80"/>
<path d="M14.118 16.5555V14.6979H12.4734V16.5555H11.6484V12.3135H12.4734V14.0298H14.118V12.3135H14.9429V16.5555H14.118Z" fill="#068E80"/>
<path d="M17.3628 16.6312C16.3855 16.6312 15.7812 15.936 15.7812 15.0126C15.7812 14.0078 16.438 13.3506 17.3628 13.3506C18.2876 13.3506 18.9496 14.0024 18.9496 15.0126C18.9496 15.9414 18.3401 16.6312 17.3628 16.6312ZM18.1299 14.9149C18.1299 14.4152 17.8725 13.9861 17.3628 13.9861C16.8689 13.9861 16.6062 14.426 16.6062 14.9149C16.6062 15.5775 16.8531 15.9957 17.3628 15.9957C17.8725 15.9957 18.1299 15.5884 18.1299 14.9149Z" fill="#068E80"/>
<path d="M21.8013 16.5284C21.5648 16.6045 21.3441 16.6316 21.0184 16.6316C20.0726 16.6316 19.5156 16.0016 19.5156 14.9805C19.5156 14.0462 20.0568 13.3564 20.9868 13.3564C21.2916 13.3564 21.528 13.3945 21.7435 13.4596L21.6752 14.106C21.5228 14.03 21.3652 13.9919 21.1445 13.9919C20.6506 13.9919 20.3406 14.3939 20.3406 14.9805C20.3406 15.5888 20.6295 16.0016 21.1602 16.0016C21.3284 16.0016 21.5596 15.9473 21.7645 15.8549L21.8013 16.5284Z" fill="#068E80"/>
<path d="M24.4654 16.5556V14.785C24.4654 14.2146 24.3025 13.9811 23.9505 13.9811C23.4881 13.9811 23.2569 14.421 23.2569 15.0402V16.5556H22.4688V11.9932H23.2569V13.8507H23.2674C23.4618 13.552 23.8034 13.351 24.2184 13.351C24.9173 13.351 25.2483 13.8562 25.2483 14.5731V16.5556H24.4654Z" fill="#068E80"/>
<path d="M26.097 15.8293C26.344 15.9597 26.6014 16.0357 26.8746 16.0357C27.0848 16.0357 27.3948 15.9488 27.3948 15.6501C27.3948 15.3894 27.1479 15.3079 26.8274 15.221C26.2967 15.0743 26.0234 14.8516 26.0234 14.3248C26.0234 13.6947 26.5331 13.3525 27.2162 13.3525C27.4579 13.3525 27.6943 13.3797 28.0674 13.4666L28.0148 14.0804C27.7469 13.9826 27.563 13.9446 27.316 13.9446C27.0375 13.9446 26.8431 14.0586 26.8431 14.2922C26.8431 14.4714 27.006 14.5529 27.3685 14.6561C27.9308 14.819 28.2145 15.0798 28.2145 15.6066C28.2145 16.2964 27.6418 16.6277 26.9377 16.6277C26.6487 16.6277 26.3387 16.5734 26.0497 16.4919L26.097 15.8293Z" fill="#068E80"/>
<path d="M31.0616 16.5284C30.8252 16.6045 30.6045 16.6316 30.2787 16.6316C29.333 16.6316 28.7812 16.0016 28.7812 14.9805C28.7812 14.0462 29.3224 13.3564 30.2525 13.3564C30.5572 13.3564 30.7937 13.3945 31.0091 13.4596L30.9408 14.106C30.7884 14.03 30.6308 13.9919 30.4101 13.9919C29.9162 13.9919 29.6062 14.3939 29.6062 14.9805C29.6062 15.5888 29.8952 16.0016 30.4259 16.0016C30.594 16.0016 30.8252 15.9473 31.0301 15.8549L31.0616 16.5284Z" fill="#068E80"/>
<path d="M33.7232 16.5556V14.785C33.7232 14.2146 33.5603 13.9811 33.2083 13.9811C32.7459 13.9811 32.5147 14.421 32.5147 15.0402V16.5556H31.7266V11.9932H32.5147V13.8507H32.5252C32.7196 13.552 33.0612 13.351 33.4763 13.351C34.1751 13.351 34.5061 13.8562 34.5061 14.5731V16.5556H33.7232Z" fill="#068E80"/>
<path d="M37.5061 16.5568V16.1332H37.4956C37.2381 16.4536 36.8966 16.6329 36.5025 16.6329C35.8247 16.6329 35.4727 16.1658 35.4727 15.4054V13.4283H36.2608V15.2152C36.2608 15.8399 36.4867 15.9974 36.7705 15.9974C37.2486 15.9974 37.4641 15.5411 37.4641 14.9382V13.4229H38.2522V16.5568H37.5061Z" fill="#068E80"/>
<path d="M40.0147 11.999H39.2266V16.5615H40.0147V11.999Z" fill="#068E80"/>
<path d="M43.4188 16.3818C43.1298 16.5447 42.7988 16.6316 42.3837 16.6316C41.3801 16.6316 40.7969 16.0342 40.7969 15.0076C40.7969 14.1331 41.2382 13.3564 42.205 13.3564C43.2349 13.3564 43.6447 14.0137 43.6447 15.2466H41.5482C41.585 15.7409 41.9055 16.0396 42.4205 16.0396C42.7988 16.0396 43.1245 15.893 43.4188 15.7246V16.3818ZM42.8933 14.6872C42.8618 14.2363 42.6569 13.9539 42.2471 13.9539C41.853 13.9539 41.5955 14.2201 41.5535 14.6872H42.8933Z" fill="#068E80"/>
<path d="M0.273438 23.8558V19.6084H2.55382V20.2765H1.09837V21.3248H2.48551V21.9928H1.09837V23.8558H0.273438Z" fill="#068E80"/>
<path d="M5.3303 23.8558V23.4322H5.31979C5.06233 23.7526 4.7208 23.9319 4.32672 23.9319C3.64892 23.9319 3.29688 23.4648 3.29688 22.7044V20.7273H4.08503V22.5143C4.08503 23.1389 4.31096 23.2964 4.5947 23.2964C5.07284 23.2964 5.28827 22.8401 5.28827 22.2372V20.7219H6.07642V23.8558H5.3303ZM3.754 19.6084H4.43707V20.3145H3.754V19.6084ZM4.9625 19.6084H5.64556V20.3145H4.9625V19.6084Z" fill="#068E80"/>
<path d="M7.05078 23.856V20.722H7.74961V21.4335H7.76012C7.80741 21.1076 8.13843 20.6514 8.59556 20.6514C8.75844 20.6514 8.80573 20.6677 8.832 20.6731V21.4932C8.75844 21.4498 8.62183 21.4281 8.47996 21.4281C8.18572 21.4281 7.83893 21.591 7.83893 22.5687V23.856H7.05078Z" fill="#068E80"/>
<path d="M11.3203 23.8558V19.6084H12.7547C13.5902 19.6084 14.0788 19.9777 14.0788 20.6893C14.0788 21.1835 13.7741 21.5474 13.2592 21.6452V21.6561C13.8319 21.7104 14.1997 22.1123 14.1997 22.6229C14.1997 23.4539 13.6217 23.8504 12.7337 23.8504H11.3203V23.8558ZM12.471 21.3248C13.0122 21.3248 13.2592 21.1401 13.2592 20.8088C13.2592 20.4883 13.0963 20.2819 12.5236 20.2819H12.1452V21.3302H12.471V21.3248ZM12.5393 23.1878C13.0753 23.1878 13.38 22.9922 13.38 22.5957C13.38 22.1503 13.1015 21.9548 12.5551 21.9548H12.1452V23.1823H12.5393V23.1878Z" fill="#068E80"/>
<path d="M17.4188 23.6763C17.1298 23.8392 16.7988 23.9261 16.3837 23.9261C15.3749 23.9261 14.7969 23.3287 14.7969 22.3021C14.7969 21.4276 15.2382 20.6455 16.205 20.6455C17.2349 20.6455 17.6447 21.3027 17.6447 22.5357H15.5482C15.585 23.0299 15.9055 23.3287 16.4205 23.3287C16.7988 23.3287 17.1245 23.182 17.4188 23.0136V23.6763ZM16.8934 21.9817C16.8618 21.5308 16.6569 21.2484 16.2471 21.2484C15.853 21.2484 15.5955 21.5146 15.5535 21.9817H16.8934Z" fill="#068E80"/>
<path d="M18.4297 23.856V20.722H19.1285V21.4335H19.139C19.1863 21.1076 19.5173 20.6514 19.9745 20.6514C20.1373 20.6514 20.1846 20.6677 20.2109 20.6731V21.4932C20.1373 21.4498 20.0007 21.4281 19.8589 21.4281C19.5646 21.4281 19.2178 21.591 19.2178 22.5687V23.856H18.4297Z" fill="#068E80"/>
<path d="M22.8772 23.8557V23.432H22.8667C22.6092 23.7525 22.2677 23.9317 21.8736 23.9317C21.1958 23.9317 20.8438 23.4646 20.8438 22.7042V20.7271H21.6319V22.5141C21.6319 23.1387 21.8578 23.2962 22.1416 23.2962C22.6197 23.2962 22.8351 22.84 22.8351 22.2371V20.7217H23.6233V23.8557H22.8772Z" fill="#068E80"/>
<path d="M24.8723 23.8563V21.3198H24.2891V20.7223H24.8723V20.2769C24.8723 19.7501 25.135 19.2178 25.8496 19.2178C26.0335 19.2178 26.2594 19.2504 26.4171 19.283L26.354 19.9565C26.2279 19.875 26.1333 19.8478 26.0125 19.8478C25.7813 19.8478 25.6657 20.0271 25.6657 20.3258V20.7169H26.354V21.3143H25.6657V23.8508H24.8723V23.8563Z" fill="#068E80"/>
<path d="M26.9017 23.1218C27.1486 23.2522 27.4061 23.3282 27.6793 23.3282C27.8895 23.3282 28.1995 23.2413 28.1995 22.9426C28.1995 22.6819 27.9526 22.6004 27.632 22.5081C27.1013 22.3614 26.8281 22.1387 26.8281 21.6119C26.8281 20.9818 27.3378 20.6396 28.0209 20.6396C28.2626 20.6396 28.499 20.6668 28.8721 20.7537L28.8195 21.3675C28.5515 21.2697 28.3676 21.2317 28.1207 21.2317C27.8422 21.2317 27.6478 21.3457 27.6478 21.5793C27.6478 21.7585 27.8107 21.84 28.1732 21.9432C28.7354 22.1062 29.0192 22.3669 29.0192 22.8937C29.0192 23.5835 28.4465 23.9148 27.7424 23.9148C27.4534 23.9148 27.1434 23.8605 26.8544 23.7791L26.9017 23.1218Z" fill="#068E80"/>
<path d="M31.5811 23.8567C31.4182 23.9055 31.2343 23.9327 31.0032 23.9327C30.3621 23.9327 30.0364 23.5199 30.0364 22.917V21.3256H29.4531V20.7281H30.0364V20.1035L30.8245 19.8428V20.7281H31.5233V21.3256H30.8245V22.7812C30.8245 23.1125 30.9243 23.3026 31.2028 23.3026C31.3394 23.3026 31.4708 23.2701 31.5549 23.2157L31.5811 23.8567Z" fill="#068E80"/>
<path d="M34.0596 23.8558C34.0385 23.7418 34.028 23.5299 34.0228 23.3887H34.0123C33.8336 23.7255 33.4553 23.9319 33.077 23.9319C32.5306 23.9319 32.0156 23.5897 32.0156 22.9922C32.0156 22.4491 32.3151 21.9222 33.4973 21.9222H33.986V21.9114C33.986 21.3899 33.7285 21.2487 33.3029 21.2487C32.9667 21.2487 32.6304 21.3845 32.3677 21.5909L32.3466 20.8902C32.6304 20.7544 33.035 20.6512 33.3975 20.6512C34.3065 20.6512 34.7058 21.026 34.7058 21.9711V22.6175C34.7058 22.7804 34.7164 23.4376 34.7531 23.8558H34.0596ZM32.5148 19.6084H33.1979V20.3145H32.5148V19.6084ZM33.9913 22.4056H33.6445C33.0875 22.4056 32.7723 22.574 32.7723 22.9488C32.7723 23.1932 32.9562 23.3344 33.2714 23.3344C33.6235 23.3344 33.9913 23.0846 33.9913 22.4436V22.4056ZM33.7233 19.6084H34.4063V20.3145H33.7233V19.6084Z" fill="#068E80"/>
<path d="M37.4327 23.8567C37.2698 23.9055 37.0859 23.9327 36.8547 23.9327C36.2137 23.9327 35.8879 23.5199 35.8879 22.917V21.3256H35.3047V20.7281H35.8879V20.1035L36.6761 19.8428V20.7281H37.3749V21.3256H36.6761V22.7812C36.6761 23.1125 36.7759 23.3026 37.0544 23.3026C37.191 23.3026 37.3223 23.2701 37.4064 23.2157L37.4327 23.8567Z" fill="#068E80"/>
<path d="M38.0859 19.376H38.8741V20.1527H38.0859V19.376ZM38.0859 20.723H38.8741V23.857H38.0859V20.723Z" fill="#068E80"/>
<path d="M41.842 23.3563H41.8315C41.6634 23.6604 41.2903 23.856 40.891 23.856C40.0556 23.856 39.6562 23.1987 39.6562 22.2754C39.6562 21.5204 40.0346 20.6514 40.9383 20.6514C41.3376 20.6514 41.6529 20.7926 41.8683 21.1511H41.8788V20.7274H42.6302V23.5681C42.6302 24.6272 42.0995 25.2084 41.0434 25.2084C40.7386 25.2084 40.3708 25.1649 39.9873 24.9966L40.0503 24.3013C40.3288 24.4534 40.7019 24.5729 40.9383 24.5729C41.6792 24.5729 41.842 24.0786 41.842 23.4323V23.3563ZM41.842 22.2537C41.842 21.7757 41.6792 21.2814 41.1748 21.2814C40.7019 21.2814 40.4759 21.6996 40.4759 22.27C40.4759 22.6936 40.6914 23.2205 41.1485 23.2205C41.6529 23.2205 41.842 22.7588 41.842 22.2537Z" fill="#068E80"/>
<path d="M46.0164 23.6763C45.7275 23.8392 45.3964 23.9261 44.9813 23.9261C43.9778 23.9261 43.3945 23.3287 43.3945 22.3021C43.3945 21.4276 43.8359 20.6455 44.8027 20.6455C45.8325 20.6455 46.2424 21.3027 46.2424 22.5357H44.1459C44.1827 23.0299 44.5032 23.3287 45.0181 23.3287C45.3964 23.3287 45.7222 23.182 46.0164 23.0136V23.6763ZM45.4858 21.9817C45.4542 21.5308 45.2493 21.2484 44.8395 21.2484C44.4454 21.2484 44.1879 21.5146 44.1459 21.9817H45.4858Z" fill="#068E80"/>
<path d="M45.2351 15.71H44.4102V16.5627H45.2351V15.71Z" fill="#068E80"/>
<path d="M47.8328 23.0029H47.0078V23.8557H47.8328V23.0029Z" fill="#068E80"/>
<path d="M77.7889 0.620117H52.8203V26.4306H77.7889V0.620117Z" fill="#068E80"/>
<path fill-rule="evenodd" clip-rule="evenodd" d="M63.6655 10.6357C61.7686 10.6357 60.2344 13.6611 60.2344 17.3925C60.2344 21.124 61.7686 24.1493 63.6655 24.1493C65.5623 24.1493 67.0965 21.124 67.0965 17.3925C67.0965 13.6611 65.5623 10.6357 63.6655 10.6357ZM63.6655 20.608C62.7617 20.608 62.0366 19.1686 62.0366 17.398C62.0366 15.6219 62.767 14.1879 63.6655 14.1879C64.5639 14.1879 65.2943 15.6273 65.2943 17.398C65.2995 19.1686 64.5692 20.608 63.6655 20.608Z" fill="white"/>
<path fill-rule="evenodd" clip-rule="evenodd" d="M57.1068 15.757H58.5255V19.206H57.1068V23.8553H55.3203V11.0479H59.0719L59.3714 14.4045H57.1068V15.757Z" fill="white"/>
<path d="M74.4682 11.0479H73.0285L71.7937 16.5826L70.5642 11.0479H69.1245L68.2891 23.8553H70.1176L70.3855 18.1848L71.7937 23.8499V23.8553V23.8499V23.8553V23.8499L73.2071 18.1848L73.4698 23.8553H75.2983L74.4682 11.0479Z" fill="white"/>
</svg>
