<svg width="77" height="20" viewBox="0 0 77 20" fill="none" xmlns="http://www.w3.org/2000/svg">
<g clip-path="url(#clip0_308_1600)">
<path d="M4.76147 4.13404C3.8649 4.11837 2.98727 4.40312 2.25831 4.94621V1.46391C2.25847 1.4045 2.24731 1.34565 2.22549 1.29076C2.20367 1.23586 2.17162 1.186 2.13117 1.14405C2.09073 1.10211 2.0427 1.0689 1.98986 1.04636C1.93702 1.02381 1.8804 1.01238 1.82329 1.0127H0.432646C0.37573 1.0127 0.319374 1.02438 0.266805 1.04707C0.214237 1.06976 0.16649 1.10302 0.126299 1.14493C0.0861089 1.18685 0.0542653 1.2366 0.032593 1.29133C0.0109206 1.34607 -0.000154729 1.40471 1.63282e-06 1.46391V13.8961C0.0003163 14.0152 0.0460372 14.1294 0.12714 14.2135C0.208242 14.2976 0.318107 14.3448 0.432646 14.3448H1.82329C1.8802 14.3452 1.93662 14.3338 1.98931 14.3114C2.042 14.289 2.08992 14.256 2.13033 14.2144C2.17074 14.1727 2.20285 14.1231 2.22481 14.0685C2.24677 14.0139 2.25815 13.9553 2.25831 13.8961V8.74744C2.25831 7.36664 3.1854 6.39871 4.51662 6.39871C5.86328 6.4086 6.60852 7.222 6.60852 8.70912V13.9011C6.60884 14.0202 6.65456 14.1343 6.73566 14.2184C6.81676 14.3025 6.92663 14.3498 7.04117 14.3498H8.4223C8.53684 14.3498 8.64671 14.3025 8.72781 14.2184C8.80891 14.1343 8.85463 14.0202 8.85495 13.9011V8.2369C8.85495 5.82142 7.17072 4.13404 4.76147 4.13404ZM15.0154 4.17484C12.2424 4.17484 10.2218 6.36286 10.2218 9.37542C10.2218 12.4337 12.2246 14.5674 15.095 14.5674C16.696 14.5674 17.9369 14.0729 18.9995 13.016C19.077 12.9386 19.1242 12.8341 19.1319 12.7226C19.1396 12.6112 19.1072 12.5008 19.0411 12.4127L18.2994 11.4238C18.2627 11.375 18.2166 11.3347 18.1642 11.3053C18.1117 11.2759 18.054 11.2581 17.9947 11.253C17.9353 11.2479 17.8756 11.2556 17.8192 11.2756C17.7628 11.2957 17.7111 11.3276 17.6671 11.3694C16.9932 12.0288 16.1034 12.3969 15.1782 12.3991C13.8482 12.3991 12.889 11.6141 12.5847 10.3199H19.1124C19.2184 10.3197 19.3206 10.2791 19.3997 10.2057C19.4788 10.1323 19.5293 10.0313 19.5415 9.92181C19.5627 9.72521 19.573 9.52751 19.5724 9.32968C19.5522 6.34556 17.6362 4.17484 15.0154 4.17484V4.17484ZM12.6263 8.26286C12.952 7.06007 13.8078 6.35792 14.9868 6.35792C16.1124 6.35792 16.9349 7.0749 17.2178 8.26286H12.6263ZM29.4008 12.3806L28.5391 11.3916C28.5 11.3473 28.4527 11.3115 28.4 11.2865C28.3474 11.2615 28.2905 11.2477 28.2326 11.2459C28.1748 11.2442 28.1172 11.2546 28.0632 11.2764C28.0093 11.2983 27.9601 11.3311 27.9186 11.3731C27.3554 11.9646 26.5926 12.3044 25.7923 12.32C24.2471 12.32 23.1286 11.0838 23.1286 9.368C23.1286 7.65219 24.2471 6.42467 25.7923 6.42467C26.5839 6.42467 27.2697 6.73001 27.8913 7.35675C27.9322 7.3983 27.9807 7.43097 28.0338 7.45287C28.087 7.47476 28.1439 7.48545 28.201 7.4843C28.2582 7.48315 28.3146 7.47019 28.3669 7.44617C28.4192 7.42215 28.4664 7.38755 28.5058 7.34439L29.396 6.37152C29.4705 6.29015 29.513 6.18275 29.5152 6.07043C29.5174 5.95812 29.4792 5.84901 29.4079 5.76456C28.5438 4.73977 27.2685 4.17484 25.8291 4.17484C22.9468 4.17484 20.8549 6.35915 20.8549 9.36677C20.8549 12.3744 22.9456 14.5674 25.8279 14.5674C27.2613 14.5674 28.5319 14.0037 29.4044 12.9801C29.4747 12.8972 29.5132 12.7902 29.5126 12.6796C29.5119 12.569 29.4721 12.4626 29.4008 12.3806V12.3806ZM37.6781 12.9764L37.0291 11.8873C36.9974 11.8352 36.9557 11.7904 36.9067 11.7557C36.8577 11.721 36.8023 11.6971 36.744 11.6855C36.6858 11.6739 36.6259 11.6749 36.568 11.6883C36.5101 11.7018 36.4555 11.7274 36.4075 11.7637C35.9475 12.1136 35.3952 12.3078 34.8255 12.32C33.9566 12.32 33.518 11.781 33.518 10.713V6.55942H36.2423C36.357 6.55942 36.4671 6.51201 36.5482 6.42762C36.6293 6.34324 36.6749 6.22879 36.6749 6.10945V4.80776C36.6749 4.68842 36.6293 4.57397 36.5482 4.48958C36.4671 4.4052 36.357 4.35779 36.2423 4.35779H33.5097V1.5047C33.5097 1.38536 33.4641 1.27091 33.383 1.18652C33.3019 1.10214 33.1918 1.05473 33.0771 1.05473H31.6959C31.6388 1.05424 31.5822 1.06552 31.5293 1.08791C31.4764 1.11031 31.4283 1.14337 31.3877 1.18521C31.3472 1.22704 31.315 1.27681 31.293 1.33164C31.271 1.38648 31.2597 1.4453 31.2597 1.5047V10.7463C31.2597 13.2076 32.4864 14.5674 34.7066 14.5674C35.7413 14.5753 36.7495 14.2277 37.5747 13.5784C37.6614 13.5099 37.7202 13.4099 37.7394 13.2984C37.7586 13.1869 37.7367 13.0719 37.6781 12.9764ZM47.5825 4.35779H46.2014C46.0867 4.35779 45.9766 4.4052 45.8955 4.48958C45.8144 4.57397 45.7688 4.68842 45.7688 4.80776V5.09084C45.0105 4.48882 44.0691 4.17484 42.9946 4.17484C40.2478 4.17484 38.1773 6.40737 38.1773 9.36677C38.1773 12.3262 40.2478 14.5674 42.9946 14.5674C44.0727 14.5674 45.0152 14.2546 45.7688 13.6551V13.9344C45.7696 13.9915 45.7816 14.0479 45.8041 14.1C45.8267 14.152 45.8592 14.1988 45.8997 14.2374C45.9402 14.2759 45.9879 14.3054 46.0398 14.3241C46.0916 14.3428 46.1467 14.3503 46.2014 14.3461H47.5825C47.6374 14.3508 47.6926 14.3438 47.7448 14.3255C47.7969 14.3072 47.8449 14.278 47.8858 14.2396C47.9266 14.2013 47.9595 14.1547 47.9824 14.1026C48.0053 14.0505 48.0176 13.9941 48.0188 13.9369V4.80776C48.0188 4.74835 48.0075 4.68954 47.9855 4.6347C47.9635 4.57986 47.9313 4.5301 47.8908 4.48826C47.8502 4.44643 47.8021 4.41336 47.7492 4.39097C47.6963 4.36858 47.6397 4.3573 47.5825 4.35779V4.35779ZM45.852 9.368C45.852 11.0789 44.7204 12.32 43.161 12.32C41.6016 12.32 40.451 11.0838 40.451 9.368C40.451 7.65219 41.5909 6.42467 43.161 6.42467C44.7311 6.42467 45.852 7.66208 45.852 9.368ZM54.9197 8.33703L54.0877 8.24061C52.3202 8.03664 52.3202 7.51127 52.3202 7.31719C52.3262 6.60268 53.2402 6.28251 54.1423 6.28251C55.0646 6.28493 55.9677 6.55647 56.7489 7.06625C56.7976 7.09856 56.852 7.12037 56.9089 7.1304C56.9659 7.14044 57.0242 7.13848 57.0804 7.12464C57.1366 7.11081 57.1895 7.08538 57.2361 7.04987C57.2827 7.01436 57.3219 6.96948 57.3515 6.91791L57.9613 5.86098C57.9911 5.81083 58.0112 5.75505 58.0203 5.69683C58.0294 5.63861 58.0274 5.5791 58.0143 5.52169C58.0013 5.46428 57.9775 5.41011 57.9444 5.36227C57.9112 5.31443 57.8693 5.27387 57.821 5.24289C56.7192 4.52015 55.4389 4.14687 54.1364 4.16865C51.7378 4.16865 50.1273 5.47529 50.1273 7.42103C50.1273 8.37783 50.5469 10.0294 53.3603 10.3446L54.2077 10.4422C56.0251 10.6462 56.0251 11.1778 56.0251 11.3521C56.0251 12.1457 54.9482 12.4263 54.0259 12.4263C53.0098 12.4097 52.0197 12.0901 51.1733 11.5053C51.1257 11.4702 51.0718 11.4455 51.0148 11.4325C50.9579 11.4196 50.899 11.4187 50.8416 11.4299C50.7843 11.4411 50.7298 11.4642 50.6813 11.498C50.6329 11.5318 50.5916 11.5755 50.56 11.6265L49.9205 12.6723C49.8603 12.768 49.8375 12.8839 49.8567 12.9965C49.8759 13.1091 49.9357 13.2098 50.0239 13.278C51.0057 14.0395 52.5805 14.5315 54.0366 14.5315C56.5801 14.5315 58.2227 13.2372 58.2227 11.2346C58.2192 9.61029 57.052 8.5818 54.9197 8.33703V8.33703ZM0.019019 16.7133H2.23216V17.0471H0.367274V18.1906H2.03129V18.5231H0.367274V19.9187H0.019019V16.7133ZM4.69015 16.6899H5.01582L6.41835 19.915H6.04395L5.68737 19.0683H4.0079L3.64301 19.915H3.28643L4.69015 16.6899ZM5.54712 18.7431L4.84823 17.1102L4.14459 18.7431H5.54712ZM7.61882 18.3228V18.3142C7.61325 18.0982 7.64945 17.8833 7.72527 17.6821C7.80109 17.481 7.915 17.2977 8.06022 17.1432C8.20545 16.9887 8.37903 16.8661 8.57068 16.7827C8.76232 16.6993 8.96812 16.6568 9.17586 16.6577C9.39878 16.6505 9.62069 16.6917 9.82741 16.7787C10.0341 16.8658 10.2211 16.9968 10.3763 17.1633L10.1386 17.4279C10.0144 17.2903 9.86459 17.1804 9.69826 17.1049C9.53193 17.0295 9.35257 16.9901 9.17111 16.989C8.49005 16.989 7.98253 17.5651 7.98253 18.3018V18.3117C7.98253 19.0534 8.49718 19.6332 9.17111 19.6332C9.59306 19.6332 9.87 19.4638 10.1648 19.1709L10.3942 19.4045C10.2404 19.5855 10.0506 19.7295 9.83797 19.8266C9.62535 19.9237 9.39497 19.9716 9.16279 19.967C8.27373 19.9694 7.61882 19.2426 7.61882 18.3228V18.3228ZM12.0297 16.7133H12.3767V19.915H12.0297V16.7133ZM14.1014 16.7133H14.4484V19.5813H16.1814V19.915H14.1014V16.7133ZM17.6766 16.7133H18.0237V19.915H17.6766V16.7133ZM20.6493 17.0471H19.6116V16.7133H22.0304V17.0471H20.9975V19.915H20.6409L20.6493 17.0471ZM24.3826 18.6467L23.1025 16.7121H23.5256L24.5633 18.3191L25.6104 16.7121H26.0145L24.7344 18.6467V19.9187H24.3778L24.3826 18.6467ZM29.4186 19.4478L29.6338 19.1832C29.7717 19.3282 29.9361 19.4429 30.1174 19.5206C30.2987 19.5983 30.4931 19.6375 30.6892 19.6357C31.1028 19.6357 31.375 19.407 31.375 19.0917V19.0819C31.375 18.7852 31.2217 18.6158 30.5751 18.4737C29.862 18.3142 29.541 18.0756 29.541 17.5502V17.5403C29.541 17.0372 29.9677 16.6676 30.5525 16.6676C30.9473 16.6555 31.3325 16.7955 31.6341 17.0607L31.4321 17.3389C31.1862 17.1153 30.8708 16.9919 30.5442 16.9915C30.1437 16.9915 29.8893 17.2202 29.8893 17.5082V17.5181C29.8893 17.8197 30.0474 17.9891 30.7213 18.1362C31.3952 18.2833 31.7233 18.5528 31.7233 19.0423V19.051C31.7233 19.5998 31.2835 19.9571 30.6726 19.9571C30.2069 19.9628 29.7573 19.7802 29.4186 19.4478V19.4478ZM33.518 16.7133H35.7431V17.0397H33.8746V18.1325H35.5553V18.4625H33.8746V19.5825H35.7764V19.9126H33.518V16.7133ZM37.4665 16.7133H38.7894C39.1106 16.6954 39.4256 16.8105 39.6654 17.0335C39.8219 17.2026 39.9074 17.4294 39.9031 17.664V17.6739C39.9031 18.2042 39.5465 18.5145 39.0711 18.6059L40.022 19.915H39.5953L38.7026 18.6702H37.8231V19.915H37.476L37.4665 16.7133ZM38.7585 18.3463C39.2209 18.3463 39.5501 18.0991 39.5501 17.6875V17.6776C39.5501 17.2845 39.2601 17.0471 38.7633 17.0471H37.8124V18.3463H38.7585ZM41.1155 16.7133H41.5029L42.5976 19.4713L43.6983 16.7133H44.0715L42.7474 19.9373H42.4395L41.1155 16.7133ZM45.5311 16.7133H45.8793V19.915H45.5311V16.7133ZM47.554 18.3228V18.3142C47.5484 18.0982 47.5846 17.8833 47.6605 17.6821C47.7363 17.481 47.8502 17.2977 47.9954 17.1432C48.1406 16.9887 48.3142 16.8661 48.5059 16.7827C48.6975 16.6993 48.9033 16.6568 49.1111 16.6577C49.3342 16.6508 49.5562 16.6924 49.7629 16.7799C49.9696 16.8674 50.1565 16.9988 50.3115 17.1658L50.0738 17.4303C49.9496 17.2927 49.7998 17.1829 49.6335 17.1074C49.4671 17.032 49.2878 16.9925 49.1063 16.9915C48.4253 16.9915 47.9177 17.5675 47.9177 18.3043V18.3142C47.9177 19.0559 48.4324 19.6357 49.1063 19.6357C49.5294 19.6357 49.8064 19.4663 50.1012 19.1733L50.3294 19.407C50.1756 19.5879 49.9858 19.732 49.7732 19.8291C49.5606 19.9262 49.3302 19.9741 49.098 19.9694C48.2101 19.9694 47.554 19.2426 47.554 18.3228V18.3228ZM51.934 16.7133H54.1602V17.0397H52.2822V18.1325H53.9617V18.4625H52.2822V19.5825H54.1839V19.9126H51.934V16.7133ZM55.6768 19.4478L55.8919 19.1832C56.0299 19.3282 56.1943 19.4429 56.3756 19.5206C56.5569 19.5983 56.7513 19.6375 56.9474 19.6357C57.361 19.6357 57.6344 19.407 57.6344 19.0917V19.0819C57.6344 18.7852 57.4799 18.6158 56.8333 18.4737C56.1201 18.3142 55.8004 18.0756 55.8004 17.5502V17.5403C55.8004 17.0372 56.2271 16.6676 56.8119 16.6676C57.2066 16.6559 57.5917 16.7958 57.8935 17.0607L57.6914 17.3389C57.4452 17.1152 57.1293 16.9918 56.8024 16.9915C56.403 16.9915 56.1475 17.2202 56.1475 17.5082V17.5181C56.1475 17.8197 56.3056 17.9891 56.9795 18.1362C57.6534 18.2833 57.9827 18.5528 57.9827 19.0423V19.051C57.9827 19.5998 57.5429 19.9571 56.9308 19.9571C56.4652 19.9623 56.0158 19.7798 55.6768 19.4478V19.4478Z" fill="#1D2851"/>
<path d="M76.7171 4.33713H73.7754C73.7445 4.33713 73.7445 4.31983 73.7445 4.30499V1.26277C73.7449 1.22416 73.738 1.18583 73.724 1.15006C73.71 1.11429 73.6893 1.0818 73.663 1.05449C73.6368 1.02719 73.6055 1.00563 73.5711 0.99108C73.5367 0.976533 73.4999 0.969296 73.4628 0.969794H71.8427C71.8056 0.969124 71.7686 0.976245 71.7342 0.990731C71.6997 1.00522 71.6684 1.02677 71.6421 1.05411C71.6158 1.08145 71.5951 1.11402 71.5812 1.14986C71.5672 1.18571 71.5604 1.22411 71.561 1.26277V4.30746C71.561 4.33961 71.5444 4.33961 71.5301 4.33961H65.3328C65.3019 4.33961 65.3019 4.3223 65.3019 4.30746V1.26277C65.3026 1.22411 65.2957 1.18571 65.2818 1.14986C65.2679 1.11402 65.2472 1.08145 65.2209 1.05411C65.1946 1.02677 65.1633 1.00522 65.1288 0.990731C65.0943 0.976245 65.0574 0.969124 65.0202 0.969794H63.4014C63.3641 0.968956 63.3271 0.975952 63.2925 0.990363C63.2579 1.00477 63.2264 1.0263 63.2 1.05366C63.1736 1.08102 63.1528 1.11364 63.1388 1.14957C63.1248 1.1855 63.1179 1.224 63.1185 1.26277V4.30746C63.1185 4.33961 63.1019 4.33961 63.0876 4.33961H60.1411C60.1039 4.3391 60.0669 4.34638 60.0325 4.361C59.998 4.37563 59.9667 4.3973 59.9404 4.42474C59.9142 4.45217 59.8934 4.48482 59.8795 4.52073C59.8656 4.55665 59.8588 4.5951 59.8594 4.63381V6.24455C59.8594 6.28279 59.8667 6.32066 59.8809 6.35593C59.8952 6.3912 59.916 6.42317 59.9422 6.44999C59.9684 6.4768 59.9995 6.49791 60.0337 6.51209C60.0678 6.52627 60.1043 6.53324 60.1411 6.53258H63.0829C63.1138 6.53258 63.1138 6.54989 63.1138 6.56472V9.61189C63.1133 9.65061 63.1203 9.68903 63.1343 9.72488C63.1484 9.76074 63.1692 9.79329 63.1956 9.82061C63.222 9.84793 63.2534 9.86947 63.2879 9.88394C63.3224 9.89841 63.3594 9.90553 63.3966 9.90486H65.0155C65.0527 9.90553 65.0896 9.89841 65.1241 9.88392C65.1585 9.86944 65.1898 9.84788 65.2161 9.82054C65.2424 9.7932 65.2631 9.76064 65.2771 9.72479C65.291 9.68894 65.2978 9.65055 65.2972 9.61189V6.56966C65.2972 6.53752 65.3138 6.53752 65.3281 6.53752H71.5254C71.5563 6.53752 71.5563 6.55483 71.5563 6.56966V9.61189C71.5556 9.65055 71.5625 9.68894 71.5764 9.72479C71.5903 9.76064 71.6111 9.7932 71.6373 9.82054C71.6636 9.84788 71.6949 9.86944 71.7294 9.88392C71.7639 9.89841 71.8008 9.90553 71.838 9.90486H73.458C73.4952 9.90553 73.5321 9.89841 73.5666 9.88392C73.601 9.86944 73.6323 9.84788 73.6586 9.82054C73.6849 9.7932 73.7056 9.76064 73.7196 9.72479C73.7335 9.68894 73.7403 9.65055 73.7397 9.61189V6.56966C73.7397 6.53752 73.7563 6.53752 73.7706 6.53752H76.7124C76.7495 6.53819 76.7864 6.53107 76.8209 6.51659C76.8554 6.5021 76.8867 6.48054 76.913 6.4532C76.9393 6.42587 76.96 6.3933 76.9739 6.35745C76.9878 6.32161 76.9947 6.28321 76.994 6.24455V4.63752C76.9957 4.59867 76.9897 4.55988 76.9765 4.5235C76.9633 4.48711 76.9431 4.45389 76.9173 4.42582C76.8914 4.39775 76.8603 4.37542 76.8259 4.36018C76.7915 4.34494 76.7545 4.3371 76.7171 4.33713V4.33713Z" fill="#4CB4E7"/>
</g>
<defs>
<clipPath id="clip0_308_1600">
<rect width="77" height="19" fill="white" transform="translate(0 0.969727)"/>
</clipPath>
</defs>
</svg>
