<svg width="1003" height="999" viewBox="0 0 1003 999" fill="none" xmlns="http://www.w3.org/2000/svg">
<g clip-path="url(#clip0_308_2309)">
<path d="M1560.5 746.132C1560.5 962.581 1502.92 1158.52 1409.84 1300.32C1316.76 1442.13 1188.23 1529.76 1046.33 1529.76C904.436 1529.76 775.907 1442.13 682.828 1300.32C589.753 1158.52 532.168 962.581 532.168 746.132C532.168 529.683 589.753 333.749 682.828 191.941C775.907 50.1296 904.436 -37.5 1046.33 -37.5C1188.23 -37.5 1316.76 50.1296 1409.84 191.941C1502.92 333.749 1560.5 529.683 1560.5 746.132Z" stroke="#8ACEFF"/>
<path d="M1045.83 746.132C1045.83 962.581 988.248 1158.52 895.173 1300.32C802.094 1442.13 673.565 1529.76 531.667 1529.76C389.768 1529.76 261.239 1442.13 168.16 1300.32C75.0848 1158.52 17.5 962.581 17.5 746.132C17.5 529.683 75.0848 333.749 168.16 191.941C261.239 50.1296 389.768 -37.5 531.667 -37.5C673.565 -37.5 802.094 50.1296 895.173 191.941C988.248 333.749 1045.83 529.683 1045.83 746.132Z" stroke="#8ACEFF"/>
</g>
<defs>
<clipPath id="clip0_308_2309">
<rect width="1003" height="999" fill="white"/>
</clipPath>
</defs>
</svg>
