<svg width="20" height="21" viewBox="0 0 20 21" fill="none" xmlns="http://www.w3.org/2000/svg">
<path d="M14.168 2.15869H5.83464C3.53345 2.15869 1.66797 4.02417 1.66797 6.32536V14.6587C1.66797 16.9599 3.53345 18.8254 5.83464 18.8254H14.168C16.4692 18.8254 18.3346 16.9599 18.3346 14.6587V6.32536C18.3346 4.02417 16.4692 2.15869 14.168 2.15869Z" stroke="#E9EFFF" stroke-width="2" stroke-linecap="round" stroke-linejoin="round"/>
<path d="M13.3337 9.96793C13.4366 10.6615 13.3181 11.3698 12.9952 11.9921C12.6723 12.6144 12.1614 13.1191 11.5351 13.4343C10.9088 13.7495 10.1991 13.8593 9.5069 13.7479C8.81468 13.6365 8.17521 13.3097 7.67944 12.8139C7.18367 12.3181 6.85685 11.6787 6.74546 10.9864C6.63408 10.2942 6.74379 9.58451 7.05901 8.95824C7.37423 8.33197 7.8789 7.82104 8.50123 7.49813C9.12356 7.17521 9.83187 7.05675 10.5254 7.15959C11.2328 7.2645 11.8878 7.59415 12.3935 8.09985C12.8992 8.60555 13.2288 9.26049 13.3337 9.96793Z" stroke="#E9EFFF" stroke-width="2" stroke-linecap="round" stroke-linejoin="round"/>
<path d="M14.582 5.90869H14.5904" stroke="#E9EFFF" stroke-width="2" stroke-linecap="round" stroke-linejoin="round"/>
</svg>
