<svg width="48" height="36" viewBox="0 0 48 36" fill="none" xmlns="http://www.w3.org/2000/svg">
<path fill-rule="evenodd" clip-rule="evenodd" d="M2.32667 22.249H4.86509L3.49939 26.8935H7.52227L6.02297 28.7128H0.441406L2.32667 22.249Z" fill="#034EA2"/>
<path fill-rule="evenodd" clip-rule="evenodd" d="M9.02208 22.249H13.5497L11.6644 28.698H9.2596L9.85338 26.7012H5.35547L9.02208 22.249ZM10.0612 23.8169H10.6847L10.2987 25.1333H8.9627L10.0612 23.8169Z" fill="#034EA2"/>
<path fill-rule="evenodd" clip-rule="evenodd" d="M19.3066 28.7137H16.7088L16.5752 25.5039H16.3674L15.4322 28.7137H12.9531L14.0665 24.9567L17.9409 24.9715C18.6386 24.7644 18.7277 24.1431 18.4011 23.9065H14.3634L14.8384 22.2646L19.4105 22.2794C21.9044 22.0724 21.7263 24.9419 19.1582 25.9181L19.3066 28.7137Z" fill="#034EA2"/>
<path fill-rule="evenodd" clip-rule="evenodd" d="M22.4266 22.042H28.0082L27.5034 23.743H21.9219L22.4266 22.042Z" fill="#034EA2"/>
<path fill-rule="evenodd" clip-rule="evenodd" d="M27.2777 24.5127L26.773 26.2581H23.5666L23.3736 26.8941H26.58L26.105 28.5359H20.5234L21.6962 24.5127H27.2777Z" fill="#034EA2"/>
<path fill-rule="evenodd" clip-rule="evenodd" d="M26.8469 19.0693H28.8509L28.1829 21.362H26.1641L26.8469 19.0693Z" fill="#034EA2"/>
<path fill-rule="evenodd" clip-rule="evenodd" d="M32.445 35.7081L34.3451 29.2295H26.9079L25.0078 35.7081H32.445Z" fill="#ED1D24"/>
<path fill-rule="evenodd" clip-rule="evenodd" d="M34.5543 28.5354L36.4544 22.042H29.0173L27.1172 28.5354H34.5543Z" fill="#034EA2"/>
<path fill-rule="evenodd" clip-rule="evenodd" d="M35.3095 0.520508L42.7318 0.535299L40.8465 7.01389H33.3945L35.3095 0.520508Z" fill="#034EA2"/>
<path fill-rule="evenodd" clip-rule="evenodd" d="M37.9047 4.69138C37.9641 4.69138 38.0086 4.73576 38.0086 4.79492C38.0086 4.85409 37.9641 4.89846 37.9047 4.89846C37.8453 4.89846 37.8008 4.85409 37.8008 4.79492C37.8008 4.73576 37.8453 4.69138 37.9047 4.69138ZM37.9196 4.18848C38.2758 4.18848 38.5579 4.46951 38.5579 4.80971C38.5579 5.14991 38.2758 5.43095 37.9196 5.43095C37.5633 5.43095 37.2812 5.14991 37.2812 4.80971C37.2812 4.46951 37.5781 4.18848 37.9196 4.18848Z" fill="white"/>
<path fill-rule="evenodd" clip-rule="evenodd" d="M38.7528 14.1877L40.638 7.69434H33.2157L31.3008 14.1877H38.7528Z" fill="#034EA2"/>
<path fill-rule="evenodd" clip-rule="evenodd" d="M37.4336 22.0127L36.9141 23.7285H37.8344L37.9086 23.477H37.3L37.7454 22.0127H37.4336Z" fill="#034EA2"/>
<path fill-rule="evenodd" clip-rule="evenodd" d="M38.5911 22.0127L38.22 23.2404C38.1012 23.6397 38.2496 23.7729 38.6059 23.7729C39.0067 23.7729 39.2145 23.6102 39.3185 23.2404L39.6896 22.0127H39.363L39.0067 23.2108C38.9325 23.477 38.8137 23.5066 38.695 23.5066C38.5762 23.5066 38.4723 23.4622 38.5465 23.2108L38.9177 22.0127H38.5911Z" fill="#034EA2"/>
<path fill-rule="evenodd" clip-rule="evenodd" d="M40.0117 22.0127L39.4922 23.7285H39.8188L40.0414 22.9445H40.6055L40.6798 22.7079H40.1157L40.2493 22.2641H40.8579L40.9321 22.0127H40.0117Z" fill="#034EA2"/>
<path fill-rule="evenodd" clip-rule="evenodd" d="M42.0493 22.2641L42.1235 22.0127H41.0399L40.9656 22.2641H41.3516L40.9062 23.7137H41.2328L41.6633 22.2641H42.0493Z" fill="#034EA2"/>
<path fill-rule="evenodd" clip-rule="evenodd" d="M41.8711 22.8857L41.7969 23.1372H42.3461L42.4352 22.8857H41.8711Z" fill="#034EA2"/>
<path fill-rule="evenodd" clip-rule="evenodd" d="M43.5364 22.0127L43.1653 23.2404C43.0465 23.6397 43.1949 23.7729 43.5512 23.7729C43.952 23.7729 44.1598 23.6102 44.2638 23.2404L44.6349 22.0127H44.3231L43.9669 23.2108C43.8926 23.477 43.7739 23.5066 43.6551 23.5066C43.5364 23.5066 43.4325 23.4622 43.5067 23.2108L43.8778 22.0127H43.5364Z" fill="#034EA2"/>
<path fill-rule="evenodd" clip-rule="evenodd" d="M44.9414 22.0127L44.4219 23.7137H44.7485L44.8821 23.2847C44.9414 23.0777 45.0453 22.6191 45.0899 22.4269V22.8854L45.1789 23.7285H45.5204L46.0399 22.0275H45.7133L45.5946 22.4121C45.5055 22.6783 45.4461 22.9889 45.3571 23.3587L45.3422 22.8558L45.268 22.0275H44.9414V22.0127Z" fill="#034EA2"/>
<path fill-rule="evenodd" clip-rule="evenodd" d="M46.3672 22.0119L45.8477 23.7129H46.4711C46.9165 23.7129 47.0649 23.2691 47.1985 22.8698C47.4212 22.2337 47.3321 21.9971 46.9758 21.9971H46.3672V22.0119ZM46.6196 22.2633H46.8422C47.0204 22.2633 47.0055 22.4408 46.8868 22.8402C46.768 23.2395 46.6938 23.4614 46.4266 23.4614H46.2485L46.6196 22.2633Z" fill="#034EA2"/>
<path fill-rule="evenodd" clip-rule="evenodd" d="M36.7227 24.3634L36.2031 26.0644H36.5297L36.6782 25.5763L36.8563 25.384L36.9602 26.0644H37.3313L37.1829 25.0882L37.836 24.3486H37.4649C37.2571 24.6001 37.0344 24.8515 36.8414 25.103H36.8266L37.0641 24.3486H36.7227V24.3634Z" fill="#034EA2"/>
<path fill-rule="evenodd" clip-rule="evenodd" d="M38.0117 24.3643L37.4922 26.0653H38.4126L38.4868 25.8138H37.8781L38.3235 24.3643H38.0117Z" fill="#034EA2"/>
<path fill-rule="evenodd" clip-rule="evenodd" d="M39.168 24.3643L38.6484 26.0653H38.975L39.4946 24.3643H39.168Z" fill="#034EA2"/>
<path fill-rule="evenodd" clip-rule="evenodd" d="M39.7938 24.3643L39.2891 26.0653H39.6156L39.8828 25.1482L40.0461 24.5122H40.061L39.9422 26.0653H40.1352L40.9517 24.5122L40.7438 25.1038L40.4618 26.0653H40.7884L41.2931 24.3643H40.7884L40.3133 25.2517L40.1946 25.5624L40.2391 25.2517L40.3282 24.3643H39.7938Z" fill="#034EA2"/>
<path fill-rule="evenodd" clip-rule="evenodd" d="M41.8883 24.3643L40.9531 26.0653H41.2946L41.5172 25.6363H41.9032L41.8586 26.0653H42.2149L42.3485 24.3643H41.8883ZM41.918 25.3849H41.636L41.9329 24.808L42.0368 24.5418L41.9922 24.808L41.918 25.3849Z" fill="#034EA2"/>
<path fill-rule="evenodd" clip-rule="evenodd" d="M42.582 25.2217L42.5078 25.4879H43.0571L43.1313 25.2217H42.582Z" fill="#034EA2"/>
<path fill-rule="evenodd" clip-rule="evenodd" d="M36.8696 27.0415L36.9438 26.79H35.8602L35.7859 27.0415H36.1571L35.7266 28.5058H36.0531L36.4836 27.0415H36.8696Z" fill="#034EA2"/>
<path fill-rule="evenodd" clip-rule="evenodd" d="M37.1211 26.79L36.6016 28.5058H37.5219L37.5962 28.2544H37.0024L37.1657 27.7219H37.7149L37.7891 27.4852H37.2399L37.3735 27.0415H37.9673L38.0415 26.79H37.1211Z" fill="#034EA2"/>
<path fill-rule="evenodd" clip-rule="evenodd" d="M38.8273 27.3215H39.1539C39.2578 26.9961 39.2281 26.7446 38.8125 26.7594C38.4116 26.7594 38.2038 26.9665 38.0405 27.5433L37.9515 27.8244C37.7882 28.3421 37.8772 28.5492 38.3077 28.5344C38.8125 28.5344 38.9312 28.061 38.9906 27.8835H38.664C38.5898 28.135 38.5156 28.2681 38.3523 28.2681C38.2187 28.2681 38.1741 28.1646 38.2632 27.8983L38.4413 27.3067C38.4859 27.1588 38.5749 26.9813 38.7679 26.9961C38.857 27.0257 38.8867 27.1144 38.8273 27.3215Z" fill="#034EA2"/>
<path fill-rule="evenodd" clip-rule="evenodd" d="M39.5821 26.79L39.0625 28.5058H39.3891L39.6266 27.7219H40.0719L39.8344 28.5058H40.161L40.6806 26.79H40.354L40.1462 27.4704H39.7008L39.9086 26.79H39.5821Z" fill="#034EA2"/>
<path fill-rule="evenodd" clip-rule="evenodd" d="M40.9961 26.79L40.4766 28.491H40.8031L40.9367 28.0621C40.9961 27.855 41.1 27.3965 41.1446 27.2042V27.6627L41.2336 28.5058H41.5751L42.0946 26.8048H41.768L41.6493 27.1894C41.5602 27.4556 41.5008 27.7663 41.4118 28.136L41.3969 27.6331L41.3227 26.8048H40.9961V26.79Z" fill="#034EA2"/>
<path fill-rule="evenodd" clip-rule="evenodd" d="M42.4032 26.79L41.8984 28.5058H42.225L42.7297 26.79H42.4032Z" fill="#034EA2"/>
<path fill-rule="evenodd" clip-rule="evenodd" d="M43.0586 26.7892L42.5391 28.4902H42.8656L43.0141 28.0021L43.1922 27.8098L43.2961 28.4902H43.6673L43.5188 27.514L44.172 26.7744H43.8009C43.593 27.0259 43.3704 27.2773 43.1774 27.5288H43.1625L43.4 26.7744H43.0586V26.7892Z" fill="#034EA2"/>
<path fill-rule="evenodd" clip-rule="evenodd" d="M36.6481 21.3615L38.5482 14.883L31.111 14.8682L29.2109 21.3615H36.6481Z" fill="#034EA2"/>
<path fill-rule="evenodd" clip-rule="evenodd" d="M35.3645 17.3979C35.0082 17.0429 35.0824 16.5548 35.8247 15.9632C35.9731 15.8448 36.0177 15.5786 36.0622 15.3271C36.3145 15.4603 36.7005 16.3477 35.9434 16.8654C35.7505 16.9838 35.5129 17.1613 35.3645 17.3979ZM36.5372 19.7054C36.5521 19.2764 36.5521 18.7883 36.3739 18.4481C35.8989 17.4867 36.2552 16.7619 36.8193 16.185C36.8044 16.6436 36.7747 17.2352 36.8638 17.4571C37.2794 18.4925 37.0271 19.306 36.5372 19.7054ZM34.3848 21.1253C35.7208 21.2437 37.0271 20.2674 36.1216 18.034C36.0177 17.7825 36.0325 17.3979 36.1809 16.8359C35.6911 17.2204 35.2309 17.4719 35.3645 18.241C35.5426 19.2468 35.6317 20.3858 34.3848 21.1253ZM34.2215 20.1787C34.0582 20.4301 35.0231 19.8681 35.0379 19.2025C35.3496 19.5131 35.0528 20.7999 34.4738 20.9626C33.7761 21.1549 33.4792 20.6224 33.4347 20.0308C33.3902 19.4095 34.0582 18.6848 34.7113 17.8417C34.7856 17.7529 34.8746 17.605 34.8895 17.5015C34.9192 17.3388 34.9043 17.2056 34.9488 17.0577C35.8841 18.6108 34.6074 19.5427 34.2215 20.1787ZM33.3011 20.0899C32.7667 19.7941 32.3214 18.9066 33.4199 18.2262C33.6277 18.0931 33.7464 17.8121 33.88 17.4571C34.3551 18.2558 33.8949 18.7439 33.5238 19.3208C33.3902 19.4983 33.3159 19.6906 33.3011 20.0899Z" fill="white"/>
<path fill-rule="evenodd" clip-rule="evenodd" d="M38.0141 4.72068C38.0735 4.72068 38.118 4.76505 38.118 4.82422C38.118 4.88338 38.0735 4.92776 38.0141 4.92776C37.9547 4.92776 37.9102 4.88338 37.9102 4.82422C37.9102 4.76505 37.9547 4.72068 38.0141 4.72068ZM38.0289 4.21777C38.3852 4.21777 38.6673 4.49881 38.6673 4.8538C38.6673 5.194 38.3852 5.48983 38.0289 5.48983C37.6727 5.48983 37.3906 5.20879 37.3906 4.8538C37.3906 4.49881 37.6727 4.21777 38.0289 4.21777Z" fill="white"/>
<path fill-rule="evenodd" clip-rule="evenodd" d="M37.2829 13.9359L37.2532 13.8472L37.3125 13.8028V13.4035L37.0008 13.4478L36.8969 13.1668L36.5406 13.3739L36.5258 13.433L36.4219 13.4478L36.4516 13.3147L37.3868 12.7822V13.862L37.2829 13.9359Z" fill="white"/>
<path fill-rule="evenodd" clip-rule="evenodd" d="M38.115 11.6428L38.9909 11.1547L39.0651 11.5541L39.2432 11.4505L39.2581 11.3914L39.2877 10.9033L38.5901 11.2435L38.7237 10.5779L38.2041 11.0364L38.1744 10.2377L37.833 10.3856V9.89746L37.5064 10.0306L37.1947 9.89746V10.3856L36.8681 10.2377L36.8384 11.0512L36.2891 10.5927L36.4227 11.2139L35.7399 10.8737L35.6954 11.2435L35.2797 10.992L35.2203 11.3322L34.9531 11.5245L35.3688 11.776L35.0867 11.983L35.7696 12.412L35.1164 12.6486L35.7547 12.8409L35.0867 13.2699L35.4133 13.5065L35.0422 13.7284L35.2649 13.9503H35.5321L35.3688 13.6397L35.7844 13.403L35.4578 13.1663L36.3782 12.6339L35.4727 12.0718L35.7844 11.8351L35.3242 11.5837L35.4875 11.4653L35.5024 11.2878L35.9626 11.5245L36.0071 11.1399L36.9126 11.6576L36.972 10.6222L37.3283 10.7554V10.2377L37.5064 10.3116L37.6994 10.2377V10.7701L38.0556 10.6074L38.115 11.6428Z" fill="white"/>
<path fill-rule="evenodd" clip-rule="evenodd" d="M34.8798 11.3198L34.8203 11.127L35.0138 11.0381L35.103 11.2457L34.8798 11.3198Z" fill="white"/>
<path fill-rule="evenodd" clip-rule="evenodd" d="M35.8289 13.9516L36.0074 13.833L36.0223 13.9516C36.0223 13.9516 35.814 13.9516 35.8289 13.9516Z" fill="white"/>
<path fill-rule="evenodd" clip-rule="evenodd" d="M36.4922 13.9519L36.9672 13.6709L36.9969 13.9519H36.4922Z" fill="white"/>
<path fill-rule="evenodd" clip-rule="evenodd" d="M38.1016 13.6396L38.1164 13.9503H38.5024L38.5469 13.8319L38.1016 13.6396Z" fill="white"/>
<path fill-rule="evenodd" clip-rule="evenodd" d="M38.6641 12.6045L38.961 12.3975L38.8719 12.7377L38.6641 12.6045Z" fill="white"/>
<path fill-rule="evenodd" clip-rule="evenodd" d="M37.3594 9.67739L37.5082 9.54395L37.6719 9.67739L37.5082 9.84048L37.3594 9.67739Z" fill="white"/>
<path fill-rule="evenodd" clip-rule="evenodd" d="M38.6047 13.4635L38.5008 13.4487L38.486 13.3747L38.1297 13.1824L38.0258 13.4487L37.7141 13.4043V13.8037L37.7734 13.848L37.7289 13.9516L37.625 13.8628V12.7979L38.5751 13.3303L38.6047 13.4635Z" fill="white"/>
<path fill-rule="evenodd" clip-rule="evenodd" d="M38.7563 12.1313L38.6969 12.2052L38.6376 12.1905L38.2813 12.3827L38.4594 12.6194L38.2664 12.8561L38.6227 13.0631L38.6969 13.0336L38.7563 13.1075L38.6227 13.1519L37.6875 12.6194L38.6376 12.0869L38.7563 12.1313Z" fill="white"/>
<path fill-rule="evenodd" clip-rule="evenodd" d="M36.2578 13.1075L36.332 13.0336L36.3914 13.0631L36.7477 12.8561L36.5547 12.6194L36.7477 12.3827L36.3914 12.1905L36.332 12.2052L36.2727 12.1313L36.3914 12.0869L37.3415 12.6194L36.3914 13.1667L36.2578 13.1075Z" fill="white"/>
<path fill-rule="evenodd" clip-rule="evenodd" d="M36.4219 11.7918L36.5258 11.8066L36.5406 11.8806L36.8969 12.0729L37.0008 11.7918L37.3125 11.8362V11.4368L37.2532 11.3925L37.2829 11.3037L37.3868 11.3925V12.4574L36.4516 11.9249L36.4219 11.7918Z" fill="white"/>
<path fill-rule="evenodd" clip-rule="evenodd" d="M37.7289 11.3037L37.7734 11.3925L37.7141 11.4368V11.8362L38.011 11.7918L38.1297 12.0729L38.486 11.8806L38.5008 11.8066L38.5899 11.7918L38.5751 11.9249L37.625 12.4574V11.3925L37.7289 11.3037Z" fill="white"/>
<path d="M32.9055 24.0088H32.4453V24.4525H32.9055V24.0088Z" fill="white"/>
<path d="M34.8781 25.9326H34.418V26.3764H34.8781V25.9326Z" fill="white"/>
<path d="M32.9055 27.8545H32.4453V28.2982H32.9055V27.8545Z" fill="white"/>
<path d="M30.9446 25.9326H30.4844V26.3764H30.9446V25.9326Z" fill="white"/>
<path d="M32.7711 24.7197H32.5781V26.2136H32.7711V24.7197Z" fill="white"/>
<path fill-rule="evenodd" clip-rule="evenodd" d="M32.5781 26.2125L32.682 26.0498L34.0181 26.745L33.929 26.9225L32.5781 26.2125Z" fill="white"/>
<path fill-rule="evenodd" clip-rule="evenodd" d="M40.7738 1.55566L41.0261 5.31266H40.655L40.6402 5.12037H40.0167L40.0019 5.16474L39.9722 5.2387C39.8683 5.50494 39.6604 5.90431 39.319 6.20014C38.9331 6.55513 38.3541 6.80658 37.5971 6.79179C36.6025 6.777 35.7415 6.22972 35.3407 5.4162C35.1774 5.09079 35.0883 4.69142 35.1032 4.30685C35.1329 3.00521 36.1274 1.9994 37.4338 1.73316C38.9628 1.42254 40.4324 1.80712 40.4175 1.70358L40.4027 1.55566H40.7738V1.55566Z" fill="white"/>
<path fill-rule="evenodd" clip-rule="evenodd" d="M37.8321 3.30176C38.604 3.30176 39.2423 3.92299 39.2423 4.69214C39.2423 5.46129 38.604 6.08252 37.8321 6.08252C37.0453 6.08252 36.4219 5.46129 36.4219 4.69214C36.4219 3.92299 37.0602 3.30176 37.8321 3.30176Z" fill="#034EA2"/>
<path fill-rule="evenodd" clip-rule="evenodd" d="M37.8297 3.99707C38.2157 3.99707 38.5423 4.30769 38.5423 4.69226C38.5423 5.07684 38.2305 5.38745 37.8297 5.38745C37.4438 5.38745 37.1172 5.07684 37.1172 4.69226C37.1172 4.30769 37.4438 3.99707 37.8297 3.99707Z" fill="white"/>
<path fill-rule="evenodd" clip-rule="evenodd" d="M40.5156 1.7041L40.7531 5.15048H40.9016L40.6789 1.7041H40.5156Z" fill="#034EA2"/>
<path fill-rule="evenodd" clip-rule="evenodd" d="M37.8344 4.51465C37.9383 4.51465 38.0125 4.58861 38.0125 4.69214C38.0125 4.78089 37.9383 4.86964 37.8344 4.86964C37.7305 4.86964 37.6562 4.79568 37.6562 4.69214C37.6562 4.58861 37.7453 4.51465 37.8344 4.51465Z" fill="#034EA2"/>
</svg>
