<svg width="71" height="29" viewBox="0 0 71 29" fill="none" xmlns="http://www.w3.org/2000/svg">
<g clip-path="url(#clip0_308_1740)">
<path d="M43.3862 27.632C43.538 27.5391 47.8652 24.845 48.3777 23.34C47.6185 23.5072 45.9104 24.269 42.1146 22.8941C43.5001 22.3367 44.0505 22.2624 45.0943 21.482C34.8267 20.4044 40.4635 14.1058 37.5977 11.3931C38.8882 10.7614 42.3614 9.51651 44.487 10.687C41.2606 6.0049 45.2841 5.39176 46.1002 1.50855C47.8842 2.60476 51.5851 0.821087 54.6976 5.46608C56.6145 1.15553 61.568 2.53044 63.7316 0.969727C63.3899 3.6824 67.9259 6.89673 64.3579 10.6499C69.1595 10.6127 71.0195 16.8742 71.0005 16.8928C67.3376 18.0261 67.2616 21.1661 62.2322 21.5749C65.155 22.8012 64.9272 25.9226 65.1929 26.4986C62.2322 25.5324 57.6393 32.2212 53.4071 26.4986C52.7618 27.0188 52.1165 27.8363 52.0596 28.9697C51.5092 28.7839 49.2317 26.0898 49.7252 23.6187C48.5674 25.0679 43.9746 28.2637 43.9935 28.2451C43.9935 28.2079 43.5001 27.9664 43.3862 27.632Z" fill="#BCDBCB"/>
<path d="M5.06736 18.5653L5.71264 16.3543H2.46725V8.60645L0 8.84799V18.5653H5.06736Z" fill="#008D58"/>
<path d="M25.2596 11.0225L23.1719 11.2454V18.5102H25.4304V14.274C25.4304 13.4193 25.8859 13.0105 26.5501 13.0105C27.2334 13.0105 27.6699 13.4193 27.6699 14.274V18.5288H29.9284V14.1067C29.9284 12.2859 29.2451 11.0225 27.2144 11.0225C26.5881 11.0225 25.8479 11.2826 25.2785 12.1187H25.2406V11.0225H25.2596Z" fill="#008D58"/>
<path d="M42.1533 11.0225C41.527 11.0225 40.692 11.1525 40.1036 11.3569L39.781 13.3078C40.3883 13.0477 41.0715 12.8619 41.7358 12.8619C42.7037 12.8619 43.1782 13.0663 43.1782 14.0882C43.1782 14.1811 43.1782 14.2368 43.1592 14.3111C42.6847 13.9767 42.0395 13.7537 41.4891 13.7537C40.0657 13.7537 38.832 14.6827 38.832 16.1505C38.832 17.7112 39.743 18.7889 41.4132 18.7889C42.1723 18.7889 42.8366 18.6031 43.2731 17.9528H43.311V18.5288H45.2848V13.5679C45.2848 11.7842 44.0133 11.0225 42.1533 11.0225ZM42.0584 17.0795C41.4321 17.0795 40.9387 16.7265 40.9387 16.1134C40.9387 15.5188 41.4511 15.1658 42.0584 15.1658C42.6658 15.1658 43.1782 15.5188 43.1782 16.1134C43.1782 16.7265 42.6658 17.0795 42.0584 17.0795Z" fill="#008D58"/>
<path d="M33.4772 8.45801L31.2188 8.68097V18.5098H33.4772V14.2735C33.4772 13.4189 33.9327 13.0101 34.597 13.0101C35.2802 13.0101 35.7167 13.4189 35.7167 14.2735V18.5283H37.9752V14.1063C37.9752 12.2855 37.292 11.022 35.2613 11.022C34.6349 11.022 33.8948 11.2822 33.4583 11.7095V8.45801H33.4772Z" fill="#008D58"/>
<path d="M46.5 18.5288H48.7585V14.757C48.7585 13.6608 49.157 13.2335 50.2958 13.2335L50.9411 11.0225C49.7074 11.0225 48.9673 11.2454 48.5307 12.5274H48.4928V11.1339L46.5 11.3569V18.5288Z" fill="#008D58"/>
<path d="M56.7456 8.68097V11.7467C56.2521 11.2636 55.455 11.0035 54.7528 11.0035C52.5323 11.0035 50.957 12.88 50.957 14.9796C50.957 17.0605 52.6272 18.7699 54.7528 18.7699C55.6258 18.7699 56.4419 18.4912 56.8595 17.7294H56.8974V18.5098L59.0041 18.5469V8.45801L56.7456 8.68097ZM55.0185 16.8004C54.0126 16.8004 53.2155 15.9272 53.2155 14.9053C53.2155 13.8834 54.0126 13.0101 55.0185 13.0101C56.0244 13.0101 56.8215 13.8834 56.8215 14.9053C56.8405 15.9272 56.0434 16.8004 55.0185 16.8004Z" fill="#008D58"/>
<path d="M59.6523 17.7846C60.6582 18.5278 61.3604 18.7694 62.613 18.7694C64.0744 18.7694 65.5358 17.9147 65.5358 16.3168C65.5358 13.2883 62.0627 14.496 62.0627 13.2883C62.0627 12.8981 62.5561 12.8423 62.8218 12.8423C63.2393 12.8423 63.6948 13.0096 64.0175 13.2511L65.2701 12.0248C64.6248 11.4303 63.6948 11.0029 62.8028 11.0029C61.3225 11.0029 59.975 11.7461 59.975 13.3812C59.975 16.3354 63.4481 15.3321 63.4481 16.3354C63.4481 16.8556 62.8028 16.9114 62.4422 16.9114C61.797 16.9114 61.2655 16.6884 60.8101 16.2425L59.6523 17.7846Z" fill="#008D58"/>
<path fill-rule="evenodd" clip-rule="evenodd" d="M16.2272 14.9057C16.2272 13.8838 17.1192 13.0848 18.1061 13.0848C19.112 13.0848 20.004 13.8838 20.004 14.9057C20.004 15.9276 19.112 16.7265 18.1061 16.7265C17.1192 16.7265 16.2272 15.9276 16.2272 14.9057ZM18.1061 18.7889C20.3077 18.7889 22.2625 17.1538 22.2625 14.9057C22.2625 12.6575 20.3077 11.0225 18.1061 11.0225C15.9236 11.0225 13.9688 12.6575 13.9688 14.9057C13.9687 17.1538 15.9236 18.7889 18.1061 18.7889Z" fill="#008D58"/>
<path fill-rule="evenodd" clip-rule="evenodd" d="M8.12007 14.9604V14.7003C8.12007 13.7713 8.87923 12.8609 9.86613 12.8609C10.2647 12.8609 10.6253 12.9166 10.872 13.1582L8.12007 14.9604ZM13.567 13.2696C12.8648 11.9133 11.4034 11.04 9.84715 11.04C7.70254 11.04 5.9375 12.8609 5.9375 15.0161C5.9375 16.7812 7.56968 18.8065 9.94205 18.8065C11.2326 18.8065 12.3524 18.342 13.3203 17.6731L12.1436 15.9451C11.5363 16.4282 10.7771 16.7998 9.98 16.7998C9.54349 16.7998 9.03106 16.6512 8.76535 16.2796L13.567 13.2696Z" fill="#008D58"/>
<path d="M4.97207 24.8821C4.97207 24.8264 4.95309 24.8078 4.89615 24.8078H4.34576V21.4634H4.89615C4.95309 21.4634 4.97207 21.4448 4.97207 21.3891V21.1476C4.97207 21.0918 4.95309 21.0732 4.89615 21.0732H3.28295C3.22601 21.0732 3.20703 21.0918 3.20703 21.1476V21.3891C3.20703 21.4448 3.22601 21.4634 3.28295 21.4634H3.83333V24.8078H3.28295C3.22601 24.8078 3.20703 24.8264 3.20703 24.8821V25.1237C3.20703 25.1794 3.22601 25.198 3.28295 25.198H4.89615C4.95309 25.198 4.97207 25.1794 4.97207 25.1237V24.8821Z" fill="black"/>
<path d="M5.73047 25.1426C5.73047 25.1983 5.74945 25.2169 5.80638 25.2169H6.12903C6.18596 25.2169 6.20494 25.1983 6.20494 25.1426V23.0059C6.35677 22.8758 6.64146 22.6343 7.04001 22.6343C7.36265 22.6343 7.43857 22.8572 7.43857 23.1173V25.124C7.43857 25.1797 7.45755 25.1983 7.51448 25.1983H7.83713C7.89406 25.1983 7.91304 25.1797 7.91304 25.124V23.1359C7.91304 22.7086 7.8561 22.2255 7.17286 22.2255C6.71737 22.2255 6.41371 22.4856 6.20494 22.6343V20.9249C6.20494 20.8877 6.20494 20.8506 6.16698 20.8506C6.12903 20.8506 6.148 20.8506 6.09107 20.8692L5.78741 20.9435C5.76843 20.9435 5.74945 20.9806 5.74945 21.0178V25.1426H5.73047Z" fill="black"/>
<path d="M9.39528 23.1536C9.54711 23.0049 9.75588 22.6891 9.96465 22.6891C10.0785 22.6891 10.1355 22.7448 10.1734 22.7448C10.1924 22.7448 10.2114 22.7077 10.2114 22.7077L10.3442 22.3918C10.3442 22.3732 10.3632 22.3546 10.3632 22.3361C10.3632 22.2803 10.2114 22.2432 10.0595 22.2432C9.69894 22.2432 9.49018 22.5776 9.31937 22.7448C9.30039 22.6148 9.18651 22.2432 9.07264 22.2432C9.05366 22.2432 9.03468 22.2617 9.0157 22.2803L8.78796 22.4104C8.76898 22.4104 8.75 22.429 8.75 22.4661C8.75 22.4847 8.76898 22.5404 8.82592 22.6148C8.92081 22.7634 8.93979 22.9678 8.93979 23.0793V25.1416C8.93979 25.1974 8.95877 25.216 9.0157 25.216H9.33835C9.39528 25.216 9.41426 25.1974 9.41426 25.1416V23.1536H9.39528Z" fill="black"/>
<path d="M13.2273 24.7902V21.1671C13.2273 21.1114 13.2083 21.0928 13.1514 21.0928H12.7908C12.7338 21.0928 12.7148 21.1114 12.7148 21.1671V25.1432C12.7148 25.1989 12.7338 25.2175 12.7908 25.2175H14.6507C14.6886 25.2175 14.7266 25.1989 14.7456 25.1432L14.8405 24.9202C14.8405 24.8831 14.8595 24.8645 14.8595 24.8459C14.8595 24.8088 14.8215 24.7902 14.7835 24.7902H13.2273Z" fill="black"/>
<path fill-rule="evenodd" clip-rule="evenodd" d="M17.2322 23.0793C17.2322 22.5776 16.9855 22.2432 16.2833 22.2432C15.8847 22.2432 15.3343 22.4104 15.3343 22.5219C15.3343 22.559 15.3343 22.5776 15.3533 22.5962L15.4292 22.8006C15.4292 22.8191 15.4482 22.8377 15.4672 22.8377C15.5241 22.8377 15.8088 22.6519 16.2073 22.6519C16.6439 22.6519 16.7577 22.8377 16.7577 23.1907V23.4137C16.3782 23.4323 15.1445 23.4509 15.1445 24.4542C15.1445 24.993 15.4672 25.3089 15.9416 25.3089C16.4541 25.3089 16.7577 24.9744 16.8337 24.9001C16.8716 24.993 16.9665 25.3089 17.0614 25.3089C17.0804 25.3089 17.0804 25.3089 17.1183 25.2903L17.3651 25.1416C17.384 25.1231 17.422 25.1231 17.422 25.0859C17.422 25.0487 17.3271 24.9373 17.3081 24.8629C17.2512 24.6957 17.2322 24.64 17.2322 24.2684V23.0793V23.0793ZM16.7767 24.5471C16.6818 24.64 16.3971 24.9187 16.0745 24.9187C15.7519 24.9187 15.619 24.64 15.619 24.3984C15.619 23.7667 16.492 23.7667 16.7767 23.7667V24.5471V24.5471Z" fill="black"/>
<path d="M20.4019 23.136C20.4019 22.7087 20.345 22.2256 19.6617 22.2256C19.1873 22.2256 18.8836 22.4857 18.6748 22.6343C18.6748 22.5786 18.5989 22.2256 18.485 22.2256C18.4661 22.2256 18.4471 22.2442 18.4281 22.2442L18.1434 22.3928C18.1244 22.4114 18.1055 22.43 18.1055 22.43C18.1055 22.4671 18.1624 22.5043 18.2004 22.6901C18.2193 22.783 18.2193 22.8387 18.2193 23.0431V25.1241C18.2193 25.1798 18.2383 25.1984 18.2953 25.1984H18.6179C18.6748 25.1984 18.6938 25.1798 18.6938 25.1241V22.9874C18.8456 22.8573 19.1113 22.6158 19.5099 22.6158C19.8325 22.6158 19.9085 22.8387 19.9085 23.0988V25.1055C19.9085 25.1612 19.9274 25.1798 19.9844 25.1798H20.307C20.364 25.1798 20.3829 25.1612 20.3829 25.1055V23.136H20.4019Z" fill="black"/>
<path fill-rule="evenodd" clip-rule="evenodd" d="M22.8856 24.5294C22.7337 24.6223 22.468 24.8824 22.1454 24.8824C21.652 24.8824 21.614 24.3065 21.614 23.8048C21.614 23.2288 21.6709 22.6343 22.1834 22.6343C22.487 22.6343 22.6958 22.7272 22.8856 22.8386V24.5294ZM23.3601 20.9249C23.3601 20.8877 23.3601 20.8506 23.3031 20.8506C23.2652 20.8506 23.2841 20.8506 23.2272 20.8692L22.9235 20.9435C22.9046 20.9435 22.8856 20.9806 22.8856 21.0178V22.4485C22.7148 22.337 22.506 22.2441 22.1264 22.2441C21.4052 22.2441 21.1016 22.9687 21.1016 23.8234C21.1016 24.5666 21.4052 25.2912 22.0505 25.2912C22.506 25.2912 22.8097 25.0311 22.9615 24.9382C22.9805 25.0311 23.0943 25.2912 23.1892 25.2912C23.2082 25.2912 23.2082 25.2912 23.2462 25.2726L23.4929 25.124C23.5119 25.1054 23.5498 25.1054 23.5498 25.0682C23.5498 25.0311 23.4739 24.9196 23.436 24.8453C23.3601 24.6966 23.3601 24.5108 23.3601 24.2507V20.9249V20.9249Z" fill="black"/>
<path d="M25.8655 22.559C25.8655 22.5404 25.8845 22.5219 25.8845 22.5033C25.8845 22.4661 25.8655 22.4475 25.8086 22.429C25.6567 22.3361 25.2961 22.2432 25.0874 22.2432C24.556 22.2432 24.1574 22.5962 24.1574 23.0793C24.1574 23.9897 25.5239 23.841 25.5239 24.4728C25.5239 24.77 25.2961 24.9001 25.0304 24.9001C24.6129 24.9001 24.2902 24.6957 24.2333 24.6957C24.2143 24.6957 24.1954 24.7143 24.1764 24.7515L24.0815 24.9373C24.0625 24.9558 24.0625 24.9744 24.0625 25.0116C24.0625 25.1231 24.7078 25.3089 24.9925 25.3089C25.5239 25.3089 25.9794 25.0116 25.9794 24.4542C25.9794 23.5252 24.6129 23.711 24.6129 23.0421C24.6129 22.7634 24.8217 22.6519 25.0684 22.6519C25.391 22.6519 25.6377 22.8191 25.6947 22.8191C25.7326 22.8191 25.7516 22.8006 25.7706 22.7448L25.8655 22.559Z" fill="black"/>
<path d="M28.6011 24.6772C28.5821 24.6586 28.5821 24.64 28.5631 24.64C28.5251 24.64 28.2025 24.8816 27.8039 24.8816C27.2156 24.8816 27.1017 24.3056 27.1017 23.7482C27.1017 23.0607 27.2725 22.6148 27.8799 22.6148C28.2405 22.6148 28.5062 22.9307 28.5251 22.9307C28.5441 22.9307 28.5441 22.9121 28.5631 22.8935L28.6959 22.6334C28.6959 22.6148 28.7149 22.5962 28.7149 22.5777C28.7149 22.4848 28.2405 22.2061 27.8229 22.2061C27.0638 22.2061 26.5703 22.8192 26.5703 23.8225C26.5703 24.6958 26.9878 25.2532 27.728 25.2532C28.1835 25.2532 28.6959 25.0116 28.6959 24.9373C28.6959 24.9187 28.677 24.9002 28.677 24.8816L28.6011 24.6772Z" fill="black"/>
<path d="M29.3984 25.1426C29.3984 25.1983 29.4174 25.2169 29.4744 25.2169H29.797C29.8539 25.2169 29.8729 25.1983 29.8729 25.1426V23.0059C30.0247 22.8758 30.3094 22.6343 30.708 22.6343C31.0306 22.6343 31.1065 22.8572 31.1065 23.1173V25.124C31.1065 25.1797 31.1255 25.1983 31.1825 25.1983H31.5051C31.562 25.1983 31.581 25.1797 31.581 25.124V23.1359C31.581 22.7086 31.5241 22.2255 30.8408 22.2255C30.3853 22.2255 30.0817 22.4856 29.8729 22.6343V20.9249C29.8729 20.8877 29.8729 20.8506 29.835 20.8506C29.797 20.8506 29.816 20.8506 29.759 20.8692L29.4554 20.9435C29.4364 20.9435 29.4174 20.9806 29.4174 21.0178V25.1426H29.3984Z" fill="black"/>
<path fill-rule="evenodd" clip-rule="evenodd" d="M34.4275 23.0793C34.4275 22.5776 34.1808 22.2432 33.4786 22.2432C33.08 22.2432 32.5296 22.4104 32.5296 22.5219C32.5296 22.559 32.5296 22.5776 32.5486 22.5962L32.6245 22.8006C32.6245 22.8191 32.6435 22.8377 32.6625 22.8377C32.7194 22.8377 33.0041 22.6519 33.4027 22.6519C33.8392 22.6519 33.9531 22.8377 33.9531 23.1907V23.4137C33.5735 23.4323 32.3398 23.4509 32.3398 24.4542C32.3398 24.993 32.6625 25.3089 33.137 25.3089C33.6494 25.3089 33.9531 24.9744 34.029 24.9001C34.0669 24.993 34.1618 25.3089 34.2567 25.3089C34.2757 25.3089 34.2757 25.3089 34.3137 25.2903L34.5604 25.1416C34.5794 25.1231 34.6173 25.1231 34.6173 25.0859C34.6173 25.0487 34.5224 24.9373 34.5034 24.8629C34.4465 24.6957 34.4275 24.64 34.4275 24.2684V23.0793ZM33.9531 24.5471C33.8582 24.64 33.5735 24.9187 33.2508 24.9187C32.9282 24.9187 32.7953 24.64 32.7953 24.3984C32.7953 23.7667 33.6684 23.7667 33.9531 23.7667V24.5471Z" fill="black"/>
<path d="M36.0042 22.69H36.7823C36.8203 22.69 36.8582 22.6714 36.8582 22.6343L36.9342 22.3927C36.9342 22.3741 36.9342 22.3556 36.9342 22.3556C36.9342 22.3184 36.8962 22.3184 36.8582 22.3184H35.9662V21.8539C35.9662 21.5009 35.9852 21.2593 36.3268 21.2593C36.5925 21.2593 36.7633 21.3894 36.8582 21.3894C36.8772 21.3894 36.8962 21.3708 36.8962 21.3522L36.9911 21.1479C37.0101 21.1107 37.0291 21.0735 37.0291 21.055C37.0291 20.9621 36.6305 20.8506 36.3458 20.8506C35.5867 20.8506 35.4918 21.3894 35.4918 21.8539V22.3184H35.1122C35.0742 22.3184 35.0742 22.3556 35.0742 22.3927V22.6157C35.0742 22.6528 35.0742 22.69 35.1122 22.69H35.5487V25.124C35.5487 25.1797 35.5677 25.1983 35.6246 25.1983H35.9472C36.0042 25.1983 36.0232 25.1797 36.0232 25.124V22.69H36.0042Z" fill="black"/>
<path d="M38.9269 24.7703C38.9269 24.7517 38.9079 24.7331 38.889 24.7331C38.832 24.7331 38.5853 24.9004 38.3006 24.9004C37.94 24.9004 37.94 24.6588 37.94 24.4173V22.7079H38.7561C38.7941 22.7079 38.832 22.6893 38.832 22.6522L38.9079 22.4106C38.9079 22.3921 38.9079 22.3735 38.9079 22.3735C38.9079 22.3363 38.87 22.3363 38.832 22.3363H37.921V21.4073C37.921 21.3702 37.921 21.333 37.8831 21.333C37.8641 21.333 37.8641 21.333 37.8451 21.333L37.5225 21.4259C37.4845 21.4445 37.4466 21.4631 37.4466 21.5002V22.3177H36.9911C36.9531 22.3177 36.9531 22.3549 36.9531 22.3921V22.615C36.9531 22.6522 36.9531 22.6893 36.9911 22.6893H37.4466V24.3987C37.4466 24.6217 37.4466 24.9004 37.6174 25.0862C37.7123 25.1976 37.94 25.2905 38.1867 25.2905C38.5094 25.2905 38.9839 25.1233 38.9839 25.049C38.9839 25.0304 38.9839 25.0118 38.9649 24.9933L38.9269 24.7703Z" fill="black"/>
<path d="M40.9944 22.559C40.9944 22.5404 41.0134 22.5219 41.0134 22.5033C41.0134 22.4661 40.9944 22.4475 40.9375 22.429C40.7856 22.3361 40.425 22.2432 40.2163 22.2432C39.6849 22.2432 39.2863 22.5962 39.2863 23.0793C39.2863 23.9897 40.6528 23.841 40.6528 24.4728C40.6528 24.77 40.425 24.9001 40.1593 24.9001C39.7418 24.9001 39.4192 24.6957 39.3622 24.6957C39.3432 24.6957 39.3243 24.7143 39.3053 24.7515L39.2104 24.9373C39.1914 24.9558 39.1914 24.9744 39.1914 25.0116C39.1914 25.1231 39.8367 25.3089 40.1214 25.3089C40.6528 25.3089 41.1083 25.0116 41.1083 24.4542C41.1083 23.5252 39.7418 23.711 39.7418 23.0421C39.7418 22.7634 39.9506 22.6519 40.1973 22.6519C40.5199 22.6519 40.7667 22.8191 40.8236 22.8191C40.8616 22.8191 40.8805 22.8006 40.8995 22.7448L40.9944 22.559Z" fill="black"/>
<path fill-rule="evenodd" clip-rule="evenodd" d="M43.9354 23.1174C43.9354 22.8945 43.9543 22.8201 44.0113 22.6715C44.0682 22.5229 44.1252 22.5043 44.1252 22.4485C44.1252 22.43 44.1252 22.43 44.1062 22.4114L43.8215 22.2442C43.8025 22.2442 43.7835 22.2256 43.7646 22.2256C43.7076 22.2256 43.6507 22.3371 43.5938 22.4857C43.5178 22.43 43.2711 22.2256 42.8726 22.2256C42.0944 22.2256 41.7148 22.8387 41.7148 23.7863C41.7148 24.641 42.0944 25.1241 42.6638 25.1241C43.0813 25.1241 43.366 24.9011 43.4989 24.7896C43.4989 24.8639 43.5178 25.1055 43.5178 25.4028C43.5178 25.7186 43.4419 26.0531 42.8726 26.0531C42.455 26.0531 42.0754 25.8115 42.0375 25.8115C42.0185 25.8115 41.9995 25.8301 41.9995 25.8487L41.9046 26.0531C41.8857 26.0902 41.8857 26.1088 41.8857 26.1274C41.8857 26.2389 42.455 26.4432 42.9105 26.4432C43.7456 26.4432 43.9923 25.923 43.9923 25.3842C43.9923 25.0683 43.9544 24.3623 43.9544 24.0278V23.1174H43.9354ZM43.4609 24.4366C43.328 24.5295 43.0623 24.7339 42.7397 24.7339C42.3222 24.7339 42.2083 24.3251 42.2083 23.6934C42.2083 23.0431 42.436 22.6529 42.8915 22.6529C43.1383 22.6529 43.347 22.7644 43.4609 22.8201V24.4366V24.4366Z" fill="black"/>
<path fill-rule="evenodd" clip-rule="evenodd" d="M45.5884 21.4262C45.5884 21.259 45.4556 21.1104 45.2658 21.1104C45.095 21.1104 44.9431 21.259 44.9431 21.4262C44.9431 21.5934 45.095 21.7421 45.2658 21.7421C45.4366 21.7421 45.5884 21.5934 45.5884 21.4262ZM46.1388 21.4262C46.1388 21.5934 46.2906 21.7421 46.4615 21.7421C46.6323 21.7421 46.7841 21.5934 46.7841 21.4262C46.7841 21.259 46.6323 21.1104 46.4615 21.1104C46.2906 21.1104 46.1388 21.259 46.1388 21.4262ZM46.8221 23.0798C46.8221 22.5782 46.5753 22.2437 45.8731 22.2437C45.4746 22.2437 44.9242 22.4109 44.9242 22.5224C44.9242 22.5596 44.9242 22.5782 44.9431 22.5967L45.0191 22.8011C45.0191 22.8197 45.038 22.8383 45.057 22.8383C45.114 22.8383 45.3986 22.6525 45.7972 22.6525C46.2337 22.6525 46.3476 22.8383 46.3476 23.1913V23.4143C45.968 23.4328 44.7344 23.4514 44.7344 24.4547C44.7344 24.9936 45.057 25.3094 45.5315 25.3094C46.0439 25.3094 46.3476 24.975 46.4235 24.9007C46.4615 24.9936 46.5563 25.3094 46.6512 25.3094C46.6702 25.3094 46.6702 25.3094 46.7082 25.2908L46.9549 25.1422C46.9739 25.1236 47.0118 25.1236 47.0118 25.0865C47.0118 25.0493 46.9169 24.9378 46.898 24.8635C46.841 24.6963 46.8221 24.6405 46.8221 24.2689V23.0798ZM46.3666 24.5476C46.2717 24.6405 45.987 24.9192 45.6643 24.9192C45.3417 24.9192 45.2088 24.6405 45.2088 24.399C45.2088 23.7673 46.0819 23.7673 46.3666 23.7673V24.5476Z" fill="black"/>
<path d="M48.3015 23.1536C48.4534 23.0049 48.6621 22.6891 48.8709 22.6891C48.9848 22.6891 49.0417 22.7448 49.0797 22.7448C49.0986 22.7448 49.1176 22.7077 49.1176 22.7077L49.2505 22.3918C49.2505 22.3732 49.2695 22.3546 49.2695 22.3361C49.2695 22.2803 49.1176 22.2432 48.9658 22.2432C48.6052 22.2432 48.3964 22.5776 48.2256 22.7448C48.2066 22.6148 48.0928 22.2432 47.9789 22.2432C47.9599 22.2432 47.9409 22.2617 47.922 22.2803L47.6942 22.4104C47.6752 22.4104 47.6562 22.429 47.6562 22.4661C47.6562 22.4847 47.6752 22.5404 47.7322 22.6148C47.8271 22.7634 47.846 22.9678 47.846 23.0793V25.1416C47.846 25.1974 47.865 25.216 47.922 25.216H48.2446C48.3015 25.216 48.3205 25.1974 48.3205 25.1416V23.1536H48.3015Z" fill="black"/>
<path d="M51.3176 24.7703C51.3176 24.7517 51.2986 24.7331 51.2796 24.7331C51.2227 24.7331 50.9759 24.9004 50.6913 24.9004C50.3307 24.9004 50.3307 24.6588 50.3307 24.4173V22.7079H51.1467C51.1847 22.7079 51.2227 22.6893 51.2227 22.6522L51.2986 22.4106C51.2986 22.3921 51.2986 22.3735 51.2986 22.3735C51.2986 22.3363 51.2606 22.3363 51.2227 22.3363H50.3117V21.4073C50.3117 21.3702 50.3117 21.333 50.2737 21.333C50.2547 21.333 50.2547 21.333 50.2358 21.333L49.9131 21.4259C49.8752 21.4445 49.8372 21.4631 49.8372 21.5002V22.3177H49.3817C49.3438 22.3177 49.3438 22.3549 49.3438 22.3921V22.615C49.3438 22.6522 49.3438 22.6893 49.3817 22.6893H49.8372V24.3987C49.8372 24.6217 49.8372 24.9004 50.008 25.0862C50.1029 25.1976 50.3307 25.2905 50.5774 25.2905C50.9 25.2905 51.3745 25.1233 51.3745 25.049C51.3745 25.0304 51.3745 25.0118 51.3555 24.9933L51.3176 24.7703Z" fill="black"/>
<path d="M54.0894 23.136C54.0894 22.7087 54.0325 22.2256 53.3492 22.2256C52.8748 22.2256 52.5711 22.4857 52.3623 22.6343C52.3623 22.5786 52.2864 22.2256 52.1725 22.2256C52.1536 22.2256 52.1346 22.2442 52.1156 22.2442L51.8309 22.3928C51.8119 22.4114 51.793 22.43 51.793 22.43C51.793 22.4671 51.8499 22.5043 51.8879 22.6901C51.9068 22.783 51.9068 22.8387 51.9068 23.0431V25.1241C51.9068 25.1798 51.9258 25.1984 51.9828 25.1984H52.3054C52.3623 25.1984 52.3813 25.1798 52.3813 25.1241V22.9874C52.5331 22.8573 52.7988 22.6158 53.1974 22.6158C53.52 22.6158 53.596 22.8387 53.596 23.0988V25.1055C53.596 25.1612 53.6149 25.1798 53.6719 25.1798H53.9945C54.0515 25.1798 54.0704 25.1612 54.0704 25.1055V23.136H54.0894Z" fill="black"/>
<path fill-rule="evenodd" clip-rule="evenodd" d="M55.2468 23.488C55.2468 23.1907 55.3607 22.6148 55.9301 22.6148C56.4615 22.6148 56.5753 23.1722 56.5753 23.488H55.2468ZM56.879 24.6771C56.86 24.6586 56.86 24.64 56.841 24.64C56.8031 24.64 56.4804 24.8815 56.0819 24.8815C55.3797 24.8815 55.2278 24.2126 55.2278 23.8596H56.9929C57.0688 23.8596 57.0688 23.8039 57.0688 23.7296C57.0688 23.2093 56.9739 22.2432 55.949 22.2432C55.1899 22.2432 54.7344 22.8935 54.7344 23.7667C54.7344 24.6771 55.2089 25.2903 56.0249 25.2903C56.4804 25.2903 56.9929 25.0487 56.9929 24.9744C56.9929 24.9558 56.9739 24.9373 56.9739 24.9187L56.879 24.6771Z" fill="black"/>
<path d="M58.3211 23.1536C58.4729 23.0049 58.6817 22.6891 58.8904 22.6891C59.0043 22.6891 59.0612 22.7448 59.0992 22.7448C59.1182 22.7448 59.1372 22.7077 59.1372 22.7077L59.27 22.3918C59.27 22.3732 59.289 22.3546 59.289 22.3361C59.289 22.2803 59.1372 22.2432 58.9853 22.2432C58.6247 22.2432 58.416 22.5776 58.2451 22.7448C58.2262 22.6148 58.1123 22.2432 57.9984 22.2432C57.9794 22.2432 57.9605 22.2617 57.9415 22.2803L57.7137 22.4104C57.6948 22.4104 57.6758 22.429 57.6758 22.4661C57.6758 22.4847 57.6948 22.5404 57.7517 22.6148C57.8466 22.7634 57.8656 22.9678 57.8656 23.0793V25.1416C57.8656 25.1974 57.8845 25.216 57.9415 25.216H58.2641C58.3211 25.216 58.34 25.1974 58.34 25.1416V23.1536H58.3211Z" fill="black"/>
<path d="M37.1813 7.36171C37.1813 7.34313 37.2002 7.32455 37.2002 7.30597C37.2002 7.21307 36.7637 7.08301 36.498 7.08301C36.0046 7.08301 35.7009 7.39887 35.7009 7.80763C35.7009 8.06774 35.8338 8.21638 35.9666 8.30928C36.2703 8.49508 36.7068 8.49508 36.7068 8.7552C36.7068 8.92242 36.5739 8.97816 36.4221 8.97816C36.1374 8.97816 35.7958 8.79236 35.7768 8.79236C35.7579 8.79236 35.7579 8.81094 35.7389 8.82952L35.644 9.08964C35.644 9.10822 35.625 9.1268 35.625 9.14538C35.625 9.25686 36.1374 9.42408 36.479 9.42408C36.9535 9.42408 37.2572 9.1268 37.2572 8.71804C37.2572 8.45792 37.1243 8.2907 36.9535 8.17922C36.6309 7.97485 36.2323 7.99343 36.2323 7.75189C36.2323 7.60325 36.3652 7.54751 36.536 7.54751C36.8207 7.54751 37.0484 7.65899 37.0674 7.65899C37.0674 7.65899 37.0864 7.64041 37.1053 7.62183L37.1813 7.36171Z" fill="#BCDBCB"/>
<path fill-rule="evenodd" clip-rule="evenodd" d="M39.2862 8.8481C39.2862 8.82952 39.2672 8.81094 39.2293 8.81094C39.1724 8.81094 38.9826 8.95958 38.6599 8.95958C38.2424 8.95958 38.1665 8.6623 38.1665 8.40218H39.3811C39.476 8.40218 39.476 8.3836 39.476 8.2907C39.476 7.75189 39.3432 7.08301 38.565 7.08301C37.9577 7.08301 37.5781 7.56609 37.5781 8.27212C37.5781 9.08964 37.9957 9.42408 38.584 9.42408C38.9446 9.42408 39.4001 9.27544 39.4001 9.16396C39.4001 9.14538 39.4001 9.1268 39.3811 9.10822L39.2862 8.8481ZM38.1665 7.99343C38.1855 7.86337 38.2044 7.49177 38.5461 7.49177C38.8497 7.49177 38.8687 7.80763 38.8687 7.99343H38.1665Z" fill="#BCDBCB"/>
<path fill-rule="evenodd" clip-rule="evenodd" d="M40.7296 7.23196C40.7296 7.17622 40.7296 7.17622 40.6727 7.17622H39.8187C39.7617 7.17622 39.7617 7.1948 39.7617 7.23196V7.52924C39.7617 7.58498 39.7617 7.58498 39.8187 7.58498H40.1603V9.29434C40.1603 9.35008 40.1603 9.35008 40.2172 9.35008H40.6727C40.7296 9.35008 40.7296 9.3315 40.7296 9.29434V7.23196V7.23196ZM40.8056 6.50734C40.8056 6.30296 40.6348 6.13574 40.426 6.13574C40.2172 6.13574 40.0464 6.30296 40.0464 6.50734C40.0464 6.71172 40.2172 6.87894 40.426 6.87894C40.6537 6.87894 40.8056 6.71172 40.8056 6.50734Z" fill="#BCDBCB"/>
<path d="M42.6634 8.86654C42.6634 8.84796 42.6444 8.84796 42.6254 8.84796C42.5685 8.84796 42.4546 8.94086 42.2648 8.94086C42.113 8.94086 42.113 8.8108 42.113 8.66216V7.58452H42.5685C42.6254 7.58452 42.6444 7.58452 42.6444 7.5102L42.7013 7.25008C42.7013 7.2315 42.7013 7.2315 42.7013 7.21292C42.7013 7.15718 42.6634 7.15719 42.6254 7.15719H42.113V6.54405C42.113 6.48831 42.113 6.46973 42.075 6.46973C42.0561 6.46973 42.0371 6.46973 42.0181 6.46973L41.6196 6.52547C41.5626 6.52547 41.5436 6.54405 41.5436 6.59979V7.15719H41.221C41.1641 7.15719 41.1641 7.17576 41.1641 7.21292V7.5102C41.1641 7.56594 41.1641 7.56594 41.221 7.56594H41.5436V8.56926C41.5436 8.97802 41.5436 9.42394 42.132 9.42394C42.4356 9.42394 42.7773 9.33104 42.7773 9.25672C42.7773 9.23814 42.7773 9.23814 42.7773 9.21956L42.6634 8.86654Z" fill="#BCDBCB"/>
<path d="M46.2304 8.9967C46.2304 8.94096 46.2304 8.94096 46.1735 8.94096H45.8129V6.48841C45.8129 6.41409 45.8129 6.39551 45.718 6.39551H45.3954L44.5413 6.99007C44.5034 7.00865 44.4844 7.02723 44.4844 7.06439C44.4844 7.08297 44.4844 7.10155 44.5034 7.12013L44.6172 7.32451C44.6362 7.36167 44.6552 7.38025 44.6742 7.38025C44.6931 7.38025 44.7121 7.36167 44.7311 7.36167L45.2056 7.06439V8.94096H44.788C44.7311 8.94096 44.7311 8.95954 44.7311 8.9967V9.2754C44.7311 9.33114 44.7311 9.33114 44.788 9.33114H46.1735C46.2304 9.33114 46.2304 9.31256 46.2304 9.2754V8.9967V8.9967Z" fill="#008D58"/>
<path fill-rule="evenodd" clip-rule="evenodd" d="M48.9459 8.56846C48.9459 8.08538 48.5474 7.881 48.3196 7.7881C48.4715 7.69521 48.8321 7.50941 48.8321 7.10065C48.8321 6.65473 48.4145 6.33887 47.8831 6.33887C47.3138 6.33887 46.9342 6.69189 46.9342 7.11923C46.9342 7.56514 47.2948 7.75095 47.4656 7.82526C47.2758 7.89958 46.8203 8.10396 46.8203 8.60562C46.8203 9.16302 47.2758 9.4603 47.8831 9.4603C48.5853 9.42314 48.9459 8.97722 48.9459 8.56846ZM47.9021 7.58372C47.7882 7.54656 47.5036 7.43509 47.5036 7.13781C47.5036 6.93343 47.6554 6.76621 47.8831 6.76621C48.1109 6.76621 48.2627 6.93343 48.2627 7.13781C48.2437 7.43509 48.016 7.52798 47.9021 7.58372ZM47.8831 8.95864C47.6174 8.95864 47.3897 8.81 47.3897 8.54988C47.3897 8.21544 47.7503 8.0668 47.8452 8.01106C47.978 8.0668 48.3576 8.19686 48.3576 8.56846C48.3576 8.79142 48.1678 8.95864 47.8831 8.95864Z" fill="#008D58"/>
<path fill-rule="evenodd" clip-rule="evenodd" d="M51.4538 8.56846C51.4538 8.08538 51.0552 7.881 50.8275 7.7881C50.9793 7.69521 51.3399 7.50941 51.3399 7.10065C51.3399 6.65473 50.9223 6.33887 50.3909 6.33887C49.8216 6.33887 49.442 6.69189 49.442 7.11923C49.442 7.56514 49.8026 7.75095 49.9734 7.82526C49.7836 7.89958 49.3281 8.10396 49.3281 8.60562C49.3281 9.16302 49.7836 9.4603 50.3909 9.4603C51.1121 9.42314 51.4538 8.97722 51.4538 8.56846ZM50.4099 7.58372C50.296 7.54656 50.0114 7.43509 50.0114 7.13781C50.0114 6.93343 50.1632 6.76621 50.3909 6.76621C50.6187 6.76621 50.7705 6.93343 50.7705 7.13781C50.7705 7.43509 50.5238 7.52798 50.4099 7.58372ZM50.3909 8.95864C50.1252 8.95864 49.8975 8.81 49.8975 8.54988C49.8975 8.21544 50.2581 8.0668 50.353 8.01106C50.4858 8.0668 50.8654 8.19686 50.8654 8.56846C50.8844 8.79142 50.6756 8.95864 50.3909 8.95864Z" fill="#008D58"/>
<path fill-rule="evenodd" clip-rule="evenodd" d="M53.7293 6.48756C53.7293 6.46898 53.7293 6.46898 53.7293 6.4504C53.7293 6.39466 53.5395 6.30176 53.2928 6.30176C52.5147 6.30176 51.9453 6.89632 51.9453 8.12259C51.9453 9.05159 52.3439 9.42319 52.9132 9.42319C53.5016 9.42319 53.8811 8.99585 53.8811 8.30839C53.8811 7.56519 53.4826 7.26792 53.0651 7.26792C52.7424 7.26792 52.5906 7.45371 52.5337 7.52803C52.5716 7.37939 52.7234 6.76626 53.2928 6.76626C53.4446 6.76626 53.5775 6.84058 53.5965 6.84058C53.6154 6.84058 53.6344 6.822 53.6344 6.80342L53.7293 6.48756ZM52.9322 8.94011C52.6665 8.94011 52.5337 8.71715 52.5337 8.32697C52.5337 7.91821 52.6855 7.73241 52.9322 7.73241C53.1979 7.73241 53.3308 7.93679 53.3308 8.32697C53.3497 8.73573 53.1979 8.94011 52.9322 8.94011Z" fill="#008D58"/>
</g>
<defs>
<clipPath id="clip0_308_1740">
<rect width="71" height="28" fill="white" transform="translate(0 0.969727)"/>
</clipPath>
</defs>
</svg>
