<svg width="33" height="33" viewBox="0 0 33 33" fill="none" xmlns="http://www.w3.org/2000/svg">
<g clip-path="url(#clip0_308_1860)">
<path d="M32.9561 15.9592C32.4351 7.62236 25.2706 0.969727 16.4995 0.969727C7.72849 0.969727 0.564021 7.62236 0.0429688 15.9592C0.0429688 16.296 0.0863898 16.6329 0.129811 16.9697C0.477179 19.7487 1.56271 22.3171 3.21271 24.4645C6.20876 28.4224 11.0285 30.9908 16.4995 30.9908C8.85744 30.9908 2.60481 25.2224 2.08376 17.9803C2.04034 17.6434 2.04034 17.3066 2.04034 16.9697C2.04034 16.6329 2.04034 16.296 2.08376 15.9592C2.60481 8.71709 8.85744 2.94867 16.4995 2.94867C21.9706 2.94867 26.7903 5.5171 29.7864 9.47499C31.4364 11.6224 32.5219 14.1908 32.8693 16.9697C32.9127 17.3066 32.9561 17.6434 32.9561 17.9381C32.9561 17.6013 32.9995 17.2645 32.9995 16.9276C32.9995 16.6329 32.9995 16.296 32.9561 15.9592Z" fill="#89D329"/>
<path d="M0.0434211 17.9798C0.564474 26.3167 7.72895 32.9693 16.5 32.9693C25.271 32.9693 32.4355 26.3167 32.9566 17.9798C32.9566 17.643 32.9132 17.3061 32.8697 16.9693C32.5224 14.1904 31.4368 11.6219 29.7868 9.47456C26.7908 5.51666 21.9711 2.94824 16.5 2.94824C24.1421 2.94824 30.3947 8.71666 30.9158 15.9588C30.9592 16.2956 30.9592 16.6325 30.9592 16.9693C30.9592 17.3061 30.9592 17.643 30.9158 17.9798C30.3947 25.264 24.1421 30.9904 16.5 30.9904C11.0289 30.9904 6.20921 28.4219 3.21316 24.464C1.56316 22.3167 0.477632 19.7482 0.130263 16.9693C0.0868421 16.6325 0.0434211 16.2956 0.0434211 16.0009C0.0434211 16.3377 0 16.6746 0 17.0114C0 17.3061 3.10572e-09 17.643 0.0434211 17.9798Z" fill="#00BCFF"/>
<path d="M14.4609 4.04395V8.46501H17.6307C18.4123 8.46501 19.0202 7.87553 19.0202 7.11763C19.0202 6.73869 18.8465 6.40183 18.5859 6.1492C18.7596 5.93867 18.8899 5.64393 18.9333 5.3492C18.9333 4.63341 18.3254 4.04395 17.5872 4.04395H14.4609ZM15.503 4.97026H17.4135C17.6306 4.97026 17.8044 5.13867 17.8044 5.3492C17.8044 5.55972 17.6306 5.72813 17.4135 5.72813H15.503V4.97026ZM15.503 6.65445H17.457C17.7175 6.65445 17.8912 6.82288 17.8912 7.07551C17.8912 7.32814 17.7175 7.49657 17.457 7.49657H15.503V6.65445Z" fill="#10384F"/>
<path d="M15.9806 9.30762L13.7227 13.7287H14.8951L15.2424 12.9708H17.8043L18.1516 13.7287H19.324L17.0227 9.30762H15.9806ZM16.5016 10.4445L17.2832 12.0445H15.7201L16.5016 10.4445Z" fill="#10384F"/>
<path d="M18.0652 14.6963H19.3678L17.0665 17.5594V19.1173H15.981V17.5594L13.6797 14.6963H14.9823L16.5455 16.7173L18.0652 14.6963Z" fill="#10384F"/>
<path d="M25.5312 14.6963V19.1173H26.6168V17.4332H27.4418L28.7444 19.1173H30.047L28.701 17.391C29.2655 17.2226 29.6997 16.7174 29.6997 16.0858C29.6997 15.3279 29.0918 14.6963 28.3102 14.6963H25.5312ZM26.6602 15.6226H28.2234C28.4405 15.6226 28.6576 15.8331 28.6576 16.0437C28.6576 16.2542 28.4839 16.4647 28.2234 16.4647H26.6602V15.6226Z" fill="#10384F"/>
<path d="M3.34375 14.6963V19.1174H6.51349C7.29507 19.1174 7.90297 18.5279 7.90297 17.77C7.90297 17.391 7.72927 17.0542 7.46875 16.8015C7.64243 16.591 7.77266 16.2963 7.81609 16.0015C7.81609 15.2858 7.20821 14.6963 6.47005 14.6963H3.34375ZM4.38583 15.6226H6.29635C6.51345 15.6226 6.68719 15.791 6.68719 16.0015C6.68719 16.2121 6.51345 16.3805 6.29635 16.3805H4.38583V15.6226ZM4.38583 17.3068H6.33979C6.60031 17.3068 6.77401 17.4752 6.77401 17.7279C6.77401 17.9805 6.60031 18.1489 6.33979 18.1489H4.38583V17.3068Z" fill="#10384F"/>
<path d="M10.8126 14.6963L8.55469 19.1173H9.72709L10.0744 18.3595H12.6363L12.9836 19.1173H14.156L11.8547 14.6963H10.8126ZM11.3336 15.8332L12.1152 17.4332H10.5521L11.3336 15.8332Z" fill="#10384F"/>
<path d="M24.1016 14.6963V15.6466H21.0621V16.3903H24.0147V17.3407H21.0621V18.167H24.1016V19.1174H19.9766V14.6963H24.1016Z" fill="#10384F"/>
<path d="M14.4141 25.5596V29.9806H15.4996V28.2964H16.3246L17.6273 29.9806H18.9299L17.5838 28.2543C18.1483 28.0859 18.5825 27.5807 18.5825 26.9491C18.5825 26.1912 17.9746 25.5596 17.193 25.5596H14.4141ZM15.543 26.4859H17.1062C17.3233 26.4859 17.5404 26.6964 17.5404 26.9069C17.5404 27.1175 17.3667 27.328 17.1062 27.328H15.543V26.4859Z" fill="#10384F"/>
<path d="M18.5859 20.0771V21.0275H15.5465V21.7712H18.4991V22.7215H15.5465V23.5479H18.5859V24.4982H14.4609V20.0771H18.5859Z" fill="#10384F"/>
</g>
<defs>
<clipPath id="clip0_308_1860">
<rect width="33" height="32" fill="white" transform="translate(0 0.969727)"/>
</clipPath>
</defs>
</svg>
