<svg width="305" height="65" viewBox="0 0 305 65" fill="none" xmlns="http://www.w3.org/2000/svg">
<g clip-path="url(#clip0_308_1487)">
<path d="M65.275 32.9939C65.275 50.2939 50.8375 64.2939 32.9969 64.2939C15.1562 64.2939 0.71875 50.2939 0.71875 32.9939C0.71875 15.6938 15.1562 1.69385 32.9969 1.69385C50.8375 1.69385 65.275 15.6938 65.275 32.9939ZM32.9969 3.59385C16.1875 3.59385 2.67812 16.6938 2.67812 32.9939C2.67812 49.2939 16.2906 62.3939 32.9969 62.3939C49.8062 62.3939 63.3156 49.1939 63.3156 32.9939C63.3156 16.6938 49.8062 3.59385 32.9969 3.59385Z" fill="url(#paint0_linear_308_1487)"/>
<path d="M32.9984 3.59424C16.1891 3.59424 2.67969 16.6942 2.67969 32.9942C2.67969 49.2942 16.2922 62.3942 32.9984 62.3942C49.8078 62.3942 63.3172 49.1942 63.3172 32.9942C63.3172 16.6942 49.8078 3.59424 32.9984 3.59424ZM32.9984 60.4942C17.3234 60.4942 4.63906 48.1942 4.63906 32.9942C4.63906 17.7942 17.3234 5.49424 32.9984 5.49424C48.6734 5.49424 61.3578 17.7942 61.3578 32.9942C61.3578 48.1942 48.6734 60.4942 32.9984 60.4942Z" fill="url(#paint1_linear_308_1487)"/>
<path opacity="0.4" d="M33 64.2946C50.8406 64.2946 65.2781 50.2946 65.2781 32.9946C65.2781 15.6946 50.8406 1.69463 33 1.69463C15.1594 1.69463 0.721875 15.6946 0.721875 32.9946C0.721875 50.2946 15.1594 64.2946 33 64.2946ZM33 0.994629C51.15 0.994629 66 15.3946 66 32.9946C66 50.5946 51.15 64.9946 33 64.9946C14.85 64.9946 0 50.5946 0 32.9946C0 15.3946 14.85 0.994629 33 0.994629Z" fill="url(#paint2_linear_308_1487)"/>
<path d="M2.26562 33.0938C2.26562 16.6938 15.9812 3.19385 32.9969 3.19385C50.0125 3.19385 63.7281 16.5938 63.7281 33.0938C63.7281 49.4939 50.0125 62.7939 32.9969 62.7939C15.9812 62.7939 2.26562 49.4939 2.26562 33.0938ZM11.8563 12.4938C6.39062 17.7938 2.9875 25.0938 2.9875 33.0938C2.9875 41.0938 6.39062 48.3939 11.7531 53.5939C17.2188 58.7939 24.7469 62.0939 32.9969 62.0939C41.2469 62.0939 48.775 58.8939 54.1375 53.5939C59.6031 48.3939 62.9031 41.0938 62.9031 33.0938C62.9031 25.0938 59.5 17.7938 54.1375 12.4938C48.775 7.19385 41.2469 3.89385 32.9969 3.89385C24.7469 3.89385 17.2188 7.19385 11.8563 12.4938Z" fill="white"/>
<path opacity="0.4" d="M33.0016 60.595C25.3703 60.595 18.2547 57.695 12.8922 52.495C7.52969 47.295 4.53906 40.395 4.53906 32.995C4.53906 25.595 7.52969 18.695 12.8922 13.495C18.2547 8.29502 25.3703 5.39502 33.0016 5.39502C40.6328 5.39502 47.7484 8.29502 53.1109 13.495C58.4734 18.695 61.4641 25.595 61.4641 32.995C61.4641 40.395 58.4734 47.295 53.1109 52.495C47.7484 57.695 40.6328 60.595 33.0016 60.595ZM33.0016 59.795C40.3234 59.795 47.3359 56.995 52.4922 51.995C57.7516 46.895 60.5359 40.195 60.5359 33.095C60.5359 25.995 57.6484 19.195 52.4922 14.195C47.2328 9.09502 40.3234 6.39502 33.0016 6.39502C25.6797 6.39502 18.6672 9.19502 13.5109 14.195C8.25156 19.095 5.36406 25.895 5.36406 32.995C5.36406 40.095 8.25156 46.895 13.4078 51.895C18.6672 56.995 25.6797 59.795 33.0016 59.795Z" fill="url(#paint3_linear_308_1487)"/>
<path d="M58.0625 45.9942C57.5469 45.5942 37.6438 30.2942 37.6438 30.2942L33.0031 4.59424C32.6938 4.69424 32.2812 4.99424 32.075 5.39424L28.775 30.3942L8.25312 45.6942C8.25312 45.6942 7.84062 46.1942 7.63437 46.4942C7.53125 46.6942 7.53125 46.9942 7.53125 47.2942L32.9 37.1942L58.2688 47.2942C58.475 46.7942 58.2688 46.2942 58.0625 45.9942Z" fill="white"/>
<path d="M33.2063 33.7943L33 38.3943L56.3062 47.4943C57.1312 47.8943 57.75 47.6943 58.3687 47.2943L33.5156 33.6943C33.4125 33.5943 33.2063 33.6943 33.2063 33.7943Z" fill="#565F64"/>
<path d="M33.2031 33.7943C33.2031 33.7943 34.5437 36.0943 36.0906 37.6943C38.2562 39.9943 41.1438 41.5942 41.1438 41.5942L56.3031 47.4942C57.1281 47.8942 57.7469 47.6942 58.3656 47.2942L33.5125 33.6943C33.4094 33.5943 33.2031 33.6943 33.2031 33.7943Z" fill="url(#paint4_linear_308_1487)"/>
<path d="M58.2672 46.395C58.2672 46.295 58.1641 46.195 58.0609 45.995L36.8172 30.895L33.9297 32.695C33.9297 32.695 34.1359 32.795 34.2391 32.695C34.5484 32.595 35.1672 32.495 35.7859 32.695C36.3016 32.895 58.2672 46.495 58.2672 46.495C58.2672 46.495 58.2672 46.495 58.2672 46.395Z" fill="#A4AAAE" fill-opacity="0.6"/>
<path d="M57.5406 45.4954L37.7406 30.2954L36.8125 30.8954L58.0562 46.0954C57.9531 45.8954 57.7469 45.6954 57.5406 45.4954Z" fill="#333E46"/>
<path d="M33.5172 32.2938C33.4141 32.3938 33.4141 32.3938 33.4141 32.3938C33.4141 32.3938 33.4141 32.5938 33.6203 32.4938C33.7234 32.3938 36.7141 30.8938 37.7453 30.2938L34.1359 6.29385C34.0328 5.39385 33.6203 4.99385 32.8984 4.69385L33.3109 32.4938L33.5172 32.2938Z" fill="#565F64"/>
<path d="M31.7609 6.29385V7.59385L29.4922 29.6938C29.4922 29.9938 29.5953 30.2938 29.9047 30.4938L31.2453 31.4938L32.1734 7.09385L32.2766 5.19385C31.9672 5.39385 31.8641 5.79385 31.7609 6.29385Z" fill="#A4AAAE" fill-opacity="0.6"/>
<path d="M30.5266 31.895L29.2891 30.895L8.35469 45.595C8.35469 45.595 7.73594 45.995 7.63281 46.395L8.35469 45.995L30.3203 32.595C30.7328 32.395 30.8359 32.195 30.5266 31.895Z" fill="#A4AAAE" fill-opacity="0.6"/>
<path d="M32.6938 33.7943C32.6938 33.6943 32.5906 33.5943 32.4875 33.6943L7.53125 47.3942C8.15 47.7942 8.76875 47.8942 9.59375 47.5942L32.9 38.4943L32.6938 33.7943Z" fill="#565F64"/>
<path d="M33.4141 32.395L33.5172 32.295C33.4141 32.395 33.4141 32.395 33.4141 32.395C33.4141 32.395 33.4141 32.495 33.5172 32.495H33.6203C33.7234 32.395 36.7141 30.895 37.7453 30.295L37.3328 27.395L34.1359 6.29502C34.1359 5.89502 34.0328 5.59502 33.8266 5.39502C33.8266 5.39502 35.3734 25.595 35.3734 27.795C35.3734 30.695 33.4141 32.395 33.4141 32.395Z" fill="url(#paint5_linear_308_1487)"/>
<path d="M32.6938 33.7943C32.6938 33.6943 32.5906 33.5943 32.4875 33.6943L7.53125 47.3942C8.15 47.7942 8.76875 47.8942 9.59375 47.5942L32.9 38.4943L32.6938 33.7943Z" fill="url(#paint6_linear_308_1487)" fill-opacity="0.8"/>
<path opacity="0.8" d="M9.5875 47.4946L32.8937 38.3946L32.6875 33.9946C32.275 35.1946 31.5531 36.4946 29.5937 37.4946C28.15 38.2946 14.3313 44.8946 9.38125 47.1946C9.07188 47.3946 8.65937 47.4946 8.45312 47.5946C8.86562 47.7946 9.175 47.6946 9.5875 47.4946Z" fill="url(#paint7_linear_308_1487)"/>
<path d="M33.5172 32.2938C33.4141 32.3938 33.4141 32.3938 33.4141 32.3938C33.4141 32.3938 33.4141 32.5938 33.6203 32.4938C33.7234 32.3938 36.7141 30.8938 37.7453 30.2938L34.1359 6.29385C34.0328 5.39385 33.6203 4.99385 32.8984 4.69385L33.3109 32.4938L33.5172 32.2938Z" fill="url(#paint8_linear_308_1487)"/>
<path d="M33.5172 32.2938C33.4141 32.3938 33.4141 32.3938 33.4141 32.3938C33.4141 32.3938 33.4141 32.5938 33.6203 32.4938C33.7234 32.3938 36.7141 30.8938 37.7453 30.2938L34.1359 6.29385C34.0328 5.39385 33.6203 4.99385 32.8984 4.69385L33.3109 32.4938L33.5172 32.2938Z" fill="url(#paint9_linear_308_1487)"/>
<path d="M5.25625 45.3946C4.53438 43.7946 0.409375 35.9946 4.94688 20.9946H3.19375C2.26562 23.9946 1.54375 25.7946 1.13125 28.4946C1.13125 28.4946 0.925 29.4946 0.821875 30.5946C0.71875 31.6946 0.71875 32.2946 0.71875 32.9946C0.71875 38.9946 2.26562 42.4946 2.26562 42.4946C3.91563 47.4946 6.80312 51.9946 10.7219 55.3946C14.125 58.2946 19.3844 60.4946 23.7156 61.2946C22.9937 61.1946 10.6187 56.0946 5.25625 45.3946Z" fill="url(#paint10_linear_308_1487)"/>
<path d="M33.4125 33.5946H32.4844C32.5875 33.5946 32.6906 33.5946 32.6906 33.6946L32.8969 38.2946H33L33.2063 33.6946C33.2063 33.5946 33.3094 33.4946 33.4125 33.5946V33.5946Z" fill="url(#paint11_linear_308_1487)"/>
<path d="M43.3125 3.29541C54.1406 7.29541 64.35 18.2954 64.35 32.1954C64.35 48.9954 50.5312 62.6954 33 62.6954V64.2954C50.5312 64.2954 65.2781 50.2954 65.2781 32.9954C65.2781 19.1954 56.2031 7.59541 43.3125 3.29541Z" fill="url(#paint12_linear_308_1487)"/>
<path d="M60.6375 21.1942C53.4187 5.09424 37.125 4.19424 36.1969 4.09424C36.1969 4.09424 36.1969 4.09424 36.0938 4.09424C48.5719 6.29424 56.5125 14.1942 59.2969 22.4942V22.5942C60.5344 25.7942 61.1531 29.1942 61.2563 32.8942C61.3594 36.3942 60.5344 40.2942 58.9875 43.8942C58.8844 44.3942 58.7813 44.9942 58.6781 44.9942H60.3281C65.2781 35.9942 63.1125 26.8942 60.6375 21.1942Z" fill="url(#paint13_linear_308_1487)"/>
<path d="M2.26562 33.0938C2.26562 16.6938 15.9812 3.19385 32.9969 3.19385C50.0125 3.19385 63.7281 16.5938 63.7281 33.0938C63.7281 49.4939 50.0125 62.7939 32.9969 62.7939C15.9812 62.7939 2.26562 49.4939 2.26562 33.0938ZM11.8563 12.4938C6.39062 17.7938 2.9875 25.0938 2.9875 33.0938C2.9875 41.0938 6.39062 48.3939 11.7531 53.5939C17.2188 58.7939 24.7469 62.0939 32.9969 62.0939C41.2469 62.0939 48.775 58.8939 54.1375 53.5939C59.6031 48.3939 62.9031 41.0938 62.9031 33.0938C62.9031 25.0938 59.5 17.7938 54.1375 12.4938C48.775 7.19385 41.2469 3.89385 32.9969 3.89385C24.7469 3.89385 17.2188 7.19385 11.8563 12.4938Z" fill="#FBFBFB"/>
<path d="M8.14844 45.795L29.1859 31.095C30.3203 31.695 32.1766 32.495 32.3828 32.495C32.5891 32.595 32.5891 32.395 32.5891 32.395L30.0109 30.295C29.7016 30.095 29.5984 29.795 29.5984 29.495L32.0734 5.39502C31.9703 5.49502 31.9703 5.69502 31.8672 5.79502C31.7641 5.99502 31.7641 6.09502 31.7641 6.29502L28.1547 30.395L8.35469 45.495C8.25156 45.595 8.14844 45.695 8.14844 45.795Z" fill="#333F47"/>
</g>
<path d="M87.7333 13.7219H89.1822L92.878 22.8343L96.566 13.7219H98.0226L93.4358 24.8993H92.3046L87.7333 13.7219ZM87.2607 13.7219H88.5391L88.7483 20.5389V24.8993H87.2607V13.7219ZM97.2091 13.7219H98.4875V24.8993H96.9999V20.5389L97.2091 13.7219Z" fill="#222222"/>
<path d="M108.281 23.6941V24.8993H102.307V23.6941H108.281ZM102.609 13.7219V24.8993H101.114V13.7219H102.609ZM107.491 18.5276V19.7328H102.307V18.5276H107.491ZM108.203 13.7219V14.9348H102.307V13.7219H108.203Z" fill="#222222"/>
<path d="M110.133 13.7219H113.867C114.714 13.7219 115.43 13.8498 116.013 14.1057C116.602 14.3616 117.049 14.7404 117.354 15.2419C117.664 15.7383 117.819 16.3499 117.819 17.0767C117.819 17.5884 117.713 18.0567 117.501 18.4815C117.294 18.9012 116.995 19.2594 116.602 19.5563C116.215 19.848 115.75 20.0655 115.208 20.2088L114.789 20.37H111.279L111.264 19.1648H113.914C114.451 19.1648 114.898 19.0726 115.254 18.8884C115.61 18.699 115.879 18.4457 116.06 18.1284C116.241 17.8111 116.331 17.4605 116.331 17.0767C116.331 16.6468 116.246 16.2706 116.075 15.9482C115.905 15.6257 115.636 15.3775 115.27 15.2035C114.908 15.0244 114.441 14.9348 113.867 14.9348H111.628V24.8993H110.133V13.7219ZM116.726 24.8993L113.983 19.8326L115.541 19.825L118.322 24.8072V24.8993H116.726Z" fill="#222222"/>
<path d="M126.721 21.345H128.209C128.131 22.0512 127.927 22.6833 127.597 23.2411C127.266 23.799 126.799 24.2417 126.194 24.5692C125.59 24.8916 124.836 25.0529 123.932 25.0529C123.271 25.0529 122.669 24.93 122.126 24.6844C121.589 24.4387 121.127 24.0907 120.74 23.6403C120.352 23.1848 120.053 22.6398 119.841 22.0052C119.634 21.3654 119.531 20.6541 119.531 19.871V18.7579C119.531 17.9748 119.634 17.266 119.841 16.6314C120.053 15.9917 120.355 15.4441 120.747 14.9886C121.145 14.5331 121.623 14.1825 122.181 13.9368C122.739 13.6912 123.366 13.5684 124.063 13.5684C124.916 13.5684 125.636 13.727 126.225 14.0443C126.814 14.3616 127.271 14.8018 127.597 15.3647C127.927 15.9226 128.131 16.57 128.209 17.307H126.721C126.649 16.7849 126.514 16.3371 126.318 15.9635C126.122 15.5848 125.843 15.2931 125.481 15.0884C125.12 14.8837 124.647 14.7813 124.063 14.7813C123.562 14.7813 123.121 14.876 122.739 15.0653C122.362 15.2547 122.044 15.5234 121.786 15.8714C121.532 16.2194 121.341 16.6365 121.212 17.1227C121.083 17.6089 121.019 18.1489 121.019 18.7425V19.871C121.019 20.4186 121.075 20.933 121.189 21.4141C121.308 21.8951 121.486 22.3174 121.724 22.6807C121.961 23.0441 122.263 23.3307 122.63 23.5405C122.997 23.7452 123.431 23.8476 123.932 23.8476C124.567 23.8476 125.073 23.7478 125.45 23.5482C125.827 23.3486 126.112 23.062 126.303 22.6884C126.499 22.3148 126.638 21.867 126.721 21.345Z" fill="#222222"/>
<path d="M137.413 23.6941V24.8993H131.44V23.6941H137.413ZM131.742 13.7219V24.8993H130.246V13.7219H131.742ZM136.623 18.5276V19.7328H131.44V18.5276H136.623ZM137.336 13.7219V14.9348H131.44V13.7219H137.336Z" fill="#222222"/>
<path d="M142.318 24.8993H139.962L139.978 23.6941H142.318C143.123 23.6941 143.795 23.5277 144.332 23.1951C144.869 22.8573 145.272 22.3865 145.541 21.7825C145.815 21.1735 145.951 20.4621 145.951 19.6484V18.9652C145.951 18.3254 145.874 17.7573 145.719 17.2609C145.564 16.7594 145.337 16.3371 145.037 15.9942C144.738 15.6462 144.371 15.3826 143.937 15.2035C143.508 15.0244 143.015 14.9348 142.457 14.9348H139.916V13.7219H142.457C143.196 13.7219 143.87 13.8447 144.479 14.0904C145.089 14.3309 145.613 14.6815 146.052 15.1421C146.496 15.5976 146.837 16.1503 147.075 16.8003C147.312 17.4451 147.431 18.1719 147.431 18.9805V19.6484C147.431 20.457 147.312 21.1863 147.075 21.8363C146.837 22.4811 146.494 23.0313 146.044 23.4868C145.6 23.9423 145.063 24.2929 144.433 24.5385C143.808 24.7791 143.103 24.8993 142.318 24.8993ZM140.76 13.7219V24.8993H139.265V13.7219H140.76Z" fill="#222222"/>
<path d="M156.845 23.6941V24.8993H150.871V23.6941H156.845ZM151.174 13.7219V24.8993H149.678V13.7219H151.174ZM156.055 18.5276V19.7328H150.871V18.5276H156.055ZM156.768 13.7219V14.9348H150.871V13.7219H156.768Z" fill="#222222"/>
<path d="M164.709 22.0743C164.709 21.8132 164.668 21.5829 164.585 21.3833C164.508 21.1786 164.368 20.9944 164.167 20.8306C163.971 20.6668 163.697 20.5108 163.346 20.3623C163 20.2139 162.56 20.0629 162.028 19.9094C161.471 19.7456 160.967 19.5639 160.518 19.3643C160.068 19.1596 159.683 18.9268 159.363 18.6658C159.043 18.4047 158.798 18.1054 158.627 17.7676C158.457 17.4298 158.371 17.0434 158.371 16.6084C158.371 16.1734 158.462 15.7716 158.643 15.4031C158.823 15.0346 159.082 14.7148 159.417 14.4435C159.758 14.1672 160.164 13.9522 160.634 13.7987C161.104 13.6451 161.628 13.5684 162.207 13.5684C163.054 13.5684 163.772 13.7296 164.361 14.052C164.955 14.3693 165.407 14.7864 165.716 15.3033C166.026 15.8151 166.181 16.3627 166.181 16.9462H164.694C164.694 16.5265 164.603 16.1554 164.423 15.833C164.242 15.5055 163.968 15.2496 163.601 15.0653C163.235 14.876 162.77 14.7813 162.207 14.7813C161.675 14.7813 161.236 14.8606 160.889 15.0193C160.543 15.1779 160.285 15.3929 160.115 15.6641C159.949 15.9354 159.867 16.245 159.867 16.593C159.867 16.8284 159.916 17.0434 160.014 17.2379C160.117 17.4272 160.275 17.6038 160.487 17.7676C160.704 17.9313 160.977 18.0823 161.308 18.2205C161.644 18.3587 162.044 18.4918 162.509 18.6197C163.149 18.7988 163.702 18.9984 164.167 19.2185C164.632 19.4386 165.014 19.6868 165.314 19.9631C165.618 20.2344 165.843 20.544 165.988 20.892C166.137 21.2349 166.212 21.6239 166.212 22.0589C166.212 22.5144 166.119 22.9264 165.933 23.2949C165.747 23.6634 165.481 23.9781 165.135 24.2391C164.789 24.5001 164.373 24.7023 163.888 24.8456C163.408 24.9838 162.87 25.0529 162.276 25.0529C161.755 25.0529 161.241 24.9812 160.735 24.8379C160.234 24.6946 159.776 24.4797 159.363 24.1931C158.955 23.9065 158.627 23.5533 158.379 23.1337C158.136 22.7089 158.015 22.2176 158.015 21.6597H159.503C159.503 22.0436 159.578 22.3737 159.727 22.65C159.877 22.9213 160.081 23.1465 160.339 23.3256C160.603 23.5047 160.9 23.6378 161.23 23.7248C161.566 23.8067 161.915 23.8476 162.276 23.8476C162.798 23.8476 163.24 23.776 163.601 23.6327C163.963 23.4894 164.237 23.2846 164.423 23.0185C164.614 22.7524 164.709 22.4376 164.709 22.0743Z" fill="#222222"/>
<path d="M170.884 19.5639V20.7308H167.103V19.5639H170.884Z" fill="#222222"/>
<path d="M176.525 19.6714H173.666L173.65 18.4815H176.246C176.675 18.4815 177.049 18.4099 177.369 18.2666C177.69 18.1233 177.938 17.9185 178.113 17.6524C178.294 17.3812 178.384 17.0587 178.384 16.6851C178.384 16.2757 178.304 15.9431 178.144 15.6872C177.989 15.4261 177.749 15.2368 177.424 15.1191C177.103 14.9962 176.695 14.9348 176.199 14.9348H173.999V24.8993H172.504V13.7219H176.199C176.778 13.7219 177.294 13.7808 177.749 13.8985C178.204 14.0111 178.588 14.1902 178.903 14.4358C179.224 14.6764 179.467 14.9835 179.632 15.3571C179.797 15.7307 179.88 16.1785 179.88 16.7005C179.88 17.1611 179.761 17.5782 179.523 17.9518C179.286 18.3203 178.955 18.6223 178.532 18.8577C178.113 19.0931 177.622 19.2441 177.059 19.3106L176.525 19.6714ZM176.455 24.8993H173.077L173.922 23.6941H176.455C176.93 23.6941 177.333 23.6122 177.664 23.4484C178 23.2846 178.255 23.0543 178.431 22.7575C178.606 22.4555 178.694 22.0999 178.694 21.6904C178.694 21.2759 178.619 20.9176 178.47 20.6157C178.32 20.3137 178.085 20.0809 177.765 19.9171C177.444 19.7533 177.031 19.6714 176.525 19.6714H174.394L174.41 18.4815H177.323L177.641 18.9114C178.183 18.9575 178.643 19.111 179.02 19.372C179.397 19.6279 179.683 19.9555 179.88 20.3547C180.081 20.7539 180.182 21.194 180.182 21.6751C180.182 22.3711 180.027 22.9597 179.717 23.4407C179.412 23.9167 178.981 24.2801 178.423 24.5308C177.865 24.7765 177.209 24.8993 176.455 24.8993Z" fill="#222222"/>
<path d="M189.557 23.6941V24.8993H183.583V23.6941H189.557ZM183.885 13.7219V24.8993H182.39V13.7219H183.885ZM188.767 18.5276V19.7328H183.583V18.5276H188.767ZM189.479 13.7219V14.9348H183.583V13.7219H189.479Z" fill="#222222"/>
<path d="M200.086 13.7219V24.8993H198.583L192.904 16.2783V24.8993H191.409V13.7219H192.904L198.607 22.366V13.7219H200.086Z" fill="#222222"/>
<path d="M210.306 23.6941V24.8993H202.666V23.6941H210.306ZM210.058 14.7966L203.023 24.8993H202.101V23.7939L209.128 13.7219H210.058V14.7966ZM209.423 13.7219V14.9348H202.202V13.7219H209.423Z" fill="#222222"/>
<path d="M219.154 21.5215L221.393 13.7219H222.478L221.85 16.7542L219.441 24.8993H218.364L219.154 21.5215ZM216.837 13.7219L218.619 21.368L219.154 24.8993H218.085L215.35 13.7219H216.837ZM225.376 21.3603L227.119 13.7219H228.614L225.887 24.8993H224.818L225.376 21.3603ZM222.641 13.7219L224.818 21.5215L225.608 24.8993H224.531L222.207 16.7542L221.571 13.7219H222.641Z" fill="#222222"/>
<path d="M236.726 13.7219H238.214V21.2836C238.214 22.1229 238.026 22.8215 237.648 23.3793C237.271 23.9372 236.77 24.3568 236.145 24.6383C235.526 24.9147 234.851 25.0529 234.123 25.0529C233.359 25.0529 232.667 24.9147 232.047 24.6383C231.432 24.3568 230.944 23.9372 230.582 23.3793C230.226 22.8215 230.048 22.1229 230.048 21.2836V13.7219H231.528V21.2836C231.528 21.867 231.636 22.3481 231.853 22.7268C232.07 23.1055 232.372 23.387 232.759 23.5712C233.152 23.7555 233.607 23.8476 234.123 23.8476C234.645 23.8476 235.099 23.7555 235.487 23.5712C235.879 23.387 236.184 23.1055 236.401 22.7268C236.618 22.3481 236.726 21.867 236.726 21.2836V13.7219Z" fill="#222222"/>
<path d="M244.722 20.5159H241.708V19.3106H244.722C245.306 19.3106 245.779 19.2185 246.14 19.0342C246.502 18.85 246.765 18.5941 246.931 18.2666C247.101 17.939 247.186 17.5654 247.186 17.1458C247.186 16.7619 247.101 16.4011 246.931 16.0633C246.765 15.7255 246.502 15.4543 246.14 15.2496C245.779 15.0397 245.306 14.9348 244.722 14.9348H242.057V24.8993H240.562V13.7219H244.722C245.575 13.7219 246.295 13.8678 246.884 14.1595C247.473 14.4512 247.92 14.8555 248.224 15.3724C248.529 15.8842 248.682 16.4702 248.682 17.1304C248.682 17.8469 248.529 18.4585 248.224 18.9652C247.92 19.4718 247.473 19.8582 246.884 20.1244C246.295 20.3854 245.575 20.5159 244.722 20.5159Z" fill="#222222"/>
<path d="M254.733 20.5159H251.719V19.3106H254.733C255.316 19.3106 255.789 19.2185 256.151 19.0342C256.512 18.85 256.776 18.5941 256.941 18.2666C257.111 17.939 257.197 17.5654 257.197 17.1458C257.197 16.7619 257.111 16.4011 256.941 16.0633C256.776 15.7255 256.512 15.4543 256.151 15.2496C255.789 15.0397 255.316 14.9348 254.733 14.9348H252.067V24.8993H250.572V13.7219H254.733C255.585 13.7219 256.306 13.8678 256.894 14.1595C257.483 14.4512 257.93 14.8555 258.235 15.3724C258.54 15.8842 258.692 16.4702 258.692 17.1304C258.692 17.8469 258.54 18.4585 258.235 18.9652C257.93 19.4718 257.483 19.8582 256.894 20.1244C256.306 20.3854 255.585 20.5159 254.733 20.5159Z" fill="#222222"/>
<path d="M267.749 23.6941V24.8993H261.776V23.6941H267.749ZM262.078 13.7219V24.8993H260.582V13.7219H262.078ZM266.959 18.5276V19.7328H261.776V18.5276H266.959ZM267.672 13.7219V14.9348H261.776V13.7219H267.672Z" fill="#222222"/>
<path d="M269.601 13.7219H273.336C274.183 13.7219 274.898 13.8498 275.482 14.1057C276.071 14.3616 276.517 14.7404 276.822 15.2419C277.132 15.7383 277.287 16.3499 277.287 17.0767C277.287 17.5884 277.181 18.0567 276.969 18.4815C276.763 18.9012 276.463 19.2594 276.071 19.5563C275.683 19.848 275.218 20.0655 274.676 20.2088L274.258 20.37H270.748L270.732 19.1648H273.382C273.919 19.1648 274.366 19.0726 274.722 18.8884C275.079 18.699 275.347 18.4457 275.528 18.1284C275.709 17.8111 275.799 17.4605 275.799 17.0767C275.799 16.6468 275.714 16.2706 275.544 15.9482C275.373 15.6257 275.105 15.3775 274.738 15.2035C274.376 15.0244 273.909 14.9348 273.336 14.9348H271.096V24.8993H269.601V13.7219ZM276.195 24.8993L273.452 19.8326L275.009 19.825L277.791 24.8072V24.8993H276.195Z" fill="#222222"/>
<path d="M282.927 13.7219V24.8993H281.455V13.7219H282.927ZM286.554 13.7219V14.9348H277.837V13.7219H286.554Z" fill="#222222"/>
<path d="M291.783 14.7122L288.049 24.8993H286.523L290.823 13.7219H291.807L291.783 14.7122ZM294.914 24.8993L291.171 14.7122L291.148 13.7219H292.132L296.448 24.8993H294.914ZM294.72 20.7615V21.9745H288.382V20.7615H294.72Z" fill="#222222"/>
<path d="M304.8 23.6941V24.8993H299.159V23.6941H304.8ZM299.454 13.7219V24.8993H297.959V13.7219H299.454Z" fill="#222222"/>
<path d="M89.1086 49.8137L90.7617 44.0558H91.5624L91.0991 46.2943L89.3203 52.3073H88.5252L89.1086 49.8137ZM87.3984 44.0558L88.714 49.7004L89.1086 52.3073H88.3193L86.3002 44.0558H87.3984ZM93.7016 49.6947L94.9886 44.0558H96.0925L94.0792 52.3073H93.2898L93.7016 49.6947ZM91.6826 44.0558L93.2898 49.8137L93.8732 52.3073H93.0782L91.3622 46.2943L90.8932 44.0558H91.6826Z" fill="#222222"/>
<path d="M102.081 44.0558H103.179V49.638C103.179 50.2577 103.04 50.7734 102.762 51.1852C102.483 51.597 102.114 51.9069 101.652 52.1147C101.195 52.3187 100.697 52.4207 100.159 52.4207C99.595 52.4207 99.084 52.3187 98.6264 52.1147C98.1726 51.9069 97.8123 51.597 97.5454 51.1852C97.2823 50.7734 97.1507 50.2577 97.1507 49.638V44.0558H98.2432V49.638C98.2432 50.0688 98.3233 50.4239 98.4834 50.7035C98.6436 50.9831 98.8666 51.1909 99.1526 51.3269C99.4424 51.4629 99.778 51.5309 100.159 51.5309C100.544 51.5309 100.88 51.4629 101.166 51.3269C101.456 51.1909 101.681 50.9831 101.841 50.7035C102.001 50.4239 102.081 50.0688 102.081 49.638V44.0558Z" fill="#222222"/>
<path d="M107.984 49.0713H105.759V48.1816H107.984C108.415 48.1816 108.764 48.1135 109.031 47.9775C109.298 47.8415 109.492 47.6526 109.614 47.4108C109.74 47.169 109.803 46.8932 109.803 46.5834C109.803 46.3 109.74 46.0337 109.614 45.7843C109.492 45.5349 109.298 45.3347 109.031 45.1836C108.764 45.0286 108.415 44.9512 107.984 44.9512H106.016V52.3073H104.912V44.0558H107.984C108.613 44.0558 109.145 44.1634 109.58 44.3788C110.015 44.5942 110.344 44.8926 110.569 45.2742C110.794 45.6521 110.907 46.0847 110.907 46.572C110.907 47.101 110.794 47.5525 110.569 47.9265C110.344 48.3006 110.015 48.5858 109.58 48.7823C109.145 48.975 108.613 49.0713 107.984 49.0713Z" fill="#222222"/>
<path d="M115.374 49.0713H113.149V48.1816H115.374C115.805 48.1816 116.154 48.1135 116.421 47.9775C116.688 47.8415 116.882 47.6526 117.004 47.4108C117.13 47.169 117.193 46.8932 117.193 46.5834C117.193 46.3 117.13 46.0337 117.004 45.7843C116.882 45.5349 116.688 45.3347 116.421 45.1836C116.154 45.0286 115.805 44.9512 115.374 44.9512H113.406V52.3073H112.302V44.0558H115.374C116.003 44.0558 116.535 44.1634 116.97 44.3788C117.405 44.5942 117.734 44.8926 117.959 45.2742C118.184 45.6521 118.297 46.0847 118.297 46.572C118.297 47.101 118.184 47.5525 117.959 47.9265C117.734 48.3006 117.405 48.5858 116.97 48.7823C116.535 48.975 116.003 49.0713 115.374 49.0713Z" fill="#222222"/>
<path d="M124.983 51.4176V52.3073H120.573V51.4176H124.983ZM120.796 44.0558V52.3073H119.692V44.0558H120.796ZM124.4 47.6035V48.4933H120.573V47.6035H124.4ZM124.926 44.0558V44.9512H120.573V44.0558H124.926Z" fill="#222222"/>
<path d="M126.35 44.0558H129.107C129.733 44.0558 130.261 44.1502 130.692 44.3391C131.126 44.528 131.456 44.8076 131.681 45.1779C131.91 45.5444 132.024 45.9959 132.024 46.5324C132.024 46.9102 131.946 47.2559 131.79 47.5695C131.637 47.8793 131.416 48.1438 131.126 48.3629C130.84 48.5783 130.497 48.7388 130.097 48.8446L129.788 48.9636H127.197L127.185 48.0739H129.142C129.538 48.0739 129.868 48.0059 130.131 47.8699C130.394 47.7301 130.593 47.543 130.726 47.3088C130.859 47.0745 130.926 46.8157 130.926 46.5324C130.926 46.215 130.863 45.9373 130.737 45.6993C130.612 45.4613 130.413 45.278 130.143 45.1496C129.876 45.0173 129.531 44.9512 129.107 44.9512H127.454V52.3073H126.35V44.0558ZM131.218 52.3073L129.193 48.5669L130.343 48.5613L132.396 52.2393V52.3073H131.218Z" fill="#222222"/>
<path d="M136.188 44.0558V52.3073H135.102V44.0558H136.188ZM138.865 44.0558V44.9512H132.431V44.0558H138.865Z" fill="#222222"/>
<path d="M142.726 44.7868L139.969 52.3073H138.842L142.017 44.0558H142.743L142.726 44.7868ZM145.037 52.3073L142.274 44.7868L142.257 44.0558H142.984L146.17 52.3073H145.037ZM144.894 49.2527V50.1481H140.215V49.2527H144.894Z" fill="#222222"/>
<path d="M152.335 51.4176V52.3073H148.171V51.4176H152.335ZM148.389 44.0558V52.3073H147.285V44.0558H148.389Z" fill="#222222"/>
<path d="M156.334 48.1589V47.9265C156.334 47.6016 156.437 47.3333 156.642 47.1218C156.852 46.9102 157.136 46.8044 157.495 46.8044C157.857 46.8044 158.143 46.9102 158.353 47.1218C158.562 47.3333 158.667 47.6016 158.667 47.9265V48.1589C158.667 48.48 158.562 48.7464 158.353 48.958C158.147 49.1658 157.863 49.2697 157.5 49.2697C157.142 49.2697 156.858 49.1658 156.648 48.958C156.438 48.7464 156.334 48.48 156.334 48.1589Z" fill="#222222"/>
<path d="M167.808 50.2218C167.808 50.0291 167.777 49.8591 167.716 49.7117C167.659 49.5606 167.556 49.4246 167.407 49.3037C167.262 49.1828 167.06 49.0675 166.801 48.958C166.545 48.8484 166.221 48.7369 165.829 48.6236C165.417 48.5027 165.045 48.3686 164.713 48.2212C164.381 48.0701 164.097 47.8982 163.861 47.7055C163.624 47.5128 163.443 47.2918 163.318 47.0424C163.192 46.7931 163.129 46.5078 163.129 46.1867C163.129 45.8655 163.195 45.5689 163.329 45.2969C163.462 45.0249 163.653 44.7887 163.901 44.5885C164.153 44.3845 164.452 44.2258 164.799 44.1124C165.146 43.9991 165.533 43.9424 165.96 43.9424C166.585 43.9424 167.115 44.0614 167.55 44.2995C167.989 44.5337 168.322 44.8416 168.551 45.2232C168.78 45.601 168.894 46.0053 168.894 46.436H167.796C167.796 46.1262 167.729 45.8523 167.596 45.6143C167.462 45.3725 167.26 45.1836 166.99 45.0475C166.719 44.9077 166.376 44.8379 165.96 44.8379C165.567 44.8379 165.243 44.8964 164.988 45.0135C164.732 45.1307 164.542 45.2893 164.416 45.4896C164.294 45.6898 164.233 45.9184 164.233 46.1753C164.233 46.3491 164.269 46.5078 164.341 46.6514C164.418 46.7912 164.534 46.9215 164.69 47.0424C164.85 47.1633 165.053 47.2748 165.297 47.3768C165.544 47.4788 165.84 47.577 166.183 47.6715C166.656 47.8037 167.064 47.9511 167.407 48.1135C167.75 48.276 168.033 48.4593 168.254 48.6633C168.479 48.8635 168.645 49.0921 168.751 49.349C168.862 49.6022 168.917 49.8893 168.917 50.2104C168.917 50.5467 168.849 50.8508 168.711 51.1229C168.574 51.3949 168.378 51.6273 168.122 51.82C167.867 52.0126 167.56 52.1619 167.201 52.2677C166.847 52.3697 166.45 52.4207 166.012 52.4207C165.626 52.4207 165.247 52.3678 164.873 52.262C164.503 52.1562 164.166 51.9975 163.861 51.786C163.56 51.5744 163.318 51.3137 163.134 51.0039C162.955 50.6903 162.866 50.3276 162.866 49.9157H163.964C163.964 50.1991 164.019 50.4428 164.13 50.6468C164.24 50.8471 164.391 51.0133 164.582 51.1455C164.776 51.2778 164.995 51.376 165.239 51.4402C165.487 51.5007 165.745 51.5309 166.012 51.5309C166.397 51.5309 166.723 51.478 166.99 51.3722C167.257 51.2664 167.459 51.1153 167.596 50.9189C167.737 50.7224 167.808 50.49 167.808 50.2218Z" fill="#222222"/>
<path d="M176.736 47.9209V48.4422C176.736 49.0619 176.658 49.6173 176.502 50.1084C176.345 50.5996 176.12 51.0171 175.827 51.3609C175.533 51.7047 175.18 51.9673 174.769 52.1487C174.361 52.33 173.903 52.4207 173.396 52.4207C172.904 52.4207 172.452 52.33 172.04 52.1487C171.632 51.9673 171.278 51.7047 170.976 51.3609C170.679 51.0171 170.448 50.5996 170.284 50.1084C170.12 49.6173 170.038 49.0619 170.038 48.4422V47.9209C170.038 47.3012 170.118 46.7477 170.279 46.2603C170.443 45.7692 170.673 45.3517 170.971 45.0079C171.268 44.6603 171.621 44.3958 172.029 44.2144C172.441 44.0331 172.892 43.9424 173.384 43.9424C173.892 43.9424 174.349 44.0331 174.757 44.2144C175.169 44.3958 175.522 44.6603 175.815 45.0079C176.113 45.3517 176.34 45.7692 176.496 46.2603C176.656 46.7477 176.736 47.3012 176.736 47.9209ZM175.644 48.4422V47.9095C175.644 47.4184 175.592 46.9839 175.489 46.606C175.39 46.2282 175.243 45.9109 175.049 45.6539C174.854 45.397 174.616 45.2024 174.334 45.0702C174.056 44.938 173.739 44.8719 173.384 44.8719C173.041 44.8719 172.73 44.938 172.452 45.0702C172.178 45.2024 171.941 45.397 171.743 45.6539C171.548 45.9109 171.398 46.2282 171.291 46.606C171.184 46.9839 171.131 47.4184 171.131 47.9095V48.4422C171.131 48.9372 171.184 49.3755 171.291 49.7571C171.398 50.1349 171.55 50.4541 171.749 50.7148C171.951 50.9718 172.189 51.1663 172.463 51.2986C172.742 51.4308 173.053 51.4969 173.396 51.4969C173.754 51.4969 174.073 51.4308 174.351 51.2986C174.629 51.1663 174.864 50.9718 175.055 50.7148C175.249 50.4541 175.396 50.1349 175.495 49.7571C175.594 49.3755 175.644 48.9372 175.644 48.4422Z" fill="#222222"/>
<path d="M183.44 51.4176V52.3073H179.276V51.4176H183.44ZM179.493 44.0558V52.3073H178.389V44.0558H179.493Z" fill="#222222"/>
<path d="M185.888 44.0558V52.3073H184.784V44.0558H185.888Z" fill="#222222"/>
<path d="M194.302 44.0558V52.3073H193.192L188.999 45.943V52.3073H187.896V44.0558H188.999L193.209 50.4371V44.0558H194.302Z" fill="#222222"/>
<path d="M202.412 48.1986V51.2192C202.31 51.3704 202.146 51.5404 201.921 51.7293C201.696 51.9144 201.385 52.0769 200.988 52.2167C200.595 52.3527 200.088 52.4207 199.467 52.4207C198.96 52.4207 198.492 52.3338 198.065 52.16C197.642 51.9824 197.274 51.7255 196.961 51.3892C196.653 51.0492 196.412 50.6374 196.241 50.1538C196.073 49.6664 195.989 49.1148 195.989 48.4989V47.8585C195.989 47.2427 196.062 46.6929 196.206 46.2093C196.355 45.7257 196.573 45.3158 196.859 44.9795C197.145 44.6395 197.495 44.3826 197.911 44.2088C198.327 44.0312 198.803 43.9424 199.341 43.9424C199.978 43.9424 200.51 44.052 200.937 44.2711C201.368 44.4865 201.703 44.785 201.943 45.1666C202.187 45.5482 202.344 45.9826 202.412 46.47H201.309C201.259 46.1716 201.16 45.8995 201.011 45.6539C200.866 45.4084 200.658 45.2119 200.388 45.0645C200.117 44.9134 199.768 44.8379 199.341 44.8379C198.956 44.8379 198.622 44.9077 198.34 45.0475C198.058 45.1873 197.825 45.3876 197.642 45.6483C197.459 45.909 197.322 46.2244 197.23 46.5947C197.143 46.965 197.099 47.3825 197.099 47.8472V48.4989C197.099 48.975 197.154 49.4 197.265 49.7741C197.379 50.1481 197.541 50.4674 197.751 50.7318C197.961 50.9925 198.21 51.1909 198.5 51.3269C198.794 51.4629 199.118 51.5309 199.472 51.5309C199.865 51.5309 200.184 51.4988 200.428 51.4346C200.672 51.3666 200.862 51.2872 201 51.1966C201.137 51.1021 201.242 51.0133 201.314 50.9302V49.0827H199.387V48.1986H202.412Z" fill="#222222"/>
<path d="M209.534 51.4176V52.3073H205.124V51.4176H209.534ZM205.347 44.0558V52.3073H204.243V44.0558H205.347ZM208.95 47.6035V48.4933H205.124V47.6035H208.95ZM209.476 44.0558V44.9512H205.124V44.0558H209.476Z" fill="#222222"/>
<path d="M217.307 44.0558V52.3073H216.197L212.005 45.943V52.3073H210.901V44.0558H212.005L216.214 50.4371V44.0558H217.307Z" fill="#222222"/>
<path d="M221.997 48.1589V47.9265C221.997 47.6016 222.1 47.3333 222.306 47.1218C222.516 46.9102 222.8 46.8044 223.158 46.8044C223.52 46.8044 223.806 46.9102 224.016 47.1218C224.226 47.3333 224.331 47.6016 224.331 47.9265V48.1589C224.331 48.48 224.226 48.7464 224.016 48.958C223.81 49.1658 223.526 49.2697 223.164 49.2697C222.806 49.2697 222.521 49.1658 222.312 48.958C222.102 48.7464 221.997 48.48 221.997 48.1589Z" fill="#222222"/>
<path d="M229.032 44.0558H231.789C232.415 44.0558 232.943 44.1502 233.374 44.3391C233.809 44.528 234.138 44.8076 234.363 45.1779C234.592 45.5444 234.707 45.9959 234.707 46.5324C234.707 46.9102 234.628 47.2559 234.472 47.5695C234.319 47.8793 234.098 48.1438 233.809 48.3629C233.523 48.5783 233.179 48.7388 232.779 48.8446L232.47 48.9636H229.879L229.868 48.0739H231.824C232.22 48.0739 232.55 48.0059 232.813 47.8699C233.076 47.7301 233.275 47.543 233.408 47.3088C233.542 47.0745 233.608 46.8157 233.608 46.5324C233.608 46.215 233.545 45.9373 233.42 45.6993C233.294 45.4613 233.095 45.278 232.825 45.1496C232.558 45.0173 232.213 44.9512 231.789 44.9512H230.136V52.3073H229.032V44.0558ZM233.9 52.3073L231.875 48.5669L233.025 48.5613L235.078 52.2393V52.3073H233.9Z" fill="#222222"/>
<path d="M241.542 51.4176V52.3073H237.132V51.4176H241.542ZM237.355 44.0558V52.3073H236.251V44.0558H237.355ZM240.958 47.6035V48.4933H237.132V47.6035H240.958ZM241.485 44.0558V44.9512H237.132V44.0558H241.485Z" fill="#222222"/>
<path d="M243.258 44.0558H244.327L247.056 50.7828L249.778 44.0558H250.854L247.467 52.3073H246.632L243.258 44.0558ZM242.909 44.0558H243.853L244.007 49.0883V52.3073H242.909V44.0558ZM250.253 44.0558H251.197V52.3073H250.099V49.0883L250.253 44.0558Z" fill="#222222"/>
<path d="M257.574 50.2218C257.574 50.0291 257.544 49.8591 257.483 49.7117C257.426 49.5606 257.323 49.4246 257.174 49.3037C257.029 49.1828 256.827 49.0675 256.568 48.958C256.312 48.8484 255.988 48.7369 255.595 48.6236C255.183 48.5027 254.812 48.3686 254.48 48.2212C254.148 48.0701 253.864 47.8982 253.628 47.7055C253.391 47.5128 253.21 47.2918 253.084 47.0424C252.958 46.7931 252.896 46.5078 252.896 46.1867C252.896 45.8655 252.962 45.5689 253.096 45.2969C253.229 45.0249 253.42 44.7887 253.668 44.5885C253.919 44.3845 254.219 44.2258 254.566 44.1124C254.913 43.9991 255.3 43.9424 255.727 43.9424C256.352 43.9424 256.882 44.0614 257.317 44.2995C257.755 44.5337 258.089 44.8416 258.318 45.2232C258.547 45.601 258.661 46.0053 258.661 46.436H257.563C257.563 46.1262 257.496 45.8523 257.363 45.6143C257.229 45.3725 257.027 45.1836 256.756 45.0475C256.486 44.9077 256.143 44.8379 255.727 44.8379C255.334 44.8379 255.01 44.8964 254.755 45.0135C254.499 45.1307 254.308 45.2893 254.183 45.4896C254.06 45.6898 253.999 45.9184 253.999 46.1753C253.999 46.3491 254.036 46.5078 254.108 46.6514C254.184 46.7912 254.301 46.9215 254.457 47.0424C254.617 47.1633 254.819 47.2748 255.063 47.3768C255.311 47.4788 255.607 47.577 255.95 47.6715C256.423 47.8037 256.831 47.9511 257.174 48.1135C257.517 48.276 257.799 48.4593 258.021 48.6633C258.245 48.8635 258.411 49.0921 258.518 49.349C258.629 49.6022 258.684 49.8893 258.684 50.2104C258.684 50.5467 258.615 50.8508 258.478 51.1229C258.341 51.3949 258.144 51.6273 257.889 51.82C257.633 52.0126 257.327 52.1619 256.968 52.2677C256.613 52.3697 256.217 52.4207 255.778 52.4207C255.393 52.4207 255.014 52.3678 254.64 52.262C254.27 52.1562 253.933 51.9975 253.628 51.786C253.326 51.5744 253.084 51.3137 252.901 51.0039C252.722 50.6903 252.632 50.3276 252.632 49.9157H253.731C253.731 50.1991 253.786 50.4428 253.897 50.6468C254.007 50.8471 254.158 51.0133 254.348 51.1455C254.543 51.2778 254.762 51.376 255.006 51.4402C255.254 51.5007 255.511 51.5309 255.778 51.5309C256.163 51.5309 256.49 51.478 256.756 51.3722C257.023 51.2664 257.225 51.1153 257.363 50.9189C257.504 50.7224 257.574 50.49 257.574 50.2218Z" fill="#222222"/>
<path d="M265.119 49.6834H266.217C266.16 50.2048 266.009 50.6714 265.765 51.0832C265.521 51.495 265.176 51.8218 264.73 52.0637C264.284 52.3017 263.727 52.4207 263.06 52.4207C262.572 52.4207 262.127 52.33 261.727 52.1487C261.33 51.9673 260.989 51.7104 260.703 51.3779C260.417 51.0416 260.196 50.6393 260.04 50.1708C259.887 49.6985 259.811 49.1733 259.811 48.5953V47.7735C259.811 47.1954 259.887 46.6722 260.04 46.2037C260.196 45.7314 260.419 45.3271 260.709 44.9909C261.002 44.6546 261.355 44.3958 261.767 44.2144C262.179 44.0331 262.642 43.9424 263.157 43.9424C263.786 43.9424 264.318 44.0595 264.753 44.2938C265.187 44.528 265.525 44.853 265.765 45.2686C266.009 45.6804 266.16 46.1583 266.217 46.7024H265.119C265.065 46.317 264.966 45.9864 264.821 45.7106C264.676 45.431 264.471 45.2157 264.204 45.0645C263.937 44.9134 263.588 44.8379 263.157 44.8379C262.787 44.8379 262.461 44.9077 262.179 45.0475C261.9 45.1873 261.666 45.3857 261.475 45.6426C261.288 45.8995 261.147 46.2074 261.052 46.5664C260.957 46.9253 260.909 47.3239 260.909 47.7622V48.5953C260.909 48.9995 260.951 49.3792 261.035 49.7344C261.123 50.0895 261.254 50.4012 261.43 50.6695C261.605 50.9377 261.828 51.1493 262.099 51.3042C262.369 51.4554 262.69 51.5309 263.06 51.5309C263.529 51.5309 263.902 51.4572 264.181 51.3099C264.459 51.1625 264.669 50.951 264.81 50.6752C264.955 50.3994 265.058 50.0688 265.119 49.6834Z" fill="#222222"/>
<path d="M273.161 47.6035V48.4933H268.654V47.6035H273.161ZM268.825 44.0558V52.3073H267.721V44.0558H268.825ZM274.122 44.0558V52.3073H273.024V44.0558H274.122Z" fill="#222222"/>
<path d="M281.375 51.4176V52.3073H276.965V51.4176H281.375ZM277.188 44.0558V52.3073H276.084V44.0558H277.188ZM280.791 47.6035V48.4933H276.965V47.6035H280.791ZM281.317 44.0558V44.9512H276.965V44.0558H281.317Z" fill="#222222"/>
<path d="M283.926 44.0558V52.3073H282.822V44.0558H283.926Z" fill="#222222"/>
<path d="M288.187 52.3073H286.448L286.459 51.4176H288.187C288.782 51.4176 289.277 51.2948 289.674 51.0492C290.071 50.7998 290.368 50.4522 290.566 50.0064C290.768 49.5568 290.869 49.0316 290.869 48.4309V47.9265C290.869 47.4543 290.812 47.0349 290.698 46.6684C290.583 46.2981 290.416 45.9864 290.194 45.7333C289.973 45.4764 289.703 45.2818 289.382 45.1496C289.066 45.0173 288.702 44.9512 288.29 44.9512H286.414V44.0558H288.29C288.835 44.0558 289.333 44.1464 289.783 44.3278C290.233 44.5054 290.62 44.7642 290.944 45.1042C291.272 45.4405 291.523 45.8485 291.699 46.3283C291.874 46.8044 291.962 47.3409 291.962 47.9379V48.4309C291.962 49.0279 291.874 49.5663 291.699 50.0461C291.523 50.5221 291.27 50.9283 290.938 51.2646C290.61 51.6008 290.214 51.8596 289.748 52.041C289.287 52.2186 288.766 52.3073 288.187 52.3073ZM287.037 44.0558V52.3073H285.933V44.0558H287.037Z" fill="#222222"/>
<defs>
<linearGradient id="paint0_linear_308_1487" x1="8.24688" y1="12.8938" x2="56.4846" y2="54.5554" gradientUnits="userSpaceOnUse">
<stop stop-color="white"/>
<stop offset="0.1" stop-color="#CDD0D0"/>
<stop offset="0.2" stop-color="#A5ACAF"/>
<stop offset="0.3" stop-color="#98A0A4"/>
<stop offset="0.4" stop-color="#828A8F"/>
<stop offset="0.5" stop-color="#667075"/>
<stop offset="0.6" stop-color="#535C63"/>
<stop offset="0.7" stop-color="#475158"/>
<stop offset="0.8" stop-color="#434D54"/>
<stop offset="1" stop-color="#475157"/>
</linearGradient>
<linearGradient id="paint1_linear_308_1487" x1="9.79531" y1="14.0942" x2="55.0141" y2="53.265" gradientUnits="userSpaceOnUse">
<stop stop-color="#0B1F2A"/>
<stop offset="0.2" stop-color="#333F47"/>
<stop offset="0.5" stop-color="#81898D"/>
<stop offset="0.7" stop-color="#B3B8B8"/>
<stop offset="0.8" stop-color="#DEE0DD"/>
<stop offset="1" stop-color="#FBFBFB"/>
</linearGradient>
<linearGradient id="paint2_linear_308_1487" x1="44.3155" y1="63.1017" x2="22.9299" y2="2.47883" gradientUnits="userSpaceOnUse">
<stop stop-color="#E1E3E1"/>
<stop offset="0.1" stop-color="#C1C5C4"/>
<stop offset="0.3" stop-color="#9BA1A2"/>
<stop offset="0.5" stop-color="#7D8487"/>
<stop offset="0.7" stop-color="#687074" stop-opacity="0"/>
<stop offset="0.8" stop-color="#5B6469" stop-opacity="0"/>
<stop offset="1" stop-color="#576065" stop-opacity="0"/>
</linearGradient>
<linearGradient id="paint3_linear_308_1487" x1="18.7703" y1="9.09502" x2="45.9394" y2="57.6192" gradientUnits="userSpaceOnUse">
<stop stop-color="#E1E3E1"/>
<stop offset="0.1" stop-color="#C1C5C4"/>
<stop offset="0.3" stop-color="#9BA1A2"/>
<stop offset="0.5" stop-color="#7D8487"/>
<stop offset="0.7" stop-color="#687074" stop-opacity="0"/>
<stop offset="0.8" stop-color="#5B6469" stop-opacity="0"/>
<stop offset="1" stop-color="#576065" stop-opacity="0"/>
</linearGradient>
<linearGradient id="paint4_linear_308_1487" x1="45.8875" y1="40.3942" x2="44.2121" y2="43.24" gradientUnits="userSpaceOnUse">
<stop stop-color="#27343C"/>
<stop offset="1" stop-color="#00111E" stop-opacity="0"/>
</linearGradient>
<linearGradient id="paint5_linear_308_1487" x1="40.8391" y1="30.095" x2="38.0779" y2="25.5188" gradientUnits="userSpaceOnUse">
<stop offset="0.1" stop-color="#02131F"/>
<stop offset="0.9" stop-color="#02131F" stop-opacity="0"/>
</linearGradient>
<linearGradient id="paint6_linear_308_1487" x1="33.0031" y1="37.3943" x2="28.6925" y2="38.6643" gradientUnits="userSpaceOnUse">
<stop offset="0.2" stop-color="#02131F"/>
<stop offset="0.9" stop-color="#02131F" stop-opacity="0"/>
</linearGradient>
<linearGradient id="paint7_linear_308_1487" x1="21.4469" y1="42.8946" x2="20.8602" y2="41.3822" gradientUnits="userSpaceOnUse">
<stop stop-color="#02131F"/>
<stop offset="0.1" stop-color="#02131F"/>
<stop offset="1" stop-color="#02131F" stop-opacity="0"/>
</linearGradient>
<linearGradient id="paint8_linear_308_1487" x1="36.7141" y1="18.1938" x2="33.2108" y2="18.6189" gradientUnits="userSpaceOnUse">
<stop offset="0.3" stop-color="#02131F"/>
<stop offset="0.8" stop-color="#02131F" stop-opacity="0"/>
</linearGradient>
<linearGradient id="paint9_linear_308_1487" x1="36.8172" y1="18.0938" x2="34.4478" y2="18.4126" gradientUnits="userSpaceOnUse">
<stop offset="0.4" stop-color="#27343C"/>
<stop offset="1" stop-color="#3B474E" stop-opacity="0"/>
</linearGradient>
<linearGradient id="paint10_linear_308_1487" x1="-0.415625" y1="33.8946" x2="27.9071" y2="50.7493" gradientUnits="userSpaceOnUse">
<stop stop-color="#25323B" stop-opacity="0"/>
<stop offset="0.1" stop-color="#27343C"/>
</linearGradient>
<linearGradient id="paint11_linear_308_1487" x1="33" y1="38.3946" x2="33" y2="33.5946" gradientUnits="userSpaceOnUse">
<stop offset="0.3" stop-color="#A5ABAF"/>
<stop offset="1" stop-color="#A5ABAF" stop-opacity="0"/>
</linearGradient>
<linearGradient id="paint12_linear_308_1487" x1="49.1906" y1="3.29541" x2="49.1906" y2="64.2954" gradientUnits="userSpaceOnUse">
<stop stop-color="#6B7378"/>
<stop offset="0.2" stop-color="#333F47"/>
<stop offset="0.5" stop-color="#27343C"/>
<stop offset="0.8" stop-color="#333F47"/>
<stop offset="1" stop-color="#434D54"/>
</linearGradient>
<linearGradient id="paint13_linear_308_1487" x1="59.0906" y1="9.09424" x2="45.747" y2="29.2765" gradientUnits="userSpaceOnUse">
<stop offset="0.7" stop-color="#49545B"/>
<stop offset="0.8" stop-color="white" stop-opacity="0"/>
</linearGradient>
<clipPath id="clip0_308_1487">
<rect width="66" height="64" fill="white" transform="translate(0 0.994629)"/>
</clipPath>
</defs>
</svg>
