<svg width="81" height="30" viewBox="0 0 81 30" fill="none" xmlns="http://www.w3.org/2000/svg">
<path d="M42.2991 11.5889L38.6582 22.1227L35.0582 11.5889H31.1719V12.3139L32.8082 12.5697V23.4447L31.1719 24.0418V24.6815H35.4264V23.9992L33.7901 23.7006V13.0389L37.9219 24.8095L38.781 24.5536L42.831 13.2947V23.4447L41.1946 24.0418V24.6815H46.0628V23.9992L44.4673 23.7006V12.8256L46.0628 12.2286V11.5889H42.2991Z" fill="#18385B"/>
<path d="M52.61 19.4359V18.7109C54.8191 18.7109 55.9237 17.6874 55.9237 15.683C55.9237 14.7448 55.6782 13.9771 55.2282 13.38C54.7782 12.783 54.1237 12.4845 53.2237 12.4845H51.6282V23.7006L53.2646 23.9992V24.6815H48.3555V24.0418L49.9918 23.4448V12.5698L48.3555 12.2712V11.5889H53.9191C55.0646 11.5889 55.9646 11.9727 56.6191 12.6977C57.2737 13.4227 57.6009 14.3183 57.6009 15.3845C57.6009 16.4933 57.2327 17.4315 56.4964 18.2418C55.76 19.0521 54.7373 19.4786 53.3873 19.4786C53.1418 19.4786 52.8964 19.4359 52.61 19.4359Z" fill="#18385B"/>
<path d="M58.9102 11.5889V12.3139L60.5465 12.5698V23.4448L58.9102 24.0418V24.6815H63.8192V23.9992L62.1829 23.7006V18.583H66.5192V17.5168H62.1829V12.4845H65.9874L67.4602 14.9153H67.992L67.8283 11.5889H58.9102Z" fill="#18385B"/>
<path d="M72.329 13.5936L71.879 12.2715L71.429 13.5936H72.329ZM72.5335 14.1907H71.2653L71.0199 14.9157H70.4062L71.5926 11.6318H72.2472L73.4335 14.9157H72.8199L72.5335 14.1907Z" fill="#18385B"/>
<path d="M76.7055 13.1238V14.915H76.1737V14.5312C76.051 14.7444 75.8055 15.0003 75.2737 15.0003C74.4146 15.0003 73.8828 14.2753 73.8828 13.2944C73.8828 12.3988 74.3328 11.5459 75.3555 11.5459C76.051 11.5459 76.5828 11.9724 76.6646 12.74H76.0919C76.051 12.3562 75.7237 12.143 75.3146 12.143C74.701 12.143 74.4146 12.6547 74.4146 13.2944C74.4146 13.9768 74.7419 14.4459 75.3146 14.4459C75.7237 14.4459 76.051 14.2327 76.0919 13.7209H75.2737V13.1665H76.7055V13.1238Z" fill="#18385B"/>
<path d="M8.87596 11.9727L5.23505 23.9139C5.11232 24.2977 5.35778 24.6389 5.72596 24.6389H9.24414C9.44869 24.6389 9.65323 24.4683 9.73505 24.255L13.376 12.3139C13.4987 11.93 13.2532 11.5889 12.8851 11.5889H9.36687C9.12141 11.5889 8.91687 11.7595 8.87596 11.9727Z" fill="#3282E6"/>
<path d="M22.7038 11.9727L26.3447 23.9139C26.4674 24.2977 26.222 24.6389 25.8538 24.6389H22.3356C22.1311 24.6389 21.9265 24.4683 21.8447 24.255L18.2038 12.3139C18.0811 11.93 18.3265 11.5889 18.6947 11.5889H22.2129C22.4583 11.5889 22.622 11.7595 22.7038 11.9727Z" fill="#3282E6"/>
<path d="M13.7038 16.6201H17.8357C18.2038 16.6201 18.4493 17.0039 18.3266 17.3451L17.0584 21.4392C16.9766 21.6525 16.772 21.8231 16.5675 21.8231H14.9311C14.7266 21.8231 14.522 21.6525 14.4402 21.4392L13.172 17.3451C13.0902 17.0039 13.3357 16.6201 13.7038 16.6201Z" fill="#3282E6"/>
</svg>
