<svg width="43" height="43" viewBox="0 0 43 43" fill="none" xmlns="http://www.w3.org/2000/svg">
<g clip-path="url(#clip0_308_1875)">
<path d="M18.9599 14.4338L23.5299 8.48836V0.969727L13.0312 14.6258V25.3568L18.9599 17.6462V14.4338Z" fill="#AEBD15"/>
<path d="M29.969 11.7023L19.4688 25.3568V14.6258L29.969 0.969727V11.7023Z" fill="#AEBD15"/>
<path fill-rule="evenodd" clip-rule="evenodd" d="M22.7001 30.7764V33.0261H23.2686L24.8478 30.7764H26.2216V30.985L24.3503 33.6274L26.3677 36.2902V36.458H24.8399L23.2607 34.245H22.7001V36.458H21.3579V30.7764H22.7001ZM10.2842 30.7764V32.0035H7.23247V32.9729H9.70384V34.1469H7.23247V35.2349H10.2842V36.462H5.94151V30.7764H10.2842ZM1.16067 30.7764L3.88469 34.2287V30.7764H5.21907V36.458H4.06234L1.33437 33.0057V36.458H0V30.7764H1.16067ZM17.1692 30.7764H20.5881V31.7581L18.0061 35.2431H20.5881V36.4702H16.2454V35.4926L18.8392 32.0076H16.2533L17.1692 30.7764ZM38.914 30.7927L41.6538 34.2328V30.7927H43V36.458H41.8156L39.0837 33.0179V36.458H37.7414V30.7927H38.914ZM34.6148 30.7927C35.8781 30.7927 36.715 31.3899 36.715 32.6661C36.7146 33.0579 36.5877 33.4383 36.3545 33.7467C36.1212 34.0551 35.7951 34.2737 35.428 34.3678L37.0071 36.1921V36.458H35.578L33.9199 34.4496H33.3791V36.458H32.0329V30.7927H34.6148ZM31.2196 30.7927V32.0198H28.1679V32.9729H30.6393V34.1469H28.1679V35.2349H31.2196V36.462H26.877V30.7764L31.2196 30.7927ZM16.2178 30.7927L15.294 32.0198H14.1096V36.4539H12.7515V32.0117H11.0777V30.7845L16.2178 30.7927ZM34.5871 32.0198H33.3791V33.4065H34.5911C34.6847 33.4164 34.7792 33.4056 34.8684 33.3747C34.9576 33.3438 35.0395 33.2937 35.1085 33.2275C35.1776 33.1613 35.2323 33.0807 35.269 32.991C35.3057 32.9013 35.3236 32.8045 35.3214 32.7071C35.3249 32.6092 35.3079 32.5118 35.2717 32.4215C35.2354 32.331 35.1807 32.2499 35.1114 32.1835C35.042 32.117 34.9596 32.0669 34.8698 32.0365C34.78 32.0062 34.6849 31.9963 34.5911 32.0076L34.5871 32.0198Z" fill="#4A4A4A"/>
</g>
<defs>
<clipPath id="clip0_308_1875">
<rect width="43" height="42" fill="white" transform="translate(0 0.969727)"/>
</clipPath>
</defs>
</svg>
