<svg width="63" height="15" viewBox="0 0 63 15" fill="none" xmlns="http://www.w3.org/2000/svg">
<g clip-path="url(#clip0_308_1666)">
<path d="M11.0195 6.72715V14.6319H13.5113V5.76465L11.0195 6.72715Z" fill="#2DAB8B"/>
<path d="M22.2789 14.6315V8.42602C22.2789 6.69877 22.0253 6.25864 20.6284 6.25864C19.6475 6.25864 18.8604 6.5592 18.3749 6.7552V14.6315H15.8828V5.14609C15.8828 5.14609 18.2942 4.15034 20.2508 3.97009C23.74 3.64852 24.79 5.44839 24.79 7.38433V14.6311H22.2789V14.6315Z" fill="#2DAB8B"/>
<path d="M37.668 12.0597V2.61059L40.1597 1.67871V4.36671H42.082V6.72571H40.1597V11.337C40.1597 11.9971 40.4594 12.2995 41.0086 12.2995C41.3817 12.2995 41.7941 12.128 41.971 11.9941L43.0989 14.0643C42.6587 14.3916 41.6737 14.8864 40.3366 14.8864C38.59 14.8864 37.668 13.909 37.668 12.0597Z" fill="#2DAB8B"/>
<path d="M60.3258 9.48874C60.3258 7.89449 59.4628 6.51374 57.8935 6.51374C56.3435 6.51374 55.4797 7.89449 55.4797 9.48874C55.4797 11.1044 56.3435 12.486 57.8935 12.486C59.4628 12.4856 60.3258 11.1044 60.3258 9.48874ZM52.8906 9.48874C52.8906 6.57718 54.7742 4.1123 57.8935 4.1123C61.0326 4.1123 62.9157 6.57718 62.9157 9.48874C62.9157 12.4007 61.033 14.887 57.8935 14.887C54.7742 14.887 52.8906 12.4007 52.8906 9.48874Z" fill="#2DAB8B"/>
<path d="M31.436 6.32211C33.0845 6.32211 33.712 7.53311 33.7904 8.51136H29.1215C29.2188 7.49067 29.886 6.32211 31.436 6.32211ZM33.9705 12.0149C33.351 12.4392 32.5154 12.6772 31.8677 12.6772C30.2592 12.6772 29.3174 11.6355 29.1405 10.3817H36.184V9.74467C36.184 6.40742 34.2806 4.1123 31.436 4.1123C28.5719 4.1123 26.5312 6.5133 26.5312 9.48917C26.5312 12.7835 28.7092 14.887 31.5931 14.887C32.8155 14.887 34.0468 14.5449 34.9704 13.8944L33.9705 12.0149Z" fill="#2DAB8B"/>
<path d="M11.0431 1.19434L11.0391 4.47077L13.4876 3.51877V1.19434H11.0431Z" fill="#2DAB8B"/>
<path d="M50.9636 11.6631C50.5432 12.0332 49.6559 12.486 48.7929 12.486C47.2817 12.486 46.2224 11.2746 46.2224 9.48917C46.2224 7.70417 47.2817 6.51373 48.7929 6.51373C49.6559 6.51373 50.4672 6.88779 50.9684 7.44735L52.0402 5.50048C51.3367 4.70074 50.3146 4.1123 48.6754 4.1123C45.7713 4.1123 43.6523 6.34398 43.6523 9.48917C43.6523 12.6558 45.7709 14.887 48.6754 14.887C50.2132 14.887 51.2648 14.2986 51.9506 13.5899L50.9636 11.6631Z" fill="#2DAB8B"/>
<path d="M6.93969 5.52541C6.93969 4.33498 6.39086 3.52735 4.88411 3.52735L2.54302 3.52079V7.46529H4.88411C6.20146 7.46529 6.93969 6.69398 6.93969 5.52541ZM0 14.6622V0.969727H5.06221C7.9069 0.969727 9.42213 3.03866 9.42213 5.52541C9.42213 7.99029 7.88752 10.0868 5.06221 10.0868H2.61894V14.6622H0Z" fill="#2DAB8B"/>
</g>
<defs>
<clipPath id="clip0_308_1666">
<rect width="63" height="14" fill="white" transform="translate(0 0.969727)"/>
</clipPath>
</defs>
</svg>
