<svg width="98" height="81" viewBox="0 0 98 81" fill="none" xmlns="http://www.w3.org/2000/svg">
<path d="M88.1832 0.442383C91.3589 3.84511 94.5742 7.68476 97.3932 11.2446C96.0436 12.709 94.7335 13.7374 93.2245 15.0035C84.0136 23.0365 77.3039 33.0867 71.3083 43.4151C65.7899 52.9108 62.5341 63.9499 60.5083 74.8714C60.3507 75.4646 60.2715 76.2955 60.032 76.8509L45.6601 76.929C45.1838 76.1779 40.7377 57.5402 40.7377 57.5402L31.1694 73.5666C30.7723 74.2783 27.3977 80.2923 27.3977 80.2923L0.796875 26.162C0.796875 26.162 14.0577 20.1085 13.7795 19.8312C13.8191 20.4244 28.3899 48.7561 28.3899 48.7561L47.3276 13.8567L47.487 14.0147C49.2329 21.3746 53.9589 44.2057 54.2362 44.2847C54.7125 44.0074 56.3792 39.7342 57.2543 38.1908C65.2731 24.3422 74.5245 10.3742 87.8645 0.442383H88.1832V0.442383Z" fill="#E11838"/>
</svg>
