<svg width="80" height="20" viewBox="0 0 80 20" fill="none" xmlns="http://www.w3.org/2000/svg">
<g clip-path="url(#clip0_308_1923)">
<path d="M56.0329 1.00193H55.5062L54.8807 4.80193C54.5185 4.64091 54.0905 4.5443 53.6625 4.5443C52.7078 4.5443 51.7531 4.96295 51.0288 5.70363L51.786 1.00193H48.2634L47.4074 6.31549C46.8477 5.22058 45.6296 4.5121 43.9835 4.5121C42.6008 4.5121 41.4486 4.99515 40.6255 5.73583L40.7901 4.70532H37.2346V4.80193C36.8395 4.60871 36.4115 4.5121 35.9177 4.5121C34.7984 4.5121 33.679 5.09176 32.9218 5.99346C32.856 5.83244 32.7901 5.67142 32.6914 5.54261C32.2305 4.83413 31.4074 4.44769 30.4527 4.44769C29.9918 4.44769 29.5309 4.5443 29.1358 4.70532H26.1728L26.5679 2.32227H22.9794L22.5514 5.05956L22.3868 6.05786C21.8272 5.12396 20.7737 4.4799 19.2263 4.4799C18.6996 4.4799 18.1728 4.5443 17.6461 4.73752C16.856 5.02735 16.1975 5.446 15.7037 6.02566C15.6379 5.86464 15.6049 5.73583 15.5062 5.57481C15.0782 4.83413 14.2551 4.41549 13.3004 4.41549C12.9053 4.41549 12.4774 4.5121 12.0823 4.67312L12.7078 0.969727H9.11934L8.62551 3.93244C8.46091 3.35278 8.13169 2.90193 7.63786 2.54769C7.14403 2.19346 6.35391 1.93583 5.20165 1.93583H1.58025L0 11.6291H3.68724L3.95062 9.95447L4.87243 11.6291H9.48148H10.8971L11.4897 8.08668C11.5556 7.70024 11.6214 7.63583 11.6543 7.63583C11.7531 7.53922 11.8848 7.47481 12.0165 7.47481C12.1152 7.47481 12.1481 7.47481 12.1481 7.50702C12.1481 7.50702 12.1811 7.53922 12.1811 7.60363C12.1811 7.63583 12.1811 7.66803 12.1481 7.73244L11.4897 11.6935H15.0782L15.2757 10.5663C15.9012 11.4036 16.9877 11.8867 18.3704 11.8867C19.7531 11.8867 20.8724 11.4358 21.6296 10.6952L21.465 11.6935H25.0206H28.1811L28.7407 8.15108C28.8395 7.60363 29.1029 7.53922 29.2675 7.53922C29.3663 7.53922 29.3992 7.53922 29.3992 7.57142V7.63583V7.73244L28.7407 11.7257H31.6708C31.7695 13.207 33.0206 14.3663 35.2263 14.3663C36.8066 14.3663 38.0576 13.7545 38.749 13.046C39.2099 12.5629 39.572 12.0155 39.8354 10.5663C40.4609 11.4036 41.5802 11.9189 42.9959 11.9189C44.5761 11.9189 45.893 11.2426 46.749 10.2765L46.5185 11.7257H50.0741L50.2716 10.5019C50.7984 11.3714 51.7531 11.8867 52.8395 11.8867C53.2016 11.8867 53.5638 11.8223 53.893 11.7257V11.7579H57.4156L58.5679 4.60871H77.5967L77.9588 1.06634H56.0329V1.00193Z" fill="white"/>
<path d="M60.6774 18.8749C61.27 18.7139 61.8626 18.5529 62.4881 18.4241C64.0025 18.1021 65.6486 17.9411 67.2618 17.78C69.1054 17.5868 70.949 17.458 72.7926 17.4258C73.8461 17.3936 74.8996 17.3614 75.9531 17.4258C76.2494 17.4258 76.5457 17.4258 76.8091 17.4902C76.875 17.4902 76.9408 17.5224 77.0066 17.5546C77.0396 17.5546 77.0725 17.5868 77.1054 17.5868C77.2042 17.5868 77.3029 17.5868 77.3688 17.5546C77.4675 17.5224 77.4675 17.458 77.5005 17.3936C77.5663 17.297 77.5005 17.1682 77.4346 17.0716C77.3688 16.9749 77.2371 16.8461 77.1054 16.7817C77.0066 16.7173 76.875 16.6529 76.7433 16.6207C76.6445 16.5885 76.5128 16.5885 76.3811 16.5563C76.0848 16.5241 75.7885 16.5563 75.4922 16.5563C74.34 16.5563 73.1877 16.5885 72.0354 16.6207C69.8297 16.7173 67.6239 16.8783 65.4511 17.1682C63.8379 17.3936 62.2577 17.6512 60.7103 17.9733C60.447 18.0377 60.2165 18.1343 59.9202 18.1665C59.7885 18.1665 59.6898 18.1343 59.5581 18.1665C59.5251 18.1665 59.4922 18.1987 59.4922 18.1987C59.4264 18.2309 59.3935 18.2631 59.3605 18.2953C59.3276 18.3597 59.3935 18.3919 59.4264 18.4563C59.4922 18.6173 59.5581 18.7783 59.8214 18.8749C59.986 18.9394 60.2165 18.9716 60.414 18.9716C60.4799 18.9072 60.5786 18.9072 60.6774 18.8749Z" fill="#FFDD00"/>
<path d="M30.6492 19.0029C30.3859 18.9707 30.2213 19.3571 30.2542 19.5181C30.2542 19.6791 30.4188 19.6791 30.5505 19.6791C30.8468 19.6791 30.8797 19.1317 30.8797 19.1317C30.8468 19.0029 30.7151 19.0029 30.6492 19.0029Z" fill="black"/>
<path d="M31.8016 18.874C31.5382 18.8418 31.3736 19.2282 31.4065 19.3892C31.4065 19.5502 31.5711 19.5502 31.7028 19.5502C31.9991 19.5502 32.032 19.0028 32.032 19.0028C32.032 18.874 31.8674 18.874 31.8016 18.874Z" fill="black"/>
<path d="M32.9852 18.779C32.7218 18.7468 32.5572 19.1332 32.5901 19.2943C32.5901 19.4553 32.7547 19.4553 32.8864 19.4553C33.1827 19.4553 33.2156 18.9078 33.2156 18.9078C33.2156 18.7468 33.051 18.779 32.9852 18.779Z" fill="black"/>
<path d="M38.0257 17.2965C38.2232 17.2643 38.3549 17.0389 38.3549 16.8778C38.3549 16.8134 38.289 16.749 38.1903 16.749C38.0257 16.7812 37.8281 16.9422 37.8281 17.1355C37.8281 17.2321 37.894 17.2965 38.0257 17.2965Z" fill="black"/>
<path d="M39.3423 18.3595C39.2764 18.3595 39.2106 18.3273 39.1777 18.2629C39.1448 18.1018 39.3423 17.8442 39.474 17.7154C39.5727 17.6188 39.6386 17.5544 39.6386 17.4256C39.6057 17.3612 39.5727 17.2968 39.5069 17.2001C39.4411 17.1679 39.2106 17.2324 38.8155 17.329C38.8155 17.2968 38.8485 17.2324 38.8485 17.2001C38.8485 17.1679 38.8155 17.1357 38.7497 17.1357C38.6509 17.1357 38.223 17.5222 38.2559 17.812C38.2559 17.9086 38.2888 17.9408 38.3876 17.9408C38.3217 18.0696 38.2888 18.134 38.19 18.2629C38.0583 18.3917 37.8937 18.5205 37.7291 18.5527C37.5316 18.5849 37.4328 18.4883 37.4658 18.2951C37.6304 18.134 38.0583 17.7154 38.0254 17.49C38.0254 17.3934 37.8937 17.3934 37.8279 17.3934C37.6304 17.4256 37.2682 17.7476 37.1365 18.1663C37.0707 18.2307 36.939 18.3595 36.8402 18.3595C36.7744 18.3595 36.7415 18.3273 36.6756 18.3273C36.8073 18.134 36.939 17.9086 36.9061 17.6832C36.9061 17.6188 36.8402 17.4578 36.7415 17.49C36.6098 17.49 36.4452 17.7476 36.3793 17.8442C36.1818 18.1663 36.1818 18.2307 36.2147 18.3917C36.116 18.4883 35.9514 18.7459 35.8197 18.7459C35.7538 18.7459 35.7209 18.7137 35.7209 18.6815C35.7209 18.5205 35.9513 17.973 36.0501 17.812C36.083 17.7476 36.1489 17.651 36.116 17.5866C36.116 17.5222 35.9513 17.5222 35.8855 17.5222C35.8197 17.5222 35.688 17.7476 35.6551 17.7798L35.0954 18.4883C35.0295 18.5527 34.7662 18.8425 34.7003 18.8425C34.6674 18.8425 34.6345 18.7781 34.6345 18.7459C34.6345 18.6493 34.6345 18.5205 34.6345 18.4883C34.7991 18.3273 35.3258 17.812 35.3258 17.5866C35.3258 17.5222 35.26 17.4578 35.0625 17.4578C34.9637 17.4578 34.8979 17.49 34.5357 17.9086C34.3382 18.134 34.2065 18.3595 34.2394 18.6815C34.2723 19.0357 34.5028 19.229 34.7662 19.229C34.9966 19.229 35.26 18.8103 35.3917 18.6493C35.3917 19.0679 35.4575 19.1002 35.5234 19.1646C35.5892 19.1968 35.6221 19.229 35.688 19.229C35.9184 19.1968 36.2476 18.7781 36.4123 18.6171C36.511 18.6493 36.5769 18.6815 36.6756 18.6815C36.8402 18.6815 36.939 18.5849 37.0378 18.4883C37.0378 18.5205 37.0378 18.5527 37.0378 18.5849C37.0707 18.8103 37.2024 19.1002 37.4658 19.0679C37.7291 19.0357 38.0254 18.7459 38.223 18.5205C38.3876 18.3273 38.4534 18.1985 38.5851 17.9408L39.046 17.7798C38.8814 18.0052 38.6839 18.2629 38.7168 18.5527C38.7497 18.7137 38.8814 18.8747 39.046 18.8747C39.3094 18.8425 39.7703 18.3273 39.902 18.1018L39.869 17.9408C39.7703 18.0374 39.5398 18.3595 39.3423 18.3595Z" fill="black"/>
<path d="M57.2499 16.3621C57.184 16.4265 56.9865 16.6197 56.8877 16.6197C56.8548 16.6197 56.789 16.5875 56.789 16.5553C56.7561 16.2654 57.2828 15.879 57.2499 15.6858C57.217 15.5892 57.184 15.5248 57.1511 15.4604C57.1182 15.396 57.0853 15.396 57.0853 15.396C56.9536 15.396 56.1964 16.04 55.8672 16.5231C55.8672 16.5553 55.8013 16.5875 55.7684 16.5875C55.7355 16.5875 55.7026 16.5553 55.7026 16.5553C55.7026 16.4587 56.1964 15.9434 56.1964 15.7824C56.1964 15.7502 56.1964 15.6858 55.933 15.718C55.8672 15.718 55.8342 15.7502 55.7684 15.7824C55.6367 15.9112 55.4721 16.1366 55.4063 16.3621C55.1758 16.5553 54.8137 16.9739 54.5174 16.9739C54.3857 16.9739 54.2211 16.9417 54.2211 16.7807V16.6841C55.0441 16.3299 55.2416 15.9756 55.2087 15.7502C55.1758 15.5892 55.0112 15.557 54.8795 15.557C54.3857 15.5892 53.9248 16.04 53.7931 16.5231C53.6285 16.6519 53.2663 17.0383 53.1017 17.0383C53.003 17.0383 52.97 16.9095 52.97 16.8451C52.9371 16.5553 53.1347 16.2654 53.2663 16.0078L53.6614 15.2671C53.7272 15.1383 53.826 14.9451 53.826 14.8163C53.826 14.7519 53.7602 14.6553 53.6614 14.6553C53.3322 14.6875 53.0359 15.6214 52.9042 15.9112C52.8384 15.8468 52.8054 15.7824 52.7067 15.8146C52.3775 15.879 51.6203 16.2976 51.5544 16.7807C51.3898 16.9739 51.0935 17.2315 50.863 17.2637C50.7314 17.2637 50.6655 17.1993 50.6326 17.1027C50.5997 17.0061 50.5997 16.8773 50.6326 16.8129C51.5215 15.7824 51.5873 15.396 51.5873 14.9773C51.5873 14.9129 51.5544 14.8163 51.4886 14.8163C51.3569 14.8163 50.9618 15.2671 50.6326 15.7824C50.4351 16.0722 50.3034 16.4587 50.2705 16.8129C50.1388 16.9417 50.04 17.1027 49.8425 17.0705C49.9083 16.8773 49.9742 16.7163 49.9742 16.5231C49.9742 16.3943 49.9083 16.2976 49.7766 16.2654C49.8096 16.2332 49.8754 16.201 49.8754 16.1366C49.8754 16.0078 49.7108 15.9756 49.612 16.0078C49.3486 16.04 49.0194 16.201 48.8219 16.4265C48.6244 16.6197 48.4927 16.8129 48.4927 17.0705L47.933 17.5536L48.1964 16.9095C48.2293 16.8451 48.2622 16.7485 48.2622 16.6841C48.2622 16.6197 48.1635 16.4587 48.0647 16.4909C47.9989 16.4909 47.933 16.5875 47.9001 16.6197L47.4063 17.2637C47.2417 17.457 46.9783 17.5858 46.8795 17.5858C46.8466 17.5858 46.8137 17.5858 46.8137 17.5536C46.7478 17.2315 47.0441 17.0705 47.3404 16.9095L47.8342 16.5875C47.9001 16.5553 47.9659 16.4587 47.9659 16.3943C47.9659 16.2976 47.7684 16.2976 47.7026 16.2976C47.4063 16.3621 46.6491 16.7807 46.5174 17.296C46.3857 17.4248 46.1223 17.7146 45.9577 17.7468C45.8919 17.7468 45.826 17.7146 45.7931 17.6502C45.7602 17.4892 45.9577 17.2315 46.0894 17.1027C46.1882 17.0061 46.254 16.9417 46.254 16.8129C46.2211 16.7485 46.1882 16.6519 46.1223 16.5875C46.0565 16.5231 45.826 16.6197 45.4309 16.7163C45.4309 16.6841 45.4639 16.6197 45.4639 16.5875C45.4639 16.5553 45.431 16.5231 45.3651 16.5231C45.2663 16.5231 44.8384 16.9095 44.8713 17.1993C44.8713 17.296 44.9042 17.3282 45.003 17.3282C44.9371 17.457 44.8713 17.5536 44.7396 17.6502C44.5421 17.8434 44.3116 18.0044 44.0812 18.0366C43.9495 18.0366 43.7849 18.0044 43.7849 17.8434V17.7468C44.6079 17.3926 44.8054 17.0383 44.7725 16.8129C44.7396 16.6519 44.575 16.6197 44.4433 16.6197C43.9824 16.6519 43.5215 17.0705 43.3898 17.5536C43.291 17.618 43.1264 17.7468 43.0277 17.7468C42.9618 17.7468 42.9289 17.7468 42.863 17.7146C42.9618 17.5536 43.1923 17.1027 43.1593 16.9417C43.1593 16.8451 43.0935 16.8129 42.9947 16.8129C42.8301 16.8129 42.6655 17.1027 42.5997 17.2315C42.5009 17.3926 42.4021 17.5858 42.4351 17.779C42.3363 17.8756 42.04 18.2299 41.9083 18.2299C41.8096 18.2299 41.7766 18.1332 41.7766 18.0688C41.7766 18.0044 41.8096 17.8756 41.8096 17.8112C41.9412 17.6502 42.3363 17.1671 42.3034 16.9739C42.3034 16.8773 42.0729 16.9095 42.04 16.9095C41.8754 16.9095 41.3816 17.3926 41.4474 18.0044C41.4803 18.3265 41.7108 18.6485 41.9742 18.6163C42.1388 18.5841 42.5668 18.1654 42.6655 18.0044C42.7314 18.0366 42.8301 18.101 42.896 18.101C43.0935 18.0688 43.2252 17.9722 43.3569 17.8434C43.3569 17.8756 43.3569 17.9078 43.3569 17.94C43.3898 18.2299 43.5873 18.4875 43.9165 18.4553C44.2458 18.4231 44.575 18.1654 44.8384 17.8756C44.8713 17.8112 44.9371 17.779 44.97 17.7146C45.0688 17.5858 45.2005 17.457 45.2993 17.2637L45.7602 17.1027C45.5956 17.3282 45.398 17.5858 45.4309 17.8756C45.4639 18.0366 45.5956 18.1976 45.7602 18.1976C45.9906 18.1654 46.3528 17.779 46.5503 17.5214C46.5832 17.7146 46.682 18.0044 46.9454 17.9722C47.1758 17.94 47.6367 17.4892 47.7684 17.3282L47.505 17.9722C47.2746 18.1654 46.6491 18.7773 46.682 19.0993C46.682 19.1638 46.7478 19.196 46.7807 19.196C46.9454 19.1637 47.3075 18.8739 47.7026 18.0688L48.4927 17.3604C48.5585 17.7146 48.789 17.8756 49.0194 17.8434C49.3157 17.8112 49.5133 17.6502 49.6779 17.457C49.9742 17.4248 50.1388 17.3282 50.3034 17.1349V17.1671C50.3363 17.4248 50.4351 17.7146 50.7643 17.6824C51.0935 17.6502 51.4227 17.2637 51.6532 17.0061C51.6861 17.1993 51.8507 17.4892 52.0153 17.457C52.2128 17.4248 52.575 16.9739 52.7396 16.8129C52.7396 16.9095 52.7396 17.0383 52.7396 17.1349C52.7396 17.2637 52.8384 17.457 53.003 17.4248C53.2993 17.3926 53.6614 16.9739 53.8919 16.7163C53.8919 16.7485 53.8919 16.7807 53.8919 16.7807C53.9248 17.0705 54.1223 17.3282 54.4515 17.296C54.8466 17.2637 55.2417 16.9095 55.4721 16.5875C55.4721 16.6197 55.4721 16.6519 55.4721 16.6841C55.505 16.8451 55.5709 17.1027 55.7684 17.0705C55.9001 17.0705 56.0318 16.8129 56.0976 16.7485C56.2622 16.4909 56.4927 16.2332 56.7231 16.0078C56.5914 16.2332 56.3939 16.5231 56.4268 16.8129C56.4268 16.9739 56.5256 17.1027 56.7231 17.0705C57.0524 17.0383 57.4474 16.4587 57.6779 16.2332L57.612 16.04L57.2499 16.3621ZM54.8137 15.8468C54.8466 15.8468 54.8795 15.8468 54.8795 15.879C54.8795 15.9434 54.6491 16.2654 54.2869 16.4587C54.3528 16.1366 54.5832 15.9112 54.8137 15.8468ZM51.2581 15.396C51.1923 15.6536 50.9618 16.1044 50.6655 16.4265C50.8301 15.9434 51.0606 15.5248 51.2581 15.396ZM44.3116 16.8773C44.3445 16.8773 44.3775 16.8773 44.3775 16.9095C44.3775 16.9739 44.147 17.296 43.7849 17.4892C43.8507 17.1993 44.0812 16.9417 44.3116 16.8773ZM49.3157 17.3282C49.217 17.4248 49.1511 17.5214 48.9865 17.5214C48.8877 17.5214 48.789 17.4892 48.789 17.3604C48.789 17.2315 48.8548 17.0383 48.9207 16.9417C49.0524 16.8129 49.2499 16.6841 49.3816 16.5875C49.4145 16.5875 49.217 16.8773 49.2499 17.1027C49.2499 17.1993 49.2499 17.2637 49.3157 17.3282ZM52.0482 17.0705C51.9824 17.0705 51.9824 17.0383 51.9824 17.0061C51.9824 16.7163 52.0482 16.5553 52.8384 16.2332C52.7396 16.4909 52.0812 17.0705 52.0482 17.0705Z" fill="black"/>
<path d="M60.74 14.1092C60.7071 13.8516 60.5425 13.6261 60.2462 13.6583C59.5548 13.7228 58.5343 14.6245 58.5672 15.3007C58.5672 15.4295 58.9293 15.5906 58.9952 15.5906C59.0939 15.5906 59.2915 15.3651 59.3573 15.3329C59.3902 15.3007 59.489 15.2363 59.489 15.1719C59.489 15.1397 59.4561 15.1397 59.4561 15.1397C59.4232 15.1397 59.3244 15.1719 59.2915 15.1719L59.1927 15.2041C59.3902 14.7211 60.0487 14.238 60.2791 14.1736C60.3779 14.1736 60.4108 14.2702 60.4108 14.3346C60.4437 14.56 60.1145 15.3973 59.4232 16.5567C59.3902 16.6211 59.3573 16.6855 59.3573 16.7499C59.3573 16.8465 59.5219 16.9431 59.6207 16.9431C59.7524 16.9109 59.9828 16.5889 59.8841 16.3956C60.1804 15.8804 60.8059 14.6567 60.74 14.1092Z" fill="black"/>
<path d="M64.89 15.9446C64.7583 15.9446 64.5937 15.9124 64.5937 15.7514V15.6548C65.4168 15.3006 65.6143 14.9463 65.5814 14.7209C65.5484 14.5599 65.3838 14.5277 65.2522 14.5277C64.7583 14.5599 64.2645 15.0429 64.1657 15.526C64.034 15.6548 63.8036 15.9446 63.6061 15.9446C63.5402 15.9446 63.4744 15.9124 63.4415 15.848C63.4085 15.687 63.6061 15.4294 63.7378 15.3006C63.8365 15.2039 63.9024 15.1395 63.9024 15.0107C63.8694 14.9463 63.8365 14.8819 63.7707 14.7853C63.7048 14.7209 63.4744 14.8175 63.0793 14.9141C63.0793 14.8819 63.1122 14.8175 63.1122 14.7853C63.1122 14.7531 63.0793 14.7209 63.0135 14.7209C62.9147 14.7209 62.4867 15.1073 62.5196 15.3972C62.5196 15.4938 62.5526 15.526 62.6513 15.526C62.5855 15.6226 62.5196 15.7192 62.4538 15.8158C62.3221 15.9446 62.1575 16.1056 62.0587 16.1378C61.9929 16.1378 61.96 16.1056 61.96 16.0412C61.96 16.009 61.927 15.9768 62.1904 15.6226C62.2233 15.5582 62.388 15.3328 62.388 15.2684C62.388 15.1717 62.2563 15.0751 62.1575 15.0751C61.9271 15.1073 61.1698 15.8802 60.9723 16.0734L60.9394 15.9124C61.2028 15.6226 62.4867 14.0124 62.4538 13.7226C62.4538 13.626 62.3221 13.626 62.2563 13.626C62.0917 13.626 61.3015 14.4955 60.8406 15.3972C60.7089 15.6548 60.6102 15.8802 60.6431 16.17C60.6431 16.2667 60.7089 16.6209 60.8736 16.5887C61.0052 16.5887 61.2028 16.0734 61.8941 15.4938C61.7624 15.7192 61.4661 16.0734 61.4991 16.3633C61.4991 16.4921 61.5978 16.5887 61.7295 16.5887C61.96 16.5565 62.2233 16.2345 62.4209 16.0734C62.5855 15.8802 62.783 15.7192 62.9147 15.4938L63.3756 15.3328C63.211 15.5582 63.0135 15.8158 63.0464 16.1056C63.0793 16.2667 63.211 16.4277 63.3756 16.4277C63.6061 16.3955 63.9682 16.009 64.1657 15.7836V15.8158C64.1987 16.1056 64.3962 16.3633 64.7254 16.3311C65.1534 16.2989 65.6143 15.8158 65.8447 15.4938L65.7789 15.3328C65.5485 15.5582 65.2192 15.9124 64.89 15.9446ZM65.1534 14.8175C65.1863 14.8175 65.2192 14.8175 65.2192 14.8497C65.2192 14.9141 64.9888 15.2361 64.6266 15.4294C64.6925 15.1395 64.9229 14.8819 65.1534 14.8175Z" fill="black"/>
<path d="M69.2015 15.1073L67.9504 14.8497C69.5307 14.3988 69.7611 14.3666 70.0903 14.0446C70.255 13.8836 70.3537 13.5293 70.3537 13.3039C70.2879 12.7564 69.4319 12.7886 69.0039 12.8208C68.115 12.9175 67.1603 13.2395 66.9628 13.4971C66.8969 13.6259 66.7652 13.9158 66.7982 14.0446C66.7982 14.1412 66.8969 14.1412 66.9628 14.1412C67.0945 14.1412 67.2591 14.0768 67.3578 14.0446L67.72 13.9802C67.7529 13.9802 67.8187 13.948 67.7858 13.9158C67.7858 13.8514 67.6871 13.8836 67.3908 13.8836C67.6871 13.7225 68.0163 13.6581 68.3455 13.5615L67.7858 14.5598C67.3578 14.6242 67.1603 14.8497 67.1274 15.0751C67.1274 15.1717 67.292 15.2039 67.3578 15.2039L66.9957 15.9124C66.9628 15.9768 66.9299 16.0412 66.9299 16.1378C66.9299 16.2022 66.9957 16.2344 67.0286 16.2344C67.1603 16.2344 67.3908 16.0412 67.3249 15.8802L67.6541 15.3005L69.3661 15.7514C69.4978 15.7836 69.827 15.9124 69.9257 15.8802C70.0903 15.8802 70.0245 15.5259 69.9257 15.3971C69.9916 15.3971 69.9916 15.2683 69.2015 15.1073ZM68.5101 13.9158C68.5759 13.7869 68.6418 13.6903 68.6418 13.5293L69.4648 13.4005C69.5636 13.3683 70.0574 13.3361 70.0574 13.4649C70.0903 13.6903 69.4978 13.9802 69.3331 14.0446L68.2467 14.431L68.5101 13.9158Z" fill="black"/>
<path d="M72.8225 13.8824C73.02 13.8502 73.1517 13.6248 73.1517 13.4638C73.1517 13.3994 73.0859 13.335 72.9871 13.335C72.8225 13.3672 72.625 13.5282 72.625 13.7214C72.625 13.7858 72.7238 13.8824 72.8225 13.8824Z" fill="black"/>
<path d="M75.4921 14.914C75.3604 14.914 75.1958 14.8818 75.1958 14.7208V14.6242C76.0188 14.27 76.2163 13.9157 76.1834 13.6903C76.1505 13.5293 75.9859 13.4971 75.8542 13.4971C75.3604 13.5293 74.8666 14.0123 74.7678 14.4954L74.4715 14.753C74.274 14.9462 74.1094 15.075 73.8131 15.075C74.0764 14.8818 74.3398 14.592 74.3069 14.2055C74.274 14.0123 74.2081 13.8835 74.1752 13.6903C74.1423 13.5615 74.1094 13.5293 73.9777 13.5615C73.8131 13.5615 73.7472 13.7225 73.7472 13.8835L72.9571 14.7852C72.9242 14.8174 72.9242 14.8496 72.8912 14.8496C72.7925 14.9784 72.6937 15.1072 72.5291 15.1072C72.3316 15.1394 72.2328 15.0428 72.2657 14.8496C72.4303 14.6886 72.8583 14.2699 72.8254 14.0445C72.8254 13.9479 72.6937 13.9479 72.6279 13.9479C72.4303 13.9801 72.0682 14.3022 71.9365 14.7208C71.7061 14.914 71.3768 15.3005 71.0476 15.3005C70.9159 15.3005 70.7513 15.2683 70.7513 15.1072V15.0106C71.5744 14.6564 71.7719 14.3022 71.739 14.0767C71.7061 13.9157 71.5415 13.8835 71.4098 13.8835C70.8172 13.9479 70.2246 14.592 70.3233 15.1716C70.3563 15.4615 70.5538 15.7191 70.883 15.6869C71.2781 15.6547 71.6731 15.3005 71.9036 14.9784C71.9036 15.0106 71.9036 15.0428 71.9036 15.0428C71.9365 15.2683 72.0682 15.5581 72.3316 15.5259C72.562 15.4937 72.8254 15.2683 73.0229 15.0428C73.1546 15.3005 73.4838 15.3971 73.7472 15.3649C74.1094 15.3327 74.5373 14.9462 74.7678 14.6242C74.7678 14.6564 74.7678 14.6564 74.7678 14.6886C74.8007 14.9784 74.9982 15.2361 75.3275 15.2038C75.7554 15.1716 76.2163 14.6886 76.4468 14.3666L76.381 14.2055C76.1505 14.5276 75.7884 14.8818 75.4921 14.914ZM75.7225 13.7869C75.7554 13.7869 75.7884 13.7869 75.7884 13.8191C75.7884 13.8835 75.5579 14.2055 75.1958 14.3988C75.2945 14.0767 75.525 13.8513 75.7225 13.7869ZM71.2781 14.2055C71.311 14.2055 71.3439 14.2055 71.3439 14.2377C71.3439 14.3022 71.1135 14.6564 70.7513 14.8174C70.8172 14.5276 71.0805 14.3022 71.2781 14.2055ZM73.5497 15.0106C73.4509 14.914 73.3522 14.7852 73.1875 14.7852L73.7801 14.1411C73.8131 14.3022 73.846 14.3988 73.8789 14.4954C73.8789 14.7208 73.8131 14.8174 73.5497 15.0106Z" fill="black"/>
<path d="M77.0711 14.4306C76.8077 14.3984 76.6431 14.7848 76.676 14.9459C76.676 15.1069 76.8407 15.1069 76.9723 15.1069C77.2686 15.1069 77.3016 14.5594 77.3016 14.5594C77.2686 14.4306 77.1369 14.4306 77.0711 14.4306Z" fill="black"/>
<path d="M59.1953 11.0502H59.6891L60.3146 9.7943L60.5451 11.018H61.0389L62.1582 8.9248H61.5327L60.9072 10.1485L60.6438 8.9248H60.2488L59.5903 10.1485L59.3599 8.9248H58.7344L59.1953 11.0502Z" fill="black"/>
<path d="M67.3242 7.76412H67.9168L68.1143 6.47598L68.9374 7.76412H69.4971L69.8592 5.6709H69.2666L69.0691 6.95903L68.246 5.6709H67.6534L67.3242 7.76412Z" fill="black"/>
<path d="M62.3867 8.9248L62.1892 10.1163C62.1562 10.4062 62.1563 10.4706 62.1563 10.535C62.2221 10.8892 62.4525 11.0824 62.9793 11.0824C63.3414 11.0824 63.6048 10.9536 63.7694 10.857C63.8682 10.7604 63.9669 10.6638 63.9999 10.535C64.0657 10.4384 64.0657 10.3096 64.0986 10.2129C64.0986 10.1807 64.0986 10.1807 64.0986 10.1485L64.2962 8.9248H63.7036L63.506 10.1807C63.4731 10.3418 63.4402 10.4062 63.3744 10.4706C63.3085 10.535 63.2097 10.5672 63.0781 10.5672C62.9464 10.5672 62.8476 10.5028 62.8147 10.4706C62.7488 10.374 62.7818 10.2773 62.7818 10.1807L62.9793 8.95701H62.3867V8.9248Z" fill="black"/>
<path d="M63.6719 7.53865C63.8365 7.73187 64.0999 7.82848 64.3962 7.82848C64.89 7.82848 65.2521 7.50645 65.318 7.0878C65.3838 6.66916 65.1534 6.50814 64.7912 6.44373C64.7583 6.44373 64.5278 6.41153 64.5278 6.25051C64.5278 6.1539 64.6266 6.05729 64.7583 6.05729C64.8571 6.05729 64.9888 6.0895 65.1204 6.21831L65.3838 5.79967C65.2192 5.67085 64.9888 5.60645 64.7583 5.60645C64.2974 5.60645 63.9353 5.92848 63.9023 6.31492C63.8365 6.79797 64.2974 6.86238 64.3962 6.89458C64.6266 6.95899 64.6266 6.95899 64.6266 6.99119C64.6595 7.0234 64.6595 7.0878 64.6595 7.15221C64.6266 7.28102 64.5608 7.34543 64.3632 7.34543C64.2315 7.34543 64.0669 7.28102 63.9353 7.12001L63.6719 7.53865Z" fill="black"/>
<path d="M68.1484 11.018H69.4324L69.4982 10.535H68.8069L68.8727 10.1807H69.4653L69.5312 9.72989H68.9386L69.0044 9.37565H69.6958L69.7616 8.9248H68.4777L68.1484 11.018Z" fill="black"/>
<path d="M60.9375 7.76412H62.2214L62.3202 7.28107H61.5959L61.6618 6.92683H62.2544L62.3202 6.47598H61.7276L61.7935 6.12175H62.4848L62.5836 5.6709H61.2667L60.9375 7.76412Z" fill="black"/>
<path d="M65.6133 7.76412H66.8972L66.9631 7.28107H66.2717L66.3376 6.92683H66.9302L66.996 6.47598H66.4034L66.4692 6.12175H67.1606L67.2265 5.6709H65.9425L65.6133 7.76412Z" fill="black"/>
<path d="M72.1334 11.0502H72.7589L73.0223 9.40786H73.4502L73.549 8.9248H72.0346L71.9688 9.40786H72.3967L72.1334 11.0502Z" fill="black"/>
<path d="M62.6484 7.76412H63.241L63.5702 5.6709H62.9777L62.6484 7.76412Z" fill="black"/>
<path d="M67.5574 9.63328C67.5245 9.76209 67.4257 9.89091 67.1623 9.8587H66.9977L67.0636 9.37565H67.1953C67.4257 9.37565 67.4586 9.40785 67.4915 9.44006C67.5574 9.50447 67.5574 9.56887 67.5574 9.63328ZM68.0841 9.21463C68.0183 9.08582 67.9195 8.98921 67.6891 8.95701C67.5903 8.9248 67.4915 8.9248 67.3928 8.9248H66.6027L66.2734 11.0502H66.866L66.9648 10.374H67.1623C67.7878 10.374 68.0841 10.0841 68.15 9.66548C68.15 9.47226 68.15 9.31125 68.0841 9.21463Z" fill="black"/>
<path d="M65.6779 9.63328C65.645 9.76209 65.5462 9.89091 65.2829 9.8587H65.1183L65.1841 9.37565H65.3158C65.5462 9.37565 65.5792 9.40785 65.6121 9.44006C65.6779 9.50447 65.6779 9.56887 65.6779 9.63328ZM66.1717 9.21463C66.1059 9.08582 66.0071 8.98921 65.7767 8.95701C65.6779 8.9248 65.5792 8.9248 65.4475 8.9248H64.6573L64.3281 11.0502H64.9207L65.0195 10.374H65.217C65.8425 10.374 66.1388 10.0841 66.2047 9.66548C66.2705 9.47226 66.2376 9.31125 66.1717 9.21463Z" fill="black"/>
<path d="M60.0501 6.38033C60.0172 6.50914 59.9184 6.60575 59.7209 6.60575H59.5563L59.6222 6.1227H59.7868C59.9843 6.1227 60.0501 6.25151 60.0501 6.38033ZM60.0831 6.92778C60.2806 6.86338 60.4452 6.73456 60.544 6.54134C60.5769 6.47694 60.5769 6.41253 60.6098 6.34812C60.6427 6.0905 60.5769 5.89728 60.4123 5.76846C60.3135 5.70406 60.1818 5.63965 59.9184 5.63965H59.1612L58.832 7.76507H59.4246L59.5563 6.99219L59.9843 7.76507H60.7086L60.0831 6.92778Z" fill="black"/>
<path d="M71.1126 9.63228C71.0797 9.76109 70.981 9.8577 70.7834 9.8577H70.6188L70.6847 9.37465H70.8493C71.0468 9.40686 71.1456 9.50347 71.1126 9.63228ZM71.1456 10.1797C71.3431 10.1153 71.5077 9.98652 71.6065 9.7933C71.6394 9.72889 71.6394 9.66448 71.6723 9.60008C71.7052 9.34245 71.6394 9.14923 71.4748 9.02041C71.376 8.95601 71.2443 8.8916 70.981 8.8916H70.2238L69.8945 11.017H70.4871L70.6188 10.2441L71.0468 11.017H71.7711L71.1456 10.1797Z" fill="black"/>
<path d="M75.7188 11.018H76.9698L77.0685 10.535H76.4101L76.6406 8.9248H76.048L75.7188 11.018Z" fill="black"/>
<path d="M74.2081 10.2129L74.6031 9.44006L74.7348 10.1807L74.2081 10.2129ZM75.0311 8.9248H74.3398L73.1875 11.0502H73.813L74.0105 10.6638H74.8007L74.8665 11.0502H75.492L75.0311 8.9248Z" fill="black"/>
<path d="M79.1462 1.00293C79.2778 1.00293 79.3766 1.03513 79.4754 1.09954C79.5741 1.16395 79.6729 1.22835 79.7387 1.35717C79.8046 1.45378 79.8375 1.58259 79.8375 1.71141C79.8375 1.84022 79.8046 1.93683 79.7387 2.03344C79.6729 2.13005 79.6071 2.22666 79.4754 2.29107C79.3766 2.35547 79.2449 2.38767 79.1462 2.38767C79.0145 2.38767 78.9157 2.35547 78.784 2.29107C78.6853 2.22666 78.5865 2.16225 78.5206 2.03344C78.4548 1.93683 78.4219 1.80802 78.4219 1.71141C78.4219 1.58259 78.4548 1.48598 78.5206 1.35717C78.5865 1.26056 78.6853 1.16395 78.784 1.09954C78.9157 1.00293 79.0474 1.00293 79.1462 1.00293ZM79.1462 1.09954C79.0474 1.09954 78.9486 1.13174 78.8499 1.16395C78.7511 1.19615 78.6853 1.29276 78.6194 1.38937C78.5536 1.48598 78.5536 1.58259 78.5536 1.6792C78.5536 1.77581 78.5865 1.87242 78.6194 1.96903C78.6853 2.06564 78.7511 2.13005 78.8499 2.19446C78.9486 2.25886 79.0474 2.25886 79.1462 2.25886C79.2449 2.25886 79.3437 2.22666 79.4424 2.19446C79.5412 2.13005 79.6071 2.06564 79.6729 1.96903C79.7387 1.87242 79.7387 1.77581 79.7387 1.6792C79.7387 1.58259 79.7058 1.48598 79.6729 1.38937C79.6071 1.29276 79.5412 1.22835 79.4424 1.16395C79.3437 1.13174 79.2449 1.09954 79.1462 1.09954Z" fill="white"/>
<path d="M79.4057 1.9039C79.3727 1.8395 79.3398 1.77509 79.3069 1.77509C79.3069 1.77509 79.274 1.74289 79.241 1.74289C79.3069 1.74289 79.3727 1.71068 79.4057 1.67848C79.4386 1.64628 79.4715 1.58187 79.4715 1.54967C79.4715 1.51746 79.4715 1.48526 79.4386 1.45306C79.4057 1.42086 79.3727 1.38865 79.3398 1.38865C79.3069 1.38865 79.241 1.35645 79.1423 1.35645H78.8789V2.09713H79.0106V1.77509H79.0764C79.1094 1.77509 79.1423 1.77509 79.1752 1.80729C79.2081 1.8395 79.241 1.8717 79.3069 1.96831L79.3727 2.09713H79.5044L79.4057 1.9039ZM79.1423 1.61408H79.0106V1.38865H79.1423C79.2081 1.38865 79.241 1.38865 79.274 1.38865C79.3069 1.38865 79.3069 1.42085 79.3398 1.42085C79.3398 1.45306 79.3727 1.45306 79.3727 1.48526C79.3727 1.51746 79.3727 1.54967 79.3398 1.58187C79.274 1.61407 79.2081 1.61408 79.1423 1.61408Z" fill="white"/>
<path d="M53.4306 7.21769C53.6611 7.05667 53.9244 6.99227 54.1878 6.99227C54.4841 6.99227 54.7146 7.08888 54.8792 7.21769H57.4142L57.9738 3.86854H77.0026L77.2331 1.67871H56.7228H56.0973L55.373 6.09057C55.0109 5.54311 54.3854 5.22108 53.6611 5.22108C52.5417 5.22108 51.3565 5.96176 50.7969 7.21769H53.4306Z" fill="#DB0812"/>
<path d="M35.4898 7.21629C35.7532 7.02307 36.0824 6.86205 36.4116 6.86205C36.7737 6.86205 37.07 6.99087 37.2346 7.21629H39.7038L40.0001 5.34849H37.8272L37.6955 6.05697C37.3334 5.47731 36.7079 5.15527 35.9178 5.15527C34.6997 5.15527 33.4815 5.96036 32.9219 7.18409H35.4898V7.21629Z" fill="#DB0812"/>
<path d="M39.344 9.40723H32.7925C33.1876 10.4699 34.2411 10.8886 34.9983 10.8886C35.8213 10.8886 36.5127 10.5988 37.0723 9.92248L36.9077 10.8564C36.7761 11.6293 36.3151 12.0479 35.525 12.0479C34.8007 12.0479 34.5703 11.6937 34.6032 11.3394H32.3316C32.2658 12.531 33.1217 13.6581 35.2287 13.6581C36.6444 13.6581 37.7308 13.1106 38.2575 12.5632C38.6197 12.1767 38.9489 11.7259 39.2123 10.1801L39.344 9.40723Z" fill="#DB0812"/>
<path d="M15.375 8.4734H22.124C22.1569 8.37679 22.1569 8.24798 22.1569 8.15137H15.4079C15.4079 8.28018 15.4079 8.37679 15.375 8.4734Z" fill="#DB0812"/>
<path d="M22.1909 7.53809H15.6066C15.5737 7.6347 15.5407 7.76351 15.5078 7.86012H22.2239C22.1909 7.73131 22.1909 7.6347 22.1909 7.53809Z" fill="#DB0812"/>
<path d="M42.7643 7.21729C43.0277 7.02407 43.3569 6.89526 43.6861 6.89526C44.0483 6.89526 44.3446 7.02407 44.5092 7.21729H46.9783C46.7479 6.05797 45.7273 5.18848 43.9495 5.18848C42.3364 5.18848 41.1512 5.92915 40.5257 6.86305C40.4598 6.95966 40.394 7.08848 40.3281 7.21729H42.7643Z" fill="#DB0812"/>
<path d="M57.052 9.40723H50.5664C50.8298 10.4699 51.7187 11.114 52.8051 11.114C53.5623 11.114 54.2536 10.8242 54.7804 10.1801L54.6487 10.953H56.7886L57.052 9.40723Z" fill="#DB0812"/>
<path d="M43.6197 9.40723C43.521 9.43943 43.3893 9.43943 43.2576 9.43943C43.1588 9.43943 43.0271 9.43943 42.9284 9.40723H40.0312C40.3275 10.4377 41.3481 11.1784 42.9942 11.1784C44.5745 11.1784 45.8255 10.4377 46.4839 9.40723H43.6197Z" fill="#DB0812"/>
<path d="M17.8084 7.21629C18.006 6.76544 18.4669 6.41121 19.0595 6.41121C19.6191 6.41121 19.9813 6.73324 20.0471 7.21629H22.1212C21.8908 6.05697 20.936 5.15527 19.2241 5.15527C18.7632 5.15527 18.3023 5.21968 17.8743 5.3807C16.8537 5.73493 16.1294 6.379 15.7344 7.21629H17.8084Z" fill="#DB0812"/>
<path d="M11.1594 7.2167C11.1594 7.2167 11.1594 7.1845 11.1594 7.2167C11.3899 6.95907 11.7191 6.79806 12.0483 6.79806C12.4105 6.79806 12.6738 6.92687 12.8055 7.2167H15.143C15.1759 6.76585 15.143 6.31501 14.9125 5.92857C14.6162 5.41331 14.0236 5.09128 13.2994 5.09128C12.6409 5.09128 11.8179 5.41331 11.1594 5.99297L11.8508 1.64551H9.67795L8.78906 7.2167H11.1594Z" fill="#DB0812"/>
<path d="M28.4452 7.21724C28.6756 6.95962 29.0048 6.8308 29.334 6.8308C29.6962 6.8308 29.9596 6.95962 30.0912 7.21724H32.4287C32.4945 6.50877 32.3628 6.15453 32.1982 5.8969C31.9019 5.41385 31.3093 5.12402 30.5521 5.12402C29.762 5.12402 29.0377 5.44606 28.511 5.99352L28.6098 5.38165H26.4369L26.1406 7.21724H28.4452Z" fill="#DB0812"/>
<path d="M19.3597 9.40723C19.1621 9.60045 18.8658 9.72926 18.5037 9.72926C18.1745 9.72926 17.8782 9.60045 17.7136 9.40723H15.5078C15.837 10.4699 16.8247 11.1784 18.4049 11.1784C20.0839 11.1784 21.2362 10.4377 21.7959 9.40723H19.3597Z" fill="#DB0812"/>
<path d="M7.17615 9.40723H4.47656L5.29961 10.9852H8.16381L7.17615 9.40723Z" fill="#DB0812"/>
<path d="M47.9336 7.2167H50.1064L50.9953 1.64551H48.8554L47.9336 7.2167Z" fill="#DB0812"/>
<path d="M39.4736 8.7959H37.0703C36.9386 8.92471 36.774 9.02132 36.6094 9.11793H39.4077L39.4736 8.7959Z" fill="#DB0812"/>
<path d="M6.78385 8.7959H4.11719L4.2818 9.11793H6.98139L6.78385 8.7959Z" fill="#DB0812"/>
<path d="M35.0963 8.7959H32.6602C32.6602 8.89251 32.6931 9.02132 32.6931 9.11793H35.4584C35.3268 9.02132 35.1951 8.92471 35.0963 8.7959Z" fill="#DB0812"/>
<path d="M6.35306 8.15137H3.78516L3.94977 8.4734H6.55059L6.35306 8.15137Z" fill="#DB0812"/>
<path d="M52.8704 8.7959H50.5C50.5 8.89251 50.5 9.02132 50.5329 9.11793H53.1008C53.0021 9.02132 52.9362 8.92471 52.8704 8.7959Z" fill="#DB0812"/>
<path d="M46.8492 8.7959H44.5775C44.5117 8.92471 44.4129 9.02132 44.2812 9.11793H46.7175C46.7504 8.98912 46.7833 8.89251 46.8492 8.7959Z" fill="#DB0812"/>
<path d="M3.39045 9.40723H1.08592L0.855469 10.9852H3.12707L3.39045 9.40723Z" fill="#DB0812"/>
<path d="M57.1505 8.7959H54.9447C54.846 8.92471 54.7472 9.02132 54.6484 9.11793H57.1176L57.1505 8.7959Z" fill="#DB0812"/>
<path d="M22.9141 7.21743H25.1198L25.4161 5.38184H23.2104L22.9141 7.21743Z" fill="#DB0812"/>
<path d="M50.6016 7.86012H52.9061C52.939 7.73131 53.0049 7.6347 53.1036 7.53809H50.7003C50.6674 7.6347 50.6345 7.73131 50.6016 7.86012Z" fill="#DB0812"/>
<path d="M24.7582 9.40723H22.5524L22.2891 10.9852H24.4948L24.7582 9.40723Z" fill="#DB0812"/>
<path d="M14.78 9.40723H12.5742L12.3438 10.9852H14.5166L14.78 9.40723Z" fill="#DB0812"/>
<path d="M32.0339 9.40723H29.861L29.5977 10.9852H31.8034L32.0339 9.40723Z" fill="#DB0812"/>
<path d="M25.5495 4.51259L25.78 2.99902H23.5742L23.3438 4.51259H25.5495Z" fill="#DB0812"/>
<path d="M42.2404 8.7959H39.9688C39.9688 8.89251 39.9687 9.02132 40.0017 9.11793H42.4379C42.3391 9.02132 42.3062 8.92471 42.2404 8.7959Z" fill="#DB0812"/>
<path d="M32.7578 7.86012H35.0294C35.0623 7.76351 35.1282 7.6347 35.194 7.53809H32.8566C32.7907 7.6347 32.7578 7.73131 32.7578 7.86012Z" fill="#DB0812"/>
<path d="M49.7431 9.40723H47.5703L47.3398 10.9852H49.4798L49.7431 9.40723Z" fill="#DB0812"/>
<path d="M10.6315 9.40723H8.45869L8.19531 10.9852H10.3682L10.6315 9.40723Z" fill="#DB0812"/>
<path d="M27.8815 9.40723H25.7087L25.4453 10.9852H27.6182L27.8815 9.40723Z" fill="#DB0812"/>
<path d="M40.0977 7.86012H42.3034C42.3363 7.73131 42.4022 7.6347 42.468 7.53809H40.1964C40.1635 7.6347 40.1306 7.73131 40.0977 7.86012Z" fill="#DB0812"/>
<path d="M3.48979 8.7959H1.21819L1.15234 9.11793H3.45687L3.48979 8.7959Z" fill="#DB0812"/>
<path d="M3.58745 8.15137H1.31585L1.25 8.4734H3.55453L3.58745 8.15137Z" fill="#DB0812"/>
<path d="M52.8397 8.15137H50.5681C50.5352 8.24798 50.5352 8.37679 50.5352 8.4734H52.8397C52.8068 8.37679 52.8068 8.28018 52.8397 8.15137C52.8068 8.18357 52.8397 8.18357 52.8397 8.15137Z" fill="#DB0812"/>
<path d="M44.808 7.86012H47.0467C47.0467 7.76351 47.0467 7.6347 47.0467 7.53809H44.7422C44.7751 7.6347 44.808 7.73131 44.808 7.86012Z" fill="#DB0812"/>
<path d="M34.9646 8.15137H32.6931C32.6931 8.24798 32.6602 8.37679 32.6602 8.4734H34.9646C34.9646 8.37679 34.9317 8.28018 34.9646 8.15137Z" fill="#DB0812"/>
<path d="M47.0138 8.15137H44.808C44.808 8.15137 44.808 8.15137 44.808 8.18357C44.7751 8.28018 44.7751 8.37679 44.7422 8.4734H46.9809C46.9809 8.37679 46.9809 8.28018 47.0138 8.15137C47.0138 8.18357 47.0138 8.18357 47.0138 8.15137Z" fill="#DB0812"/>
<path d="M25.9766 7.86012H28.1494C28.1823 7.73131 28.2152 7.6347 28.2482 7.53809H26.0095L25.9766 7.86012Z" fill="#DB0812"/>
<path d="M29.9922 8.4734H32.198L32.2638 8.15137H30.058L29.9922 8.4734Z" fill="#DB0812"/>
<path d="M22.7188 8.4734H24.8916L24.9574 8.15137H22.7517L22.7188 8.4734Z" fill="#DB0812"/>
<path d="M22.8125 7.86012H25.0183L25.0512 7.53809H22.8454L22.8125 7.86012Z" fill="#DB0812"/>
<path d="M30.0898 7.86012H32.2956L32.3285 7.6669C32.3285 7.6347 32.3285 7.57029 32.3615 7.53809H30.1557C30.1557 7.60249 30.1557 7.6991 30.1228 7.79571L30.0898 7.86012Z" fill="#DB0812"/>
<path d="M29.8906 9.11793H32.0964L32.1293 8.7959H29.9565L29.8906 9.11793Z" fill="#DB0812"/>
<path d="M12.8398 7.86012H15.0456V7.76351C15.0456 7.6991 15.0785 7.6347 15.0785 7.53809H12.8728C12.8728 7.6347 12.8728 7.73131 12.8398 7.82792V7.86012Z" fill="#DB0812"/>
<path d="M8.69141 7.86012H10.8642C10.8972 7.73131 10.9301 7.6347 10.963 7.53809H8.75725L8.69141 7.86012Z" fill="#DB0812"/>
<path d="M22.6172 9.11793H24.79L24.8559 8.7959H22.6501L22.6172 9.11793Z" fill="#DB0812"/>
<path d="M14.8793 8.7959H12.7065L12.6406 9.11793H14.8464L14.8793 8.7959Z" fill="#DB0812"/>
<path d="M14.9809 8.15137H12.808L12.7422 8.4734H14.9479L14.9809 8.15137Z" fill="#DB0812"/>
<path d="M39.5746 8.15137H37.4676C37.4347 8.24798 37.4018 8.37679 37.3359 8.4734H39.5417L39.5746 8.15137Z" fill="#DB0812"/>
<path d="M37.4978 7.86012H39.6377L39.7035 7.53809H37.4648C37.4648 7.6347 37.4978 7.73131 37.4978 7.86012Z" fill="#DB0812"/>
<path d="M42.2058 8.15137H40.0329V8.18357C40.0329 8.28018 40 8.37679 40 8.4734H42.2058C42.1728 8.37679 42.2058 8.28018 42.2058 8.15137C42.2058 8.18357 42.2058 8.18357 42.2058 8.15137Z" fill="#DB0812"/>
<path d="M55.2104 7.86012H57.3174L57.3832 7.53809H55.1445C55.1775 7.6347 55.2104 7.73131 55.2104 7.86012Z" fill="#DB0812"/>
<path d="M50.0417 7.53809H47.9018L47.8359 7.86012H50.0088L50.0417 7.53809Z" fill="#DB0812"/>
<path d="M8.59375 8.4734H10.7666L10.8324 8.15137H8.65959L8.59375 8.4734Z" fill="#DB0812"/>
<path d="M49.9401 8.15137H47.8002L47.7344 8.4734H49.9072L49.9401 8.15137Z" fill="#DB0812"/>
<path d="M28.0847 8.15137H25.9118L25.8789 8.4734H28.0188L28.0847 8.15137Z" fill="#DB0812"/>
<path d="M8.49219 9.11793H10.665L10.7309 8.7959H8.55803L8.49219 9.11793Z" fill="#DB0812"/>
<path d="M27.9831 8.7959H25.8103L25.7773 9.11793H27.9173L27.9831 8.7959Z" fill="#DB0812"/>
<path d="M49.8425 8.7959H47.6696L47.6367 9.11793H49.8096L49.8425 8.7959Z" fill="#DB0812"/>
<path d="M8.39498 6.15527C8.36206 6.18748 8.36206 6.25188 8.32914 6.28409C7.99992 6.99256 7.47317 7.50782 6.84766 7.82985L7.86823 9.44002L8.39498 6.15527Z" fill="#DB0812"/>
<path d="M32.3945 10.7603H33.053C32.8554 10.5993 32.6579 10.3738 32.4933 10.1162L32.3945 10.7603Z" fill="#DB0812"/>
<path d="M57.251 8.15137H55.1769C55.144 8.24798 55.144 8.37679 55.0781 8.4734H57.1851L57.251 8.15137Z" fill="#DB0812"/>
<path d="M17.5149 8.7959H15.375C15.375 8.89251 15.375 9.02132 15.4079 9.11793H17.5478C17.5149 9.02132 17.5149 8.89251 17.5149 8.7959Z" fill="#DB0812"/>
<path d="M7.27471 3.09536C6.91257 2.83773 6.31998 2.6123 5.26648 2.6123H2.23767L1.48047 7.2174H6.84672C7.27471 6.95977 7.60393 6.54113 7.83438 6.05808C7.93314 5.83265 7.99899 5.60723 8.06483 5.3496C8.19652 4.28689 7.90022 3.57841 7.27471 3.09536ZM5.79323 5.44621C5.69446 5.99367 5.26648 6.38011 4.5422 6.38011H3.88376L4.18006 4.44791H4.83849C5.56277 4.48011 5.89199 4.89875 5.79323 5.44621Z" fill="#DB0812"/>
<path d="M5.96062 7.53809H1.41741L1.35156 7.86012H6.15815L6.12523 7.76351L5.96062 7.53809Z" fill="#DB0812"/>
</g>
<defs>
<clipPath id="clip0_308_1923">
<rect width="80" height="19" fill="white" transform="translate(0 0.969727)"/>
</clipPath>
</defs>
</svg>
