<svg width="295" height="60" viewBox="0 0 295 60" fill="none" xmlns="http://www.w3.org/2000/svg">
<path fill-rule="evenodd" clip-rule="evenodd" d="M8.73678 2.22368H21.0075C25.1305 2.22368 28.4682 5.56132 28.4682 9.6843V27.2069C28.4682 31.3299 25.1305 34.6676 21.0075 34.6676H8.73678C4.61381 34.6676 1.27616 31.3299 1.27616 27.2069V9.6843C1.27616 5.56132 4.61381 2.22368 8.73678 2.22368ZM8.63862 0.898438H21.1057C25.8668 0.898438 29.7443 4.77599 29.7443 9.53705V27.3542C29.7443 32.1153 25.8668 35.9928 21.1057 35.9928H8.63862C3.87756 35.9928 0 32.1153 0 27.3542V9.53705C0 4.77599 3.87756 0.898438 8.63862 0.898438Z" fill="#13357A"/>
<path fill-rule="evenodd" clip-rule="evenodd" d="M13.7925 12.5297C13.7925 13.1187 14.2833 13.6096 14.8723 13.6096C15.4613 13.6096 15.9521 13.1187 15.9521 12.5297C15.9521 11.9407 15.4613 11.4499 14.8723 11.4499C14.2833 11.4499 13.7925 11.9407 13.7925 12.5297ZM12.7617 12.5297C12.7617 11.8426 13.1053 11.2536 13.5961 10.8609V9.4375H16.1975V10.8609C16.6884 11.2536 17.0319 11.8426 17.0319 12.5297C17.0319 13.7077 16.0994 14.6403 14.9214 14.6403C13.6943 14.6403 12.7617 13.7077 12.7617 12.5297Z" fill="#13357A"/>
<path fill-rule="evenodd" clip-rule="evenodd" d="M13.7424 24.262C13.7424 24.851 14.2332 25.2928 14.7731 25.2928C15.3621 25.2928 15.8039 24.802 15.8039 24.262C15.8039 23.673 15.3131 23.2313 14.7731 23.2313C14.2332 23.2313 13.7424 23.673 13.7424 24.262ZM22.6755 12.3839V9.48805C22.6755 8.55547 21.8902 7.77014 20.9576 7.77014H8.68684C7.75426 7.77014 6.96893 8.55547 6.96893 9.48805V14.3473C6.96893 15.2798 7.75426 16.4088 8.68684 16.4088H17.1291L19.2397 11.9422L21.5957 13.1202L19.9759 16.4088H20.9085C24.1971 16.4088 26.8476 19.0592 26.8476 22.3478V27.0107C26.8476 30.2993 24.1971 32.9497 20.9085 32.9497H8.83409C5.54553 32.9497 2.89504 30.2993 2.89504 27.0107V24.5565L6.96893 24.6056V27.3052C6.96893 28.2869 7.75426 29.0722 8.68684 29.0722H20.9576C21.8902 29.0722 22.6755 28.2869 22.6755 27.3052V22.0042C22.6755 21.0226 21.8902 20.2863 20.9576 20.2863H18.1108L16.6383 23.2313C16.7855 23.5258 16.8346 23.8203 16.8346 24.1639C16.8346 24.802 16.5401 25.391 16.0493 25.7836V27.1579H13.4479V25.7836C12.9571 25.391 12.6626 24.802 12.6626 24.1148C12.6626 23.0841 13.3988 22.3478 14.2332 22.1024L15.1658 20.1882H8.73592C5.44736 20.1882 2.79688 17.1941 2.79688 13.9055V9.83163C2.79688 6.54307 5.44736 3.89258 8.73592 3.89258H20.8104C24.0989 3.89258 26.7494 6.54307 26.7494 9.83163V12.3839H22.6755Z" fill="#13357A"/>
<path fill-rule="evenodd" clip-rule="evenodd" d="M124.228 32.9981V4.03906H118.535V15.5245H107.393V4.03906H101.699V32.9981H107.393V21.12H118.535V32.9981H124.228Z" fill="#13357A"/>
<path fill-rule="evenodd" clip-rule="evenodd" d="M97.2324 27.4026H82.9983V9.63453H97.2324V4.03906H79.9552C78.4827 4.03906 77.3047 5.26614 77.3047 6.88588V30.2003C77.3047 31.771 78.4827 32.9981 79.9552 32.9981H97.2324V27.4026Z" fill="#13357A"/>
<path fill-rule="evenodd" clip-rule="evenodd" d="M72.5982 30.2003V18.764C72.5982 17.1933 71.4202 15.9172 69.8987 15.9172H55.6646V9.63453H72.5492V6.88588C72.5492 5.26614 71.3712 4.03906 69.8496 4.03906H52.5724C51.0999 4.03906 49.9219 5.26614 49.9219 6.88588V18.6167C49.9219 20.1874 51.0999 21.4636 52.5724 21.4636H66.9046V27.3535H50.02V30.1512C50.02 31.7219 51.198 32.949 52.6705 32.949H69.9478C71.4202 32.9981 72.5982 31.771 72.5982 30.2003Z" fill="#13357A"/>
<path fill-rule="evenodd" clip-rule="evenodd" d="M185.534 32.9981V27.4026H170.367V21.12H184.552V15.5245H170.367V9.63453H185.534V4.03906H164.723V32.9981H185.534Z" fill="#13357A"/>
<path fill-rule="evenodd" clip-rule="evenodd" d="M242.27 30.2003V18.764C242.27 17.1933 241.092 15.9172 239.571 15.9172H225.238V9.63453H242.221V6.88588C242.221 5.26614 241.043 4.03906 239.521 4.03906H222.244C220.772 4.03906 219.594 5.26614 219.594 6.88588V18.6658C219.594 20.2365 220.772 21.5126 222.244 21.5126H236.527V27.4026H219.643V30.2003C219.643 31.771 220.821 32.9981 222.293 32.9981H239.571C241.141 32.9981 242.27 31.771 242.27 30.2003Z" fill="#13357A"/>
<path fill-rule="evenodd" clip-rule="evenodd" d="M294.496 32.9981V27.8443H281.342V4.03906H275.746V32.9981H294.496Z" fill="#13357A"/>
<path fill-rule="evenodd" clip-rule="evenodd" d="M159.326 32.9991V6.73965C159.326 5.11991 158.148 3.84375 156.626 3.84375H132.379C130.858 3.84375 129.68 5.07082 129.68 6.73965V32.9991H135.373V9.39014H141.656V32.9991H147.448V9.43921H153.681V32.9991H159.326Z" fill="#13357A"/>
<path fill-rule="evenodd" clip-rule="evenodd" d="M208.653 9.58545H196.48V15.5736H208.653V9.58545ZM214.347 32.9981H208.702V21.12H196.48V32.9981H190.836V4.03906H211.696C213.218 4.03906 214.396 5.26614 214.396 6.88588V15.5245C214.396 17.2424 211.893 18.3713 210.371 18.3713C211.893 18.3713 214.396 19.5002 214.396 21.169V32.9981H214.347Z" fill="#13357A"/>
<path fill-rule="evenodd" clip-rule="evenodd" d="M264.313 9.58545H253.27V15.5736H264.313V9.58545ZM269.958 32.9981H264.313V21.12H253.27V32.9981H247.625V6.88588C247.625 5.26614 248.803 4.03906 250.275 4.03906H267.307C268.829 4.03906 270.007 5.26614 270.007 6.88588V32.9981H269.958Z" fill="#13357A"/>
<path d="M54.9278 59.6021H56.9402V46.4479H61.8485V44.8281H50.0195V46.4479H54.9278V59.6021Z" fill="#13357A"/>
<path d="M65.8672 59.6021H67.8305V52.8287H75.6347V59.6021H77.598V44.8281H75.6347V51.1598H67.8305V44.8281H65.8672V59.6021Z" fill="#13357A"/>
<path d="M83.2422 59.6021H93.5005V57.9824H85.2055V52.8287H92.9115V51.1598H85.2055V46.4479H93.4515V44.8281H83.2422V59.6021Z" fill="#13357A"/>
<path d="M119.367 52.1415C119.367 47.2332 116.471 44.8281 112.643 44.8281H106.262V59.6512H112.643C117.158 59.6021 119.367 56.4117 119.367 52.1415ZM116.127 52.436C116.127 55.7246 114.311 56.8535 112.446 56.8535H109.501V47.5277H111.808C115.097 47.5277 116.127 49.4419 116.127 52.436Z" fill="#13357A"/>
<path d="M124.031 59.6021H127.074V49.6874H127.123L133.259 59.6021H136.547V44.8281H133.455V54.7429L127.271 44.8281H124.031V59.6021Z" fill="#13357A"/>
<path d="M154.71 59.6024L149.164 44.7793H145.826L140.23 59.6024H143.519L144.697 56.3138H150.243L151.372 59.6024H154.71ZM149.36 53.9087H145.531L147.446 48.4605H147.495L149.36 53.9087Z" fill="#13357A"/>
<path d="M180.183 52.2395C180.183 48.2147 177.778 44.4844 173.066 44.4844C168.354 44.4844 165.949 48.2147 165.949 52.2395C165.949 56.2643 168.354 59.9946 173.066 59.9946C177.827 59.9946 180.183 56.2643 180.183 52.2395ZM178.22 52.2395C178.22 55.2336 176.698 58.3258 173.115 58.3258C169.483 58.3258 168.011 55.2336 168.011 52.2395C168.011 49.2454 169.532 46.1532 173.115 46.1532C176.698 46.1041 178.22 49.2454 178.22 52.2395Z" fill="#13357A"/>
<path d="M184.992 59.6021H186.956V52.8287H193.729V51.1598H186.956V46.4479H194.711V44.8281H184.992V59.6021Z" fill="#13357A"/>
<path d="M217.881 49.1475C217.733 45.908 215.476 44.4355 212.432 44.4355C209.733 44.4355 207.082 45.7608 207.082 48.7548C207.082 51.4544 209.487 52.1416 211.843 52.6815C214.199 53.2214 216.555 53.565 216.555 55.5774C216.555 57.7371 214.592 58.277 212.825 58.277C210.567 58.277 208.506 57.1971 208.506 54.6939H206.641C206.641 58.326 209.438 59.9458 212.776 59.9458C215.476 59.9458 218.568 58.6696 218.568 55.5283C218.568 52.6324 216.212 51.798 213.856 51.2581C211.451 50.7182 209.095 50.4728 209.095 48.6076C209.095 46.6934 210.764 46.0553 212.432 46.0553C214.445 46.0553 215.868 46.9879 216.114 49.0984H217.881V49.1475Z" fill="#13357A"/>
<path d="M235.259 59.6024L229.467 44.7793H227.307L221.516 59.6024H223.528L225.197 55.1358H231.479L233.099 59.6024H235.259ZM230.841 53.5161H225.835L228.338 46.5954H228.387L230.841 53.5161Z" fill="#13357A"/>
<path d="M239.082 59.6021H241.045V52.8287H247.868V51.1598H241.045V46.4479H248.8V44.8281H239.082V59.6021Z" fill="#13357A"/>
<path d="M253.371 59.6021H263.679V57.9824H255.334V52.8287H263.04V51.1598H255.334V46.4479H263.58V44.8281H253.371V59.6021Z" fill="#13357A"/>
<path d="M271.775 59.6021H273.739V46.4479H278.696V44.8281H266.867V46.4479H271.775V59.6021Z" fill="#13357A"/>
<path d="M294.499 44.8281H292.241L287.922 51.847L283.504 44.8281H281.148L286.891 53.5649V59.6021H288.854V53.5649L294.499 44.8281Z" fill="#13357A"/>
</svg>
