<svg width="239" height="82" viewBox="0 0 239 82" fill="none" xmlns="http://www.w3.org/2000/svg">
<path d="M56.7965 43.5667C57.6631 43.3186 58.4002 42.9527 59.0042 42.4692C59.6082 41.9856 60.0699 41.3901 60.3881 40.6816C60.7063 39.973 60.8659 39.1628 60.8659 38.2523C60.8659 37.314 60.7132 36.527 60.4089 35.8911C60.1046 35.2564 59.7008 34.7197 59.1974 34.2824C58.6941 33.845 58.1109 33.4791 57.4468 33.1849C56.7826 32.8906 56.0907 32.6101 55.3709 32.3424C54.716 32.1127 54.1155 31.8912 53.5717 31.68C53.0267 31.4688 52.5569 31.2357 52.16 30.9829C51.7632 30.7302 51.4565 30.4371 51.2402 30.1059C51.0226 29.7746 50.915 29.3696 50.915 28.8906C50.915 27.9432 51.2587 27.2161 51.946 26.7095C52.6333 26.2029 53.5948 25.9501 54.8317 25.9501C55.386 25.9501 55.9506 25.9871 56.5269 26.0609C57.1031 26.1348 57.6643 26.2386 58.2081 26.3714C58.7519 26.5052 59.2599 26.6587 59.7308 26.8341V24.3356C59.5364 24.2895 59.2159 24.2041 58.7693 24.0806C58.3215 23.9559 57.7569 23.8463 57.0742 23.7494C56.3915 23.6524 55.6533 23.604 54.8595 23.604C53.817 23.604 52.8774 23.7309 52.0432 23.9836C51.2078 24.2364 50.4996 24.5976 49.9188 25.0673C49.3379 25.537 48.8901 26.1071 48.5765 26.7787C48.263 27.4504 48.1056 28.2005 48.1056 29.0291C48.1056 29.545 48.1611 30.0343 48.2722 30.4994C48.3833 30.9645 48.6113 31.4296 48.9572 31.8935C49.3032 32.3586 49.7278 32.759 50.2312 33.0948C50.7345 33.4307 51.2321 33.7042 51.7261 33.9165C52.2202 34.1277 52.7432 34.3308 53.2975 34.5236C53.8783 34.7451 54.5274 34.9956 55.2425 35.276C55.9576 35.5564 56.5685 35.9338 57.0765 36.4081C57.5833 36.8824 57.8378 37.5056 57.8378 38.2788C57.8378 38.7393 57.7476 39.2228 57.5682 39.7283C57.3877 40.2349 56.9642 40.6596 56.2943 41.0058C55.6255 41.3509 54.6906 41.524 53.4907 41.524C52.9006 41.524 52.263 41.4686 51.5803 41.359C50.8977 41.2482 50.2589 41.097 49.663 40.9031C49.0683 40.7093 48.6367 40.5442 48.3694 40.4057L47.5664 42.6838C47.7596 42.7762 48.042 42.8927 48.4111 43.0358C48.7802 43.1789 49.2326 43.3162 49.7672 43.4501C50.3018 43.584 50.9092 43.6982 51.5873 43.7952C52.2653 43.8921 53.0151 43.9406 53.8366 43.9406C54.9417 43.9394 55.9287 43.8148 56.7965 43.5667ZM70.6248 43.7594C71.1594 43.6855 71.6488 43.5851 72.092 43.4559L71.6072 41.4121C71.422 41.4767 71.1594 41.5367 70.818 41.5921C70.4767 41.6475 70.1168 41.6752 69.7385 41.6752C68.991 41.6752 68.4622 41.4917 68.1533 41.1236C67.8443 40.7554 67.6893 40.1576 67.6893 39.329V31.4319H71.4128V29.2923H67.6893V24.8746C66.5727 25.4366 65.6586 25.8405 64.9481 26.0898V29.2923H62.7057V31.4319H64.9481V39.6325C64.9481 40.2949 65.0245 40.8893 65.1761 41.4132C65.3288 41.9383 65.566 42.3826 65.8888 42.745C66.2117 43.1085 66.6271 43.3866 67.135 43.5805C67.643 43.7744 68.2562 43.8702 68.9759 43.8702C69.5394 43.8702 70.0891 43.8333 70.6248 43.7594ZM79.6558 43.6705C80.2228 43.5367 80.7215 43.3578 81.1508 43.1316C81.5801 42.9066 81.933 42.655 82.2095 42.3792L82.2651 43.5944H84.8673V33.7503C84.8673 32.9217 84.7586 32.2085 84.5422 31.6107C84.3247 31.0129 83.9903 30.5202 83.5379 30.1336C83.0866 29.747 82.5115 29.4619 81.815 29.2773C81.1184 29.0938 80.2945 29.0014 79.3446 29.0014C78.8644 29.0014 78.353 29.0268 77.808 29.0776C77.263 29.1284 76.8163 29.1861 76.4658 29.2496C76.1152 29.3142 75.5517 29.4481 74.7776 29.65V31.8866C75.3769 31.6754 76.0052 31.4907 76.6601 31.3338C77.3151 31.178 78.0301 31.0995 78.8054 31.0995C79.4233 31.0995 80.0053 31.171 80.5491 31.313C81.0941 31.4561 81.4968 31.7227 81.7606 32.1139C82.0232 32.5051 82.1551 33.0591 82.1551 33.778V34.5513C82.1089 34.5513 82.014 34.5536 81.8717 34.5582C81.7282 34.5628 81.5789 34.5651 81.4216 34.5651C81.2642 34.5651 81.1149 34.5674 80.9714 34.572C80.828 34.5766 80.7377 34.579 80.7018 34.579C79.8618 34.5974 79.1027 34.6574 78.4247 34.7578C77.7466 34.8594 77.1345 35.0152 76.5907 35.2275C75.6222 35.6141 74.8886 36.16 74.3899 36.864C73.8912 37.5679 73.6425 38.4635 73.6425 39.5494C73.6425 40.3319 73.7605 40.9966 73.9954 41.5448C74.2303 42.093 74.5485 42.5384 74.95 42.8835C75.3515 43.2285 75.8224 43.479 76.3616 43.6359C76.902 43.7917 77.4713 43.8702 78.0706 43.8702C78.5601 43.8702 79.0889 43.8033 79.6558 43.6705ZM77.5592 41.5229C77.1716 41.3671 76.8811 41.097 76.6868 40.715C76.4935 40.333 76.3963 39.9072 76.3963 39.4375C76.3963 38.9043 76.4935 38.4531 76.6868 38.0849C76.8811 37.7168 77.1739 37.4179 77.5661 37.1871C77.9584 36.9574 78.4502 36.7936 79.0403 36.6966C79.6304 36.5997 80.3281 36.5512 81.13 36.5512H82.154V40.4311C81.9874 40.6065 81.7617 40.7923 81.4759 40.9897C81.1901 41.1882 80.8002 41.3648 80.3061 41.5217C79.812 41.6787 79.3214 41.756 78.832 41.756C78.3715 41.7583 77.9468 41.6798 77.5592 41.5229ZM96.8767 43.367C97.5363 43.0312 98.1056 42.4946 98.5857 41.7583L98.6552 43.5944H101.285V22.8169H98.5302V30.369C98.3833 30.204 98.1935 30.0401 97.9632 29.8785C97.7318 29.7181 97.4599 29.5704 97.1463 29.4365C96.8328 29.3038 96.4798 29.1976 96.0876 29.1191C95.6953 29.0407 95.2638 29.0014 94.7928 29.0014C93.9435 29.0014 93.1544 29.1699 92.4266 29.5058C91.6965 29.8416 91.0624 30.3297 90.5232 30.9691C89.9828 31.6084 89.5582 32.3978 89.2492 33.3372C88.9403 34.2754 88.7852 35.3487 88.7852 36.5535C88.7852 37.8334 88.9264 38.9355 89.2076 39.8599C89.4887 40.7843 89.881 41.5448 90.3843 42.138C90.8877 42.7311 91.4847 43.1685 92.1767 43.4501C92.8686 43.7305 93.6253 43.8713 94.4468 43.8713C95.4061 43.8702 96.216 43.7029 96.8767 43.367ZM93.3118 41.1363C92.7945 40.8143 92.4069 40.2523 92.1489 39.4525C91.8908 38.6516 91.7613 37.6856 91.7613 36.5535C91.7613 35.7157 91.8515 34.9725 92.032 34.3239C92.2114 33.6753 92.4601 33.1272 92.7795 32.6805C93.0977 32.2339 93.4807 31.8958 93.9285 31.6661C94.3751 31.4365 94.8715 31.3211 95.4165 31.3211C95.8122 31.3211 96.2091 31.3742 96.606 31.4803C97.0029 31.5865 97.3442 31.7354 97.6311 31.9293C97.9169 32.1231 98.2166 32.3713 98.5302 32.6748V37.0925C98.5302 37.7918 98.4307 38.4958 98.2328 39.2044C98.0338 39.913 97.6589 40.4934 97.1047 40.9435C96.5504 41.3948 95.8724 41.6198 95.0694 41.6198C94.4145 41.6198 93.829 41.4594 93.3118 41.1363ZM112.096 43.7594C112.63 43.6855 113.12 43.5851 113.563 43.4559L113.078 41.4121C112.894 41.4767 112.63 41.5367 112.289 41.5921C111.948 41.6475 111.588 41.6752 111.21 41.6752C110.462 41.6752 109.934 41.4917 109.624 41.1236C109.315 40.7554 109.161 40.1576 109.161 39.329V31.4319H112.885V29.2923H109.161V24.8746C108.045 25.4366 107.131 25.8405 106.42 26.0898V29.2923H104.178V31.4319H106.42V39.6325C106.42 40.2949 106.497 40.8893 106.648 41.4132C106.801 41.9383 107.038 42.3826 107.361 42.745C107.685 43.1085 108.099 43.3866 108.607 43.5805C109.115 43.7744 109.728 43.8702 110.448 43.8702C111.012 43.8702 111.56 43.8333 112.096 43.7594ZM122.498 43.6082C123.213 43.434 123.824 43.1662 124.332 42.8073C124.84 42.4484 125.232 41.9972 125.509 41.4548C125.785 40.9112 125.924 40.2765 125.924 39.5494C125.924 38.887 125.792 38.2742 125.53 37.7133C125.266 37.1525 124.819 36.6828 124.186 36.3054C123.554 35.928 122.684 35.5691 121.577 35.2287C121.042 35.0625 120.56 34.909 120.131 34.7659C119.701 34.6228 119.339 34.4693 119.044 34.3031C118.749 34.137 118.52 33.9488 118.359 33.7377C118.197 33.5265 118.117 33.268 118.117 32.9644C118.117 32.3666 118.343 31.92 118.795 31.6257C119.248 31.3315 119.949 31.1837 120.899 31.1837C121.702 31.1837 122.438 31.2414 123.107 31.3568C123.775 31.4723 124.411 31.6304 125.01 31.8335V29.5692C124.485 29.4134 123.875 29.2796 123.183 29.1688C122.491 29.058 121.674 29.0026 120.733 29.0026C119.94 29.0026 119.215 29.0949 118.559 29.2784C117.904 29.4631 117.347 29.7296 116.885 30.0793C116.423 30.429 116.066 30.8664 115.812 31.3915C115.558 31.9166 115.432 32.5144 115.432 33.186C115.432 33.8115 115.534 34.3412 115.736 34.774C115.939 35.2068 116.223 35.5749 116.588 35.8784C116.952 36.1819 117.381 36.4404 117.874 36.6516C118.368 36.864 118.906 37.0659 119.487 37.2587C119.977 37.4341 120.511 37.6129 121.093 37.7976C121.674 37.9822 122.157 38.2234 122.54 38.5223C122.923 38.8212 123.114 39.2194 123.114 39.7168C123.114 40.0203 123.037 40.3284 122.886 40.6412C122.733 40.9539 122.41 41.2055 121.916 41.3936C121.423 41.5829 120.761 41.6763 119.93 41.6763C119.413 41.6763 118.9 41.6394 118.387 41.5656C117.874 41.4917 117.425 41.3982 117.038 41.2828C116.65 41.1674 116.216 41.0139 115.736 40.82L115.002 42.8904C115.196 42.9827 115.45 43.0831 115.764 43.1939C116.077 43.3047 116.449 43.4109 116.878 43.5113C117.307 43.6128 117.792 43.6982 118.331 43.7663C118.872 43.8356 119.464 43.8702 120.11 43.8702C120.987 43.8702 121.783 43.7825 122.498 43.6082ZM132.388 49.3104V42.7254C132.812 43.0751 133.32 43.3532 133.91 43.5609C134.502 43.7675 135.203 43.8713 136.015 43.8713C137.011 43.8713 137.895 43.7005 138.666 43.3601C139.435 43.0197 140.082 42.5246 140.603 41.876C141.125 41.2274 141.519 40.4288 141.787 39.4802C142.054 38.5327 142.188 37.456 142.188 36.25C142.188 35.081 142.03 33.9281 141.71 32.7913C141.392 31.6546 140.795 30.7394 139.918 30.0435C139.041 29.3488 137.939 29.0014 136.61 29.0014C136.02 29.0014 135.445 29.0868 134.887 29.2565C134.328 29.4273 133.822 29.7031 133.371 30.0851C132.919 30.4671 132.568 30.8975 132.319 31.3753L132.264 29.2911H129.634V49.3092H132.388V49.3104ZM133.759 41.2886C133.26 41.0497 132.803 40.722 132.388 40.3088V36.6366C132.388 35.8634 132.464 35.1502 132.617 34.497C132.768 33.8438 132.993 33.2818 133.288 32.8133C133.583 32.3436 133.947 31.9777 134.381 31.7158C134.815 31.4538 135.309 31.3222 135.862 31.3222C136.49 31.3222 137.072 31.4815 137.606 31.7989C138.142 32.1162 138.548 32.6644 138.825 33.4422C139.101 34.22 139.24 35.1744 139.24 36.3066C139.24 36.8317 139.208 37.3325 139.143 37.8114C139.078 38.2904 138.982 38.7358 138.852 39.1501C138.732 39.5275 138.553 39.9095 138.313 40.2961C138.072 40.6827 137.701 41.0047 137.198 41.262C136.695 41.5194 136.111 41.6487 135.447 41.6487C134.82 41.6475 134.256 41.5286 133.759 41.2886ZM151.206 43.6705C151.773 43.5367 152.272 43.3578 152.701 43.1316C153.131 42.9066 153.484 42.655 153.76 42.3792L153.816 43.5944H156.418V33.7503C156.418 32.9217 156.309 32.2085 156.093 31.6107C155.875 31.0129 155.541 30.5202 155.09 30.1336C154.637 29.747 154.062 29.4619 153.366 29.2773C152.669 29.0938 151.845 29.0014 150.895 29.0014C150.415 29.0014 149.902 29.0268 149.359 29.0776C148.814 29.1284 148.367 29.1861 148.016 29.2496C147.665 29.3142 147.102 29.4481 146.327 29.65V31.8866C146.926 31.6754 147.555 31.4907 148.21 31.3338C148.865 31.178 149.58 31.0995 150.355 31.0995C150.973 31.0995 151.555 31.171 152.1 31.313C152.644 31.4561 153.047 31.7227 153.31 32.1139C153.574 32.5051 153.705 33.0591 153.705 33.778V34.5513C153.658 34.5513 153.565 34.5536 153.421 34.5582C153.278 34.5628 153.128 34.5651 152.971 34.5651C152.815 34.5651 152.664 34.5674 152.521 34.572C152.379 34.5766 152.288 34.579 152.251 34.579C151.411 34.5974 150.652 34.6574 149.974 34.7578C149.296 34.8594 148.685 35.0152 148.14 35.2275C147.172 35.6141 146.438 36.16 145.939 36.864C145.441 37.5679 145.192 38.4635 145.192 39.5494C145.192 40.3319 145.31 40.9966 145.545 41.5448C145.781 42.093 146.099 42.5384 146.501 42.8835C146.901 43.2285 147.372 43.479 147.912 43.6359C148.451 43.7917 149.022 43.8702 149.621 43.8702C150.111 43.8702 150.638 43.8033 151.206 43.6705ZM149.11 41.5229C148.722 41.3671 148.431 41.097 148.237 40.715C148.043 40.333 147.947 39.9072 147.947 39.4375C147.947 38.9043 148.043 38.4531 148.237 38.0849C148.431 37.7168 148.723 37.4179 149.117 37.1871C149.508 36.9574 150 36.7936 150.591 36.6966C151.181 36.5997 151.878 36.5512 152.681 36.5512H153.705V40.4311C153.539 40.6065 153.312 40.7923 153.027 40.9897C152.741 41.1882 152.351 41.3648 151.857 41.5217C151.363 41.6787 150.872 41.756 150.383 41.756C149.921 41.7583 149.497 41.6798 149.11 41.5229ZM163.74 43.5944V35.8496C163.74 35.4076 163.823 34.9482 163.99 34.4693C164.155 33.9904 164.409 33.5542 164.751 33.1572C165.093 32.7613 165.517 32.437 166.024 32.1843C166.532 31.9316 167.131 31.8046 167.823 31.8046C168.257 31.8046 168.585 31.8323 168.807 31.8877V29.2923C168.557 29.2369 168.197 29.2092 167.727 29.2092C167.266 29.2092 166.785 29.2946 166.288 29.4642C165.789 29.635 165.309 29.9362 164.847 30.369C164.386 30.8018 163.995 31.3453 163.672 31.9985L163.616 29.2923H160.986V43.5955H163.74V43.5944ZM174.26 43.5944V36.5535C174.824 37.1063 175.439 37.7549 176.108 38.5004C176.777 39.2459 177.469 40.0745 178.185 40.9851C178.9 41.8956 179.548 42.7658 180.129 43.5944H183.576C183.105 42.8766 182.605 42.1472 182.074 41.4063C181.543 40.6654 180.994 39.943 180.428 39.239C179.859 38.535 179.276 37.8611 178.676 37.216C178.076 36.572 177.48 35.9915 176.89 35.4768L182.926 29.2923H179.618L174.26 34.8282V22.8169H171.506V43.5944H174.26ZM190.919 43.6705C191.487 43.5367 191.986 43.3578 192.414 43.1316C192.843 42.9066 193.196 42.655 193.474 42.3792L193.528 43.5944H196.131V33.7503C196.131 32.9217 196.023 32.2085 195.805 31.6107C195.589 31.0129 195.254 30.5202 194.802 30.1336C194.35 29.747 193.776 29.4619 193.079 29.2773C192.381 29.0938 191.559 29.0014 190.608 29.0014C190.128 29.0014 189.616 29.0268 189.071 29.0776C188.527 29.1284 188.079 29.1861 187.729 29.2496C187.378 29.3142 186.815 29.4481 186.041 29.65V31.8866C186.64 31.6754 187.267 31.4907 187.923 31.3338C188.578 31.178 189.293 31.0995 190.068 31.0995C190.686 31.0995 191.267 31.171 191.812 31.313C192.357 31.4561 192.761 31.7227 193.024 32.1139C193.286 32.5051 193.418 33.0591 193.418 33.778V34.5513C193.372 34.5513 193.277 34.5536 193.135 34.5582C192.991 34.5628 192.841 34.5651 192.685 34.5651C192.527 34.5651 192.378 34.5674 192.234 34.572C192.091 34.5766 192.001 34.579 191.965 34.579C191.125 34.5974 190.366 34.6574 189.688 34.7578C189.01 34.8594 188.398 35.0152 187.854 35.2275C186.884 35.6141 186.15 36.16 185.653 36.864C185.154 37.5679 184.905 38.4635 184.905 39.5494C184.905 40.3319 185.022 40.9966 185.258 41.5448C185.493 42.093 185.811 42.5384 186.213 42.8835C186.614 43.2285 187.085 43.479 187.625 43.6359C188.165 43.7917 188.734 43.8702 189.335 43.8702C189.823 43.8702 190.352 43.8033 190.919 43.6705ZM188.822 41.5229C188.435 41.3671 188.144 41.097 187.95 40.715C187.756 40.333 187.659 39.9072 187.659 39.4375C187.659 38.9043 187.756 38.4531 187.95 38.0849C188.144 37.7168 188.437 37.4179 188.829 37.1871C189.221 36.9574 189.713 36.7936 190.303 36.6966C190.893 36.5997 191.591 36.5512 192.394 36.5512H193.418V40.4311C193.251 40.6065 193.026 40.7923 192.74 40.9897C192.453 41.1882 192.063 41.3648 191.57 41.5217C191.076 41.6787 190.584 41.756 190.096 41.756C189.634 41.7583 189.21 41.6798 188.822 41.5229ZM207.087 43.6082C207.802 43.434 208.414 43.1662 208.921 42.8073C209.429 42.4484 209.821 41.9972 210.097 41.4548C210.374 40.9112 210.513 40.2765 210.513 39.5494C210.513 38.887 210.381 38.2742 210.118 37.7133C209.856 37.1525 209.408 36.6828 208.776 36.3054C208.143 35.928 207.274 35.5691 206.167 35.2287C205.631 35.0625 205.149 34.909 204.719 34.7659C204.291 34.6228 203.929 34.4693 203.633 34.3031C203.338 34.137 203.11 33.9488 202.948 33.7377C202.787 33.5265 202.706 33.268 202.706 32.9644C202.706 32.3666 202.932 31.92 203.384 31.6257C203.836 31.3315 204.538 31.1837 205.488 31.1837C206.291 31.1837 207.027 31.2414 207.697 31.3568C208.365 31.4723 208.999 31.6304 209.599 31.8335V29.5692C209.073 29.4134 208.464 29.2796 207.772 29.1688C207.08 29.058 206.263 29.0026 205.322 29.0026C204.528 29.0026 203.804 29.0949 203.149 29.2784C202.493 29.4631 201.935 29.7296 201.474 30.0793C201.012 30.429 200.654 30.8664 200.401 31.3915C200.148 31.9166 200.02 32.5144 200.02 33.186C200.02 33.8115 200.122 34.3412 200.325 34.774C200.528 35.2068 200.812 35.5749 201.176 35.8784C201.541 36.1819 201.97 36.4404 202.464 36.6516C202.957 36.864 203.495 37.0659 204.076 37.2587C204.565 37.4341 205.1 37.6129 205.682 37.7976C206.263 37.9822 206.745 38.2234 207.128 38.5223C207.511 38.8212 207.702 39.2194 207.702 39.7168C207.702 40.0203 207.627 40.3284 207.474 40.6412C207.323 40.9539 206.999 41.2055 206.506 41.3936C206.012 41.5829 205.35 41.6763 204.519 41.6763C204.002 41.6763 203.488 41.6394 202.976 41.5656C202.464 41.4917 202.014 41.3982 201.626 41.2828C201.239 41.1674 200.805 41.0139 200.325 40.82L199.591 42.8904C199.786 42.9827 200.039 43.0831 200.353 43.1939C200.666 43.3047 201.037 43.4109 201.467 43.5113C201.896 43.6128 202.381 43.6982 202.92 43.7663C203.46 43.8356 204.053 43.8702 204.7 43.8702C205.576 43.8702 206.372 43.7825 207.087 43.6082ZM220.389 43.6082C221.104 43.434 221.716 43.1662 222.224 42.8073C222.731 42.4484 223.123 41.9972 223.399 41.4548C223.677 40.9112 223.815 40.2765 223.815 39.5494C223.815 38.887 223.684 38.2742 223.42 37.7133C223.157 37.1525 222.71 36.6828 222.078 36.3054C221.446 35.928 220.576 35.5691 219.469 35.2287C218.933 35.0625 218.452 34.909 218.022 34.7659C217.593 34.6228 217.231 34.4693 216.936 34.3031C216.64 34.137 216.412 33.9488 216.251 33.7377C216.089 33.5265 216.008 33.268 216.008 32.9644C216.008 32.3666 216.235 31.92 216.686 31.6257C217.138 31.3315 217.84 31.1837 218.791 31.1837C219.594 31.1837 220.33 31.2414 220.998 31.3568C221.667 31.4723 222.301 31.6304 222.902 31.8335V29.5692C222.375 29.4134 221.767 29.2796 221.075 29.1688C220.383 29.058 219.566 29.0026 218.624 29.0026C217.83 29.0026 217.106 29.0949 216.451 29.2784C215.796 29.4631 215.237 29.7296 214.777 30.0793C214.315 30.429 213.958 30.8664 213.703 31.3915C213.45 31.9166 213.322 32.5144 213.322 33.186C213.322 33.8115 213.424 34.3412 213.628 34.774C213.83 35.2068 214.114 35.5749 214.478 35.8784C214.843 36.1819 215.272 36.4404 215.766 36.6516C216.259 36.864 216.797 37.0659 217.379 37.2587C217.867 37.4341 218.403 37.6129 218.984 37.7976C219.566 37.9822 220.047 38.2234 220.43 38.5223C220.813 38.8212 221.005 39.2194 221.005 39.7168C221.005 40.0203 220.929 40.3284 220.776 40.6412C220.625 40.9539 220.302 41.2055 219.808 41.3936C219.314 41.5829 218.652 41.6763 217.821 41.6763C217.305 41.6763 216.79 41.6394 216.279 41.5656C215.766 41.4917 215.316 41.3982 214.928 41.2828C214.541 41.1674 214.107 41.0139 213.628 40.82L212.894 42.8904C213.087 42.9827 213.341 43.0831 213.656 43.1939C213.969 43.3047 214.34 43.4109 214.77 43.5113C215.198 43.6128 215.683 43.6982 216.223 43.7663C216.762 43.8356 217.356 43.8702 218.002 43.8702C218.877 43.8702 219.673 43.7825 220.389 43.6082ZM236.155 43.8079C236.852 43.7202 237.5 43.5851 238.1 43.4005L237.56 41.3024C237.108 41.4317 236.582 41.5402 235.983 41.6267C235.382 41.7144 234.764 41.7583 234.128 41.7583C232.752 41.7583 231.714 41.374 231.013 40.6054C230.312 39.8368 229.906 38.7301 229.795 37.2852H238.945C238.982 36.8063 239 36.25 239 35.6153C239 33.4711 238.515 31.8231 237.546 30.6725C236.577 29.5219 235.138 28.9472 233.228 28.9472C232.204 28.9472 231.294 29.1295 230.5 29.4931C229.707 29.8566 229.042 30.3701 228.508 31.0326C227.972 31.695 227.566 32.489 227.289 33.4145C227.013 34.3401 226.874 35.3591 226.874 36.4727C226.874 37.6141 227.027 38.6447 227.331 39.5656C227.635 40.4865 228.081 41.2701 228.666 41.9199C229.253 42.5684 229.97 43.0681 230.82 43.4178C231.668 43.7675 232.637 43.9429 233.726 43.9429C234.648 43.9394 235.458 43.8956 236.155 43.8079ZM230.709 32.1081C231.271 31.3442 232.088 30.9622 233.158 30.9622C234.173 30.9622 234.918 31.2841 235.394 31.9281C235.869 32.5721 236.106 33.4838 236.106 34.662V35.3106H229.739C229.822 33.9396 230.145 32.8721 230.709 32.1081Z" fill="#FF0000"/>
<path d="M55.1363 76.2545L59.1086 60.6541L63.0809 76.2545H65.6554C66.006 75.3798 66.4214 74.2638 66.9015 72.9066C67.3817 71.5495 67.9209 69.8623 68.5215 67.8473C69.1208 65.8312 69.6566 63.837 70.1275 61.8624C70.5984 59.8878 70.9814 58.1371 71.2765 56.6092H68.3838C68.098 58.3945 67.6571 60.5595 67.0612 63.1053C66.4665 65.65 65.6288 68.5651 64.5492 71.8507L60.673 57.1204H57.7247L53.8346 71.8103C52.8198 68.4878 52.0075 65.5496 51.3989 62.9957C50.7903 60.4418 50.3147 58.3137 49.9734 56.6103H46.9141C47.1351 57.6317 47.385 58.7061 47.6615 59.8336C47.9381 60.9611 48.2285 62.1047 48.534 63.2646C48.8395 64.4244 49.1565 65.5888 49.4897 66.7579C49.8218 67.9269 50.1585 69.0683 50.4999 70.1819C50.8412 71.2956 51.1825 72.3654 51.5239 73.3913C51.8652 74.4173 52.2019 75.3728 52.534 76.2557H55.1363V76.2545ZM81.0423 75.9095C81.8129 75.4952 82.41 74.9435 82.8346 74.2522L82.8624 76.2545H85.5341V61.9513H82.7791V70.2904C82.7791 70.834 82.6865 71.3417 82.5025 71.8161C82.3174 72.2904 82.0617 72.707 81.7342 73.0659C81.4068 73.4248 81.0215 73.7075 80.5783 73.9153C80.1351 74.1218 79.6596 74.2257 79.1528 74.2257C78.2294 74.2257 77.5444 73.9914 77.0966 73.5217C76.6488 73.052 76.4255 72.2846 76.4255 71.216V61.9524H73.6844V71.8103C73.6844 73.3844 74.0859 74.565 74.8889 75.3509C75.6919 76.138 76.8317 76.5315 78.3081 76.5315C79.3599 76.5303 80.2717 76.3238 81.0423 75.9095ZM92.9394 81.9694V75.3844C93.3641 75.734 93.872 76.0122 94.4622 76.2199C95.0523 76.4265 95.7546 76.5303 96.5657 76.5303C97.5631 76.5303 98.446 76.3595 99.2166 76.0191C99.9872 75.6787 100.633 75.1836 101.155 74.535C101.677 73.8864 102.071 73.0878 102.338 72.1392C102.606 71.1917 102.74 70.115 102.74 68.909C102.74 67.74 102.58 66.5871 102.262 65.4503C101.944 64.3136 101.347 63.3984 100.47 62.7025C99.5927 62.0078 98.49 61.6604 97.1616 61.6604C96.5704 61.6604 95.9964 61.7458 95.4376 61.9155C94.8799 62.0863 94.3742 62.3621 93.923 62.7441C93.4705 63.1261 93.1199 63.5565 92.87 64.0343L92.8156 61.9501H90.1856V81.9682H92.9394V81.9694ZM94.3094 73.9487C93.8119 73.7098 93.3548 73.3821 92.9394 72.9689V69.2968C92.9394 68.5236 93.0158 67.8104 93.1685 67.1572C93.3201 66.504 93.5434 65.942 93.8396 65.4734C94.1347 65.0037 94.4992 64.6379 94.9331 64.3759C95.367 64.1139 95.8599 63.9824 96.4142 63.9824C97.0413 63.9824 97.6233 64.1416 98.1579 64.459C98.6936 64.7764 99.0997 65.3245 99.3763 66.1024C99.6528 66.8802 99.7917 67.8346 99.7917 68.9667C99.7917 69.4918 99.7593 69.9927 99.6945 70.4716C99.6297 70.9505 99.5325 71.3971 99.4041 71.8103C99.2837 72.1877 99.1044 72.5697 98.8637 72.9563C98.6242 73.3429 98.2528 73.6648 97.7494 73.9222C97.2461 74.1795 96.6629 74.3088 95.9988 74.3088C95.3716 74.3076 94.8081 74.1888 94.3094 73.9487ZM109.495 81.9694V75.3844C109.92 75.734 110.426 76.0122 111.018 76.2199C111.608 76.4265 112.309 76.5303 113.121 76.5303C114.118 76.5303 115.002 76.3595 115.772 76.0191C116.543 75.6787 117.188 75.1836 117.71 74.535C118.231 73.8864 118.626 73.0878 118.894 72.1392C119.161 71.1917 119.296 70.115 119.296 68.909C119.296 67.74 119.136 66.5871 118.818 65.4503C118.499 64.3136 117.901 63.3984 117.025 62.7025C116.148 62.0078 115.046 61.6604 113.716 61.6604C113.126 61.6604 112.552 61.7458 111.993 61.9155C111.434 62.0863 110.93 62.3621 110.477 62.7441C110.025 63.1261 109.674 63.5565 109.426 64.0343L109.37 61.9501H106.74V81.9682H109.495V81.9694ZM110.865 73.9487C110.366 73.7098 109.91 73.3821 109.495 72.9689V69.2968C109.495 68.5236 109.571 67.8104 109.723 67.1572C109.876 66.504 110.099 65.942 110.394 65.4734C110.69 65.0037 111.054 64.6379 111.487 64.3759C111.921 64.1139 112.415 63.9824 112.969 63.9824C113.597 63.9824 114.178 64.1416 114.713 64.459C115.248 64.7764 115.654 65.3245 115.932 66.1024C116.208 66.8802 116.346 67.8346 116.346 68.9667C116.346 69.4918 116.314 69.9927 116.25 70.4716C116.185 70.9505 116.088 71.3971 115.958 71.8103C115.839 72.1877 115.659 72.5697 115.419 72.9563C115.179 73.3429 114.807 73.6648 114.305 73.9222C113.802 74.1795 113.218 74.3088 112.554 74.3088C111.926 74.3076 111.364 74.1888 110.865 73.9487ZM131.926 76.468C132.623 76.3803 133.271 76.2453 133.87 76.0606L133.331 73.9626C132.879 74.0918 132.352 74.1992 131.753 74.2869C131.153 74.3746 130.534 74.4184 129.898 74.4184C128.523 74.4184 127.484 74.0341 126.783 73.2655C126.082 72.4969 125.676 71.3902 125.566 69.9453H134.715C134.752 69.4664 134.77 68.9102 134.77 68.2743C134.77 66.1301 134.286 64.4821 133.317 63.3315C132.349 62.1809 130.908 61.6062 128.998 61.6062C127.974 61.6062 127.065 61.7885 126.272 62.1521C125.478 62.5156 124.814 63.0291 124.278 63.6916C123.743 64.354 123.337 65.148 123.059 66.0735C122.783 66.9991 122.645 68.0181 122.645 69.1317C122.645 70.2731 122.797 71.3037 123.101 72.2246C123.405 73.1455 123.851 73.9291 124.438 74.5788C125.023 75.2274 125.74 75.7271 126.59 76.0768C127.439 76.4265 128.408 76.6007 129.496 76.6007C130.42 76.5996 131.229 76.5557 131.926 76.468ZM126.479 64.7683C127.042 64.0043 127.858 63.6223 128.929 63.6223C129.944 63.6223 130.689 63.9443 131.165 64.5883C131.639 65.2322 131.878 66.1439 131.878 67.3222V67.9708H125.51C125.594 66.5998 125.916 65.5323 126.479 64.7683ZM141.359 76.2545V68.5097C141.359 68.0677 141.442 67.6084 141.609 67.1295C141.774 66.6505 142.028 66.2132 142.37 65.8173C142.711 65.4215 143.136 65.0972 143.643 64.8445C144.151 64.5917 144.75 64.4648 145.442 64.4648C145.876 64.4648 146.204 64.4925 146.426 64.5479V61.9524C146.176 61.897 145.816 61.8693 145.346 61.8693C144.884 61.8693 144.404 61.9547 143.907 62.1244C143.408 62.2952 142.928 62.5964 142.466 63.0291C142.004 63.4619 141.613 64.0043 141.291 64.6587L141.235 61.9524H138.605V76.2557H141.359V76.2545ZM155.284 76.4196C155.819 76.3457 156.308 76.2453 156.752 76.116L156.267 74.0722C156.083 74.1368 155.819 74.1969 155.479 74.2522C155.136 74.3076 154.776 74.3353 154.398 74.3353C153.651 74.3353 153.123 74.1518 152.814 73.7826C152.504 73.4144 152.35 72.8166 152.35 71.988V64.0909H156.073V61.9513H152.35V57.5336C151.233 58.0944 150.319 58.4995 149.609 58.7488V61.9513H147.366V64.0909H149.609V72.2915C149.609 72.9539 149.685 73.5483 149.838 74.0722C149.989 74.5973 150.227 75.0416 150.551 75.4051C150.874 75.7687 151.289 76.0468 151.796 76.2407C152.304 76.4334 152.917 76.5303 153.637 76.5303C154.2 76.5303 154.749 76.4934 155.284 76.4196ZM164.317 76.3307C164.883 76.198 165.382 76.0179 165.811 75.7917C166.241 75.5667 166.594 75.3151 166.87 75.0393L166.926 76.2545H169.528V66.4105C169.528 65.5819 169.419 64.8687 169.203 64.2709C168.985 63.6731 168.651 63.1803 168.199 62.7937C167.747 62.4071 167.172 62.1221 166.476 61.9374C165.779 61.7539 164.955 61.6616 164.005 61.6616C163.525 61.6616 163.012 61.687 162.469 61.7378C161.924 61.7885 161.476 61.8462 161.125 61.9109C160.775 61.9755 160.212 62.1094 159.437 62.3113V64.5479C160.036 64.3367 160.664 64.152 161.32 63.9951C161.975 63.8393 162.69 63.7608 163.465 63.7608C164.083 63.7608 164.665 63.8324 165.209 63.9743C165.754 64.1174 166.157 64.384 166.42 64.7752C166.683 65.1664 166.815 65.7215 166.815 66.4393V67.2126C166.768 67.2126 166.674 67.2149 166.531 67.2195C166.388 67.2241 166.238 67.2264 166.081 67.2264C165.924 67.2264 165.774 67.2287 165.631 67.2333C165.489 67.238 165.398 67.2403 165.361 67.2403C164.521 67.2587 163.762 67.3187 163.084 67.4191C162.406 67.5207 161.795 67.6765 161.25 67.8888C160.282 68.2754 159.548 68.8213 159.049 69.5253C158.551 70.2292 158.302 71.1248 158.302 72.2107C158.302 72.9932 158.42 73.6579 158.655 74.2061C158.89 74.7543 159.209 75.1997 159.609 75.5448C160.011 75.8898 160.482 76.1403 161.022 76.2972C161.562 76.453 162.132 76.5315 162.731 76.5315C163.221 76.5303 163.748 76.4634 164.317 76.3307ZM162.219 74.183C161.831 74.0272 161.541 73.7572 161.347 73.3752C161.153 72.9932 161.057 72.5673 161.057 72.0976C161.057 71.5645 161.153 71.1132 161.347 70.7451C161.541 70.377 161.833 70.0781 162.226 69.8473C162.618 69.6176 163.11 69.4537 163.7 69.3568C164.291 69.2598 164.988 69.2114 165.791 69.2114H166.815V73.0913C166.649 73.2667 166.422 73.4525 166.137 73.6498C165.851 73.8483 165.461 74.0249 164.967 74.1807C164.473 74.3376 163.982 74.415 163.493 74.415C163.031 74.4184 162.606 74.34 162.219 74.183ZM177.044 76.2545V55.4771H172.421V57.2577C173.389 57.3593 174.013 57.4332 174.289 57.4782V76.2545H177.044V76.2545Z" fill="#FF0000"/>
<path d="M11.3788 8.57442C11.6646 9.23684 12.0568 9.81502 12.5555 10.3066C13.0542 10.7994 13.6374 11.1883 14.3062 11.4734C14.975 11.7584 15.6878 11.9015 16.4445 11.9015C17.2012 11.9015 17.9117 11.7596 18.5758 11.4734C19.24 11.1883 19.8197 10.7994 20.3126 10.3066C20.8067 9.81386 21.1966 9.23684 21.4824 8.57442C21.7682 7.91199 21.9117 7.20341 21.9117 6.44866C21.9117 5.69391 21.7682 4.98533 21.4824 4.3229C21.1966 3.66048 20.8067 3.0823 20.3126 2.59068C19.8186 2.0979 19.24 1.70898 18.5758 1.42393C17.9117 1.13773 17.2012 0.994629 16.4445 0.994629C15.6878 0.994629 14.975 1.13773 14.3062 1.42278C13.6374 1.70783 13.0531 2.09674 12.5555 2.58952C12.0568 3.0823 11.6646 3.65932 11.3788 4.32175C11.093 4.98417 10.9495 5.69276 10.9495 6.44751C10.9495 7.20225 11.0918 7.91084 11.3788 8.57442ZM5.46722 43.6263H27.4345C28.1912 43.6263 28.904 43.4832 29.5728 43.1982C30.2416 42.9131 30.8236 42.5242 31.3165 42.0314C31.8106 41.5386 32.2005 40.9616 32.4863 40.2992C32.7721 39.6368 32.9156 38.9282 32.9156 38.1734V26.1217H7.65412V22.85H32.9156V20.6688C32.9156 19.9141 32.7721 19.2055 32.4863 18.5431C32.2005 17.8807 31.8106 17.3025 31.3165 16.8109C30.8224 16.3181 30.2416 15.9292 29.5728 15.6441C28.904 15.3591 28.1912 15.216 27.4345 15.216H5.46722C4.71049 15.216 4.00004 15.3591 3.33588 15.6441C2.67171 15.9292 2.09201 16.3181 1.59909 16.8109C1.10502 17.3036 0.715079 17.8807 0.429279 18.5431C0.143479 19.2055 0 19.9141 0 20.6688V32.7079H25.2059V35.9934H0V38.1746C0 38.9293 0.143479 39.6379 0.429279 40.3003C0.715079 40.9628 1.10502 41.541 1.59909 42.0326C2.09201 42.5254 2.67171 42.9143 3.33588 43.1993C4.00004 43.4844 4.71049 43.6263 5.46722 43.6263Z" fill="#FF0000"/>
</svg>
