<svg width="971" height="1000" viewBox="0 0 971 1000" fill="none" xmlns="http://www.w3.org/2000/svg">
<path d="M1501.89 443C1501.89 653.613 1445.86 844.265 1355.29 982.248C1264.72 1120.24 1139.66 1205.5 1001.59 1205.5C863.525 1205.5 738.463 1120.24 647.895 982.248C557.329 844.265 501.297 653.613 501.297 443C501.297 232.387 557.329 41.7352 647.895 -96.2481C738.463 -234.236 863.525 -319.5 1001.59 -319.5C1139.66 -319.5 1264.72 -234.236 1355.29 -96.2481C1445.86 41.7352 1501.89 232.387 1501.89 443Z" stroke="#DCDCDC"/>
<path d="M1001.09 443C1001.09 653.613 945.06 844.265 854.495 982.248C763.927 1120.24 638.865 1205.5 500.796 1205.5C362.728 1205.5 237.666 1120.24 147.098 982.248C56.5323 844.265 0.5 653.613 0.5 443C0.5 232.387 56.5323 41.7352 147.098 -96.2481C237.666 -234.236 362.728 -319.5 500.796 -319.5C638.865 -319.5 763.927 -234.236 854.495 -96.2481C945.06 41.7352 1001.09 232.387 1001.09 443Z" stroke="#DCDCDC"/>
</svg>
