<svg width="166" height="64" viewBox="0 0 166 64" fill="none" xmlns="http://www.w3.org/2000/svg">
<path d="M144.316 52.0525C144.316 46.4804 148.768 41.9634 154.259 41.9634C159.751 41.9634 164.202 46.4804 164.202 52.0525C164.202 57.6247 159.751 62.1416 154.259 62.1416C148.768 62.1416 144.316 57.6247 144.316 52.0525Z" fill="#D60025"/>
<path fill-rule="evenodd" clip-rule="evenodd" d="M138.987 62.186H1.80078V2.75244H154.233V36.8303C145.907 36.8303 139.184 43.6022 139.184 52.0502C139.184 55.9051 140.589 59.4964 142.908 62.1864L138.987 62.186Z" fill="#005282"/>
<path fill-rule="evenodd" clip-rule="evenodd" d="M74.2959 11.2017C66.0488 11.2017 60.3485 16.2296 60.3485 23.4595C60.3485 25.6796 60.8932 27.7127 61.9592 29.4771C63.3617 31.8684 65.7757 33.4099 69.6467 34.4917L73.9664 35.6803C77.4447 36.5911 79.0548 38.2447 79.0548 40.8064C79.0548 44.3359 76.6975 46.2296 72.2092 46.2296C68.2823 46.2296 65.1664 44.9707 61.5199 43.0351L58.5913 49.2383C62.5184 51.5153 67.4478 52.8414 71.8798 52.8414C81.5856 52.8414 87.987 47.5328 87.987 39.5062C87.987 33.6429 84.4988 29.4957 78.103 27.7313L73.4173 26.4312C70.1633 25.5203 69.0976 24.4686 69.0976 22.4195C69.0976 19.7438 71.3175 17.8878 74.5155 17.8878C77.4327 17.8878 80.0961 18.7331 83.6307 20.8966L87.3281 15.2133C83.9059 12.7086 79.0646 11.2017 74.2959 11.2017ZM10.5625 12.4275L19.8974 52.3214H28.793L32.0144 36.0889C33.1366 30.2821 33.918 24.7225 33.918 24.7225C33.9741 25.0641 34.4021 30.0521 35.7483 36.2004L39.226 52.3214H47.8288L57.2368 12.4275H49.0002L45.8154 27.4341C45.1422 30.7357 43.8043 39.3313 43.6921 40.5835C43.6921 40.5835 42.7376 33.8085 42.0082 30.1086L38.3841 12.4275H29.818L26.3403 28.3999C25.1621 33.8647 24.4951 39.4922 24.3269 41.0292C24.3269 41.0292 23.8672 35.4288 22.2402 28.0285L18.8724 12.4275H10.5625ZM90.6593 12.4275L99.9942 52.3214H108.89L112.111 36.0889C113.233 30.2821 114.015 24.7225 114.015 24.7225C114.071 25.0641 114.499 30.0521 115.845 36.2004L119.323 52.3214H127.926L137.334 12.4275H129.097L125.912 27.4341C125.239 30.7357 123.865 39.3313 123.752 40.5835C123.752 40.5835 122.798 33.8085 122.068 30.1086L118.481 12.4275H109.915L106.437 28.3999C105.259 33.8647 104.592 39.4922 104.424 41.0292C104.424 41.0292 103.964 35.4288 102.337 28.0285L98.9692 12.4275H90.6593Z" fill="white"/>
</svg>
