<svg width="182" height="66" viewBox="0 0 182 66" fill="none" xmlns="http://www.w3.org/2000/svg">
<path d="M46.9752 15.0332C53.8335 15.0332 60.6918 15.0332 67.6191 15.0332C67.6191 15.3099 67.6536 15.5865 67.6536 15.8632C67.6536 26.5836 67.6536 37.2695 67.6536 47.99C67.6536 50.2032 67.4123 52.3819 66.8609 54.526C65.4823 59.8862 61.967 63.137 56.763 64.624C53.4889 65.5577 50.1114 65.6269 46.7339 65.3502C43.3565 65.0735 40.0824 64.3127 36.8772 63.2407C36.6015 63.137 36.2913 63.0332 36.0156 62.8949C36.0156 60.9237 36.0156 58.9525 36.0156 56.8776C36.3258 56.9813 36.5326 57.0851 36.7738 57.1542C39.9445 58.5029 43.1497 59.6787 46.5616 60.1975C48.8018 60.5433 51.0419 60.5779 53.2476 59.99C57.0387 59.0217 59.072 56.7738 59.5545 52.9006C59.7613 51.2407 59.8992 49.5462 59.8992 47.8516C59.9336 39.1369 59.8992 30.4223 59.8992 21.7076C59.8992 21.3617 59.8992 21.0505 59.8992 20.6009C55.5912 20.6009 51.3521 20.6009 47.0096 20.6009C46.9752 18.6989 46.9752 16.9006 46.9752 15.0332Z" fill="#E9EFFF"/>
<path d="M28.3289 53.1077C26.3644 53.1077 24.5034 53.1077 22.5044 53.1077C20.1264 44.1509 17.7484 35.1941 15.3359 26.2028C15.5427 26.1682 15.6461 26.099 15.784 26.099C17.4727 26.099 19.1614 26.099 20.8502 26.0645C21.4016 26.0645 21.4361 26.4103 21.5395 26.7907C22.5389 30.5255 23.5384 34.2604 24.5034 37.9953C24.8825 39.3786 25.2271 40.7619 25.6062 42.1451C25.6751 42.3872 25.7441 42.6293 25.8819 43.0443C26.0542 42.6293 26.1576 42.3872 26.2266 42.1451C27.9153 37.0616 29.5696 31.978 31.2583 26.929C31.534 26.099 31.534 26.099 32.4301 26.099C33.5674 26.099 34.7392 26.1336 35.8765 26.099C36.4279 26.0645 36.6691 26.2719 36.8415 26.7907C38.5302 31.9434 40.2534 37.0962 41.9766 42.2489C42.0455 42.491 42.1489 42.733 42.3557 42.9751C42.4936 42.5255 42.597 42.076 42.7348 41.6264C44.0444 36.7157 45.3541 31.7705 46.6292 26.8598C46.7671 26.2719 47.0083 26.0645 47.6287 26.099C49.1107 26.1336 50.5926 26.099 52.0746 26.099C52.3158 26.099 52.5226 26.1336 52.8328 26.1336C52.7638 26.4449 52.7294 26.6869 52.6604 26.929C50.4203 35.4016 48.1801 43.8397 45.94 52.3123C45.7332 53.1423 45.7332 53.1423 44.8716 53.1423C43.2173 53.1423 41.563 53.1423 39.8743 53.1423C37.9443 47.4362 36.0488 41.7647 34.1533 36.0933C34.0843 36.0933 34.0154 36.0933 33.981 36.0933C32.0854 41.7302 30.2244 47.4016 28.3289 53.1077Z" fill="#E9EFFF"/>
<path d="M0.0344638 15.0664C7.03065 15.0664 13.9235 15.0664 20.8852 15.0664C20.8852 16.8647 20.8852 18.5938 20.8852 20.4266C20.5405 20.4612 20.2648 20.4612 19.9547 20.4612C16.1636 20.4612 12.3726 20.4612 8.616 20.4612C7.61654 20.4612 7.61654 20.4612 7.61654 21.4987C7.61654 32.98 7.61654 44.4266 7.61654 55.9079C7.61654 56.9454 7.61654 56.9454 8.616 56.9454C12.407 56.9454 16.1981 56.9454 19.9547 56.9454C20.2648 56.9454 20.5405 56.9799 20.8852 56.9799C20.8852 58.9165 20.8852 60.7494 20.8852 62.686C20.575 62.7206 20.2993 62.7552 20.0236 62.7552C13.6477 62.7552 7.2719 62.7552 0.930528 62.7552C-8.21686e-08 62.7552 0 62.7552 0 61.8214C0 46.5016 0 31.1817 0 15.8964C0 15.6543 0.0344638 15.4122 0.0344638 15.0664Z" fill="#E9EFFF"/>
<path d="M79.3025 27.7246C78.9923 28.9696 78.6822 30.2491 78.3375 31.5287C77.855 31.5287 77.4415 31.5287 76.9245 31.5287C76.4075 29.5229 75.8561 27.5171 75.3047 25.4076C75.7872 25.4076 76.2008 25.4076 76.6832 25.4076C76.9934 26.6526 77.3036 27.8975 77.5793 29.1425C77.6138 29.1425 77.6827 29.1425 77.7172 29.1425C78.0618 27.8975 78.372 26.6526 78.7166 25.373C79.1646 25.373 79.5782 25.373 80.0262 25.373C80.3709 26.6872 80.6811 27.9667 81.0257 29.2462C81.0602 29.2462 81.0946 29.2462 81.1291 29.2462C81.4393 27.9667 81.7494 26.6872 82.0596 25.373C82.5077 25.373 82.8868 25.373 83.4382 25.373C82.8868 27.448 82.3353 29.4883 81.7839 31.5287C81.3014 31.5287 80.8534 31.5287 80.3709 31.5287C80.0607 30.2491 79.7161 28.9696 79.4059 27.7246C79.4059 27.7246 79.3714 27.7246 79.3025 27.7246Z" fill="#E9EFFF"/>
<path d="M79.3696 17.6941C79.1284 18.6278 78.9216 19.5615 78.6803 20.4952C78.4391 21.429 78.4391 21.429 77.5086 21.3944C77.3707 21.3944 77.2673 21.3598 77.0261 21.3598C76.5091 19.354 75.9577 17.3483 75.4062 15.2733C75.9232 15.2733 76.3023 15.2733 76.7848 15.2733C77.0605 16.4491 77.3707 17.6595 77.6464 18.8353C77.7153 18.8353 77.7498 18.8353 77.8187 18.8353C77.9911 18.2128 78.1634 17.5903 78.3012 16.9679C78.4046 16.622 78.508 16.2762 78.5425 15.9304C78.6114 15.3425 78.9216 15.135 79.473 15.2042C79.6453 15.2388 79.8176 15.2388 80.0589 15.2733C80.3691 16.4837 80.6793 17.7287 80.9894 18.939C81.0239 18.939 81.0928 18.939 81.1273 18.939C81.4375 17.7287 81.7132 16.4837 82.0233 15.2388C82.4714 15.2388 82.8849 15.2388 83.4019 15.2388C82.8849 17.2099 82.368 19.112 81.851 21.014C81.7132 21.5327 81.2996 21.3252 80.955 21.3598C80.6448 21.3944 80.3691 21.3598 80.2657 20.9448C80.0934 20.1494 79.8866 19.354 79.6798 18.5586C79.6109 18.282 79.5075 17.9707 79.4385 17.6941C79.473 17.7287 79.4041 17.7287 79.3696 17.6941Z" fill="#E9EFFF"/>
<path d="M177.97 21.3608C177.488 21.3608 177.109 21.3608 176.695 21.3608C176.695 19.3205 176.695 17.3493 176.695 15.3781C177.867 15.0669 177.97 15.136 178.591 16.1043C179.177 17.0381 179.763 17.9718 180.314 18.9055C180.383 18.9055 180.452 18.8709 180.486 18.8709C180.486 17.6951 180.486 16.5193 180.486 15.309C181.003 15.309 181.348 15.309 181.796 15.309C181.796 17.3147 181.796 19.3205 181.796 21.2917C180.797 21.6375 180.555 21.5337 180.004 20.6692C179.384 19.6663 178.763 18.698 178.143 17.6951C178.074 17.6951 178.005 17.7297 177.936 17.7297C177.97 18.9401 177.97 20.1159 177.97 21.3608Z" fill="#E9EFFF"/>
<path d="M111.561 28.622C112.492 29.3828 112.147 30.5241 112.457 31.5269C112.009 31.5269 111.561 31.5269 111.079 31.5269C111.044 31.1465 110.975 30.7661 110.941 30.3857C110.837 29.3828 110.596 29.1408 109.597 29.1408C109.287 29.1408 109.011 29.1408 108.597 29.1408C108.597 30.0053 108.597 30.7661 108.597 31.5269C108.08 31.5269 107.701 31.5269 107.219 31.5269C107.219 29.4866 107.219 27.4808 107.219 25.4059C108.528 25.4059 109.838 25.2676 111.113 25.4405C112.285 25.5788 112.767 27.1696 112.009 28.1379C111.871 28.3108 111.734 28.4491 111.561 28.622ZM108.632 28.1033C109.252 28.1033 109.804 28.1379 110.321 28.1033C110.769 28.0687 110.941 27.6883 110.941 27.2733C110.941 26.8238 110.7 26.5471 110.252 26.5125C109.735 26.4779 109.218 26.5125 108.632 26.5125C108.632 27.0658 108.632 27.55 108.632 28.1033Z" fill="#E9EFFF"/>
<path d="M169.356 18.4556C170.356 19.251 169.977 20.3576 170.287 21.3605C169.839 21.3605 169.46 21.3605 168.977 21.3605C168.908 21.153 168.839 20.8764 168.805 20.6343C168.667 19.1127 168.495 18.9744 166.978 19.0089C166.84 19.0089 166.737 19.0435 166.53 19.0435C166.496 19.8389 166.461 20.5997 166.427 21.3951C165.944 21.3951 165.565 21.3951 165.117 21.3951C165.117 19.3548 165.117 17.3836 165.117 15.2741C165.841 15.2741 166.53 15.2741 167.254 15.2741C167.633 15.2741 168.012 15.2741 168.391 15.2741C169.184 15.2395 169.804 15.5507 170.08 16.3115C170.356 17.0378 170.252 17.7294 169.666 18.2827C169.563 18.3173 169.494 18.3519 169.356 18.4556ZM166.496 17.9369C167.082 17.9369 167.599 17.9715 168.116 17.9369C168.598 17.9023 168.77 17.5911 168.77 17.1415C168.77 16.6919 168.564 16.3807 168.116 16.3461C167.599 16.3115 167.082 16.3461 166.496 16.3461C166.496 16.934 166.496 17.349 166.496 17.9369Z" fill="#E9EFFF"/>
<path d="M153.297 18.9392C153.297 17.7288 153.297 16.5531 153.297 15.3081C153.711 15.3081 154.09 15.3081 154.504 15.3081C154.504 17.3484 154.504 19.3196 154.504 21.2908C153.401 21.602 153.297 21.5329 152.746 20.6683C152.126 19.6654 151.505 18.6626 150.885 17.6943C150.885 17.6597 150.851 17.6597 150.713 17.5905C150.713 18.8701 150.713 20.0804 150.713 21.36C150.23 21.36 149.886 21.36 149.438 21.36C149.438 19.3542 149.438 17.3484 149.438 15.3427C150.678 15.1006 150.713 15.1352 151.333 16.1035C151.919 17.0718 152.539 18.0401 153.16 19.0084C153.194 18.9738 153.263 18.9738 153.297 18.9392Z" fill="#E9EFFF"/>
<path d="M90.8797 18.4912C91.8792 19.2521 91.4311 20.3587 91.8102 21.3616C91.5001 21.3961 91.2588 21.3961 91.0176 21.4307C90.5695 21.4653 90.3283 21.2924 90.3283 20.8428C90.3283 20.5662 90.2593 20.2895 90.2249 20.0129C90.1215 19.2866 89.8802 19.0446 89.1565 19.01C88.8119 18.9754 88.4328 19.01 87.9847 19.01C87.9847 19.8054 87.9847 20.6008 87.9847 21.3961C87.4678 21.3961 87.0887 21.3961 86.6406 21.3961C86.6406 19.3558 86.6406 17.35 86.6406 15.3097C87.8813 15.3097 89.122 15.2405 90.3283 15.3443C91.5345 15.448 92.1204 17.0042 91.3967 18.0071C91.2243 18.1454 91.052 18.2838 90.8797 18.4912ZM87.9503 17.9379C88.5361 17.9379 89.0876 17.9725 89.6045 17.9379C90.0526 17.9034 90.2249 17.5575 90.2249 17.108C90.1904 16.693 90.0181 16.4163 89.5701 16.3817C89.0531 16.3472 88.5017 16.3817 87.9503 16.3817C87.9503 16.9005 87.9503 17.35 87.9503 17.9379Z" fill="#E9EFFF"/>
<path d="M105.977 27.7924C105.977 28.2766 105.977 28.5532 105.977 28.9336C105.012 28.9336 104.116 28.9336 103.116 28.9336C103.116 29.4178 103.116 29.8328 103.116 30.3515C104.15 30.3515 105.184 30.3515 106.287 30.3515C106.287 30.8011 106.287 31.1469 106.287 31.5273C104.77 31.5273 103.254 31.5273 101.703 31.5273C101.703 29.4869 101.703 27.4812 101.703 25.4062C103.22 25.4062 104.736 25.4062 106.252 25.4062C106.252 25.7521 106.252 26.0979 106.252 26.5129C105.218 26.5129 104.185 26.5129 103.082 26.5129C103.082 26.9624 103.082 27.3083 103.082 27.7578C104.081 27.7924 105.012 27.7924 105.977 27.7924Z" fill="#E9EFFF"/>
<path d="M158.188 18.3523C158.188 16.2774 159.463 14.9978 161.462 15.1016C162.668 15.1707 163.598 15.7586 163.943 16.9344C164.15 17.6261 164.219 18.456 164.115 19.1823C163.84 20.8076 162.461 21.7068 160.772 21.5338C159.187 21.3264 158.188 20.0814 158.188 18.3523ZM162.84 18.2831C162.806 18.0065 162.771 17.7298 162.668 17.4532C162.427 16.6923 161.875 16.2428 161.186 16.2428C160.497 16.2428 159.876 16.6578 159.704 17.4532C159.601 17.9719 159.566 18.5598 159.669 19.1131C159.842 19.9431 160.428 20.3581 161.186 20.3581C161.91 20.3581 162.427 19.9085 162.668 19.1477C162.771 18.871 162.806 18.5944 162.84 18.2831Z" fill="#E9EFFF"/>
<path d="M171.219 15.2754C172.804 15.2754 174.252 15.2754 175.734 15.2754C175.734 15.6212 175.734 15.9325 175.734 16.382C174.7 16.382 173.7 16.382 172.632 16.382C172.632 16.8316 172.632 17.1774 172.632 17.627C173.597 17.627 174.493 17.627 175.492 17.627C175.492 18.042 175.492 18.3532 175.492 18.7336C174.562 18.7336 173.631 18.7336 172.666 18.7336C172.666 19.2523 172.666 19.6673 172.666 20.1861C173.7 20.1861 174.734 20.1861 175.802 20.1861C175.802 20.6356 175.802 20.9814 175.802 21.3618C174.252 21.3618 172.77 21.3618 171.219 21.3618C171.219 19.3215 171.219 17.3157 171.219 15.2754Z" fill="#E9EFFF"/>
<path d="M111.216 15.3086C111.216 16.0694 111.216 16.761 111.216 17.5219C112.043 17.5219 112.801 17.5219 113.628 17.5219C113.628 16.7956 113.628 16.0694 113.628 15.3086C114.111 15.3086 114.524 15.3086 115.007 15.3086C115.007 17.3489 115.007 19.3201 115.007 21.3605C114.559 21.3605 114.18 21.3605 113.663 21.3605C113.663 20.5305 113.663 19.7005 113.663 18.8014C112.801 18.8014 112.077 18.8014 111.25 18.8014C111.25 19.6314 111.25 20.4613 111.25 21.3605C110.733 21.3605 110.354 21.3605 109.906 21.3605C109.906 19.3547 109.906 17.3489 109.906 15.3086C110.32 15.3086 110.699 15.3086 111.216 15.3086Z" fill="#E9EFFF"/>
<path d="M143.128 15.3094C143.611 15.3094 143.99 15.3094 144.507 15.3094C144.507 16.2085 144.507 17.0731 144.507 17.9376C144.507 18.3526 144.507 18.7676 144.507 19.148C144.541 20.0126 144.92 20.3584 145.748 20.3238C146.506 20.3238 146.885 19.978 146.885 19.1826C146.919 18.1451 146.885 17.1423 146.885 16.1048C146.885 15.8281 146.919 15.5515 146.919 15.2402C147.367 15.2402 147.781 15.2402 148.263 15.2402C148.263 15.5515 148.298 15.8281 148.298 16.1048C148.298 17.1077 148.332 18.1106 148.298 19.0789C148.263 20.5659 147.505 21.3613 146.058 21.465C145.644 21.4996 145.231 21.465 144.851 21.3959C143.852 21.2229 143.197 20.635 143.128 19.5976C143.059 18.2489 143.128 16.7964 143.128 15.3094Z" fill="#E9EFFF"/>
<path d="M83.9522 25.4062C84.4347 25.4062 84.8483 25.4062 85.3308 25.4062C85.3308 26.0979 85.3308 26.7204 85.3308 27.3428C85.3308 27.9653 85.3308 28.6224 85.3308 29.2449C85.3652 30.3169 86.1924 30.8356 87.1918 30.4552C87.7088 30.2477 87.8122 29.7982 87.8122 29.314C87.8122 28.3111 87.8122 27.3083 87.8122 26.34C87.8122 26.0633 87.8122 25.7867 87.8122 25.4408C88.2947 25.4408 88.7082 25.4408 89.1218 25.4408C89.1218 26.997 89.1218 28.5186 89.1218 30.0403C89.1218 30.2477 88.984 30.4898 88.8806 30.6627C88.3636 31.5273 87.0884 31.9423 85.8133 31.6656C84.6759 31.4235 84.0211 30.7665 83.9867 29.6253C83.8833 28.242 83.9522 26.8587 83.9522 25.4062Z" fill="#E9EFFF"/>
<path d="M132.309 19.3204C132.757 19.3204 133.136 19.3204 133.515 19.3204C133.997 20.2887 134.376 20.4962 135.272 20.3579C135.652 20.2887 135.996 20.185 136.065 19.77C136.134 19.3204 135.789 19.1129 135.445 19.0092C134.824 18.8017 134.17 18.6634 133.549 18.4213C132.619 18.0755 132.205 17.2455 132.584 16.3809C132.757 16.0005 133.067 15.5855 133.446 15.378C134.411 14.8593 135.41 14.8939 136.375 15.4126C136.996 15.7239 137.271 16.2772 137.202 17.038C136.789 17.038 136.41 17.038 135.996 17.038C135.789 16.3118 135.238 16.0351 134.549 16.208C134.308 16.2772 134.101 16.5538 133.859 16.7268C134.032 16.9342 134.17 17.2455 134.411 17.3492C134.928 17.5567 135.479 17.6605 136.031 17.8334C137.03 18.1446 137.547 18.7671 137.513 19.6317C137.478 20.4962 136.858 21.2224 135.893 21.4299C135.1 21.6028 134.308 21.6028 133.549 21.257C132.757 20.9112 132.309 20.3233 132.309 19.3204Z" fill="#E9EFFF"/>
<path d="M97.3281 19.3205C97.7762 19.3205 98.1553 19.3205 98.5344 19.3205C99.0858 20.2888 99.6717 20.6001 100.533 20.3234C100.775 20.2543 101.085 19.9776 101.085 19.8047C101.085 19.5626 100.843 19.2168 100.637 19.113C100.016 18.871 99.3615 18.7326 98.7411 18.4906C97.8106 18.1447 97.466 17.626 97.5349 16.6923C97.6038 16.0007 98.0174 15.5857 98.6033 15.309C99.3615 14.9632 100.154 14.9978 100.912 15.2053C101.74 15.4473 102.222 16.0352 102.291 17.0381C101.877 17.0727 101.498 17.0727 101.016 17.1073C100.809 16.3119 100.258 16.0352 99.4993 16.2081C99.2581 16.2773 98.9824 16.554 98.9135 16.796C98.879 16.9344 99.1892 17.2802 99.396 17.3494C99.9129 17.5569 100.464 17.6606 101.016 17.8335C102.084 18.1793 102.532 18.7672 102.498 19.7009C102.429 20.5655 101.808 21.2917 100.843 21.4301C100.154 21.4992 99.396 21.4992 98.7411 21.3263C97.8451 21.0842 97.3626 20.3926 97.3281 19.3205Z" fill="#E9EFFF"/>
<path d="M90.3633 25.3725C91.4317 25.3725 92.4311 25.3034 93.4306 25.3725C94.6024 25.4417 95.2572 26.2371 95.2572 27.3437C95.2572 28.4849 94.5334 29.2457 93.3617 29.3149C92.8447 29.3495 92.3622 29.3149 91.7418 29.3149C91.7074 30.0757 91.6729 30.7673 91.6385 31.4936C91.1904 31.4936 90.8113 31.4936 90.3633 31.4936C90.3633 29.4878 90.3633 27.482 90.3633 25.3725ZM91.7418 28.2774C92.3277 28.2429 92.8102 28.2429 93.2927 28.1737C93.7408 28.1045 93.9131 27.7241 93.8786 27.3091C93.8786 26.9287 93.6718 26.5829 93.2583 26.5483C92.7758 26.4792 92.2588 26.4792 91.7418 26.4792C91.7418 27.1016 91.7418 27.6204 91.7418 28.2774Z" fill="#E9EFFF"/>
<path d="M96.0156 25.3725C97.1185 25.3725 98.1524 25.3034 99.1518 25.3725C100.255 25.4763 100.91 26.2371 100.91 27.3091C100.91 28.4158 100.22 29.1766 99.0829 29.2803C98.566 29.3149 98.0145 29.2803 97.3942 29.2803C97.3597 30.0757 97.3253 30.7328 97.2908 31.459C96.8772 31.459 96.4637 31.459 96.0156 31.459C96.0156 29.4878 96.0156 27.482 96.0156 25.3725ZM97.3942 28.2774C97.9801 28.2429 98.4626 28.2429 98.9106 28.1737C99.3586 28.1045 99.5999 27.7587 99.5309 27.3437C99.462 27.0325 99.2208 26.6521 98.9451 26.5483C98.4626 26.41 97.9111 26.4446 97.3942 26.4446C97.3942 27.1016 97.3942 27.6204 97.3942 28.2774Z" fill="#E9EFFF"/>
<path d="M123.036 31.5283C122.553 31.5283 122.14 31.5283 121.657 31.5283C121.485 31.1133 121.347 30.6638 121.14 30.2142C120.417 30.2142 119.658 30.2142 118.9 30.2142C118.728 30.6292 118.555 31.0787 118.383 31.5283C117.935 31.5283 117.522 31.5283 117.039 31.5283C117.074 31.3554 117.108 31.1825 117.142 31.0442C117.797 29.3151 118.452 27.6205 119.072 25.8914C119.245 25.4073 119.555 25.3035 120.003 25.3381C120.451 25.3381 120.761 25.3727 120.933 25.8914C121.554 27.6205 122.209 29.3496 122.829 31.0787C122.967 31.2171 123.001 31.3554 123.036 31.5283ZM120.141 27.171C120.072 27.171 120.037 27.2055 119.969 27.2055C119.762 27.828 119.555 28.4159 119.314 29.073C119.831 29.073 120.279 29.073 120.796 29.073C120.554 28.4159 120.348 27.7934 120.141 27.171Z" fill="#E9EFFF"/>
<path d="M121.451 21.3607C121.176 21.3607 120.969 21.3607 120.727 21.3953C120.245 21.4644 119.935 21.2915 119.866 20.7728C119.763 20.0812 119.349 20.012 118.729 19.9774C117.695 19.9082 116.971 20.1157 116.936 21.3261C116.42 21.3261 116.006 21.3261 115.523 21.3261C115.592 21.084 115.627 20.8765 115.696 20.7036C116.316 19.0783 116.936 17.4529 117.522 15.8276C117.695 15.3088 117.97 15.2051 118.487 15.2051C118.97 15.2051 119.28 15.2742 119.452 15.8276C120.038 17.4875 120.659 19.1474 121.279 20.8074C121.348 20.9803 121.382 21.1532 121.451 21.3607ZM118.591 17.1071C118.522 17.1071 118.487 17.1071 118.418 17.1071C118.212 17.695 118.005 18.3175 117.764 18.9745C118.315 18.9745 118.694 18.9745 119.211 18.9745C118.97 18.2829 118.763 17.695 118.591 17.1071Z" fill="#E9EFFF"/>
<path d="M107.494 19.009C107.942 19.009 108.356 19.009 108.77 19.009C108.701 20.254 108.011 21.1531 106.874 21.4297C105.564 21.741 104.255 21.2568 103.6 20.1848C102.876 19.0436 102.945 17.2799 103.738 16.1733C104.531 15.1012 105.633 14.8937 106.805 15.1012C107.805 15.2741 108.494 15.8966 108.735 16.9341C108.735 17.0032 108.735 17.0724 108.735 17.1761C108.149 17.2453 107.598 17.4182 107.15 16.692C106.633 15.8966 105.392 16.0003 104.875 16.8303C104.358 17.6949 104.358 18.594 104.806 19.4586C105.082 20.0119 105.599 20.254 106.185 20.2194C106.736 20.1848 107.15 19.8735 107.357 19.3548C107.391 19.3548 107.426 19.1819 107.494 19.009Z" fill="#E9EFFF"/>
<path d="M123.382 17.7639C124.209 17.7639 124.967 17.7639 125.76 17.7639C125.76 18.1443 125.76 18.4556 125.76 18.836C124.967 18.836 124.209 18.836 123.347 18.836C123.347 19.7005 123.347 20.4959 123.347 21.3605C122.83 21.3605 122.451 21.3605 121.969 21.3605C121.969 19.3547 121.969 17.3489 121.969 15.3086C123.347 15.3086 124.726 15.3086 126.139 15.3086C126.139 15.6198 126.139 15.9311 126.139 16.3806C125.243 16.3806 124.312 16.3806 123.347 16.3806C123.382 16.8648 123.382 17.2452 123.382 17.7639Z" fill="#E9EFFF"/>
<path d="M117.728 25.4062C117.728 25.8212 117.728 26.1325 117.728 26.5475C117.107 26.5475 116.556 26.5475 115.901 26.5475C115.901 28.242 115.901 29.8673 115.901 31.5273C115.419 31.5273 115.005 31.5273 114.523 31.5273C114.523 29.9019 114.523 28.3111 114.523 26.6166C113.868 26.582 113.351 26.5475 112.73 26.5129C112.73 26.1671 112.73 25.8212 112.73 25.4408C114.385 25.4062 116.005 25.4062 117.728 25.4062Z" fill="#E9EFFF"/>
<path d="M140.614 15.3086C141.131 15.3086 141.51 15.3086 141.993 15.3086C142.027 15.5507 142.062 15.7927 142.062 16.0002C142.062 17.176 142.096 18.3518 142.062 19.5276C141.993 21.2221 140.545 22.0867 138.96 21.3259C138.133 20.9455 137.857 20.2884 138.029 19.078C138.374 19.078 138.753 19.078 139.132 19.078C139.167 19.3547 139.201 19.5622 139.27 19.8043C139.374 20.1501 139.615 20.3576 139.994 20.3576C140.407 20.323 140.58 20.0809 140.614 19.7005C140.649 18.6631 140.649 17.6602 140.649 16.6227C140.614 16.1731 140.614 15.7582 140.614 15.3086Z" fill="#E9EFFF"/>
<path d="M131.928 16.3806C131.377 16.3806 130.825 16.3806 130.205 16.3806C130.205 18.0752 130.205 19.7005 130.205 21.3605C129.688 21.3605 129.309 21.3605 128.792 21.3605C128.792 19.7351 128.792 18.1097 128.792 16.4152C128.137 16.4152 127.586 16.4152 127 16.4152C127 16.0002 127 15.689 127 15.3086C128.654 15.3086 130.274 15.3086 131.963 15.3086C131.928 15.6198 131.928 15.9311 131.928 16.3806Z" fill="#E9EFFF"/>
<path d="M127.897 30.3515C127.897 30.8356 127.897 31.1469 127.897 31.5273C126.45 31.5273 125.037 31.5273 123.555 31.5273C123.555 29.4869 123.555 27.4812 123.555 25.4062C123.968 25.4062 124.416 25.4062 124.899 25.4062C124.899 27.0662 124.899 28.657 124.899 30.3515C125.933 30.3515 126.898 30.3515 127.897 30.3515Z" fill="#E9EFFF"/>
<path d="M92.0859 15.2754C93.7747 15.2754 95.36 15.2754 97.0143 15.2754C97.0143 15.6212 97.0143 15.9325 97.0143 16.3474C96.4629 16.382 95.9115 16.4166 95.2566 16.4512C95.2566 18.1111 95.2566 19.7019 95.2566 21.3964C94.7741 21.3964 94.3606 21.3964 93.8781 21.3964C93.8781 19.7711 93.8781 18.1457 93.8781 16.4166C93.2233 16.4166 92.6718 16.4166 92.0859 16.4166C92.0859 16.0016 92.0859 15.6904 92.0859 15.2754Z" fill="#E9EFFF"/>
<path d="M157.158 21.3613C156.71 21.3613 156.331 21.3613 155.883 21.3613C155.883 19.3209 155.883 17.3152 155.883 15.2402C156.296 15.2402 156.71 15.2402 157.158 15.2402C157.158 17.2806 157.158 19.3209 157.158 21.3613Z" fill="#E9EFFF"/>
<path d="M84.0234 15.2402C84.5059 15.2402 84.885 15.2402 85.3331 15.2402C85.3331 17.3152 85.3331 19.3209 85.3331 21.3959C84.885 21.3959 84.4715 21.3959 84.0234 21.3959C84.0234 19.3209 84.0234 17.3152 84.0234 15.2402Z" fill="#E9EFFF"/>
</svg>
