<svg width="92" height="76" viewBox="0 0 92 76" fill="none" xmlns="http://www.w3.org/2000/svg">
<g clip-path="url(#clip0_308_2028)">
<path d="M92 0.969727H0V75.9697H92V0.969727Z" fill="white"/>
<path d="M92 0.969727H0V57.6149H92V0.969727Z" fill="#0087BF"/>
<path d="M18.7868 15.4L20.1347 22.3929C20.1347 22.3929 22.1804 32.985 22.2169 33.0578C22.2899 33.0942 23.8909 27.0505 25.0586 22.3175C26.2628 17.5845 26.7417 15.3272 26.9242 14.6719L27.2526 13.5068H33.237H39.185L41.4474 22.3175C43.6368 31.2738 43.9698 33.0626 43.9698 33.0626C43.9698 33.0626 45.2059 27.1233 46.1547 22.3175L47.8697 13.5068H66.0055H84.9075V18.3855L84.9417 23.1617L77.6623 29.4983L70.0195 36.1161H77.1351H84.9075V40.8855V44.9996H70.0193H55.1312L55.2042 40.3758L55.2772 35.5335L60.8237 30.5093C63.8524 27.7423 67.2825 24.684 68.4138 23.701L70.4572 21.8806L63.7065 21.9534L56.9557 22.0627L54.1824 33.5311L51.4457 44.9996H44.7845C44.7845 44.9996 38.38 45.0432 38.0005 44.9996C37.891 44.7083 36.6305 39.7932 35.2804 34.4413L32.799 24.7568L30.2812 34.951L27.7998 44.9996H20.9761H14.1523L13.7509 43.434C13.0576 40.4122 7.14616 15.1816 6.9637 14.3078L6.78125 13.5068H12.5832H18.4217L18.7868 15.4Z" fill="white"/>
<path d="M84.9457 23.1611L70.0234 36.1155Z" fill="white"/>
<path d="M84.9457 23.1611L70.0234 36.1155" stroke="#0087BF" stroke-width="0.1"/>
<path d="M18.4258 13.5068L22.221 33.0578" stroke="#0087BF" stroke-width="0.1"/>
<path d="M92 59.585H0V75.9685H92V59.585Z" fill="#BECF42"/>
</g>
<defs>
<clipPath id="clip0_308_2028">
<rect width="92" height="75" fill="white" transform="translate(0 0.969727)"/>
</clipPath>
</defs>
</svg>
